<svg xmlns="http://www.w3.org/2000/svg" xmlns:xlink="http://www.w3.org/1999/xlink" width="1080" zoomAndPan="magnify" viewBox="0 0 810 809.999993" height="1080" preserveAspectRatio="xMidYMid meet" version="1.0"><path fill="#ffffff" d="M 631.425781 589.214844 C 625.933594 584.921875 621.046875 580.128906 616.140625 575.199219 C 615.214844 574.273438 614.292969 573.351562 613.367188 572.425781 C 610.839844 569.902344 608.316406 567.375 605.796875 564.847656 C 603.074219 562.117188 600.34375 559.390625 597.613281 556.660156 C 592.890625 551.941406 588.171875 547.214844 583.453125 542.488281 C 576.632812 535.65625 569.808594 528.828125 562.984375 522 C 551.90625 510.921875 540.835938 499.839844 529.765625 488.753906 C 519.015625 477.992188 508.261719 467.226562 497.507812 456.464844 C 496.84375 455.800781 496.179688 455.140625 495.496094 454.453125 C 492.167969 451.125 488.839844 447.792969 485.511719 444.464844 C 457.921875 416.855469 430.332031 389.242188 402.75 361.628906 C 399.886719 362.8125 398.078125 364.617188 395.902344 366.800781 C 395.332031 367.367188 395.332031 367.367188 394.75 367.945312 C 393.472656 369.222656 392.203125 370.503906 390.929688 371.785156 C 390.011719 372.707031 389.089844 373.628906 388.167969 374.554688 C 385.628906 377.09375 383.097656 379.636719 380.5625 382.183594 C 377.832031 384.925781 375.101562 387.664062 372.367188 390.402344 C 367.625 395.152344 362.890625 399.902344 358.15625 404.65625 C 351.300781 411.535156 344.441406 418.40625 337.582031 425.28125 C 326.441406 436.4375 315.300781 447.597656 304.167969 458.761719 C 303.5 459.429688 302.832031 460.097656 302.144531 460.789062 C 292.691406 470.265625 283.234375 479.75 273.785156 489.230469 C 273.117188 489.898438 272.453125 490.566406 271.765625 491.253906 C 271.101562 491.917969 270.4375 492.585938 269.753906 493.273438 C 258.671875 504.390625 247.578125 515.503906 236.484375 526.613281 C 229.640625 533.464844 222.804688 540.320312 215.972656 547.183594 C 211.289062 551.890625 206.597656 556.589844 201.90625 561.285156 C 199.195312 563.992188 196.492188 566.703125 193.792969 569.417969 C 191.320312 571.910156 188.839844 574.394531 186.355469 576.871094 C 185.460938 577.765625 184.570312 578.664062 183.679688 579.5625 C 170.691406 592.695312 155.257812 600.316406 136.640625 600.550781 C 120.558594 600.425781 106.5 595.179688 94.5 584.378906 C 93.988281 583.933594 93.476562 583.492188 92.949219 583.035156 C 82.160156 573.09375 75.460938 557.796875 74.710938 543.277344 C 74.453125 534.285156 75.074219 526.160156 78 517.628906 C 78.261719 516.839844 78.527344 516.050781 78.796875 515.238281 C 83.0625 503.847656 91.3125 495.625 99.761719 487.234375 C 100.90625 486.085938 102.046875 484.941406 103.1875 483.792969 C 106.304688 480.664062 109.429688 477.542969 112.558594 474.425781 C 115.941406 471.050781 119.308594 467.671875 122.683594 464.289062 C 128.902344 458.058594 135.125 451.835938 141.355469 445.613281 C 147.109375 439.867188 152.863281 434.117188 158.609375 428.363281 C 158.992188 427.984375 159.375 427.601562 159.769531 427.207031 C 161.320312 425.65625 162.871094 424.101562 164.421875 422.550781 C 178.953125 408.007812 193.496094 393.476562 208.039062 378.945312 C 220.953125 366.046875 233.859375 353.140625 246.757812 340.226562 C 261.265625 325.707031 275.773438 311.1875 290.292969 296.679688 C 291.84375 295.132812 293.390625 293.585938 294.9375 292.035156 C 295.320312 291.65625 295.703125 291.273438 296.09375 290.882812 C 301.84375 285.136719 307.585938 279.386719 313.332031 273.636719 C 319.863281 267.097656 326.398438 260.5625 332.941406 254.035156 C 336.28125 250.707031 339.617188 247.375 342.945312 244.035156 C 345.992188 240.976562 349.046875 237.925781 352.109375 234.882812 C 353.214844 233.78125 354.316406 232.675781 355.414062 231.570312 C 361.070312 225.878906 366.402344 220.746094 373.5 216.878906 C 374.3125 216.417969 375.125 215.957031 375.964844 215.484375 C 391.484375 208.039062 407.132812 207.875 423.320312 213.226562 C 434.082031 217.441406 441.550781 224.496094 449.546875 232.542969 C 450.703125 233.695312 451.855469 234.84375 453.011719 235.992188 C 456.171875 239.140625 459.320312 242.296875 462.46875 245.453125 C 465.871094 248.859375 469.28125 252.261719 472.6875 255.660156 C 478.976562 261.9375 485.253906 268.21875 491.53125 274.5 C 497.332031 280.308594 503.132812 286.113281 508.9375 291.914062 C 509.324219 292.296875 509.707031 292.683594 510.105469 293.078125 C 511.671875 294.644531 513.234375 296.207031 514.800781 297.773438 C 529.46875 312.433594 544.132812 327.101562 558.789062 341.777344 C 571.804688 354.804688 584.828125 367.828125 597.855469 380.839844 C 612.503906 395.472656 627.144531 410.109375 641.78125 424.753906 C 643.34375 426.316406 644.902344 427.878906 646.464844 429.441406 C 646.847656 429.824219 647.234375 430.210938 647.628906 430.605469 C 653.425781 436.40625 659.226562 442.203125 665.027344 447.996094 C 671.625 454.585938 678.21875 461.183594 684.804688 467.785156 C 688.167969 471.152344 691.527344 474.515625 694.898438 477.875 C 697.984375 480.953125 701.0625 484.035156 704.132812 487.125 C 705.246094 488.238281 706.359375 489.351562 707.476562 490.460938 C 721.542969 504.445312 729.707031 519.847656 729.777344 540.039062 C 729.460938 557.222656 722.238281 571.746094 710.25 583.628906 C 709.730469 584.171875 709.207031 584.71875 708.671875 585.28125 C 688.726562 604.839844 653.382812 605.425781 631.425781 589.214844 Z M 631.425781 589.214844 " fill-opacity="1" fill-rule="nonzero"/></svg>