<svg xmlns="http://www.w3.org/2000/svg" xmlns:xlink="http://www.w3.org/1999/xlink" width="1080" zoomAndPan="magnify" viewBox="0 0 810 809.999993" height="1080" preserveAspectRatio="xMidYMid meet" version="1.0"><path fill="#ffffff" d="M 178.574219 221.039062 C 184.066406 225.332031 188.953125 230.125 193.859375 235.054688 C 194.785156 235.980469 195.707031 236.902344 196.632812 237.828125 C 199.160156 240.351562 201.683594 242.878906 204.203125 245.40625 C 206.925781 248.136719 209.65625 250.863281 212.386719 253.59375 C 217.109375 258.3125 221.828125 263.039062 226.546875 267.765625 C 233.367188 274.597656 240.191406 281.425781 247.015625 288.253906 C 258.09375 299.332031 269.164062 310.414062 280.234375 321.5 C 290.984375 332.261719 301.738281 343.027344 312.492188 353.789062 C 313.15625 354.453125 313.820312 355.113281 314.503906 355.800781 C 317.832031 359.128906 321.160156 362.460938 324.488281 365.789062 C 352.078125 393.398438 379.667969 421.011719 407.25 448.628906 C 410.113281 447.441406 411.921875 445.636719 414.097656 443.453125 C 414.667969 442.886719 414.667969 442.886719 415.25 442.308594 C 416.527344 441.03125 417.796875 439.75 419.070312 438.46875 C 419.988281 437.546875 420.910156 436.625 421.832031 435.699219 C 424.371094 433.160156 426.902344 430.617188 429.4375 428.070312 C 432.164062 425.328125 434.898438 422.589844 437.632812 419.851562 C 442.375 415.101562 447.109375 410.351562 451.84375 405.597656 C 458.699219 398.71875 465.558594 391.847656 472.417969 384.972656 C 483.558594 373.816406 494.699219 362.65625 505.832031 351.492188 C 506.5 350.824219 507.167969 350.15625 507.855469 349.46875 C 517.308594 339.988281 526.765625 330.503906 536.214844 321.023438 C 536.882812 320.355469 537.546875 319.6875 538.234375 319 C 538.898438 318.335938 539.5625 317.667969 540.246094 316.980469 C 551.328125 305.863281 562.421875 294.75 573.515625 283.640625 C 580.359375 276.789062 587.195312 269.933594 594.027344 263.070312 C 598.710938 258.367188 603.402344 253.664062 608.09375 248.96875 C 610.804688 246.261719 613.507812 243.550781 616.207031 240.835938 C 618.679688 238.34375 621.160156 235.859375 623.644531 233.382812 C 624.539062 232.488281 625.429688 231.589844 626.320312 230.691406 C 639.308594 217.558594 654.742188 209.9375 673.359375 209.707031 C 689.441406 209.828125 703.5 215.074219 715.5 225.878906 C 716.011719 226.320312 716.523438 226.761719 717.050781 227.21875 C 727.839844 237.160156 734.539062 252.457031 735.289062 266.976562 C 735.546875 275.96875 734.925781 284.09375 732 292.628906 C 731.738281 293.414062 731.472656 294.203125 731.203125 295.015625 C 726.9375 306.40625 718.6875 314.628906 710.238281 323.019531 C 709.09375 324.167969 707.953125 325.3125 706.8125 326.460938 C 703.695312 329.589844 700.570312 332.710938 697.441406 335.828125 C 694.058594 339.203125 690.691406 342.582031 687.316406 345.964844 C 681.097656 352.195312 674.875 358.417969 668.644531 364.640625 C 662.890625 370.386719 657.136719 376.136719 651.390625 381.890625 C 651.007812 382.269531 650.625 382.652344 650.230469 383.046875 C 648.679688 384.597656 647.128906 386.152344 645.578125 387.703125 C 631.046875 402.246094 616.503906 416.777344 601.960938 431.308594 C 589.046875 444.207031 576.140625 457.113281 563.242188 470.027344 C 548.734375 484.546875 534.226562 499.066406 519.707031 513.574219 C 518.15625 515.121094 516.609375 516.667969 515.0625 518.21875 C 514.679688 518.597656 514.296875 518.980469 513.90625 519.371094 C 508.15625 525.117188 502.414062 530.867188 496.667969 536.617188 C 490.136719 543.15625 483.601562 549.691406 477.058594 556.21875 C 473.71875 559.546875 470.382812 562.878906 467.054688 566.21875 C 464.007812 569.277344 460.953125 572.328125 457.890625 575.371094 C 456.785156 576.472656 455.683594 577.578125 454.585938 578.683594 C 448.929688 584.375 443.597656 589.507812 436.5 593.378906 C 435.6875 593.835938 434.875 594.296875 434.035156 594.769531 C 418.515625 602.214844 402.867188 602.378906 386.679688 597.027344 C 375.917969 592.8125 368.449219 585.757812 360.453125 577.710938 C 359.296875 576.558594 358.144531 575.410156 356.988281 574.261719 C 353.828125 571.113281 350.679688 567.957031 347.53125 564.800781 C 344.128906 561.394531 340.71875 557.992188 337.3125 554.59375 C 331.023438 548.316406 324.746094 542.035156 318.46875 535.753906 C 312.667969 529.945312 306.867188 524.140625 301.0625 518.339844 C 300.675781 517.957031 300.292969 517.570312 299.894531 517.175781 C 298.328125 515.609375 296.765625 514.046875 295.199219 512.480469 C 280.53125 497.820312 265.867188 483.152344 251.210938 468.476562 C 238.195312 455.449219 225.171875 442.425781 212.144531 429.414062 C 197.496094 414.78125 182.855469 400.144531 168.21875 385.5 C 166.65625 383.9375 165.097656 382.375 163.535156 380.8125 C 163.152344 380.429688 162.765625 380.046875 162.371094 379.648438 C 156.574219 373.847656 150.773438 368.054688 144.972656 362.257812 C 138.375 355.667969 131.78125 349.070312 125.195312 342.46875 C 121.832031 339.101562 118.472656 335.738281 115.101562 332.378906 C 112.015625 329.300781 108.9375 326.21875 105.867188 323.128906 C 104.753906 322.015625 103.640625 320.902344 102.523438 319.792969 C 88.457031 305.808594 80.292969 290.40625 80.21875 270.214844 C 80.539062 253.03125 87.761719 238.507812 99.75 226.628906 C 100.269531 226.082031 100.792969 225.535156 101.328125 224.972656 C 121.273438 205.414062 156.617188 204.828125 178.574219 221.039062 Z M 178.574219 221.039062 " fill-opacity="1" fill-rule="nonzero"/></svg>