<svg width="95" height="33" viewBox="0 0 95 33" fill="none" xmlns="http://www.w3.org/2000/svg">
<path d="M20.3729 1.02827H28.0029V3.64827H23.3629V6.30827H27.6529V8.91827H23.3629V14.2283H20.3729V1.02827ZM30.0123 1.02827H33.0023V14.2283H30.0123V1.02827ZM35.3924 1.02827H38.3824V11.6083H43.1724V14.2283H35.3924V1.02827ZM46.1123 3.64827H42.9623V1.02827H52.2423V3.64827H49.1023V14.2283H46.1123V3.64827ZM53.8476 1.02827H62.2776V3.64827H56.8276V6.33827H62.2276V8.87827H56.8276V11.6083H62.2776V14.2283H53.8476V1.02827ZM64.4712 1.02827H69.8512C70.6178 1.02827 71.3012 1.18827 71.9012 1.50827C72.5012 1.82827 72.9745 2.2916 73.3212 2.89827C73.6745 3.49827 73.8512 4.21494 73.8512 5.04827C73.8512 5.8816 73.7012 6.56494 73.4012 7.09827C73.1078 7.62494 72.7545 8.0216 72.3412 8.28827C71.9278 8.54827 71.5445 8.70494 71.1912 8.75827L74.4012 14.2283H71.0412L68.1812 8.98827H67.4612V14.2283H64.4712V1.02827ZM67.4612 6.91827H68.7812C69.3145 6.91827 69.7812 6.78827 70.1812 6.52827C70.5812 6.26827 70.7812 5.80827 70.7812 5.14827C70.7812 4.48827 70.5845 4.0316 70.1912 3.77827C69.7978 3.51827 69.3345 3.38827 68.8012 3.38827H67.4612V6.91827Z" fill="#6995C9"/>
<path d="M23.199 27.2438C23.199 27.7288 23.2022 28.1569 23.2088 28.528C23.2153 28.8958 23.2364 29.1757 23.2722 29.3678H22.198C22.2338 29.1725 22.255 28.8909 22.2615 28.5231C22.268 28.152 22.2713 27.7255 22.2713 27.2438V23.7867C22.2713 23.5589 22.268 23.3473 22.2615 23.152C22.2582 22.9534 22.2517 22.776 22.242 22.6198C22.2322 22.4635 22.2175 22.3365 22.198 22.2389C22.4031 22.2324 22.6196 22.2242 22.8474 22.2145C23.0427 22.208 23.2625 22.2031 23.5066 22.1998C23.754 22.1933 24.0095 22.1901 24.2732 22.1901C24.6671 22.1901 25.0235 22.2356 25.3425 22.3268C25.6616 22.4147 25.9334 22.5498 26.158 22.7321C26.3826 22.9111 26.5551 23.1357 26.6756 23.4059C26.7993 23.6728 26.8611 23.9837 26.8611 24.3385C26.8611 24.6966 26.8009 25.0188 26.6804 25.3053C26.5633 25.5918 26.3924 25.8359 26.1677 26.0377C25.9464 26.2363 25.6746 26.3893 25.3523 26.4967C25.0333 26.6041 24.6736 26.6578 24.2732 26.6578C24.0942 26.6578 23.9103 26.6546 23.7215 26.6481C23.5327 26.6383 23.3585 26.6253 23.199 26.609V27.2438ZM23.199 25.8522C23.3552 25.8717 23.5147 25.8847 23.6775 25.8912C23.8403 25.8977 24.0144 25.901 24.2 25.901C24.5418 25.901 24.8233 25.8619 25.0447 25.7838C25.2693 25.7057 25.4467 25.5999 25.5769 25.4664C25.7104 25.3297 25.8032 25.1735 25.8552 24.9977C25.9073 24.8186 25.9334 24.6315 25.9334 24.4362C25.9334 24.2408 25.9041 24.0553 25.8455 23.8795C25.7901 23.7005 25.6957 23.5442 25.5623 23.4108C25.4321 23.2773 25.2579 23.1715 25.0398 23.0934C24.8217 23.012 24.5499 22.9713 24.2244 22.9713C24.1105 22.9713 24.0079 22.9729 23.9168 22.9762C23.8256 22.9762 23.741 22.9778 23.6629 22.9811C23.5847 22.9811 23.5082 22.9827 23.4334 22.986C23.3585 22.9892 23.2804 22.9925 23.199 22.9957V25.8522ZM28.6238 26.9996C28.6336 27.2861 28.6775 27.5351 28.7556 27.7467C28.837 27.9583 28.9461 28.1341 29.0828 28.274C29.2228 28.4108 29.3855 28.5133 29.5711 28.5817C29.7599 28.65 29.9649 28.6842 30.1863 28.6842C30.5021 28.6842 30.8113 28.6484 31.114 28.5768C31.4168 28.5052 31.7179 28.3782 32.0174 28.1959L32.115 29.0016C31.9425 29.0895 31.7732 29.1643 31.6072 29.2262C31.4412 29.288 31.2752 29.3385 31.1091 29.3776C30.9431 29.4166 30.7739 29.4443 30.6013 29.4606C30.4321 29.4801 30.253 29.4899 30.0642 29.4899C29.7517 29.4899 29.4539 29.4362 29.1707 29.3287C28.8875 29.2181 28.6384 29.0569 28.4236 28.8453C28.2088 28.6305 28.0379 28.3652 27.9109 28.0494C27.784 27.7337 27.7205 27.3675 27.7205 26.9508C27.7205 26.5472 27.7742 26.1826 27.8816 25.8571C27.9923 25.5283 28.1485 25.2483 28.3504 25.0172C28.5522 24.7828 28.798 24.6038 29.0877 24.4801C29.3774 24.3531 29.7029 24.2897 30.0642 24.2897C30.3312 24.2897 30.5672 24.3222 30.7722 24.3873C30.9773 24.4492 31.1547 24.5371 31.3045 24.651C31.4542 24.7617 31.5795 24.8919 31.6804 25.0416C31.7814 25.1914 31.8611 25.3525 31.9197 25.525C31.9815 25.6976 32.0255 25.8782 32.0515 26.067C32.0776 26.2526 32.0906 26.4365 32.0906 26.6188V26.8092C32.0906 26.8906 32.089 26.9541 32.0857 26.9996H28.6238ZM29.991 25.0221C29.6329 25.0221 29.3399 25.1279 29.1121 25.3395C28.8842 25.5478 28.7345 25.8733 28.6629 26.316H31.2117C31.2117 26.1077 31.1808 25.9238 31.1189 25.7643C31.0603 25.6015 30.9757 25.4648 30.865 25.3541C30.7576 25.2434 30.629 25.1604 30.4793 25.1051C30.3295 25.0498 30.1668 25.0221 29.991 25.0221ZM33.365 29.3678V26.3649C33.365 25.8831 33.3373 25.4762 33.282 25.1442C33.2299 24.8089 33.1762 24.5566 33.1209 24.3873H33.9998C34.0193 24.4394 34.0388 24.5078 34.0584 24.5924C34.0779 24.6738 34.0958 24.7601 34.1121 24.8512C34.1284 24.9423 34.143 25.0319 34.156 25.1198L34.1951 25.3395C34.3123 25.1702 34.4392 25.0205 34.5759 24.8903C34.7159 24.7601 34.8559 24.651 34.9959 24.5631C35.1391 24.472 35.2774 24.4036 35.4109 24.358C35.5476 24.3125 35.6713 24.2897 35.782 24.2897C35.9871 24.2897 36.1596 24.3352 36.2996 24.4264C36.4428 24.5143 36.5584 24.6347 36.6463 24.7877C36.7374 24.9375 36.8025 25.1116 36.8416 25.3102C36.8839 25.5055 36.905 25.7106 36.905 25.9254L36.1238 26.0963C36.1238 25.9759 36.1124 25.8603 36.0896 25.7496C36.0668 25.6357 36.0327 25.5364 35.9871 25.4518C35.9415 25.3639 35.8829 25.2955 35.8113 25.2467C35.7429 25.1946 35.6599 25.1686 35.5623 25.1686C35.4581 25.1686 35.3425 25.2093 35.2156 25.2906C35.0886 25.3688 34.9633 25.4729 34.8396 25.6031C34.7192 25.7334 34.6069 25.8798 34.5027 26.0426C34.3985 26.2054 34.3204 26.3698 34.2683 26.5358V29.3678H33.365ZM41.5681 29.3678H40.6648V26.5846C40.6648 26.2819 40.6534 26.0377 40.6306 25.8522C40.6078 25.6634 40.5688 25.5169 40.5134 25.4127C40.4614 25.3053 40.3897 25.2337 40.2986 25.1979C40.2075 25.1621 40.0935 25.1442 39.9568 25.1442C39.8364 25.1442 39.7159 25.1686 39.5955 25.2174C39.475 25.2662 39.3595 25.3362 39.2488 25.4274C39.1414 25.5153 39.0405 25.6211 38.9461 25.7448C38.8549 25.8652 38.7768 25.9987 38.7117 26.1451V29.3678H37.8084V26.3649C37.8084 25.8831 37.7807 25.4762 37.7254 25.1442C37.67 24.8089 37.6163 24.5566 37.5642 24.3873H38.4431C38.4789 24.4915 38.5099 24.6152 38.5359 24.7584C38.5619 24.8984 38.5831 25.027 38.5994 25.1442C38.7491 24.9716 38.8924 24.83 39.0291 24.7194C39.1658 24.6087 39.3009 24.5224 39.4343 24.4606C39.5711 24.3955 39.7062 24.3515 39.8396 24.3287C39.9731 24.3027 40.1098 24.2897 40.2498 24.2897C40.4093 24.2897 40.5541 24.3125 40.6843 24.358C40.8146 24.4036 40.9285 24.4638 41.0261 24.5387C41.1271 24.6136 41.2133 24.7015 41.2849 24.8024C41.3565 24.9 41.4119 25.0026 41.4509 25.11C41.6039 24.944 41.7521 24.8089 41.8953 24.7047C42.0385 24.5973 42.1785 24.5143 42.3152 24.4557C42.4519 24.3938 42.5854 24.3515 42.7156 24.3287C42.8491 24.3027 42.9793 24.2897 43.1062 24.2897C43.3536 24.2897 43.5619 24.3304 43.7312 24.4117C43.9005 24.4899 44.0356 24.6071 44.1365 24.7633C44.2407 24.9196 44.3139 25.1132 44.3562 25.3444C44.4018 25.5755 44.4246 25.8424 44.4246 26.1451V29.3678H43.5213V26.6823C43.5213 26.3665 43.5099 26.1093 43.4871 25.9108C43.4643 25.7122 43.4252 25.5559 43.3699 25.442C43.3178 25.3281 43.2462 25.25 43.155 25.2076C43.0639 25.1653 42.95 25.1442 42.8133 25.1442C42.6928 25.1442 42.574 25.1686 42.4568 25.2174C42.3396 25.263 42.2257 25.3297 42.115 25.4176C42.0076 25.5022 41.9067 25.6064 41.8123 25.7301C41.7211 25.8538 41.6397 25.9921 41.5681 26.1451V29.3678ZM49.117 25.1588C49.0779 25.149 49.034 25.1393 48.9851 25.1295C48.9363 25.1198 48.8777 25.11 48.8093 25.1002C48.7442 25.0905 48.6661 25.0839 48.575 25.0807C48.4871 25.0742 48.3829 25.0709 48.2625 25.0709C47.9435 25.0709 47.6765 25.136 47.4617 25.2662C47.2501 25.3932 47.0808 25.5641 46.9539 25.7789C46.8269 25.9905 46.7358 26.2347 46.6804 26.5114C46.6284 26.788 46.6023 27.0729 46.6023 27.3658C46.6023 27.5546 46.6202 27.7288 46.656 27.8883C46.6951 28.0446 46.7472 28.1813 46.8123 28.2985C46.8774 28.4124 46.9522 28.5019 47.0369 28.567C47.1215 28.6289 47.2127 28.6598 47.3103 28.6598C47.4536 28.6598 47.5968 28.6045 47.74 28.4938C47.8865 28.3831 48.0265 28.2415 48.1599 28.069C48.2934 27.8932 48.4187 27.6979 48.5359 27.483C48.6531 27.2649 48.754 27.0501 48.8386 26.8385C48.9265 26.6237 48.9949 26.4218 49.0437 26.233C49.0925 26.0442 49.117 25.8929 49.117 25.7789V25.1588ZM49.4832 29.3678C49.4474 29.2897 49.4148 29.1823 49.3855 29.0455C49.3595 28.9088 49.3367 28.764 49.3172 28.611C49.3009 28.4547 49.2879 28.3001 49.2781 28.1471C49.2683 27.9941 49.2634 27.8639 49.2634 27.7565V27.3658C49.1658 27.6198 49.0486 27.8737 48.9119 28.1276C48.7784 28.3782 48.6238 28.6045 48.448 28.8063C48.2755 29.0081 48.0818 29.1725 47.867 29.2994C47.6521 29.4264 47.4177 29.4899 47.1638 29.4899C46.9588 29.4899 46.7667 29.4443 46.5877 29.3531C46.4086 29.262 46.2524 29.1269 46.1189 28.9479C45.9887 28.7688 45.8862 28.5475 45.8113 28.2838C45.7364 28.0169 45.699 27.7109 45.699 27.3658C45.699 26.9785 45.7511 26.6009 45.8552 26.233C45.9594 25.8619 46.1189 25.5332 46.3338 25.2467C46.5486 24.957 46.822 24.7259 47.1541 24.5533C47.4861 24.3776 47.88 24.2897 48.3357 24.2897C48.6515 24.2897 48.9493 24.3108 49.2293 24.3531C49.5092 24.3922 49.7729 24.4443 50.0203 24.5094V26.7799C50.0203 27.3951 50.0496 27.9127 50.1082 28.3326C50.1668 28.7493 50.2433 29.0944 50.3377 29.3678H49.4832ZM51.5584 22.8004C51.5584 22.7093 51.573 22.6246 51.6023 22.5465C51.6316 22.4651 51.6723 22.3951 51.7244 22.3365C51.7797 22.2747 51.8448 22.2275 51.9197 22.1949C51.9946 22.1591 52.0776 22.1412 52.1687 22.1412C52.2599 22.1412 52.3445 22.1591 52.4226 22.1949C52.5008 22.2275 52.5675 22.2747 52.6228 22.3365C52.6782 22.3951 52.7221 22.4651 52.7547 22.5465C52.7872 22.6246 52.8035 22.7093 52.8035 22.8004C52.8035 22.8916 52.7872 22.9778 52.7547 23.0592C52.7221 23.1373 52.6782 23.2073 52.6228 23.2692C52.5675 23.3278 52.5008 23.375 52.4226 23.4108C52.3445 23.4433 52.2599 23.4596 52.1687 23.4596C52.0776 23.4596 51.9946 23.4433 51.9197 23.4108C51.8448 23.375 51.7797 23.3278 51.7244 23.2692C51.6723 23.2073 51.6316 23.1373 51.6023 23.0592C51.573 22.9778 51.5584 22.8916 51.5584 22.8004ZM52.6326 27.0485C52.6326 27.2047 52.6342 27.3903 52.6375 27.6051C52.644 27.8167 52.6505 28.0315 52.657 28.2496C52.6668 28.4677 52.6765 28.6761 52.6863 28.8746C52.6993 29.0732 52.714 29.2376 52.7302 29.3678H51.7293V26.7799C51.7293 26.5423 51.7276 26.3079 51.7244 26.0768C51.7244 25.8457 51.7211 25.6276 51.7146 25.4225C51.7114 25.2142 51.7049 25.0221 51.6951 24.8463C51.6853 24.6673 51.6723 24.5143 51.656 24.3873H52.6326V27.0485ZM57.7888 29.3678V26.6823C57.7888 26.3763 57.7677 26.124 57.7254 25.9254C57.6863 25.7268 57.6261 25.5706 57.5447 25.4567C57.4666 25.3395 57.3657 25.2581 57.242 25.2125C57.1215 25.167 56.9783 25.1442 56.8123 25.1442C56.6365 25.1442 56.464 25.1865 56.2947 25.2711C56.1287 25.3525 55.9757 25.4599 55.8357 25.5934C55.6957 25.7236 55.572 25.8717 55.4646 26.0377C55.3572 26.2037 55.2774 26.3698 55.2254 26.5358V29.3678H54.322V26.3649C54.322 25.8831 54.2944 25.4762 54.239 25.1442C54.1869 24.8089 54.1332 24.5566 54.0779 24.3873H54.9568C54.9763 24.4394 54.9959 24.5078 55.0154 24.5924C55.0349 24.6738 55.0528 24.7601 55.0691 24.8512C55.0854 24.9423 55.1 25.0319 55.1131 25.1198L55.1521 25.3395C55.4614 24.9684 55.7739 24.7015 56.0896 24.5387C56.4054 24.3727 56.7358 24.2897 57.0808 24.2897C57.6017 24.2897 58.0004 24.4606 58.2771 24.8024C58.5538 25.1409 58.6922 25.6455 58.6922 26.316V29.3678H57.7888ZM63.2869 25.1588C63.2478 25.149 63.2039 25.1393 63.155 25.1295C63.1062 25.1198 63.0476 25.11 62.9793 25.1002C62.9142 25.0905 62.836 25.0839 62.7449 25.0807C62.657 25.0742 62.5528 25.0709 62.4324 25.0709C62.1134 25.0709 61.8465 25.136 61.6316 25.2662C61.42 25.3932 61.2508 25.5641 61.1238 25.7789C60.9968 25.9905 60.9057 26.2347 60.8504 26.5114C60.7983 26.788 60.7722 27.0729 60.7722 27.3658C60.7722 27.5546 60.7901 27.7288 60.8259 27.8883C60.865 28.0446 60.9171 28.1813 60.9822 28.2985C61.0473 28.4124 61.1222 28.5019 61.2068 28.567C61.2914 28.6289 61.3826 28.6598 61.4802 28.6598C61.6235 28.6598 61.7667 28.6045 61.9099 28.4938C62.0564 28.3831 62.1964 28.2415 62.3299 28.069C62.4633 27.8932 62.5886 27.6979 62.7058 27.483C62.823 27.2649 62.9239 27.0501 63.0086 26.8385C63.0965 26.6237 63.1648 26.4218 63.2136 26.233C63.2625 26.0442 63.2869 25.8929 63.2869 25.7789V25.1588ZM63.6531 29.3678C63.6173 29.2897 63.5847 29.1823 63.5554 29.0455C63.5294 28.9088 63.5066 28.764 63.4871 28.611C63.4708 28.4547 63.4578 28.3001 63.448 28.1471C63.4383 27.9941 63.4334 27.8639 63.4334 27.7565V27.3658C63.3357 27.6198 63.2185 27.8737 63.0818 28.1276C62.9483 28.3782 62.7937 28.6045 62.6179 28.8063C62.4454 29.0081 62.2517 29.1725 62.0369 29.2994C61.822 29.4264 61.5877 29.4899 61.3338 29.4899C61.1287 29.4899 60.9366 29.4443 60.7576 29.3531C60.5786 29.262 60.4223 29.1269 60.2888 28.9479C60.1586 28.7688 60.0561 28.5475 59.9812 28.2838C59.9064 28.0169 59.8689 27.7109 59.8689 27.3658C59.8689 26.9785 59.921 26.6009 60.0252 26.233C60.1293 25.8619 60.2888 25.5332 60.5037 25.2467C60.7185 24.957 60.992 24.7259 61.324 24.5533C61.656 24.3776 62.0499 24.2897 62.5056 24.2897C62.8214 24.2897 63.1192 24.3108 63.3992 24.3531C63.6791 24.3922 63.9428 24.4443 64.1902 24.5094V26.7799C64.1902 27.3951 64.2195 27.9127 64.2781 28.3326C64.3367 28.7493 64.4132 29.0944 64.5076 29.3678H63.6531ZM69.1951 29.3678V26.6823C69.1951 26.3763 69.1739 26.124 69.1316 25.9254C69.0925 25.7268 69.0323 25.5706 68.9509 25.4567C68.8728 25.3395 68.7719 25.2581 68.6482 25.2125C68.5278 25.167 68.3845 25.1442 68.2185 25.1442C68.0427 25.1442 67.8702 25.1865 67.7009 25.2711C67.5349 25.3525 67.3819 25.4599 67.242 25.5934C67.102 25.7236 66.9783 25.8717 66.8709 26.0377C66.7634 26.2037 66.6837 26.3698 66.6316 26.5358V29.3678H65.7283V26.3649C65.7283 25.8831 65.7006 25.4762 65.6453 25.1442C65.5932 24.8089 65.5395 24.5566 65.4841 24.3873H66.3631C66.3826 24.4394 66.4021 24.5078 66.4216 24.5924C66.4412 24.6738 66.4591 24.7601 66.4754 24.8512C66.4916 24.9423 66.5063 25.0319 66.5193 25.1198L66.5584 25.3395C66.8676 24.9684 67.1801 24.7015 67.4959 24.5387C67.8116 24.3727 68.142 24.2897 68.4871 24.2897C69.0079 24.2897 69.4067 24.4606 69.6834 24.8024C69.9601 25.1409 70.0984 25.6455 70.0984 26.316V29.3678H69.1951Z" fill="#6995C9"/>
</svg>
