<svg width="95" height="31" viewBox="0 0 95 31" fill="none" xmlns="http://www.w3.org/2000/svg">
<path d="M28.9934 7.26246L34.0134 14.0825H30.4434L26.3834 8.31246V14.0825H23.3934V0.882458H26.3834V6.28246L30.1234 0.882458H33.4934L28.9934 7.26246ZM35.1855 0.882458H43.6155V3.50246H38.1655V6.19246H43.5655V8.73246H38.1655V11.4625H43.6155V14.0825H35.1855V0.882458ZM48.3291 3.50246H45.1791V0.882458H54.4591V3.50246H51.3191V14.0825H48.3291V3.50246ZM56.1744 0.882458H59.1644V14.0825H56.1744V0.882458ZM66.8645 7.26246L71.8845 14.0825H68.3145L64.2545 8.31246V14.0825H61.2645V0.882458H64.2545V6.28246L67.9945 0.882458H71.3645L66.8645 7.26246Z" fill="#6995C9"/>
<path d="M39.2689 24.3661C39.2689 24.952 39.181 25.4761 39.0052 25.9384C38.8327 26.4006 38.6015 26.7928 38.3118 27.1151C38.0254 27.4341 37.6982 27.6783 37.3304 27.8475C36.9626 28.0168 36.5833 28.1014 36.1927 28.1014C35.7988 28.1014 35.4212 28.0217 35.0599 27.8622C34.6986 27.7027 34.3795 27.4683 34.1028 27.1591C33.8262 26.8498 33.6048 26.4706 33.4388 26.0214C33.2728 25.5689 33.1898 25.0497 33.1898 24.4637C33.1898 24.0731 33.2288 23.7102 33.307 23.3749C33.3883 23.0396 33.499 22.7336 33.639 22.4569C33.7822 22.1802 33.9515 21.9344 34.1468 21.7196C34.3421 21.5048 34.5537 21.3241 34.7816 21.1776C35.0127 21.0311 35.2552 20.9205 35.5091 20.8456C35.7663 20.7675 36.0267 20.7284 36.2903 20.7284C36.6777 20.7284 37.0504 20.8081 37.4085 20.9677C37.7698 21.1272 38.0872 21.3615 38.3607 21.6708C38.6374 21.98 38.8571 22.3609 39.0198 22.8134C39.1859 23.2626 39.2689 23.7802 39.2689 24.3661ZM38.3167 24.4882C38.3167 24.0389 38.2663 23.6353 38.1653 23.2772C38.0677 22.9159 37.9277 22.6099 37.7454 22.3593C37.5631 22.1086 37.3434 21.9165 37.0862 21.7831C36.8323 21.6496 36.5508 21.5829 36.2415 21.5829C35.9323 21.5829 35.6491 21.648 35.3919 21.7782C35.1348 21.9052 34.9134 22.0891 34.7278 22.33C34.5423 22.5676 34.3974 22.8573 34.2933 23.1991C34.1924 23.5376 34.1419 23.9185 34.1419 24.3417C34.1419 24.7876 34.1907 25.1897 34.2884 25.5477C34.3893 25.9058 34.5309 26.2118 34.7132 26.4657C34.8987 26.7163 35.1201 26.91 35.3773 27.0468C35.6344 27.1802 35.9225 27.2469 36.2415 27.2469C36.541 27.2469 36.8177 27.1851 37.0716 27.0614C37.3255 26.9344 37.5436 26.7538 37.7259 26.5194C37.9114 26.2818 38.0563 25.9921 38.1605 25.6503C38.2646 25.3085 38.3167 24.9211 38.3167 24.4882ZM41.4661 20.1669V23.951C41.5801 23.8013 41.7038 23.663 41.8372 23.536C41.9707 23.4091 42.1139 23.2984 42.2669 23.204C42.4232 23.1096 42.5908 23.0363 42.7698 22.9843C42.9489 22.9289 43.1409 22.9012 43.346 22.9012C43.5934 22.9012 43.8196 22.9615 44.0247 23.0819C44.2298 23.2024 44.4072 23.3716 44.557 23.5897C44.7067 23.8046 44.8223 24.0617 44.9036 24.3612C44.9883 24.6607 45.0306 24.9878 45.0306 25.3427C45.0306 25.7626 44.9736 26.1418 44.8597 26.4803C44.749 26.8189 44.5911 27.1086 44.3861 27.3495C44.181 27.5904 43.932 27.7759 43.639 27.9061C43.3493 28.0363 43.0237 28.1014 42.6624 28.1014C42.4639 28.1014 42.2718 28.0868 42.0862 28.0575C41.9007 28.0315 41.72 27.9973 41.5443 27.955C41.3717 27.9094 41.2041 27.8622 41.0413 27.8134C40.8786 27.7613 40.7191 27.7108 40.5628 27.662V21.8856C40.5628 21.6773 40.5596 21.469 40.553 21.2606C40.5498 21.049 40.5433 20.8488 40.5335 20.66C40.5237 20.468 40.5091 20.3036 40.4896 20.1669H41.4661ZM41.4661 27.076C41.5866 27.1249 41.6956 27.1672 41.7933 27.203C41.8942 27.2356 41.9918 27.2632 42.0862 27.286C42.1806 27.3055 42.2734 27.3202 42.3646 27.33C42.459 27.3397 42.5583 27.3446 42.6624 27.3446C42.8773 27.3446 43.0758 27.3007 43.2581 27.2128C43.4404 27.1249 43.5967 27.0012 43.7269 26.8417C43.8603 26.6822 43.9645 26.4901 44.0394 26.2655C44.1142 26.0376 44.1517 25.787 44.1517 25.5135C44.1517 25.2434 44.1273 24.9992 44.0784 24.7811C44.0296 24.563 43.958 24.3791 43.8636 24.2294C43.7724 24.0764 43.6585 23.9592 43.5218 23.8778C43.3851 23.7964 43.2288 23.7557 43.053 23.7557C42.9001 23.7557 42.7471 23.7899 42.5941 23.8583C42.4411 23.9234 42.2946 24.0162 42.1546 24.1366C42.0179 24.257 41.8893 24.4019 41.7689 24.5712C41.6484 24.7372 41.5475 24.9211 41.4661 25.1229V27.076ZM46.4027 21.412C46.4027 21.3208 46.4173 21.2362 46.4466 21.1581C46.4759 21.0767 46.5166 21.0067 46.5687 20.9481C46.624 20.8863 46.6891 20.8391 46.764 20.8065C46.8389 20.7707 46.9219 20.7528 47.013 20.7528C47.1042 20.7528 47.1888 20.7707 47.2669 20.8065C47.345 20.8391 47.4118 20.8863 47.4671 20.9481C47.5224 21.0067 47.5664 21.0767 47.5989 21.1581C47.6315 21.2362 47.6478 21.3208 47.6478 21.412C47.6478 21.5031 47.6315 21.5894 47.5989 21.6708C47.5664 21.7489 47.5224 21.8189 47.4671 21.8807C47.4118 21.9393 47.345 21.9865 47.2669 22.0223C47.1888 22.0549 47.1042 22.0712 47.013 22.0712C46.9219 22.0712 46.8389 22.0549 46.764 22.0223C46.6891 21.9865 46.624 21.9393 46.5687 21.8807C46.5166 21.8189 46.4759 21.7489 46.4466 21.6708C46.4173 21.5894 46.4027 21.5031 46.4027 21.412ZM47.4769 27.8573C47.4769 28.313 47.4329 28.6955 47.345 29.0048C47.2604 29.314 47.1383 29.5614 46.9788 29.7469C46.8193 29.9358 46.6256 30.0708 46.3978 30.1522C46.1732 30.2336 45.9225 30.2743 45.6458 30.2743C45.5775 30.2743 45.4977 30.2662 45.4066 30.2499C45.3122 30.2369 45.2161 30.2173 45.1185 30.1913C45.0176 30.1652 44.9199 30.1311 44.8255 30.0887C44.7278 30.0497 44.6432 30.0057 44.5716 29.9569L44.7425 29.1512C44.7946 29.1903 44.8613 29.2277 44.9427 29.2635C45.0241 29.2994 45.1087 29.3303 45.1966 29.3563C45.2845 29.3856 45.3724 29.4068 45.4603 29.4198C45.5482 29.4361 45.6263 29.4442 45.6946 29.4442C45.8249 29.4442 45.9437 29.4182 46.0511 29.3661C46.1585 29.3173 46.2513 29.2391 46.3294 29.1317C46.4075 29.0243 46.4678 28.8859 46.5101 28.7167C46.5524 28.5474 46.5736 28.3423 46.5736 28.1014V25.3915C46.5736 25.1538 46.5719 24.9195 46.5687 24.6884C46.5687 24.4572 46.5654 24.2391 46.5589 24.0341C46.5556 23.8257 46.5491 23.6337 46.5394 23.4579C46.5296 23.2788 46.5166 23.1259 46.5003 22.9989H47.4769V27.8573ZM49.7767 25.6112C49.7864 25.8977 49.8304 26.1467 49.9085 26.3583C49.9899 26.5699 50.0989 26.7456 50.2357 26.8856C50.3756 27.0223 50.5384 27.1249 50.7239 27.1932C50.9127 27.2616 51.1178 27.2958 51.3392 27.2958C51.6549 27.2958 51.9642 27.26 52.2669 27.1884C52.5696 27.1167 52.8708 26.9898 53.1702 26.8075L53.2679 27.6132C53.0954 27.701 52.9261 27.7759 52.7601 27.8378C52.5941 27.8996 52.428 27.9501 52.262 27.9891C52.096 28.0282 51.9267 28.0559 51.7542 28.0721C51.5849 28.0917 51.4059 28.1014 51.2171 28.1014C50.9046 28.1014 50.6068 28.0477 50.3236 27.9403C50.0403 27.8296 49.7913 27.6685 49.5765 27.4569C49.3616 27.2421 49.1907 26.9768 49.0638 26.661C48.9368 26.3453 48.8734 25.979 48.8734 25.5624C48.8734 25.1587 48.9271 24.7941 49.0345 24.4686C49.1452 24.1399 49.3014 23.8599 49.5032 23.6288C49.7051 23.3944 49.9508 23.2154 50.2405 23.0917C50.5303 22.9647 50.8558 22.9012 51.2171 22.9012C51.484 22.9012 51.72 22.9338 51.9251 22.9989C52.1302 23.0608 52.3076 23.1486 52.4573 23.2626C52.6071 23.3733 52.7324 23.5035 52.8333 23.6532C52.9342 23.8029 53.014 23.9641 53.0726 24.1366C53.1344 24.3091 53.1784 24.4898 53.2044 24.6786C53.2305 24.8641 53.2435 25.0481 53.2435 25.2303V25.4208C53.2435 25.5022 53.2418 25.5656 53.2386 25.6112H49.7767ZM51.1439 23.6337C50.7858 23.6337 50.4928 23.7395 50.265 23.951C50.0371 24.1594 49.8874 24.4849 49.8157 24.9276H52.3646C52.3646 24.7193 52.3336 24.5354 52.2718 24.3759C52.2132 24.2131 52.1286 24.0764 52.0179 23.9657C51.9105 23.855 51.7819 23.772 51.6321 23.7167C51.4824 23.6613 51.3196 23.6337 51.1439 23.6337ZM54.4691 27.9794V22.4618C54.4691 21.9344 54.4658 21.4738 54.4593 21.08C54.4528 20.6828 54.4316 20.3785 54.3958 20.1669H55.3724V25.0448L57.3499 22.9989H58.5706L56.1536 25.1815L58.7171 27.9794H57.5208L55.3724 25.4403V27.9794H54.4691Z" fill="#6995C9"/>
</svg>
