<svg width="95" height="32" viewBox="0 0 95 32" fill="none" xmlns="http://www.w3.org/2000/svg">
<path d="M17.4117 0.633343H22.2117C23.0583 0.633343 23.8217 0.783343 24.5017 1.08334C25.1817 1.37668 25.7217 1.82668 26.1217 2.43334C26.5283 3.03334 26.7317 3.78668 26.7317 4.69334C26.7317 5.59334 26.5283 6.36001 26.1217 6.99334C25.7217 7.62001 25.1817 8.10001 24.5017 8.43334C23.8217 8.76001 23.0583 8.92334 22.2117 8.92334H20.4017V13.8333H17.4117V0.633343ZM20.4017 6.56334H21.3817C21.7883 6.56334 22.1517 6.50334 22.4717 6.38334C22.7983 6.26334 23.0583 6.07334 23.2517 5.81334C23.445 5.54668 23.5417 5.19668 23.5417 4.76334C23.5417 4.32334 23.445 3.97668 23.2517 3.72334C23.0583 3.46334 22.7983 3.27668 22.4717 3.16334C22.1517 3.05001 21.7883 2.99334 21.3817 2.99334H20.4017V6.56334ZM28.5564 0.633343H31.5464V13.8333H28.5564V0.633343ZM36.6265 3.37334L36.8465 3.41334V13.8333H33.8565V0.633343H37.9365L43.2865 11.0333L43.0665 11.0733V0.633343H46.0565V13.8333H41.9565L36.6265 3.37334ZM48.3396 0.633343H52.3096C53.7163 0.633343 54.8796 0.916676 55.7996 1.48334C56.7263 2.04334 57.4196 2.82001 57.8796 3.81334C58.3396 4.80668 58.5696 5.94334 58.5696 7.22334C58.5696 8.51001 58.3396 9.65001 57.8796 10.6433C57.4196 11.6367 56.7263 12.4167 55.7996 12.9833C54.8796 13.55 53.7163 13.8333 52.3096 13.8333H48.3396V0.633343ZM51.3196 3.28334V11.1833H52.0396C52.793 11.1833 53.4163 11.0133 53.9096 10.6733C54.403 10.3267 54.773 9.85668 55.0196 9.26334C55.273 8.66334 55.3996 7.99001 55.3996 7.24334C55.3996 6.49001 55.2763 5.81668 55.0296 5.22334C54.7896 4.62334 54.4196 4.15001 53.9196 3.80334C53.4196 3.45668 52.793 3.28334 52.0396 3.28334H51.3196ZM64.0545 0.633343H67.0245L72.2345 13.8333H69.0445L68.0845 11.1833H63.0045L62.0345 13.8333H58.8345L64.0545 0.633343ZM64.0045 8.56334H67.0945L65.5645 4.23334H65.5345L64.0045 8.56334ZM73.4001 0.633343H76.3901V13.8333H73.4001V0.633343Z" fill="#6995C9"/>
<path d="M40.018 25.2756C40.018 25.8615 39.9301 26.3856 39.7544 26.8479C39.5818 27.3101 39.3507 27.7024 39.061 28.0246C38.7745 28.3436 38.4474 28.5878 38.0795 28.757C37.7117 28.9263 37.3325 29.011 36.9419 29.011C36.548 29.011 36.1704 28.9312 35.809 28.7717C35.4477 28.6122 35.1287 28.3778 34.852 28.0686C34.5753 27.7593 34.354 27.3801 34.1879 26.9309C34.0219 26.4784 33.9389 25.9592 33.9389 25.3733C33.9389 24.9826 33.978 24.6197 34.0561 24.2844C34.1375 23.9491 34.2482 23.6431 34.3881 23.3664C34.5314 23.0897 34.7006 22.844 34.896 22.6291C35.0913 22.4143 35.3029 22.2336 35.5307 22.0871C35.7618 21.9406 36.0044 21.83 36.2583 21.7551C36.5154 21.677 36.7758 21.6379 37.0395 21.6379C37.4269 21.6379 37.7996 21.7177 38.1577 21.8772C38.519 22.0367 38.8364 22.271 39.1098 22.5803C39.3865 22.8895 39.6062 23.2704 39.769 23.7229C39.935 24.1721 40.018 24.6897 40.018 25.2756ZM39.0659 25.3977C39.0659 24.9485 39.0154 24.5448 38.9145 24.1867C38.8169 23.8254 38.6769 23.5194 38.4946 23.2688C38.3123 23.0181 38.0926 22.8261 37.8354 22.6926C37.5815 22.5591 37.2999 22.4924 36.9907 22.4924C36.6814 22.4924 36.3982 22.5575 36.1411 22.6877C35.8839 22.8147 35.6626 22.9986 35.477 23.2395C35.2915 23.4771 35.1466 23.7668 35.0424 24.1086C34.9415 24.4472 34.8911 24.828 34.8911 25.2512C34.8911 25.6972 34.9399 26.0992 35.0376 26.4572C35.1385 26.8153 35.2801 27.1213 35.4624 27.3752C35.6479 27.6259 35.8693 27.8195 36.1264 27.9563C36.3836 28.0897 36.6717 28.1565 36.9907 28.1565C37.2902 28.1565 37.5669 28.0946 37.8208 27.9709C38.0747 27.844 38.2928 27.6633 38.4751 27.4289C38.6606 27.1913 38.8055 26.9016 38.9096 26.5598C39.0138 26.218 39.0659 25.8306 39.0659 25.3977ZM42.2153 21.0764V24.8606C42.3292 24.7108 42.4529 24.5725 42.5864 24.4455C42.7198 24.3186 42.8631 24.2079 43.0161 24.1135C43.1723 24.0191 43.34 23.9459 43.519 23.8938C43.698 23.8384 43.8901 23.8108 44.0952 23.8108C44.3426 23.8108 44.5688 23.871 44.7739 23.9914C44.979 24.1119 45.1564 24.2811 45.3061 24.4992C45.4558 24.7141 45.5714 24.9712 45.6528 25.2707C45.7374 25.5702 45.7797 25.8973 45.7797 26.2522C45.7797 26.6721 45.7228 27.0513 45.6088 27.3899C45.4982 27.7284 45.3403 28.0181 45.1352 28.259C44.9301 28.4999 44.6811 28.6854 44.3881 28.8156C44.0984 28.9459 43.7729 29.011 43.4116 29.011C43.213 29.011 43.021 28.9963 42.8354 28.967C42.6499 28.941 42.4692 28.9068 42.2934 28.8645C42.1209 28.8189 41.9532 28.7717 41.7905 28.7229C41.6277 28.6708 41.4682 28.6203 41.312 28.5715V22.7951C41.312 22.5868 41.3087 22.3785 41.3022 22.1701C41.2989 21.9585 41.2924 21.7584 41.2827 21.5695C41.2729 21.3775 41.2583 21.2131 41.2387 21.0764H42.2153ZM42.2153 27.9856C42.3357 28.0344 42.4448 28.0767 42.5424 28.1125C42.6433 28.1451 42.741 28.1727 42.8354 28.1955C42.9298 28.2151 43.0226 28.2297 43.1137 28.2395C43.2081 28.2492 43.3074 28.2541 43.4116 28.2541C43.6264 28.2541 43.825 28.2102 44.0073 28.1223C44.1896 28.0344 44.3458 27.9107 44.476 27.7512C44.6095 27.5917 44.7137 27.3996 44.7885 27.175C44.8634 26.9472 44.9008 26.6965 44.9008 26.4231C44.9008 26.1529 44.8764 25.9087 44.8276 25.6906C44.7788 25.4725 44.7072 25.2886 44.6127 25.1389C44.5216 24.9859 44.4077 24.8687 44.271 24.7873C44.1342 24.7059 43.978 24.6653 43.8022 24.6653C43.6492 24.6653 43.4962 24.6994 43.3432 24.7678C43.1902 24.8329 43.0437 24.9257 42.9038 25.0461C42.767 25.1666 42.6385 25.3114 42.518 25.4807C42.3976 25.6467 42.2967 25.8306 42.2153 26.0324V27.9856ZM47.1518 22.3215C47.1518 22.2304 47.1665 22.1457 47.1958 22.0676C47.2251 21.9862 47.2657 21.9162 47.3178 21.8576C47.3732 21.7958 47.4383 21.7486 47.5131 21.716C47.588 21.6802 47.671 21.6623 47.7622 21.6623C47.8533 21.6623 47.9379 21.6802 48.0161 21.716C48.0942 21.7486 48.1609 21.7958 48.2163 21.8576C48.2716 21.9162 48.3155 21.9862 48.3481 22.0676C48.3807 22.1457 48.3969 22.2304 48.3969 22.3215C48.3969 22.4126 48.3807 22.4989 48.3481 22.5803C48.3155 22.6584 48.2716 22.7284 48.2163 22.7903C48.1609 22.8488 48.0942 22.896 48.0161 22.9319C47.9379 22.9644 47.8533 22.9807 47.7622 22.9807C47.671 22.9807 47.588 22.9644 47.5131 22.9319C47.4383 22.896 47.3732 22.8488 47.3178 22.7903C47.2657 22.7284 47.2251 22.6584 47.1958 22.5803C47.1665 22.4989 47.1518 22.4126 47.1518 22.3215ZM48.226 28.7668C48.226 29.2225 48.1821 29.605 48.0942 29.9143C48.0096 30.2235 47.8875 30.4709 47.728 30.6565C47.5685 30.8453 47.3748 30.9804 47.1469 31.0617C46.9223 31.1431 46.6717 31.1838 46.395 31.1838C46.3266 31.1838 46.2469 31.1757 46.1557 31.1594C46.0613 31.1464 45.9653 31.1268 45.8676 31.1008C45.7667 31.0748 45.6691 31.0406 45.5747 30.9983C45.477 30.9592 45.3924 30.9153 45.3208 30.8664L45.4917 30.0608C45.5437 30.0998 45.6105 30.1373 45.6919 30.1731C45.7732 30.2089 45.8579 30.2398 45.9458 30.2658C46.0336 30.2951 46.1215 30.3163 46.2094 30.3293C46.2973 30.3456 46.3754 30.3537 46.4438 30.3537C46.574 30.3537 46.6928 30.3277 46.8002 30.2756C46.9077 30.2268 47.0004 30.1487 47.0786 30.0412C47.1567 29.9338 47.2169 29.7955 47.2592 29.6262C47.3016 29.4569 47.3227 29.2518 47.3227 29.011V26.301C47.3227 26.0634 47.3211 25.829 47.3178 25.5979C47.3178 25.3668 47.3146 25.1487 47.3081 24.9436C47.3048 24.7352 47.2983 24.5432 47.2885 24.3674C47.2788 24.1884 47.2657 24.0354 47.2495 23.9084H48.226V28.7668ZM50.5258 26.5207C50.5356 26.8072 50.5795 27.0562 50.6577 27.2678C50.7391 27.4794 50.8481 27.6552 50.9848 27.7951C51.1248 27.9319 51.2876 28.0344 51.4731 28.1028C51.6619 28.1711 51.867 28.2053 52.0883 28.2053C52.4041 28.2053 52.7133 28.1695 53.0161 28.0979C53.3188 28.0263 53.6199 27.8993 53.9194 27.717L54.017 28.5227C53.8445 28.6106 53.6752 28.6854 53.5092 28.7473C53.3432 28.8091 53.1772 28.8596 53.0112 28.8987C52.8452 28.9377 52.6759 28.9654 52.5034 28.9817C52.3341 29.0012 52.1551 29.011 51.9663 29.011C51.6538 29.011 51.3559 28.9572 51.0727 28.8498C50.7895 28.7391 50.5405 28.578 50.3256 28.3664C50.1108 28.1516 49.9399 27.8863 49.8129 27.5705C49.686 27.2548 49.6225 26.8886 49.6225 26.4719C49.6225 26.0682 49.6762 25.7037 49.7836 25.3781C49.8943 25.0494 50.0506 24.7694 50.2524 24.5383C50.4542 24.3039 50.7 24.1249 50.9897 24.0012C51.2794 23.8742 51.6049 23.8108 51.9663 23.8108C52.2332 23.8108 52.4692 23.8433 52.6743 23.9084C52.8794 23.9703 53.0568 24.0582 53.2065 24.1721C53.3562 24.2828 53.4816 24.413 53.5825 24.5627C53.6834 24.7125 53.7631 24.8736 53.8217 25.0461C53.8836 25.2186 53.9275 25.3993 53.9536 25.5881C53.9796 25.7737 53.9926 25.9576 53.9926 26.1399V26.3303C53.9926 26.4117 53.991 26.4751 53.9877 26.5207H50.5258ZM51.893 24.5432C51.5349 24.5432 51.242 24.649 51.0141 24.8606C50.7863 25.0689 50.6365 25.3944 50.5649 25.8371H53.1137C53.1137 25.6288 53.0828 25.4449 53.021 25.2854C52.9624 25.1226 52.8777 24.9859 52.767 24.8752C52.6596 24.7645 52.531 24.6815 52.3813 24.6262C52.2316 24.5709 52.0688 24.5432 51.893 24.5432ZM55.2182 28.8889V23.3713C55.2182 22.844 55.215 22.3834 55.2085 21.9895C55.2019 21.5923 55.1808 21.288 55.145 21.0764H56.1215V25.9543L58.0991 23.9084H59.3198L56.9028 26.091L59.4663 28.8889H58.27L56.1215 26.3498V28.8889H55.2182Z" fill="#6995C9"/>
</svg>
