<svg xmlns="http://www.w3.org/2000/svg" xmlns:xlink="http://www.w3.org/1999/xlink" width="1080" zoomAndPan="magnify" viewBox="0 0 810 809.999993" height="1080" preserveAspectRatio="xMidYMid meet" version="1.0"><defs><clipPath id="0067fa3422"><path d="M 25.300781 374 L 203 374 L 203 547 L 25.300781 547 Z M 25.300781 374 " clip-rule="nonzero"/></clipPath><clipPath id="d5bc63a5d6"><path d="M 370 195.460938 L 662 195.460938 L 662 433 L 370 433 Z M 370 195.460938 " clip-rule="nonzero"/></clipPath></defs><g clip-path="url(#0067fa3422)"><path fill="#ffffff" d="M 202.136719 460.613281 C 202.136719 462.015625 202.101562 463.417969 202.03125 464.816406 C 201.960938 466.21875 201.851562 467.617188 201.710938 469.011719 C 201.570312 470.40625 201.390625 471.796875 201.179688 473.183594 C 200.96875 474.570312 200.722656 475.953125 200.4375 477.328125 C 200.15625 478.703125 199.839844 480.070312 199.488281 481.429688 C 199.136719 482.792969 198.75 484.140625 198.332031 485.484375 C 197.910156 486.828125 197.457031 488.15625 196.972656 489.476562 C 196.484375 490.796875 195.964844 492.105469 195.410156 493.402344 C 194.855469 494.695312 194.269531 495.976562 193.652344 497.246094 C 193.035156 498.511719 192.382812 499.765625 191.703125 501.003906 C 191.019531 502.238281 190.308594 503.457031 189.5625 504.660156 C 188.820312 505.863281 188.046875 507.046875 187.242188 508.214844 C 186.441406 509.378906 185.605469 510.527344 184.746094 511.652344 C 183.882812 512.777344 182.996094 513.882812 182.078125 514.96875 C 181.160156 516.050781 180.214844 517.113281 179.242188 518.152344 C 178.273438 519.191406 177.277344 520.207031 176.253906 521.199219 C 175.230469 522.1875 174.183594 523.15625 173.113281 524.097656 C 172.039062 525.039062 170.945312 525.953125 169.828125 526.84375 C 168.710938 527.734375 167.570312 528.597656 166.40625 529.429688 C 165.246094 530.265625 164.0625 531.074219 162.863281 531.851562 C 161.660156 532.632812 160.4375 533.382812 159.199219 534.101562 C 157.957031 534.824219 156.699219 535.515625 155.421875 536.175781 C 154.148438 536.835938 152.855469 537.464844 151.550781 538.066406 C 150.242188 538.664062 148.917969 539.234375 147.582031 539.769531 C 146.246094 540.308594 144.898438 540.8125 143.535156 541.285156 C 142.175781 541.757812 140.800781 542.195312 139.417969 542.601562 C 138.035156 543.011719 136.640625 543.382812 135.238281 543.722656 C 133.835938 544.066406 132.425781 544.371094 131.003906 544.644531 C 129.585938 544.917969 128.164062 545.160156 126.730469 545.363281 C 125.300781 545.570312 123.867188 545.742188 122.425781 545.878906 C 120.988281 546.015625 119.546875 546.121094 118.101562 546.1875 C 116.65625 546.257812 115.210938 546.292969 113.765625 546.292969 C 112.320312 546.292969 110.875 546.257812 109.429688 546.1875 C 107.984375 546.121094 106.542969 546.015625 105.105469 545.878906 C 103.664062 545.742188 102.230469 545.570312 100.796875 545.363281 C 99.367188 545.160156 97.945312 544.917969 96.523438 544.644531 C 95.105469 544.371094 93.695312 544.066406 92.292969 543.726562 C 90.890625 543.382812 89.496094 543.011719 88.113281 542.601562 C 86.730469 542.195312 85.355469 541.757812 83.992188 541.285156 C 82.632812 540.8125 81.285156 540.308594 79.949219 539.769531 C 78.609375 539.234375 77.289062 538.664062 75.980469 538.066406 C 74.675781 537.464844 73.382812 536.835938 72.109375 536.175781 C 70.832031 535.515625 69.574219 534.824219 68.332031 534.101562 C 67.09375 533.382812 65.871094 532.632812 64.667969 531.851562 C 63.464844 531.074219 62.285156 530.265625 61.121094 529.429688 C 59.960938 528.597656 58.820312 527.734375 57.703125 526.84375 C 56.585938 525.953125 55.492188 525.039062 54.417969 524.097656 C 53.347656 523.15625 52.300781 522.1875 51.277344 521.199219 C 50.253906 520.207031 49.257812 519.191406 48.285156 518.152344 C 47.316406 517.113281 46.371094 516.050781 45.453125 514.96875 C 44.535156 513.882812 43.648438 512.777344 42.785156 511.652344 C 41.921875 510.527344 41.089844 509.378906 40.289062 508.214844 C 39.484375 507.046875 38.710938 505.863281 37.96875 504.660156 C 37.222656 503.457031 36.511719 502.238281 35.828125 501.003906 C 35.148438 499.765625 34.496094 498.511719 33.878906 497.246094 C 33.261719 495.976562 32.675781 494.695312 32.121094 493.402344 C 31.566406 492.105469 31.046875 490.796875 30.558594 489.476562 C 30.074219 488.15625 29.621094 486.828125 29.199219 485.484375 C 28.78125 484.140625 28.394531 482.792969 28.042969 481.429688 C 27.691406 480.070312 27.375 478.703125 27.09375 477.328125 C 26.808594 475.953125 26.5625 474.570312 26.351562 473.183594 C 26.136719 471.796875 25.960938 470.40625 25.820312 469.011719 C 25.679688 467.617188 25.570312 466.21875 25.5 464.816406 C 25.429688 463.417969 25.394531 462.015625 25.394531 460.613281 C 25.394531 459.210938 25.429688 457.808594 25.5 456.410156 C 25.570312 455.007812 25.679688 453.609375 25.820312 452.214844 C 25.960938 450.820312 26.136719 449.429688 26.351562 448.042969 C 26.5625 446.652344 26.808594 445.273438 27.09375 443.898438 C 27.375 442.523438 27.691406 441.15625 28.042969 439.792969 C 28.394531 438.433594 28.78125 437.082031 29.199219 435.742188 C 29.621094 434.398438 30.074219 433.070312 30.558594 431.75 C 31.046875 430.429688 31.566406 429.121094 32.121094 427.824219 C 32.675781 426.53125 33.261719 425.246094 33.878906 423.980469 C 34.496094 422.710938 35.148438 421.460938 35.828125 420.222656 C 36.511719 418.988281 37.222656 417.769531 37.96875 416.566406 C 38.710938 415.363281 39.484375 414.179688 40.289062 413.011719 C 41.089844 411.847656 41.921875 410.699219 42.785156 409.574219 C 43.648438 408.449219 44.535156 407.34375 45.453125 406.257812 C 46.371094 405.175781 47.316406 404.113281 48.285156 403.074219 C 49.257812 402.035156 50.253906 401.019531 51.277344 400.027344 C 52.300781 399.035156 53.347656 398.070312 54.417969 397.128906 C 55.492188 396.1875 56.585938 395.269531 57.703125 394.382812 C 58.820312 393.492188 59.960938 392.628906 61.121094 391.792969 C 62.285156 390.960938 63.464844 390.152344 64.667969 389.375 C 65.871094 388.59375 67.09375 387.84375 68.332031 387.125 C 69.574219 386.402344 70.832031 385.710938 72.109375 385.050781 C 73.382812 384.390625 74.675781 383.757812 75.980469 383.160156 C 77.289062 382.558594 78.609375 381.992188 79.949219 381.457031 C 81.285156 380.917969 82.632812 380.414062 83.992188 379.941406 C 85.355469 379.46875 86.730469 379.03125 88.113281 378.621094 C 89.496094 378.214844 90.890625 377.84375 92.292969 377.5 C 93.695312 377.160156 95.105469 376.851562 96.523438 376.578125 C 97.945312 376.304688 99.367188 376.066406 100.796875 375.859375 C 102.230469 375.65625 103.664062 375.484375 105.105469 375.347656 C 106.542969 375.207031 107.984375 375.105469 109.429688 375.035156 C 110.875 374.96875 112.320312 374.933594 113.765625 374.933594 C 115.210938 374.933594 116.65625 374.96875 118.101562 375.035156 C 119.546875 375.105469 120.988281 375.207031 122.425781 375.347656 C 123.867188 375.484375 125.300781 375.65625 126.730469 375.859375 C 128.164062 376.066406 129.585938 376.304688 131.003906 376.578125 C 132.425781 376.851562 133.835938 377.160156 135.238281 377.5 C 136.640625 377.84375 138.035156 378.214844 139.417969 378.621094 C 140.800781 379.03125 142.175781 379.46875 143.535156 379.941406 C 144.898438 380.414062 146.246094 380.917969 147.582031 381.457031 C 148.917969 381.992188 150.242188 382.558594 151.550781 383.160156 C 152.855469 383.757812 154.148438 384.390625 155.421875 385.050781 C 156.699219 385.710938 157.957031 386.402344 159.199219 387.125 C 160.4375 387.84375 161.660156 388.59375 162.863281 389.375 C 164.0625 390.152344 165.246094 390.960938 166.40625 391.792969 C 167.570312 392.628906 168.710938 393.492188 169.828125 394.382812 C 170.945312 395.269531 172.039062 396.1875 173.113281 397.128906 C 174.183594 398.070312 175.230469 399.035156 176.253906 400.027344 C 177.277344 401.019531 178.273438 402.035156 179.242188 403.074219 C 180.214844 404.113281 181.160156 405.175781 182.078125 406.257812 C 182.996094 407.34375 183.882812 408.449219 184.746094 409.574219 C 185.605469 410.699219 186.441406 411.847656 187.242188 413.011719 C 188.046875 414.179688 188.820312 415.363281 189.5625 416.566406 C 190.308594 417.769531 191.019531 418.988281 191.703125 420.222656 C 192.382812 421.460938 193.035156 422.710938 193.652344 423.980469 C 194.269531 425.246094 194.855469 426.53125 195.410156 427.824219 C 195.964844 429.121094 196.484375 430.429688 196.972656 431.75 C 197.457031 433.070312 197.910156 434.398438 198.332031 435.742188 C 198.75 437.082031 199.136719 438.433594 199.488281 439.792969 C 199.839844 441.15625 200.15625 442.523438 200.4375 443.898438 C 200.71875 445.273438 200.96875 446.652344 201.179688 448.042969 C 201.390625 449.429688 201.570312 450.820312 201.710938 452.214844 C 201.851562 453.609375 201.960938 455.007812 202.03125 456.410156 C 202.101562 457.808594 202.136719 459.210938 202.136719 460.613281 Z M 202.136719 460.613281 " fill-opacity="1" fill-rule="nonzero"/></g><path fill="#ffffff" d="M 330.003906 461.265625 C 330.003906 462.667969 329.96875 464.070312 329.898438 465.46875 C 329.828125 466.871094 329.71875 468.269531 329.578125 469.664062 C 329.4375 471.058594 329.257812 472.449219 329.046875 473.835938 C 328.835938 475.222656 328.589844 476.605469 328.304688 477.980469 C 328.023438 479.355469 327.707031 480.722656 327.355469 482.082031 C 327.003906 483.445312 326.617188 484.792969 326.199219 486.136719 C 325.777344 487.480469 325.324219 488.808594 324.839844 490.128906 C 324.351562 491.449219 323.832031 492.757812 323.277344 494.054688 C 322.722656 495.347656 322.136719 496.628906 321.519531 497.898438 C 320.902344 499.164062 320.25 500.417969 319.570312 501.65625 C 318.886719 502.890625 318.175781 504.109375 317.429688 505.3125 C 316.6875 506.515625 315.914062 507.699219 315.109375 508.867188 C 314.308594 510.03125 313.476562 511.179688 312.613281 512.304688 C 311.75 513.429688 310.863281 514.535156 309.945312 515.621094 C 309.027344 516.703125 308.082031 517.765625 307.113281 518.804688 C 306.140625 519.84375 305.144531 520.859375 304.121094 521.851562 C 303.097656 522.839844 302.050781 523.808594 300.980469 524.75 C 299.90625 525.691406 298.8125 526.605469 297.695312 527.496094 C 296.578125 528.386719 295.4375 529.25 294.277344 530.082031 C 293.113281 530.917969 291.933594 531.726562 290.730469 532.503906 C 289.527344 533.285156 288.304688 534.035156 287.066406 534.753906 C 285.824219 535.476562 284.566406 536.167969 283.289062 536.828125 C 282.015625 537.488281 280.722656 538.121094 279.417969 538.71875 C 278.109375 539.316406 276.789062 539.886719 275.449219 540.421875 C 274.113281 540.960938 272.765625 541.464844 271.402344 541.9375 C 270.042969 542.410156 268.667969 542.847656 267.285156 543.253906 C 265.902344 543.664062 264.507812 544.035156 263.105469 544.378906 C 261.703125 544.71875 260.292969 545.023438 258.875 545.296875 C 257.453125 545.570312 256.03125 545.8125 254.597656 546.015625 C 253.167969 546.222656 251.734375 546.394531 250.292969 546.53125 C 248.855469 546.667969 247.414062 546.773438 245.96875 546.839844 C 244.523438 546.910156 243.078125 546.945312 241.632812 546.945312 C 240.1875 546.945312 238.742188 546.910156 237.296875 546.839844 C 235.851562 546.773438 234.410156 546.667969 232.972656 546.53125 C 231.53125 546.394531 230.097656 546.222656 228.667969 546.015625 C 227.234375 545.8125 225.8125 545.570312 224.390625 545.296875 C 222.972656 545.023438 221.5625 544.71875 220.160156 544.378906 C 218.757812 544.035156 217.363281 543.664062 215.980469 543.253906 C 214.597656 542.847656 213.222656 542.410156 211.863281 541.9375 C 210.5 541.464844 209.152344 540.960938 207.816406 540.421875 C 206.476562 539.886719 205.15625 539.316406 203.847656 538.71875 C 202.542969 538.121094 201.25 537.488281 199.976562 536.828125 C 198.699219 536.167969 197.441406 535.476562 196.199219 534.753906 C 194.960938 534.035156 193.738281 533.285156 192.535156 532.503906 C 191.332031 531.726562 190.152344 530.917969 188.988281 530.082031 C 187.828125 529.25 186.6875 528.386719 185.570312 527.496094 C 184.453125 526.605469 183.359375 525.691406 182.285156 524.75 C 181.214844 523.808594 180.167969 522.839844 179.144531 521.851562 C 178.121094 520.859375 177.125 519.84375 176.152344 518.804688 C 175.183594 517.765625 174.238281 516.703125 173.320312 515.621094 C 172.402344 514.535156 171.515625 513.429688 170.652344 512.304688 C 169.789062 511.179688 168.957031 510.03125 168.15625 508.867188 C 167.351562 507.699219 166.578125 506.515625 165.835938 505.3125 C 165.089844 504.109375 164.378906 502.890625 163.695312 501.65625 C 163.015625 500.417969 162.363281 499.164062 161.746094 497.898438 C 161.128906 496.628906 160.542969 495.347656 159.988281 494.054688 C 159.433594 492.757812 158.914062 491.449219 158.425781 490.128906 C 157.941406 488.808594 157.488281 487.480469 157.066406 486.136719 C 156.648438 484.792969 156.261719 483.445312 155.910156 482.082031 C 155.558594 480.722656 155.242188 479.355469 154.960938 477.980469 C 154.675781 476.605469 154.429688 475.222656 154.21875 473.835938 C 154.007812 472.449219 153.828125 471.058594 153.6875 469.664062 C 153.546875 468.269531 153.4375 466.871094 153.367188 465.46875 C 153.296875 464.070312 153.261719 462.667969 153.261719 461.265625 C 153.261719 459.863281 153.296875 458.460938 153.367188 457.0625 C 153.4375 455.660156 153.546875 454.261719 153.6875 452.867188 C 153.828125 451.472656 154.007812 450.082031 154.21875 448.695312 C 154.429688 447.304688 154.675781 445.925781 154.960938 444.550781 C 155.242188 443.175781 155.558594 441.808594 155.910156 440.445312 C 156.261719 439.085938 156.648438 437.734375 157.066406 436.394531 C 157.488281 435.050781 157.941406 433.722656 158.425781 432.402344 C 158.914062 431.082031 159.433594 429.773438 159.988281 428.476562 C 160.542969 427.183594 161.128906 425.898438 161.746094 424.632812 C 162.363281 423.363281 163.015625 422.113281 163.695312 420.875 C 164.378906 419.640625 165.089844 418.421875 165.835938 417.21875 C 166.578125 416.015625 167.351562 414.832031 168.15625 413.664062 C 168.957031 412.5 169.789062 411.351562 170.652344 410.226562 C 171.515625 409.101562 172.402344 407.996094 173.320312 406.910156 C 174.238281 405.828125 175.183594 404.765625 176.152344 403.726562 C 177.125 402.6875 178.121094 401.671875 179.144531 400.679688 C 180.167969 399.691406 181.214844 398.722656 182.285156 397.78125 C 183.359375 396.839844 184.453125 395.921875 185.570312 395.035156 C 186.6875 394.144531 187.828125 393.28125 188.988281 392.445312 C 190.152344 391.613281 191.332031 390.804688 192.535156 390.027344 C 193.738281 389.246094 194.960938 388.496094 196.199219 387.777344 C 197.441406 387.054688 198.699219 386.363281 199.976562 385.703125 C 201.25 385.042969 202.542969 384.410156 203.847656 383.8125 C 205.15625 383.210938 206.476562 382.644531 207.816406 382.109375 C 209.152344 381.570312 210.5 381.066406 211.863281 380.59375 C 213.222656 380.121094 214.597656 379.683594 215.980469 379.277344 C 217.363281 378.867188 218.757812 378.496094 220.160156 378.152344 C 221.5625 377.8125 222.972656 377.507812 224.390625 377.230469 C 225.8125 376.957031 227.234375 376.71875 228.667969 376.511719 C 230.097656 376.308594 231.53125 376.136719 232.972656 376 C 234.410156 375.859375 235.851562 375.757812 237.296875 375.6875 C 238.742188 375.621094 240.1875 375.585938 241.632812 375.585938 C 243.078125 375.585938 244.523438 375.621094 245.96875 375.6875 C 247.414062 375.757812 248.855469 375.859375 250.292969 376 C 251.734375 376.136719 253.167969 376.308594 254.597656 376.511719 C 256.03125 376.71875 257.453125 376.957031 258.875 377.230469 C 260.292969 377.507812 261.703125 377.8125 263.105469 378.152344 C 264.507812 378.496094 265.902344 378.867188 267.285156 379.277344 C 268.667969 379.683594 270.042969 380.121094 271.402344 380.59375 C 272.765625 381.066406 274.113281 381.570312 275.449219 382.109375 C 276.789062 382.644531 278.109375 383.210938 279.417969 383.8125 C 280.722656 384.410156 282.015625 385.042969 283.289062 385.703125 C 284.566406 386.363281 285.824219 387.054688 287.066406 387.777344 C 288.304688 388.496094 289.527344 389.246094 290.730469 390.027344 C 291.933594 390.804688 293.113281 391.613281 294.277344 392.445312 C 295.4375 393.28125 296.578125 394.144531 297.695312 395.035156 C 298.8125 395.921875 299.90625 396.839844 300.980469 397.78125 C 302.050781 398.722656 303.097656 399.691406 304.121094 400.679688 C 305.144531 401.671875 306.140625 402.6875 307.113281 403.726562 C 308.082031 404.765625 309.027344 405.828125 309.945312 406.910156 C 310.863281 407.996094 311.75 409.101562 312.613281 410.226562 C 313.476562 411.351562 314.308594 412.5 315.109375 413.664062 C 315.914062 414.832031 316.6875 416.015625 317.429688 417.21875 C 318.175781 418.421875 318.886719 419.640625 319.570312 420.875 C 320.25 422.113281 320.902344 423.363281 321.519531 424.632812 C 322.136719 425.898438 322.722656 427.183594 323.277344 428.476562 C 323.832031 429.773438 324.351562 431.082031 324.839844 432.402344 C 325.324219 433.722656 325.777344 435.050781 326.199219 436.394531 C 326.617188 437.734375 327.003906 439.085938 327.355469 440.445312 C 327.707031 441.808594 328.023438 443.175781 328.304688 444.550781 C 328.589844 445.925781 328.835938 447.304688 329.046875 448.695312 C 329.257812 450.082031 329.4375 451.472656 329.578125 452.867188 C 329.71875 454.261719 329.828125 455.660156 329.898438 457.0625 C 329.96875 458.460938 330.003906 459.863281 330.003906 461.265625 Z M 330.003906 461.265625 " fill-opacity="1" fill-rule="nonzero"/><path fill="#ffffff" d="M 299.472656 367.835938 C 299.472656 369.238281 299.4375 370.640625 299.363281 372.042969 C 299.292969 373.441406 299.1875 374.839844 299.046875 376.234375 C 298.902344 377.632812 298.726562 379.023438 298.515625 380.410156 C 298.300781 381.796875 298.054688 383.175781 297.773438 384.554688 C 297.492188 385.929688 297.175781 387.296875 296.824219 388.65625 C 296.472656 390.015625 296.085938 391.367188 295.664062 392.710938 C 295.246094 394.050781 294.792969 395.382812 294.304688 396.703125 C 293.816406 398.023438 293.296875 399.332031 292.746094 400.625 C 292.191406 401.921875 291.605469 403.203125 290.988281 404.46875 C 290.367188 405.738281 289.71875 406.988281 289.035156 408.226562 C 288.355469 409.464844 287.640625 410.683594 286.898438 411.886719 C 286.15625 413.089844 285.382812 414.273438 284.578125 415.4375 C 283.773438 416.605469 282.941406 417.75 282.082031 418.875 C 281.21875 420.003906 280.328125 421.109375 279.410156 422.191406 C 278.496094 423.277344 277.550781 424.335938 276.578125 425.375 C 275.609375 426.414062 274.609375 427.429688 273.585938 428.421875 C 272.566406 429.414062 271.519531 430.378906 270.445312 431.320312 C 269.375 432.265625 268.28125 433.179688 267.160156 434.070312 C 266.042969 434.957031 264.902344 435.820312 263.742188 436.65625 C 262.582031 437.492188 261.398438 438.296875 260.195312 439.078125 C 258.992188 439.855469 257.773438 440.605469 256.53125 441.328125 C 255.292969 442.046875 254.035156 442.738281 252.757812 443.398438 C 251.480469 444.0625 250.191406 444.691406 248.882812 445.289062 C 247.574219 445.890625 246.253906 446.457031 244.917969 446.996094 C 243.582031 447.53125 242.234375 448.035156 240.871094 448.507812 C 239.507812 448.980469 238.136719 449.421875 236.753906 449.828125 C 235.367188 450.234375 233.976562 450.609375 232.574219 450.949219 C 231.167969 451.289062 229.757812 451.597656 228.339844 451.871094 C 226.921875 452.144531 225.496094 452.382812 224.066406 452.589844 C 222.636719 452.796875 221.203125 452.96875 219.761719 453.105469 C 218.324219 453.242188 216.878906 453.34375 215.4375 453.414062 C 213.992188 453.484375 212.546875 453.515625 211.101562 453.515625 C 209.652344 453.515625 208.207031 453.484375 206.765625 453.414062 C 205.320312 453.34375 203.878906 453.242188 202.4375 453.105469 C 201 452.96875 199.5625 452.796875 198.132812 452.589844 C 196.703125 452.382812 195.277344 452.144531 193.859375 451.871094 C 192.441406 451.597656 191.03125 451.289062 189.628906 450.949219 C 188.226562 450.609375 186.832031 450.234375 185.445312 449.828125 C 184.0625 449.421875 182.691406 448.980469 181.328125 448.507812 C 179.96875 448.035156 178.617188 447.53125 177.28125 446.996094 C 175.945312 446.457031 174.625 445.890625 173.316406 445.289062 C 172.007812 444.691406 170.71875 444.0625 169.441406 443.398438 C 168.167969 442.738281 166.910156 442.046875 165.667969 441.328125 C 164.425781 440.605469 163.207031 439.855469 162.003906 439.078125 C 160.800781 438.296875 159.617188 437.492188 158.457031 436.65625 C 157.296875 435.820312 156.15625 434.957031 155.039062 434.070312 C 153.921875 433.179688 152.824219 432.265625 151.753906 431.320312 C 150.683594 430.378906 149.636719 429.414062 148.613281 428.421875 C 147.589844 427.429688 146.59375 426.414062 145.621094 425.375 C 144.648438 424.335938 143.707031 423.277344 142.789062 422.191406 C 141.871094 421.109375 140.980469 420.003906 140.121094 418.875 C 139.257812 417.75 138.425781 416.605469 137.621094 415.4375 C 136.820312 414.273438 136.046875 413.089844 135.300781 411.886719 C 134.558594 410.683594 133.84375 409.464844 133.164062 408.226562 C 132.480469 406.988281 131.832031 405.738281 131.214844 404.46875 C 130.59375 403.203125 130.007812 401.921875 129.457031 400.625 C 128.902344 399.332031 128.382812 398.023438 127.894531 396.703125 C 127.40625 395.382812 126.953125 394.050781 126.535156 392.710938 C 126.113281 391.367188 125.730469 390.015625 125.378906 388.65625 C 125.027344 387.296875 124.710938 385.929688 124.425781 384.554688 C 124.144531 383.175781 123.898438 381.796875 123.683594 380.410156 C 123.472656 379.023438 123.296875 377.632812 123.15625 376.234375 C 123.011719 374.839844 122.90625 373.441406 122.835938 372.042969 C 122.765625 370.640625 122.730469 369.238281 122.730469 367.835938 C 122.730469 366.433594 122.765625 365.035156 122.835938 363.632812 C 122.90625 362.234375 123.011719 360.835938 123.15625 359.441406 C 123.296875 358.042969 123.472656 356.652344 123.683594 355.265625 C 123.898438 353.878906 124.144531 352.496094 124.425781 351.121094 C 124.710938 349.746094 125.027344 348.378906 125.378906 347.019531 C 125.730469 345.660156 126.113281 344.308594 126.535156 342.964844 C 126.953125 341.625 127.40625 340.292969 127.894531 338.972656 C 128.382812 337.652344 128.902344 336.34375 129.457031 335.050781 C 130.007812 333.753906 130.59375 332.472656 131.214844 331.203125 C 131.832031 329.9375 132.480469 328.683594 133.164062 327.449219 C 133.84375 326.210938 134.558594 324.992188 135.300781 323.789062 C 136.046875 322.585938 136.820312 321.402344 137.621094 320.238281 C 138.425781 319.070312 139.257812 317.925781 140.121094 316.796875 C 140.980469 315.671875 141.871094 314.566406 142.789062 313.484375 C 143.707031 312.398438 144.648438 311.339844 145.621094 310.300781 C 146.59375 309.261719 147.589844 308.246094 148.613281 307.253906 C 149.636719 306.261719 150.683594 305.296875 151.753906 304.355469 C 152.824219 303.410156 153.921875 302.496094 155.039062 301.605469 C 156.15625 300.71875 157.296875 299.855469 158.457031 299.019531 C 159.617188 298.183594 160.800781 297.378906 162.003906 296.597656 C 163.207031 295.820312 164.425781 295.070312 165.667969 294.347656 C 166.910156 293.628906 168.167969 292.9375 169.441406 292.273438 C 170.71875 291.613281 172.007812 290.984375 173.316406 290.382812 C 174.625 289.785156 175.945312 289.21875 177.28125 288.679688 C 178.617188 288.144531 179.96875 287.640625 181.328125 287.167969 C 182.691406 286.695312 184.0625 286.253906 185.445312 285.847656 C 186.832031 285.441406 188.226562 285.066406 189.628906 284.726562 C 191.03125 284.386719 192.441406 284.078125 193.859375 283.804688 C 195.277344 283.53125 196.703125 283.292969 198.132812 283.085938 C 199.5625 282.878906 201 282.707031 202.4375 282.570312 C 203.878906 282.433594 205.320312 282.332031 206.765625 282.261719 C 208.207031 282.191406 209.652344 282.160156 211.101562 282.160156 C 212.546875 282.160156 213.992188 282.191406 215.4375 282.261719 C 216.878906 282.332031 218.324219 282.433594 219.761719 282.570312 C 221.203125 282.707031 222.636719 282.878906 224.066406 283.085938 C 225.496094 283.292969 226.921875 283.53125 228.339844 283.804688 C 229.757812 284.078125 231.167969 284.386719 232.574219 284.726562 C 233.976562 285.066406 235.367188 285.441406 236.753906 285.847656 C 238.136719 286.253906 239.507812 286.695312 240.871094 287.167969 C 242.234375 287.640625 243.582031 288.144531 244.917969 288.679688 C 246.253906 289.21875 247.574219 289.785156 248.882812 290.382812 C 250.191406 290.984375 251.480469 291.613281 252.757812 292.273438 C 254.035156 292.9375 255.292969 293.628906 256.53125 294.347656 C 257.773438 295.070312 258.992188 295.820312 260.195312 296.597656 C 261.398438 297.378906 262.582031 298.183594 263.742188 299.019531 C 264.902344 299.855469 266.042969 300.71875 267.160156 301.605469 C 268.28125 302.496094 269.375 303.410156 270.445312 304.355469 C 271.519531 305.296875 272.566406 306.261719 273.585938 307.253906 C 274.609375 308.246094 275.605469 309.261719 276.578125 310.300781 C 277.550781 311.339844 278.496094 312.398438 279.410156 313.484375 C 280.328125 314.566406 281.21875 315.671875 282.082031 316.796875 C 282.941406 317.925781 283.773438 319.070312 284.578125 320.238281 C 285.382812 321.402344 286.15625 322.585938 286.898438 323.789062 C 287.640625 324.992188 288.355469 326.210938 289.035156 327.449219 C 289.71875 328.683594 290.367188 329.9375 290.988281 331.203125 C 291.605469 332.472656 292.191406 333.753906 292.746094 335.050781 C 293.296875 336.34375 293.816406 337.652344 294.304688 338.972656 C 294.792969 340.292969 295.246094 341.625 295.664062 342.964844 C 296.085938 344.308594 296.472656 345.660156 296.824219 347.019531 C 297.175781 348.378906 297.492188 349.746094 297.773438 351.121094 C 298.054688 352.496094 298.300781 353.878906 298.515625 355.265625 C 298.726562 356.652344 298.902344 358.042969 299.046875 359.441406 C 299.1875 360.835938 299.292969 362.234375 299.363281 363.632812 C 299.4375 365.035156 299.472656 366.433594 299.472656 367.835938 Z M 299.472656 367.835938 " fill-opacity="1" fill-rule="nonzero"/><path fill="#ffffff" d="M 420.992188 395.011719 C 420.992188 396.414062 420.957031 397.816406 420.886719 399.21875 C 420.8125 400.617188 420.707031 402.015625 420.566406 403.410156 C 420.425781 404.808594 420.246094 406.199219 420.035156 407.585938 C 419.824219 408.972656 419.574219 410.351562 419.292969 411.726562 C 419.011719 413.105469 418.695312 414.472656 418.34375 415.832031 C 417.992188 417.191406 417.605469 418.542969 417.1875 419.882812 C 416.765625 421.226562 416.3125 422.558594 415.824219 423.878906 C 415.339844 425.199219 414.816406 426.503906 414.265625 427.800781 C 413.710938 429.097656 413.125 430.378906 412.507812 431.644531 C 411.886719 432.914062 411.238281 434.164062 410.554688 435.402344 C 409.875 436.640625 409.160156 437.859375 408.417969 439.0625 C 407.675781 440.265625 406.902344 441.449219 406.097656 442.613281 C 405.292969 443.78125 404.460938 444.925781 403.601562 446.050781 C 402.738281 447.179688 401.847656 448.285156 400.933594 449.367188 C 400.015625 450.453125 399.070312 451.511719 398.097656 452.550781 C 397.128906 453.589844 396.128906 454.605469 395.109375 455.597656 C 394.085938 456.589844 393.039062 457.554688 391.964844 458.496094 C 390.894531 459.4375 389.800781 460.355469 388.683594 461.246094 C 387.5625 462.132812 386.425781 462.996094 385.261719 463.832031 C 384.101562 464.667969 382.917969 465.472656 381.714844 466.253906 C 380.515625 467.03125 379.292969 467.78125 378.050781 468.503906 C 376.8125 469.222656 375.554688 469.914062 374.277344 470.574219 C 373.003906 471.238281 371.710938 471.867188 370.402344 472.464844 C 369.097656 473.066406 367.773438 473.632812 366.4375 474.171875 C 365.101562 474.707031 363.753906 475.210938 362.390625 475.683594 C 361.03125 476.15625 359.65625 476.597656 358.273438 477.003906 C 356.890625 477.410156 355.496094 477.785156 354.09375 478.125 C 352.691406 478.464844 351.277344 478.773438 349.859375 479.046875 C 348.441406 479.320312 347.015625 479.558594 345.585938 479.765625 C 344.15625 479.972656 342.722656 480.144531 341.28125 480.28125 C 339.84375 480.417969 338.402344 480.519531 336.957031 480.589844 C 335.511719 480.660156 334.066406 480.691406 332.621094 480.691406 C 331.175781 480.691406 329.726562 480.660156 328.285156 480.589844 C 326.839844 480.519531 325.398438 480.417969 323.957031 480.28125 C 322.519531 480.144531 321.082031 479.972656 319.652344 479.765625 C 318.222656 479.558594 316.796875 479.320312 315.378906 479.046875 C 313.960938 478.773438 312.550781 478.464844 311.148438 478.125 C 309.746094 477.785156 308.351562 477.410156 306.96875 477.003906 C 305.582031 476.597656 304.210938 476.15625 302.847656 475.683594 C 301.488281 475.210938 300.136719 474.707031 298.800781 474.171875 C 297.464844 473.632812 296.144531 473.066406 294.835938 472.464844 C 293.527344 471.867188 292.238281 471.238281 290.960938 470.574219 C 289.6875 469.914062 288.429688 469.222656 287.1875 468.503906 C 285.949219 467.78125 284.726562 467.03125 283.523438 466.253906 C 282.320312 465.472656 281.140625 464.667969 279.976562 463.832031 C 278.816406 462.996094 277.675781 462.132812 276.558594 461.246094 C 275.441406 460.355469 274.34375 459.4375 273.273438 458.496094 C 272.203125 457.554688 271.15625 456.589844 270.132812 455.597656 C 269.109375 454.605469 268.113281 453.589844 267.140625 452.550781 C 266.171875 451.511719 265.226562 450.453125 264.308594 449.367188 C 263.390625 448.285156 262.5 447.179688 261.640625 446.050781 C 260.777344 444.925781 259.945312 443.78125 259.140625 442.613281 C 258.339844 441.449219 257.566406 440.265625 256.820312 439.0625 C 256.078125 437.859375 255.367188 436.640625 254.683594 435.402344 C 254 434.164062 253.351562 432.914062 252.734375 431.644531 C 252.113281 430.378906 251.527344 429.097656 250.976562 427.800781 C 250.421875 426.503906 249.902344 425.199219 249.414062 423.878906 C 248.925781 422.558594 248.472656 421.226562 248.054688 419.882812 C 247.632812 418.542969 247.25 417.191406 246.898438 415.832031 C 246.546875 414.472656 246.230469 413.105469 245.945312 411.726562 C 245.664062 410.351562 245.417969 408.972656 245.207031 407.585938 C 244.992188 406.199219 244.816406 404.808594 244.675781 403.410156 C 244.53125 402.015625 244.425781 400.617188 244.355469 399.21875 C 244.285156 397.816406 244.25 396.414062 244.25 395.011719 C 244.25 393.609375 244.285156 392.210938 244.355469 390.808594 C 244.425781 389.410156 244.53125 388.011719 244.675781 386.617188 C 244.816406 385.21875 244.992188 383.828125 245.207031 382.441406 C 245.417969 381.054688 245.664062 379.671875 245.945312 378.296875 C 246.230469 376.921875 246.546875 375.554688 246.898438 374.195312 C 247.25 372.835938 247.632812 371.484375 248.054688 370.140625 C 248.472656 368.800781 248.925781 367.46875 249.414062 366.148438 C 249.902344 364.828125 250.421875 363.519531 250.976562 362.226562 C 251.527344 360.929688 252.113281 359.648438 252.734375 358.378906 C 253.351562 357.113281 254 355.859375 254.683594 354.625 C 255.367188 353.386719 256.078125 352.167969 256.820312 350.964844 C 257.566406 349.761719 258.339844 348.578125 259.140625 347.414062 C 259.945312 346.246094 260.777344 345.101562 261.640625 343.972656 C 262.5 342.847656 263.390625 341.742188 264.308594 340.660156 C 265.226562 339.574219 266.171875 338.511719 267.140625 337.472656 C 268.113281 336.4375 269.109375 335.421875 270.132812 334.429688 C 271.15625 333.4375 272.203125 332.472656 273.273438 331.527344 C 274.34375 330.585938 275.441406 329.671875 276.558594 328.78125 C 277.675781 327.894531 278.816406 327.03125 279.976562 326.195312 C 281.140625 325.359375 282.320312 324.550781 283.523438 323.773438 C 284.726562 322.996094 285.949219 322.246094 287.1875 321.523438 C 288.429688 320.804688 289.6875 320.113281 290.960938 319.449219 C 292.238281 318.789062 293.527344 318.160156 294.835938 317.558594 C 296.144531 316.960938 297.464844 316.390625 298.800781 315.855469 C 300.136719 315.320312 301.488281 314.816406 302.847656 314.34375 C 304.210938 313.871094 305.582031 313.429688 306.96875 313.023438 C 308.351562 312.617188 309.746094 312.242188 311.148438 311.902344 C 312.550781 311.5625 313.960938 311.253906 315.378906 310.980469 C 316.796875 310.707031 318.222656 310.46875 319.652344 310.261719 C 321.082031 310.054688 322.519531 309.882812 323.957031 309.746094 C 325.398438 309.609375 326.839844 309.507812 328.285156 309.4375 C 329.726562 309.367188 331.175781 309.332031 332.621094 309.332031 C 334.066406 309.332031 335.511719 309.367188 336.957031 309.4375 C 338.402344 309.507812 339.84375 309.609375 341.28125 309.746094 C 342.722656 309.882812 344.15625 310.054688 345.585938 310.261719 C 347.015625 310.46875 348.441406 310.707031 349.859375 310.980469 C 351.277344 311.253906 352.691406 311.5625 354.09375 311.902344 C 355.496094 312.242188 356.890625 312.617188 358.273438 313.023438 C 359.65625 313.429688 361.03125 313.871094 362.390625 314.34375 C 363.753906 314.816406 365.101562 315.320312 366.4375 315.855469 C 367.773438 316.390625 369.097656 316.960938 370.402344 317.558594 C 371.710938 318.160156 373.003906 318.789062 374.277344 319.449219 C 375.554688 320.113281 376.8125 320.804688 378.050781 321.523438 C 379.292969 322.246094 380.515625 322.996094 381.714844 323.773438 C 382.917969 324.550781 384.101562 325.359375 385.261719 326.195312 C 386.425781 327.03125 387.5625 327.894531 388.683594 328.78125 C 389.800781 329.671875 390.894531 330.585938 391.964844 331.527344 C 393.039062 332.472656 394.085938 333.4375 395.109375 334.429688 C 396.128906 335.421875 397.128906 336.4375 398.097656 337.472656 C 399.070312 338.511719 400.015625 339.574219 400.933594 340.660156 C 401.847656 341.742188 402.738281 342.847656 403.601562 343.972656 C 404.460938 345.101562 405.292969 346.246094 406.097656 347.414062 C 406.902344 348.578125 407.675781 349.761719 408.417969 350.964844 C 409.160156 352.167969 409.875 353.386719 410.554688 354.625 C 411.238281 355.859375 411.886719 357.113281 412.507812 358.378906 C 413.125 359.648438 413.710938 360.929688 414.265625 362.226562 C 414.816406 363.519531 415.339844 364.828125 415.824219 366.148438 C 416.3125 367.46875 416.765625 368.800781 417.1875 370.140625 C 417.605469 371.484375 417.992188 372.835938 418.34375 374.195312 C 418.695312 375.554688 419.011719 376.921875 419.292969 378.296875 C 419.574219 379.671875 419.824219 381.054688 420.035156 382.441406 C 420.246094 383.828125 420.425781 385.21875 420.566406 386.617188 C 420.707031 388.011719 420.8125 389.410156 420.886719 390.808594 C 420.957031 392.210938 420.992188 393.609375 420.992188 395.011719 Z M 420.992188 395.011719 " fill-opacity="1" fill-rule="nonzero"/><g clip-path="url(#d5bc63a5d6)"><path fill="#ffffff" d="M 661.839844 314.128906 C 661.839844 316.074219 661.78125 318.015625 661.664062 319.957031 C 661.546875 321.898438 661.371094 323.832031 661.136719 325.769531 C 660.902344 327.703125 660.613281 329.628906 660.261719 331.550781 C 659.910156 333.472656 659.503906 335.386719 659.039062 337.292969 C 658.574219 339.199219 658.050781 341.09375 657.46875 342.980469 C 656.890625 344.863281 656.253906 346.738281 655.5625 348.597656 C 654.867188 350.457031 654.121094 352.300781 653.316406 354.128906 C 652.511719 355.960938 651.652344 357.773438 650.742188 359.566406 C 649.828125 361.363281 648.859375 363.140625 647.839844 364.894531 C 646.820312 366.652344 645.746094 368.386719 644.621094 370.101562 C 643.496094 371.816406 642.320312 373.503906 641.09375 375.171875 C 639.867188 376.839844 638.589844 378.480469 637.265625 380.097656 C 635.941406 381.710938 634.566406 383.300781 633.144531 384.859375 C 631.722656 386.421875 630.257812 387.953125 628.742188 389.453125 C 627.226562 390.957031 625.667969 392.429688 624.066406 393.867188 C 622.464844 395.308594 620.820312 396.714844 619.132812 398.089844 C 617.445312 399.460938 615.71875 400.800781 613.949219 402.105469 C 612.179688 403.414062 610.375 404.679688 608.53125 405.914062 C 606.683594 407.148438 604.804688 408.339844 602.886719 409.5 C 600.972656 410.65625 599.019531 411.777344 597.035156 412.855469 C 595.050781 413.933594 593.035156 414.972656 590.988281 415.972656 C 588.945312 416.972656 586.867188 417.929688 584.761719 418.84375 C 582.660156 419.761719 580.527344 420.636719 578.371094 421.464844 C 576.214844 422.296875 574.03125 423.082031 571.828125 423.828125 C 569.625 424.570312 567.398438 425.269531 565.152344 425.925781 C 562.902344 426.578125 560.636719 427.1875 558.355469 427.753906 C 556.070312 428.316406 553.773438 428.835938 551.457031 429.308594 C 549.144531 429.777344 546.816406 430.203125 544.472656 430.585938 C 542.132812 430.964844 539.785156 431.296875 537.421875 431.582031 C 535.0625 431.867188 532.695312 432.101562 530.320312 432.292969 C 527.945312 432.484375 525.566406 432.628906 523.183594 432.722656 C 520.800781 432.816406 518.414062 432.867188 516.027344 432.867188 C 513.640625 432.867188 511.257812 432.816406 508.875 432.722656 C 506.488281 432.628906 504.109375 432.484375 501.734375 432.292969 C 499.359375 432.101562 496.992188 431.867188 494.632812 431.582031 C 492.273438 431.296875 489.921875 430.964844 487.582031 430.585938 C 485.242188 430.203125 482.914062 429.78125 480.597656 429.308594 C 478.285156 428.835938 475.984375 428.316406 473.703125 427.753906 C 471.417969 427.1875 469.152344 426.578125 466.90625 425.925781 C 464.660156 425.269531 462.433594 424.570312 460.226562 423.828125 C 458.023438 423.082031 455.84375 422.296875 453.683594 421.464844 C 451.527344 420.636719 449.398438 419.761719 447.292969 418.84375 C 445.1875 417.929688 443.113281 416.972656 441.066406 415.972656 C 439.019531 414.972656 437.003906 413.933594 435.019531 412.855469 C 433.035156 411.777344 431.085938 410.65625 429.167969 409.5 C 427.25 408.339844 425.371094 407.148438 423.527344 405.914062 C 421.679688 404.679688 419.875 403.414062 418.105469 402.105469 C 416.339844 400.800781 414.609375 399.460938 412.921875 398.089844 C 411.234375 396.714844 409.589844 395.308594 407.988281 393.867188 C 406.386719 392.429688 404.828125 390.957031 403.3125 389.453125 C 401.800781 387.953125 400.332031 386.421875 398.910156 384.859375 C 397.488281 383.300781 396.117188 381.710938 394.789062 380.09375 C 393.464844 378.480469 392.1875 376.839844 390.960938 375.171875 C 389.734375 373.503906 388.558594 371.816406 387.433594 370.101562 C 386.308594 368.386719 385.234375 366.652344 384.214844 364.894531 C 383.195312 363.140625 382.230469 361.363281 381.316406 359.566406 C 380.402344 357.773438 379.542969 355.960938 378.738281 354.128906 C 377.9375 352.300781 377.1875 350.457031 376.496094 348.597656 C 375.800781 346.738281 375.167969 344.863281 374.585938 342.980469 C 374.007812 341.09375 373.484375 339.199219 373.019531 337.292969 C 372.550781 335.386719 372.144531 333.472656 371.792969 331.550781 C 371.445312 329.628906 371.152344 327.703125 370.917969 325.769531 C 370.683594 323.835938 370.507812 321.898438 370.390625 319.957031 C 370.273438 318.015625 370.214844 316.074219 370.214844 314.128906 C 370.214844 312.1875 370.273438 310.246094 370.390625 308.304688 C 370.507812 306.363281 370.683594 304.425781 370.917969 302.492188 C 371.152344 300.558594 371.445312 298.628906 371.792969 296.707031 C 372.144531 294.785156 372.550781 292.871094 373.019531 290.964844 C 373.484375 289.058594 374.007812 287.164062 374.585938 285.277344 C 375.167969 283.394531 375.800781 281.523438 376.496094 279.664062 C 377.1875 277.800781 377.9375 275.957031 378.738281 274.128906 C 379.542969 272.300781 380.402344 270.488281 381.316406 268.691406 C 382.230469 266.894531 383.195312 265.121094 384.214844 263.363281 C 385.234375 261.605469 386.308594 259.871094 387.433594 258.15625 C 388.558594 256.445312 389.734375 254.753906 390.960938 253.085938 C 392.1875 251.421875 393.464844 249.777344 394.789062 248.164062 C 396.117188 246.546875 397.488281 244.960938 398.910156 243.398438 C 400.332031 241.835938 401.800781 240.304688 403.3125 238.804688 C 404.828125 237.300781 406.386719 235.832031 407.988281 234.390625 C 409.589844 232.953125 411.234375 231.542969 412.921875 230.171875 C 414.609375 228.796875 416.339844 227.457031 418.105469 226.152344 C 419.875 224.847656 421.679688 223.578125 423.527344 222.34375 C 425.371094 221.113281 427.25 219.917969 429.167969 218.761719 C 431.085938 217.601562 433.035156 216.484375 435.019531 215.402344 C 437.003906 214.324219 439.019531 213.285156 441.066406 212.285156 C 443.113281 211.289062 445.1875 210.328125 447.292969 209.414062 C 449.398438 208.496094 451.527344 207.625 453.6875 206.792969 C 455.84375 205.960938 458.023438 205.175781 460.226562 204.433594 C 462.433594 203.6875 464.660156 202.988281 466.90625 202.335938 C 469.152344 201.679688 471.417969 201.070312 473.703125 200.507812 C 475.984375 199.941406 478.285156 199.425781 480.597656 198.953125 C 482.914062 198.480469 485.242188 198.054688 487.582031 197.675781 C 489.921875 197.296875 492.273438 196.964844 494.632812 196.679688 C 496.992188 196.394531 499.359375 196.15625 501.734375 195.964844 C 504.109375 195.773438 506.488281 195.632812 508.875 195.535156 C 511.257812 195.441406 513.640625 195.394531 516.027344 195.394531 C 518.414062 195.394531 520.800781 195.441406 523.183594 195.535156 C 525.566406 195.632812 527.945312 195.773438 530.320312 195.964844 C 532.695312 196.15625 535.0625 196.394531 537.421875 196.679688 C 539.785156 196.964844 542.132812 197.296875 544.472656 197.675781 C 546.816406 198.054688 549.144531 198.480469 551.457031 198.953125 C 553.773438 199.425781 556.070312 199.941406 558.355469 200.507812 C 560.636719 201.070312 562.902344 201.679688 565.152344 202.335938 C 567.398438 202.988281 569.625 203.6875 571.828125 204.433594 C 574.03125 205.175781 576.214844 205.960938 578.371094 206.792969 C 580.527344 207.625 582.660156 208.496094 584.761719 209.414062 C 586.867188 210.328125 588.945312 211.289062 590.988281 212.285156 C 593.035156 213.285156 595.050781 214.324219 597.035156 215.402344 C 599.019531 216.484375 600.972656 217.601562 602.886719 218.761719 C 604.804688 219.917969 606.683594 221.113281 608.53125 222.34375 C 610.375 223.578125 612.179688 224.847656 613.949219 226.152344 C 615.71875 227.457031 617.445312 228.796875 619.132812 230.171875 C 620.820312 231.542969 622.464844 232.953125 624.066406 234.390625 C 625.667969 235.832031 627.226562 237.300781 628.742188 238.804688 C 630.257812 240.304688 631.722656 241.835938 633.144531 243.398438 C 634.566406 244.960938 635.941406 246.546875 637.265625 248.164062 C 638.589844 249.777344 639.867188 251.421875 641.09375 253.085938 C 642.320312 254.753906 643.496094 256.445312 644.621094 258.15625 C 645.746094 259.871094 646.820312 261.605469 647.839844 263.363281 C 648.859375 265.121094 649.828125 266.894531 650.742188 268.691406 C 651.652344 270.488281 652.511719 272.300781 653.316406 274.128906 C 654.121094 275.957031 654.867188 277.800781 655.5625 279.664062 C 656.253906 281.523438 656.890625 283.394531 657.46875 285.277344 C 658.050781 287.164062 658.574219 289.058594 659.039062 290.964844 C 659.503906 292.871094 659.910156 294.785156 660.261719 296.707031 C 660.613281 298.628906 660.902344 300.558594 661.136719 302.492188 C 661.371094 304.425781 661.546875 306.363281 661.664062 308.304688 C 661.78125 310.246094 661.839844 312.1875 661.839844 314.128906 Z M 661.839844 314.128906 " fill-opacity="1" fill-rule="nonzero"/></g><path fill="#ffffff" d="M 784.832031 446.074219 C 784.832031 448.140625 784.777344 450.207031 784.664062 452.269531 C 784.554688 454.335938 784.386719 456.394531 784.164062 458.453125 C 783.941406 460.507812 783.664062 462.558594 783.332031 464.605469 C 783 466.648438 782.613281 468.683594 782.171875 470.710938 C 781.726562 472.738281 781.230469 474.757812 780.679688 476.761719 C 780.128906 478.765625 779.527344 480.757812 778.867188 482.734375 C 778.210938 484.714844 777.5 486.675781 776.734375 488.621094 C 775.972656 490.566406 775.15625 492.496094 774.289062 494.40625 C 773.421875 496.316406 772.503906 498.203125 771.535156 500.074219 C 770.5625 501.941406 769.546875 503.789062 768.476562 505.609375 C 767.40625 507.433594 766.292969 509.230469 765.125 511.003906 C 763.960938 512.777344 762.746094 514.523438 761.488281 516.242188 C 760.230469 517.960938 758.925781 519.648438 757.574219 521.308594 C 756.222656 522.96875 754.828125 524.597656 753.390625 526.199219 C 751.953125 527.796875 750.472656 529.359375 748.949219 530.890625 C 747.429688 532.421875 745.867188 533.917969 744.261719 535.382812 C 742.660156 536.84375 741.019531 538.269531 739.339844 539.65625 C 737.660156 541.042969 735.945312 542.394531 734.191406 543.707031 C 732.4375 545.015625 730.652344 546.289062 728.832031 547.519531 C 727.011719 548.75 725.15625 549.941406 723.273438 551.089844 C 721.386719 552.238281 719.472656 553.34375 717.53125 554.40625 C 715.585938 555.46875 713.613281 556.484375 711.613281 557.460938 C 709.613281 558.433594 707.589844 559.363281 705.542969 560.246094 C 703.492188 561.132812 701.421875 561.96875 699.328125 562.761719 C 697.230469 563.550781 695.117188 564.292969 692.984375 564.992188 C 690.847656 565.6875 688.695312 566.335938 686.527344 566.933594 C 684.359375 567.535156 682.175781 568.085938 679.976562 568.589844 C 677.777344 569.089844 675.566406 569.542969 673.34375 569.945312 C 671.121094 570.351562 668.886719 570.703125 666.644531 571.007812 C 664.402344 571.308594 662.152344 571.5625 659.898438 571.765625 C 657.640625 571.96875 655.378906 572.121094 653.117188 572.222656 C 650.851562 572.324219 648.585938 572.375 646.320312 572.375 C 644.054688 572.375 641.789062 572.324219 639.523438 572.222656 C 637.257812 572.121094 635 571.96875 632.742188 571.765625 C 630.488281 571.5625 628.238281 571.308594 625.996094 571.007812 C 623.753906 570.703125 621.519531 570.351562 619.296875 569.945312 C 617.074219 569.542969 614.863281 569.089844 612.664062 568.589844 C 610.464844 568.085938 608.28125 567.535156 606.113281 566.9375 C 603.941406 566.335938 601.792969 565.6875 599.65625 564.992188 C 597.523438 564.292969 595.410156 563.550781 593.3125 562.761719 C 591.21875 561.96875 589.148438 561.132812 587.097656 560.246094 C 585.050781 559.363281 583.023438 558.433594 581.027344 557.460938 C 579.027344 556.484375 577.054688 555.46875 575.109375 554.40625 C 573.167969 553.34375 571.25 552.238281 569.367188 551.089844 C 567.480469 549.941406 565.628906 548.75 563.808594 547.519531 C 561.988281 546.289062 560.203125 545.015625 558.449219 543.707031 C 556.695312 542.394531 554.980469 541.042969 553.300781 539.65625 C 551.621094 538.269531 549.980469 536.84375 548.378906 535.382812 C 546.773438 533.917969 545.210938 532.421875 543.691406 530.890625 C 542.167969 529.359375 540.6875 527.796875 539.25 526.199219 C 537.8125 524.597656 536.417969 522.96875 535.066406 521.308594 C 533.714844 519.648438 532.410156 517.960938 531.152344 516.242188 C 529.890625 514.523438 528.679688 512.777344 527.515625 511.003906 C 526.347656 509.230469 525.230469 507.433594 524.164062 505.609375 C 523.09375 503.789062 522.078125 501.941406 521.105469 500.074219 C 520.136719 498.203125 519.21875 496.316406 518.351562 494.40625 C 517.484375 492.496094 516.667969 490.566406 515.90625 488.621094 C 515.140625 486.675781 514.429688 484.714844 513.773438 482.734375 C 513.113281 480.757812 512.511719 478.765625 511.960938 476.761719 C 511.410156 474.757812 510.914062 472.738281 510.46875 470.710938 C 510.027344 468.683594 509.640625 466.648438 509.308594 464.605469 C 508.976562 462.558594 508.699219 460.507812 508.476562 458.453125 C 508.253906 456.394531 508.085938 454.335938 507.976562 452.269531 C 507.863281 450.207031 507.808594 448.140625 507.808594 446.074219 C 507.808594 444.003906 507.863281 441.941406 507.976562 439.875 C 508.085938 437.8125 508.253906 435.75 508.476562 433.691406 C 508.699219 431.636719 508.976562 429.585938 509.308594 427.539062 C 509.640625 425.496094 510.027344 423.460938 510.46875 421.433594 C 510.914062 419.40625 511.410156 417.390625 511.960938 415.382812 C 512.511719 413.378906 513.113281 411.386719 513.773438 409.410156 C 514.429688 407.429688 515.140625 405.46875 515.90625 403.523438 C 516.667969 401.578125 517.484375 399.648438 518.351562 397.738281 C 519.21875 395.828125 520.136719 393.941406 521.105469 392.070312 C 522.078125 390.203125 523.09375 388.359375 524.164062 386.535156 C 525.230469 384.710938 526.347656 382.914062 527.515625 381.140625 C 528.679688 379.367188 529.890625 377.621094 531.152344 375.902344 C 532.410156 374.183594 533.714844 372.496094 535.066406 370.835938 C 536.417969 369.175781 537.8125 367.546875 539.25 365.949219 C 540.6875 364.351562 542.167969 362.785156 543.691406 361.253906 C 545.210938 359.722656 546.773438 358.226562 548.378906 356.765625 C 549.980469 355.300781 551.621094 353.878906 553.300781 352.488281 C 554.980469 351.101562 556.695312 349.75 558.449219 348.441406 C 560.203125 347.128906 561.988281 345.859375 563.808594 344.625 C 565.628906 343.394531 567.480469 342.207031 569.367188 341.058594 C 571.253906 339.910156 573.167969 338.804688 575.109375 337.742188 C 577.054688 336.675781 579.027344 335.660156 581.027344 334.683594 C 583.023438 333.710938 585.050781 332.78125 587.097656 331.898438 C 589.148438 331.015625 591.21875 330.175781 593.3125 329.386719 C 595.410156 328.59375 597.523438 327.851562 599.65625 327.15625 C 601.792969 326.457031 603.941406 325.808594 606.113281 325.210938 C 608.28125 324.609375 610.464844 324.058594 612.664062 323.554688 C 614.863281 323.054688 617.074219 322.601562 619.296875 322.199219 C 621.519531 321.792969 623.753906 321.441406 625.996094 321.136719 C 628.238281 320.835938 630.488281 320.582031 632.742188 320.378906 C 635 320.175781 637.257812 320.023438 639.523438 319.921875 C 641.789062 319.820312 644.054688 319.769531 646.320312 319.769531 C 648.585938 319.769531 650.851562 319.820312 653.117188 319.921875 C 655.378906 320.023438 657.640625 320.175781 659.898438 320.378906 C 662.152344 320.582031 664.402344 320.835938 666.644531 321.136719 C 668.886719 321.441406 671.121094 321.792969 673.34375 322.199219 C 675.566406 322.601562 677.777344 323.054688 679.976562 323.554688 C 682.175781 324.058594 684.359375 324.609375 686.527344 325.210938 C 688.695312 325.808594 690.847656 326.457031 692.984375 327.15625 C 695.117188 327.851562 697.230469 328.59375 699.328125 329.386719 C 701.421875 330.175781 703.492188 331.015625 705.542969 331.898438 C 707.589844 332.78125 709.613281 333.710938 711.613281 334.683594 C 713.613281 335.660156 715.585938 336.675781 717.53125 337.742188 C 719.472656 338.804688 721.386719 339.910156 723.273438 341.058594 C 725.15625 342.207031 727.011719 343.394531 728.832031 344.625 C 730.652344 345.859375 732.4375 347.128906 734.191406 348.441406 C 735.945312 349.75 737.660156 351.101562 739.339844 352.488281 C 741.019531 353.878906 742.660156 355.300781 744.261719 356.765625 C 745.867188 358.226562 747.429688 359.722656 748.949219 361.253906 C 750.472656 362.785156 751.953125 364.351562 753.390625 365.949219 C 754.828125 367.546875 756.222656 369.175781 757.574219 370.835938 C 758.925781 372.496094 760.230469 374.183594 761.488281 375.902344 C 762.746094 377.621094 763.960938 379.367188 765.125 381.140625 C 766.292969 382.914062 767.40625 384.710938 768.476562 386.535156 C 769.546875 388.359375 770.5625 390.203125 771.535156 392.070312 C 772.503906 393.941406 773.421875 395.828125 774.289062 397.738281 C 775.15625 399.648438 775.972656 401.578125 776.734375 403.523438 C 777.5 405.46875 778.210938 407.429688 778.867188 409.410156 C 779.527344 411.386719 780.128906 413.378906 780.679688 415.382812 C 781.230469 417.390625 781.726562 419.40625 782.171875 421.433594 C 782.613281 423.460938 783 425.496094 783.332031 427.539062 C 783.664062 429.585938 783.941406 431.636719 784.164062 433.691406 C 784.386719 435.75 784.554688 437.8125 784.664062 439.875 C 784.777344 441.941406 784.832031 444.003906 784.832031 446.074219 Z M 784.832031 446.074219 " fill-opacity="1" fill-rule="nonzero"/><path fill="#ffffff" d="M 402.507812 390.371094 C 405.148438 390.160156 407.792969 390.007812 410.4375 389.90625 C 413.085938 389.804688 415.730469 389.757812 418.375 389.761719 C 421.019531 389.769531 423.65625 389.828125 426.292969 389.941406 C 428.929688 390.054688 431.558594 390.222656 434.183594 390.445312 C 436.804688 390.667969 439.417969 390.941406 442.019531 391.269531 C 444.621094 391.597656 447.210938 391.980469 449.785156 392.414062 C 452.359375 392.847656 454.917969 393.335938 457.460938 393.875 C 460.003906 394.414062 462.527344 395.003906 465.03125 395.648438 C 467.535156 396.289062 470.015625 396.984375 472.472656 397.730469 C 474.933594 398.472656 477.363281 399.269531 479.773438 400.113281 C 482.179688 400.960938 484.558594 401.855469 486.910156 402.796875 C 489.261719 403.742188 491.578125 404.734375 493.867188 405.773438 C 496.15625 406.8125 498.410156 407.898438 500.628906 409.035156 C 502.851562 410.167969 505.035156 411.34375 507.183594 412.570312 C 509.328125 413.792969 511.4375 415.0625 513.503906 416.375 C 515.574219 417.6875 517.601562 419.039062 519.585938 420.4375 C 521.570312 421.832031 523.511719 423.269531 525.410156 424.75 C 527.304688 426.226562 529.15625 427.742188 530.960938 429.300781 C 532.765625 430.855469 534.519531 432.449219 536.226562 434.078125 C 537.933594 435.707031 539.589844 437.371094 541.195312 439.074219 C 542.800781 440.773438 544.355469 442.503906 545.855469 444.273438 C 547.355469 446.039062 548.804688 447.835938 550.195312 449.660156 C 551.585938 451.488281 552.921875 453.347656 554.203125 455.230469 C 555.480469 457.117188 556.703125 459.027344 557.867188 460.964844 C 559.035156 462.902344 560.140625 464.867188 561.1875 466.851562 C 562.234375 468.835938 563.21875 470.84375 564.144531 472.875 C 565.070312 474.902344 565.9375 476.953125 566.738281 479.019531 C 567.542969 481.085938 568.285156 483.171875 568.964844 485.273438 C 569.640625 487.375 570.257812 489.492188 570.808594 491.621094 C 571.363281 493.75 571.851562 495.890625 572.277344 498.042969 C 572.699219 500.199219 573.0625 502.359375 573.355469 504.53125 C 573.652344 506.703125 573.886719 508.878906 574.050781 511.0625 C 574.21875 513.246094 574.320312 515.433594 574.359375 517.625 C 574.394531 519.816406 574.367188 522.011719 574.273438 524.203125 C 574.179688 526.398438 574.023438 528.589844 573.800781 530.78125 C 573.578125 532.972656 573.292969 535.160156 572.941406 537.34375 C 572.589844 539.527344 572.171875 541.703125 571.695312 543.871094 C 571.214844 546.039062 570.671875 548.199219 570.0625 550.351562 C 569.457031 552.5 568.785156 554.640625 568.054688 556.765625 C 567.320312 558.894531 566.527344 561.003906 565.671875 563.101562 C 564.816406 565.199219 563.898438 567.28125 562.917969 569.34375 C 561.941406 571.40625 560.902344 573.453125 559.804688 575.476562 C 558.707031 577.5 557.550781 579.503906 556.335938 581.484375 C 555.125 583.464844 553.851562 585.421875 552.523438 587.351562 C 551.195312 589.285156 549.8125 591.191406 548.371094 593.070312 C 546.933594 594.945312 545.441406 596.796875 543.894531 598.617188 C 542.347656 600.4375 540.75 602.226562 539.101562 603.984375 C 537.449219 605.746094 535.75 607.46875 534.003906 609.160156 C 532.253906 610.851562 530.457031 612.511719 528.613281 614.132812 C 526.765625 615.753906 524.878906 617.335938 522.941406 618.882812 C 521.007812 620.429688 519.027344 621.9375 517.007812 623.40625 C 514.984375 624.875 512.921875 626.304688 510.820312 627.691406 C 508.71875 629.078125 506.574219 630.421875 504.398438 631.722656 C 502.21875 633.027344 500.003906 634.285156 497.753906 635.496094 C 495.503906 636.710938 493.21875 637.878906 490.902344 639 C 488.589844 640.125 486.242188 641.199219 483.867188 642.226562 C 481.492188 643.257812 479.089844 644.238281 476.660156 645.167969 C 474.226562 646.101562 471.773438 646.984375 469.296875 647.816406 C 466.816406 648.652344 464.316406 649.433594 461.796875 650.167969 C 459.273438 650.902344 456.734375 651.582031 454.179688 652.214844 C 451.621094 652.84375 449.050781 653.425781 446.460938 653.949219 C 443.875 654.476562 441.273438 654.953125 438.664062 655.375 C 436.050781 655.796875 433.429688 656.164062 430.800781 656.480469 C 428.171875 656.796875 425.539062 657.058594 422.898438 657.265625 C 420.257812 657.476562 417.613281 657.632812 414.96875 657.730469 C 412.324219 657.832031 409.679688 657.882812 407.035156 657.875 C 404.390625 657.867188 401.75 657.808594 399.113281 657.695312 C 396.476562 657.582031 393.847656 657.414062 391.222656 657.191406 C 388.601562 656.96875 385.988281 656.695312 383.386719 656.367188 C 380.785156 656.039062 378.195312 655.65625 375.621094 655.222656 C 373.046875 654.789062 370.488281 654.300781 367.945312 653.761719 C 365.402344 653.222656 362.878906 652.632812 360.375 651.992188 C 357.871094 651.347656 355.390625 650.652344 352.933594 649.910156 C 350.476562 649.164062 348.042969 648.367188 345.632812 647.523438 C 343.226562 646.675781 340.847656 645.78125 338.496094 644.839844 C 336.148438 643.894531 333.828125 642.902344 331.539062 641.863281 C 329.25 640.824219 326.996094 639.738281 324.777344 638.605469 C 322.554688 637.46875 320.371094 636.292969 318.226562 635.066406 C 316.078125 633.84375 313.96875 632.574219 311.902344 631.261719 C 309.832031 629.953125 307.804688 628.597656 305.820312 627.199219 C 303.835938 625.804688 301.894531 624.367188 300 622.886719 C 298.101562 621.410156 296.25 619.894531 294.445312 618.335938 C 292.640625 616.78125 290.886719 615.1875 289.179688 613.558594 C 287.472656 611.929688 285.816406 610.265625 284.210938 608.5625 C 282.605469 606.863281 281.050781 605.132812 279.550781 603.367188 C 278.050781 601.597656 276.605469 599.800781 275.210938 597.976562 C 273.820312 596.148438 272.484375 594.289062 271.203125 592.40625 C 269.925781 590.519531 268.703125 588.609375 267.539062 586.671875 C 266.375 584.734375 265.269531 582.773438 264.222656 580.785156 C 263.175781 578.800781 262.1875 576.792969 261.261719 574.761719 C 260.335938 572.734375 259.46875 570.683594 258.667969 568.617188 C 257.863281 566.550781 257.121094 564.464844 256.445312 562.363281 C 255.765625 560.261719 255.148438 558.148438 254.597656 556.015625 C 254.042969 553.886719 253.554688 551.746094 253.132812 549.59375 C 252.707031 547.441406 252.34375 545.277344 252.050781 543.105469 C 251.753906 540.933594 251.523438 538.757812 251.355469 536.574219 C 251.1875 534.390625 251.085938 532.203125 251.050781 530.011719 C 251.011719 527.820312 251.039062 525.625 251.132812 523.433594 C 251.226562 521.238281 251.382812 519.046875 251.605469 516.855469 C 251.828125 514.664062 252.113281 512.476562 252.464844 510.292969 C 252.816406 508.113281 253.234375 505.9375 253.714844 503.765625 C 254.191406 501.597656 254.738281 499.4375 255.34375 497.285156 C 255.949219 495.136719 256.621094 492.996094 257.351562 490.871094 C 258.085938 488.746094 258.878906 486.632812 259.734375 484.535156 C 260.59375 482.4375 261.507812 480.355469 262.488281 478.292969 C 263.464844 476.230469 264.503906 474.183594 265.601562 472.160156 C 266.699219 470.136719 267.855469 468.132812 269.070312 466.152344 C 270.285156 464.171875 271.554688 462.214844 272.882812 460.285156 C 274.210938 458.351562 275.59375 456.445312 277.035156 454.570312 C 278.472656 452.691406 279.964844 450.839844 281.511719 449.019531 C 283.058594 447.199219 284.65625 445.410156 286.304688 443.652344 C 287.957031 441.894531 289.65625 440.167969 291.40625 438.476562 C 293.152344 436.785156 294.949219 435.128906 296.796875 433.503906 C 298.640625 431.882812 300.53125 430.300781 302.464844 428.753906 C 304.398438 427.207031 306.378906 425.699219 308.398438 424.230469 C 310.421875 422.761719 312.484375 421.332031 314.585938 419.945312 C 316.691406 418.558594 318.832031 417.214844 321.007812 415.914062 C 323.1875 414.613281 325.402344 413.355469 327.652344 412.140625 C 329.902344 410.925781 332.1875 409.757812 334.503906 408.636719 C 336.816406 407.515625 339.164062 406.4375 341.539062 405.410156 C 343.914062 404.378906 346.320312 403.398438 348.75 402.46875 C 351.179688 401.535156 353.632812 400.652344 356.109375 399.820312 C 358.589844 398.984375 361.089844 398.203125 363.609375 397.46875 C 366.132812 396.734375 368.671875 396.054688 371.226562 395.421875 C 373.785156 394.792969 376.355469 394.214844 378.945312 393.6875 C 381.53125 393.160156 384.132812 392.683594 386.742188 392.261719 C 389.355469 391.839844 391.976562 391.472656 394.605469 391.15625 C 397.234375 390.839844 399.867188 390.578125 402.507812 390.371094 Z M 402.507812 390.371094 " fill-opacity="1" fill-rule="nonzero"/></svg>