<svg xmlns="http://www.w3.org/2000/svg" xmlns:xlink="http://www.w3.org/1999/xlink" width="1080" zoomAndPan="magnify" viewBox="0 0 810 809.999993" height="1080" preserveAspectRatio="xMidYMid meet" version="1.0"><defs><clipPath id="4c1f600506"><path d="M 100 36.09375 L 710 36.09375 L 710 774 L 100 774 Z M 100 36.09375 " clip-rule="nonzero"/></clipPath><clipPath id="85d95f527a"><path d="M 112 48.09375 L 722 48.09375 L 722 786 L 112 786 Z M 112 48.09375 " clip-rule="nonzero"/></clipPath></defs><g clip-path="url(#4c1f600506)"><path fill="#fac80f" d="M 697.074219 36.09375 L 112.921875 36.09375 C 105.300781 36.09375 100.222656 41.171875 100.222656 48.789062 L 100.222656 759.9375 C 100.222656 765.015625 102.761719 768.824219 106.570312 771.363281 C 110.382812 773.90625 115.460938 773.90625 119.269531 771.363281 L 404.996094 608.816406 L 690.726562 770.09375 C 693.265625 772.632812 694.535156 772.632812 697.074219 772.632812 C 699.613281 772.632812 700.886719 772.632812 703.425781 771.363281 C 707.234375 768.824219 709.773438 765.015625 709.773438 759.9375 L 709.773438 48.789062 C 709.773438 41.171875 704.695312 36.09375 697.074219 36.09375 Z M 697.074219 36.09375 " fill-opacity="1" fill-rule="nonzero"/></g><g clip-path="url(#85d95f527a)"><path fill="#fac80f" d="M 709.074219 48.09375 L 124.921875 48.09375 C 117.300781 48.09375 112.222656 53.171875 112.222656 60.789062 L 112.222656 771.9375 C 112.222656 777.015625 114.761719 780.824219 118.570312 783.363281 C 122.382812 785.90625 127.460938 785.90625 131.269531 783.363281 L 416.996094 620.816406 L 702.726562 782.09375 C 705.265625 784.632812 706.535156 784.632812 709.074219 784.632812 C 711.613281 784.632812 712.886719 784.632812 715.425781 783.363281 C 719.234375 780.824219 721.773438 777.015625 721.773438 771.9375 L 721.773438 60.789062 C 721.773438 53.171875 716.695312 48.09375 709.074219 48.09375 Z M 709.074219 48.09375 " fill-opacity="1" fill-rule="nonzero"/></g></svg>