<svg xmlns="http://www.w3.org/2000/svg" xmlns:xlink="http://www.w3.org/1999/xlink" width="1080" zoomAndPan="magnify" viewBox="0 0 810 809.999993" height="1080" preserveAspectRatio="xMidYMid meet" version="1.0"><defs><clipPath id="7f542e1704"><path d="M 405 0 C 181.324219 0 0 181.324219 0 405 C 0 628.675781 181.324219 810 405 810 C 628.675781 810 810 628.675781 810 405 C 810 181.324219 628.675781 0 405 0 Z M 405 0 " clip-rule="nonzero"/></clipPath><clipPath id="220722aadc"><path d="M 136 187.351562 L 674 187.351562 L 674 622.351562 L 136 622.351562 Z M 136 187.351562 " clip-rule="nonzero"/></clipPath></defs><g clip-path="url(#7f542e1704)"><rect x="-81" width="972" fill="#ffffff" y="-80.999999" height="971.999992" fill-opacity="1"/></g><g clip-path="url(#220722aadc)"><path fill="#6995c9" d="M 609.839844 238.5625 L 540.933594 238.5625 L 533.023438 222.738281 C 522.371094 201.601562 500.847656 187.351562 475.984375 187.351562 C 475.910156 187.351562 475.832031 187.351562 475.753906 187.351562 L 334.222656 187.351562 C 334.15625 187.351562 334.082031 187.351562 334.003906 187.351562 C 309.140625 187.351562 287.621094 201.601562 277.132812 222.382812 L 276.96875 222.753906 L 269.054688 238.578125 L 200.152344 238.578125 C 164.800781 238.578125 136.136719 267.242188 136.136719 302.589844 L 136.136719 558.644531 C 136.136719 593.992188 164.800781 622.660156 200.152344 622.660156 L 609.839844 622.660156 C 645.1875 622.660156 673.851562 593.992188 673.851562 558.644531 L 673.851562 302.589844 C 673.851562 267.242188 645.1875 238.578125 609.839844 238.578125 Z M 648.246094 558.632812 C 648.246094 579.847656 631.050781 597.039062 609.839844 597.039062 L 200.152344 597.039062 C 178.9375 597.039062 161.742188 579.847656 161.742188 558.632812 L 161.742188 302.578125 C 161.742188 281.363281 178.9375 264.167969 200.152344 264.167969 L 276.96875 264.167969 C 281.949219 264.167969 286.261719 261.328125 288.375 257.179688 L 288.414062 257.101562 L 299.882812 234.058594 C 306.296875 221.445312 319.179688 212.957031 334.042969 212.957031 C 334.105469 212.957031 334.167969 212.957031 334.234375 212.957031 L 475.769531 212.957031 C 475.804688 212.957031 475.84375 212.957031 475.882812 212.957031 C 490.796875 212.957031 503.714844 221.511719 510.003906 233.96875 L 510.105469 234.1875 L 521.578125 257.230469 C 523.753906 261.378906 528.027344 264.167969 532.957031 264.167969 C 532.984375 264.167969 533.007812 264.167969 533.023438 264.167969 L 609.839844 264.167969 C 631.050781 264.167969 648.246094 281.363281 648.246094 302.578125 Z M 404.996094 315.378906 C 341.351562 315.378906 289.769531 366.964844 289.769531 430.605469 C 289.769531 494.246094 341.351562 545.828125 404.996094 545.828125 C 468.636719 545.828125 520.21875 494.246094 520.21875 430.605469 C 520.140625 367 468.597656 315.457031 405.007812 315.378906 Z M 404.996094 520.222656 C 355.5 520.222656 315.375 480.101562 315.375 430.605469 C 315.375 381.109375 355.5 340.984375 404.996094 340.984375 C 454.488281 340.984375 494.613281 381.109375 494.613281 430.605469 C 494.613281 480.101562 454.488281 520.222656 404.996094 520.222656 Z M 404.996094 520.222656 " fill-opacity="1" fill-rule="nonzero"/></g></svg>