<svg xmlns="http://www.w3.org/2000/svg" xmlns:xlink="http://www.w3.org/1999/xlink" width="1080" zoomAndPan="magnify" viewBox="0 0 810 809.999993" height="1080" preserveAspectRatio="xMidYMid meet" version="1.0"><path fill="#000000" d="M 497.460938 108 L 61.867188 543.570312 C 58.113281 547.328125 55.457031 552.042969 54.210938 557.214844 L 1.921875 773.160156 C -0.453125 782.964844 2.429688 793.304688 9.578125 800.421875 C 15.058594 805.902344 22.460938 808.898438 30.03125 808.898438 C 32.289062 808.898438 34.578125 808.644531 36.839844 808.078125 L 252.785156 755.785156 C 257.957031 754.542969 262.671875 751.886719 266.429688 748.132812 L 702 312.539062 Z M 497.460938 108 " fill-opacity="1" fill-rule="nonzero"/><path fill="#000000" d="M 792.316406 133.230469 L 676.769531 17.683594 C 664 4.914062 645.722656 -0.988281 626.203125 1.722656 C 609.449219 3.984375 593.148438 12.316406 580.265625 25.199219 L 538.367188 67.09375 L 742.90625 271.628906 L 784.800781 229.734375 C 797.683594 216.851562 806.015625 200.550781 808.277344 183.796875 C 810.902344 164.417969 805.085938 146 792.316406 133.230469 Z M 792.316406 133.230469 " fill-opacity="1" fill-rule="nonzero"/></svg>