<svg xmlns="http://www.w3.org/2000/svg" xmlns:xlink="http://www.w3.org/1999/xlink" width="1080" zoomAndPan="magnify" viewBox="0 0 810 809.999993" height="1080" preserveAspectRatio="xMidYMid meet" version="1.0"><defs><clipPath id="1b715c312f"><path d="M 641 191 L 687 191 L 687 234 L 641 234 Z M 641 191 " clip-rule="nonzero"/></clipPath><clipPath id="d631bb84c7"><path d="M 418.734375 17.980469 L 719 133.585938 L 447.90625 837.699219 L 147.640625 722.09375 Z M 418.734375 17.980469 " clip-rule="nonzero"/></clipPath><clipPath id="175be1f750"><path d="M 418.734375 17.980469 L 719 133.585938 L 447.90625 837.699219 L 147.640625 722.09375 Z M 418.734375 17.980469 " clip-rule="nonzero"/></clipPath><clipPath id="1a06575151"><path d="M 653.828125 181.675781 L 694.246094 197.238281 L 678.050781 239.304688 L 637.628906 223.742188 Z M 653.828125 181.675781 " clip-rule="nonzero"/></clipPath><clipPath id="26ed5115c5"><path d="M 559 367 L 605 367 L 605 411 L 559 411 Z M 559 367 " clip-rule="nonzero"/></clipPath><clipPath id="05a685f670"><path d="M 418.734375 17.980469 L 719 133.585938 L 447.90625 837.699219 L 147.640625 722.09375 Z M 418.734375 17.980469 " clip-rule="nonzero"/></clipPath><clipPath id="a56df2e200"><path d="M 418.734375 17.980469 L 719 133.585938 L 447.90625 837.699219 L 147.640625 722.09375 Z M 418.734375 17.980469 " clip-rule="nonzero"/></clipPath><clipPath id="aa7175f69e"><path d="M 318 354 L 355 354 L 355 389 L 318 389 Z M 318 354 " clip-rule="nonzero"/></clipPath><clipPath id="c1119f0df2"><path d="M 418.734375 17.980469 L 719 133.585938 L 447.90625 837.699219 L 147.640625 722.09375 Z M 418.734375 17.980469 " clip-rule="nonzero"/></clipPath><clipPath id="30fc715fed"><path d="M 418.734375 17.980469 L 719 133.585938 L 447.90625 837.699219 L 147.640625 722.09375 Z M 418.734375 17.980469 " clip-rule="nonzero"/></clipPath><clipPath id="44ae60b521"><path d="M 474 58 L 536 58 L 536 118 L 474 118 Z M 474 58 " clip-rule="nonzero"/></clipPath><clipPath id="3524a7cffc"><path d="M 418.734375 17.980469 L 719 133.585938 L 447.90625 837.699219 L 147.640625 722.09375 Z M 418.734375 17.980469 " clip-rule="nonzero"/></clipPath><clipPath id="3d56750e3f"><path d="M 418.734375 17.980469 L 719 133.585938 L 447.90625 837.699219 L 147.640625 722.09375 Z M 418.734375 17.980469 " clip-rule="nonzero"/></clipPath><clipPath id="4d49a018b3"><path d="M 152 293 L 477 293 L 477 729 L 152 729 Z M 152 293 " clip-rule="nonzero"/></clipPath><clipPath id="ef527abe9e"><path d="M 418.734375 17.980469 L 719 133.585938 L 447.90625 837.699219 L 147.640625 722.09375 Z M 418.734375 17.980469 " clip-rule="nonzero"/></clipPath><clipPath id="5b53fa2b14"><path d="M 418.734375 17.980469 L 719 133.585938 L 447.90625 837.699219 L 147.640625 722.09375 Z M 418.734375 17.980469 " clip-rule="nonzero"/></clipPath><clipPath id="1f41790380"><path d="M 332.855469 241.285156 L 479.296875 297.667969 L 294.140625 778.578125 L 147.699219 722.195312 Z M 332.855469 241.285156 " clip-rule="nonzero"/></clipPath><clipPath id="45f9d63a9f"><path d="M 319 386 L 410 386 L 410 498 L 319 498 Z M 319 386 " clip-rule="nonzero"/></clipPath><clipPath id="5af74ad8a0"><path d="M 418.734375 17.980469 L 719 133.585938 L 447.90625 837.699219 L 147.640625 722.09375 Z M 418.734375 17.980469 " clip-rule="nonzero"/></clipPath><clipPath id="185eaa775f"><path d="M 418.734375 17.980469 L 719 133.585938 L 447.90625 837.699219 L 147.640625 722.09375 Z M 418.734375 17.980469 " clip-rule="nonzero"/></clipPath><clipPath id="55c52adea5"><path d="M 199 547 L 294 547 L 294 662 L 199 662 Z M 199 547 " clip-rule="nonzero"/></clipPath><clipPath id="7870e95c5b"><path d="M 418.734375 17.980469 L 719 133.585938 L 447.90625 837.699219 L 147.640625 722.09375 Z M 418.734375 17.980469 " clip-rule="nonzero"/></clipPath><clipPath id="bd1c50beea"><path d="M 418.734375 17.980469 L 719 133.585938 L 447.90625 837.699219 L 147.640625 722.09375 Z M 418.734375 17.980469 " clip-rule="nonzero"/></clipPath><clipPath id="e56ab2da38"><path d="M 152 299 L 477 299 L 477 729 L 152 729 Z M 152 299 " clip-rule="nonzero"/></clipPath><clipPath id="a264e686f1"><path d="M 418.734375 17.980469 L 719 133.585938 L 447.90625 837.699219 L 147.640625 722.09375 Z M 418.734375 17.980469 " clip-rule="nonzero"/></clipPath><clipPath id="5b23609e41"><path d="M 418.734375 17.980469 L 719 133.585938 L 447.90625 837.699219 L 147.640625 722.09375 Z M 418.734375 17.980469 " clip-rule="nonzero"/></clipPath><clipPath id="62d36ac092"><path d="M 331.785156 244.0625 L 478.226562 300.445312 L 294.140625 778.578125 L 147.699219 722.195312 Z M 331.785156 244.0625 " clip-rule="nonzero"/></clipPath><clipPath id="f556470130"><path d="M 349 134 L 644 134 L 644 417 L 349 417 Z M 349 134 " clip-rule="nonzero"/></clipPath><clipPath id="6d0c2e3552"><path d="M 418.734375 17.980469 L 719 133.585938 L 447.90625 837.699219 L 147.640625 722.09375 Z M 418.734375 17.980469 " clip-rule="nonzero"/></clipPath><clipPath id="02b39e83db"><path d="M 418.734375 17.980469 L 719 133.585938 L 447.90625 837.699219 L 147.640625 722.09375 Z M 418.734375 17.980469 " clip-rule="nonzero"/></clipPath><clipPath id="052472a88f"><path d="M 345 225 L 369 225 L 369 248 L 345 248 Z M 345 225 " clip-rule="nonzero"/></clipPath><clipPath id="89c1dd1aa0"><path d="M 418.734375 17.980469 L 719 133.585938 L 447.90625 837.699219 L 147.640625 722.09375 Z M 418.734375 17.980469 " clip-rule="nonzero"/></clipPath><clipPath id="8dc73df211"><path d="M 418.734375 17.980469 L 719 133.585938 L 447.90625 837.699219 L 147.640625 722.09375 Z M 418.734375 17.980469 " clip-rule="nonzero"/></clipPath><clipPath id="53af4ca596"><path d="M 600 211 L 620 211 L 620 231 L 600 231 Z M 600 211 " clip-rule="nonzero"/></clipPath><clipPath id="b6e39f12cb"><path d="M 418.734375 17.980469 L 719 133.585938 L 447.90625 837.699219 L 147.640625 722.09375 Z M 418.734375 17.980469 " clip-rule="nonzero"/></clipPath><clipPath id="656546cc37"><path d="M 418.734375 17.980469 L 719 133.585938 L 447.90625 837.699219 L 147.640625 722.09375 Z M 418.734375 17.980469 " clip-rule="nonzero"/></clipPath><clipPath id="b1b646c68c"><path d="M 617 144 L 635 144 L 635 161 L 617 161 Z M 617 144 " clip-rule="nonzero"/></clipPath><clipPath id="afb3f0f251"><path d="M 418.734375 17.980469 L 719 133.585938 L 447.90625 837.699219 L 147.640625 722.09375 Z M 418.734375 17.980469 " clip-rule="nonzero"/></clipPath><clipPath id="a99ed4bfb1"><path d="M 418.734375 17.980469 L 719 133.585938 L 447.90625 837.699219 L 147.640625 722.09375 Z M 418.734375 17.980469 " clip-rule="nonzero"/></clipPath><clipPath id="59ac0436fb"><path d="M 629 262 L 638 262 L 638 271 L 629 271 Z M 629 262 " clip-rule="nonzero"/></clipPath><clipPath id="c83cdc4d00"><path d="M 418.734375 17.980469 L 719 133.585938 L 447.90625 837.699219 L 147.640625 722.09375 Z M 418.734375 17.980469 " clip-rule="nonzero"/></clipPath><clipPath id="2d52f0d864"><path d="M 418.734375 17.980469 L 719 133.585938 L 447.90625 837.699219 L 147.640625 722.09375 Z M 418.734375 17.980469 " clip-rule="nonzero"/></clipPath><clipPath id="8c0413f295"><path d="M 484 151 L 498 151 L 498 164 L 484 164 Z M 484 151 " clip-rule="nonzero"/></clipPath><clipPath id="5c09d606e8"><path d="M 418.734375 17.980469 L 719 133.585938 L 447.90625 837.699219 L 147.640625 722.09375 Z M 418.734375 17.980469 " clip-rule="nonzero"/></clipPath><clipPath id="2ba9083a05"><path d="M 418.734375 17.980469 L 719 133.585938 L 447.90625 837.699219 L 147.640625 722.09375 Z M 418.734375 17.980469 " clip-rule="nonzero"/></clipPath><clipPath id="375ffaf6db"><path d="M 391 339 L 402 339 L 402 350 L 391 350 Z M 391 339 " clip-rule="nonzero"/></clipPath><clipPath id="ce9cab59e3"><path d="M 418.734375 17.980469 L 719 133.585938 L 447.90625 837.699219 L 147.640625 722.09375 Z M 418.734375 17.980469 " clip-rule="nonzero"/></clipPath><clipPath id="265991e69c"><path d="M 418.734375 17.980469 L 719 133.585938 L 447.90625 837.699219 L 147.640625 722.09375 Z M 418.734375 17.980469 " clip-rule="nonzero"/></clipPath><clipPath id="52b5cb97e3"><path d="M 392 203 L 403 203 L 403 213 L 392 213 Z M 392 203 " clip-rule="nonzero"/></clipPath><clipPath id="5a14a70650"><path d="M 418.734375 17.980469 L 719 133.585938 L 447.90625 837.699219 L 147.640625 722.09375 Z M 418.734375 17.980469 " clip-rule="nonzero"/></clipPath><clipPath id="6f910bf80e"><path d="M 418.734375 17.980469 L 719 133.585938 L 447.90625 837.699219 L 147.640625 722.09375 Z M 418.734375 17.980469 " clip-rule="nonzero"/></clipPath><clipPath id="91e0c18f7c"><path d="M 446 397 L 460 397 L 460 410 L 446 410 Z M 446 397 " clip-rule="nonzero"/></clipPath><clipPath id="ffe228a98d"><path d="M 418.734375 17.980469 L 719 133.585938 L 447.90625 837.699219 L 147.640625 722.09375 Z M 418.734375 17.980469 " clip-rule="nonzero"/></clipPath><clipPath id="b338e6e37f"><path d="M 418.734375 17.980469 L 719 133.585938 L 447.90625 837.699219 L 147.640625 722.09375 Z M 418.734375 17.980469 " clip-rule="nonzero"/></clipPath></defs><g clip-path="url(#1b715c312f)"><g clip-path="url(#d631bb84c7)"><g clip-path="url(#175be1f750)"><g clip-path="url(#1a06575151)"><path fill="#fdcc1a" d="M 678.566406 193.042969 L 675.707031 205.734375 C 675.578125 206.300781 675.773438 206.890625 676.207031 207.277344 L 685.960938 215.878906 C 687.003906 216.800781 686.445312 218.523438 685.058594 218.648438 L 672.105469 219.855469 C 671.527344 219.90625 671.023438 220.273438 670.792969 220.804688 L 665.621094 232.746094 C 665.070312 234.023438 663.257812 234.015625 662.707031 232.738281 L 657.5625 220.789062 C 657.332031 220.261719 656.832031 219.894531 656.253906 219.839844 L 643.300781 218.609375 C 641.917969 218.476562 641.359375 216.753906 642.402344 215.839844 L 652.179688 207.25 C 652.609375 206.867188 652.804688 206.277344 652.679688 205.710938 L 649.84375 193.015625 C 649.542969 191.65625 651.007812 190.59375 652.203125 191.304688 L 663.390625 197.945312 C 663.890625 198.242188 664.511719 198.238281 665.007812 197.945312 L 676.210938 191.328125 C 677.410156 190.617188 678.871094 191.683594 678.566406 193.042969 " fill-opacity="1" fill-rule="nonzero"/></g></g></g></g><g clip-path="url(#26ed5115c5)"><g clip-path="url(#05a685f670)"><g clip-path="url(#a56df2e200)"><path fill="#fdcc1a" d="M 596.582031 369.425781 L 593.722656 382.117188 C 593.59375 382.6875 593.785156 383.273438 594.21875 383.65625 L 603.976562 392.265625 C 605.019531 393.1875 604.457031 394.90625 603.070312 395.035156 L 590.117188 396.238281 C 589.542969 396.292969 589.039062 396.660156 588.808594 397.191406 L 583.636719 409.125 C 583.085938 410.402344 581.273438 410.402344 580.722656 409.125 L 575.574219 397.175781 C 575.34375 396.644531 574.84375 396.277344 574.265625 396.222656 L 561.316406 394.996094 C 559.933594 394.863281 559.375 393.140625 560.417969 392.21875 L 570.191406 383.632812 C 570.625 383.253906 570.820312 382.664062 570.691406 382.09375 L 567.859375 369.394531 C 567.554688 368.039062 569.023438 366.976562 570.21875 367.6875 L 581.40625 374.332031 C 581.902344 374.625 582.523438 374.625 583.023438 374.328125 L 594.222656 367.714844 C 595.421875 367.003906 596.886719 368.070312 596.582031 369.425781 " fill-opacity="1" fill-rule="nonzero"/></g></g></g><g clip-path="url(#aa7175f69e)"><g clip-path="url(#c1119f0df2)"><g clip-path="url(#30fc715fed)"><path fill="#fdcc1a" d="M 347.703125 356.070312 L 345.410156 366.257812 C 345.308594 366.710938 345.460938 367.183594 345.808594 367.492188 L 353.640625 374.402344 C 354.476562 375.140625 354.027344 376.523438 352.914062 376.625 L 342.515625 377.589844 C 342.054688 377.632812 341.652344 377.925781 341.464844 378.351562 L 337.3125 387.9375 C 336.871094 388.960938 335.417969 388.957031 334.972656 387.933594 L 330.84375 378.34375 C 330.660156 377.914062 330.257812 377.621094 329.792969 377.578125 L 319.398438 376.589844 C 318.285156 376.488281 317.835938 375.101562 318.675781 374.367188 L 326.523438 367.472656 C 326.871094 367.167969 327.027344 366.691406 326.925781 366.238281 L 324.648438 356.046875 C 324.40625 354.957031 325.582031 354.101562 326.542969 354.671875 L 335.523438 360.003906 C 335.921875 360.242188 336.421875 360.242188 336.820312 360.003906 L 345.8125 354.691406 C 346.773438 354.125 347.949219 354.980469 347.703125 356.070312 " fill-opacity="1" fill-rule="nonzero"/></g></g></g><g clip-path="url(#44ae60b521)"><g clip-path="url(#3524a7cffc)"><g clip-path="url(#3d56750e3f)"><path fill="#fdcc1a" d="M 524.597656 61.460938 L 520.6875 78.820312 C 520.515625 79.589844 520.777344 80.398438 521.371094 80.921875 L 534.714844 92.695312 C 536.140625 93.957031 535.375 96.3125 533.480469 96.488281 L 515.761719 98.132812 C 514.96875 98.207031 514.285156 98.703125 513.96875 99.429688 L 506.894531 115.757812 C 506.140625 117.507812 503.660156 117.503906 502.90625 115.757812 L 495.867188 99.417969 C 495.554688 98.683594 494.867188 98.1875 494.078125 98.113281 L 476.363281 96.433594 C 474.46875 96.25 473.703125 93.894531 475.136719 92.636719 L 488.503906 80.890625 C 489.097656 80.367188 489.359375 79.5625 489.191406 78.785156 L 485.3125 61.421875 C 484.898438 59.5625 486.902344 58.105469 488.542969 59.078125 L 503.84375 68.164062 C 504.523438 68.566406 505.375 68.570312 506.054688 68.164062 L 521.375 59.109375 C 523.015625 58.140625 525.015625 59.601562 524.597656 61.460938 " fill-opacity="1" fill-rule="nonzero"/></g></g></g><g clip-path="url(#4d49a018b3)"><g clip-path="url(#ef527abe9e)"><g clip-path="url(#5b53fa2b14)"><g clip-path="url(#1f41790380)"><path fill="#95d3fa" d="M 185.5 717.808594 C 184.941406 718.546875 184.382812 719.257812 183.816406 719.90625 C 182.96875 720.902344 182.097656 721.796875 181.210938 722.601562 C 179.738281 723.941406 178.230469 725.050781 176.730469 725.929688 C 176.71875 725.945312 176.707031 725.9375 176.707031 725.9375 C 175.800781 726.46875 174.902344 726.90625 174.015625 727.269531 C 173.992188 727.277344 173.992188 727.277344 173.992188 727.277344 C 173.535156 727.46875 173.078125 727.628906 172.636719 727.773438 C 172.484375 727.8125 172.34375 727.871094 172.203125 727.898438 C 171.914062 727.996094 171.609375 728.085938 171.304688 728.148438 C 168.925781 728.726562 166.609375 728.78125 164.464844 728.382812 C 163.820312 728.25 163.1875 728.105469 162.570312 727.910156 C 161.960938 727.707031 161.367188 727.453125 160.785156 727.183594 C 160.71875 727.136719 160.652344 727.113281 160.589844 727.09375 C 159.316406 726.453125 158.15625 725.632812 157.160156 724.648438 C 156.6875 724.195312 156.25 723.703125 155.839844 723.167969 C 155.652344 722.929688 155.46875 722.691406 155.292969 722.4375 C 154.789062 721.675781 154.34375 720.863281 153.960938 719.988281 C 153.972656 719.96875 153.949219 719.976562 153.949219 719.976562 C 153.714844 719.390625 153.496094 718.789062 153.3125 718.164062 C 152.957031 716.894531 152.71875 715.550781 152.667969 714.140625 C 152.644531 713.785156 152.648438 713.425781 152.636719 713.054688 C 152.691406 711.226562 152.972656 709.28125 153.558594 707.238281 C 153.734375 706.644531 153.9375 706.039062 154.148438 705.441406 C 154.28125 705.09375 154.425781 704.757812 154.554688 704.417969 C 154.664062 704.15625 154.785156 703.882812 154.90625 703.605469 C 155.605469 702.011719 156.496094 700.378906 157.578125 698.730469 C 157.5625 698.722656 174.097656 676.671875 199.386719 642.953125 C 219.132812 616.628906 244.226562 583.203125 270.988281 547.570312 C 286.925781 526.308594 303.472656 504.273438 319.828125 482.464844 C 345.132812 448.75 369.964844 415.65625 391.488281 386.996094 C 430.347656 335.21875 458.320312 297.949219 458.371094 297.855469 C 464.324219 290.308594 473.722656 293.550781 475.71875 300.242188 C 476.4375 302.578125 476.242188 305.3125 474.679688 308.171875 C 474.496094 308.53125 474.277344 308.890625 474.042969 309.238281 L 409.476562 400.664062 L 340.828125 497.855469 L 293.597656 564.757812 L 225.011719 661.867188 L 185.5 717.808594 " fill-opacity="1" fill-rule="nonzero"/></g></g></g></g><g clip-path="url(#45f9d63a9f)"><g clip-path="url(#5af74ad8a0)"><g clip-path="url(#185eaa775f)"><path fill="#617fa2" d="M 340.828125 497.855469 C 338.789062 497.230469 336.8125 496.632812 334.992188 495.570312 C 329.546875 492.433594 322.777344 487.640625 319.828125 482.464844 C 345.132812 448.75 369.964844 415.65625 391.488281 386.996094 C 395.019531 390.785156 399.527344 394.769531 405.125 398.222656 C 406.503906 399.070312 407.957031 399.894531 409.476562 400.664062 L 340.828125 497.855469 " fill-opacity="1" fill-rule="nonzero"/></g></g></g><g clip-path="url(#55c52adea5)"><g clip-path="url(#7870e95c5b)"><g clip-path="url(#bd1c50beea)"><path fill="#617fa2" d="M 225.011719 661.867188 C 222.066406 661.445312 219.546875 660.578125 217.09375 659.207031 C 210.597656 655.59375 202.894531 649.609375 199.386719 642.953125 C 219.132812 616.628906 244.226562 583.203125 270.988281 547.570312 C 274.898438 552.183594 280.320312 557.324219 287.457031 561.5625 C 289.382812 562.703125 291.421875 563.769531 293.597656 564.757812 L 225.011719 661.867188 " fill-opacity="1" fill-rule="nonzero"/></g></g></g><g clip-path="url(#e56ab2da38)"><g clip-path="url(#a264e686f1)"><g clip-path="url(#5b23609e41)"><g clip-path="url(#62d36ac092)"><path fill="#617fa2" d="M 185.5 717.808594 C 184.941406 718.546875 184.382812 719.257812 183.816406 719.90625 C 182.96875 720.902344 182.097656 721.796875 181.210938 722.601562 C 179.738281 723.941406 178.230469 725.050781 176.730469 725.929688 C 176.71875 725.945312 176.707031 725.9375 176.707031 725.9375 C 175.800781 726.46875 174.902344 726.90625 174.015625 727.269531 C 173.992188 727.277344 173.992188 727.277344 173.992188 727.277344 C 173.535156 727.46875 173.078125 727.628906 172.636719 727.773438 C 172.484375 727.8125 172.34375 727.871094 172.203125 727.898438 C 171.914062 727.996094 171.609375 728.085938 171.304688 728.148438 C 168.925781 728.726562 166.609375 728.78125 164.464844 728.382812 C 163.164062 728.136719 161.9375 727.738281 160.785156 727.183594 C 160.71875 727.136719 160.652344 727.113281 160.589844 727.09375 C 158.746094 726.140625 157.125 724.832031 155.839844 723.167969 C 152.859375 719.335938 151.683594 713.738281 153.558594 707.238281 C 153.734375 706.644531 153.9375 706.039062 154.148438 705.441406 C 154.386719 704.839844 154.628906 704.234375 154.90625 703.605469 C 159.328125 714.316406 174.757812 717.152344 186.363281 701.867188 L 217.738281 658.3125 L 287.457031 561.5625 L 335.390625 495.011719 L 405.125 398.222656 L 475.71875 300.242188 L 476.03125 299.820312 C 476.742188 302.101562 476.488281 305.003906 474.679688 308.171875 C 474.496094 308.53125 474.277344 308.890625 474.042969 309.238281 L 409.476562 400.664062 L 340.828125 497.855469 L 293.597656 564.757812 L 225.011719 661.867188 L 185.5 717.808594 " fill-opacity="1" fill-rule="nonzero"/></g></g></g></g><g clip-path="url(#f556470130)"><g clip-path="url(#6d0c2e3552)"><g clip-path="url(#02b39e83db)"><path fill="#fdcc1a" d="M 560.785156 286.574219 L 521.25 290.246094 C 519.492188 290.410156 517.957031 291.519531 517.253906 293.144531 L 501.472656 329.578125 C 499.785156 333.472656 494.257812 333.46875 492.578125 329.566406 L 476.871094 293.101562 C 476.167969 291.476562 474.636719 290.363281 472.875 290.199219 L 433.347656 286.449219 C 429.121094 286.046875 427.417969 280.785156 430.609375 277.984375 L 460.433594 251.777344 C 461.765625 250.605469 462.351562 248.804688 461.964844 247.078125 L 453.316406 208.328125 C 452.394531 204.183594 456.867188 200.9375 460.519531 203.105469 L 494.664062 223.375 C 496.183594 224.277344 498.074219 224.28125 499.601562 223.378906 L 533.78125 203.179688 C 537.4375 201.019531 541.90625 204.273438 540.972656 208.417969 L 532.25 247.148438 C 531.859375 248.878906 532.441406 250.679688 533.769531 251.851562 L 563.542969 278.113281 C 566.726562 280.925781 565.015625 286.183594 560.785156 286.574219 Z M 634.269531 317.070312 C 643.421875 316.222656 647.128906 304.851562 640.238281 298.769531 L 575.8125 241.929688 C 572.941406 239.398438 571.679688 235.5 572.519531 231.761719 L 591.402344 147.949219 C 593.417969 138.988281 583.75 131.945312 575.835938 136.621094 L 501.875 180.328125 C 498.578125 182.277344 494.480469 182.273438 491.1875 180.316406 L 417.3125 136.460938 C 409.410156 131.769531 399.726562 138.789062 401.726562 147.761719 L 420.4375 231.613281 C 421.273438 235.351562 420.003906 239.246094 417.125 241.773438 L 352.589844 298.480469 C 345.683594 304.546875 349.367188 315.929688 358.515625 316.792969 L 444.046875 324.90625 C 447.859375 325.273438 451.171875 327.683594 452.6875 331.203125 L 486.675781 410.105469 C 490.3125 418.542969 502.273438 418.554688 505.925781 410.125 L 540.074219 331.289062 C 541.59375 327.773438 544.910156 325.367188 548.726562 325.015625 L 634.269531 317.070312 " fill-opacity="1" fill-rule="nonzero"/><path fill="#e58a22" d="M 536.535156 323.285156 L 505.789062 394.269531 C 502.496094 401.863281 491.726562 401.855469 488.453125 394.253906 L 457.847656 323.203125 C 456.484375 320.039062 453.5 317.867188 450.070312 317.542969 L 373.054688 310.234375 C 364.816406 309.457031 361.5 299.203125 367.714844 293.746094 L 425.828125 242.683594 C 428.417969 240.40625 429.5625 236.902344 428.808594 233.535156 L 411.960938 158.03125 C 410.160156 149.953125 418.878906 143.632812 425.996094 147.859375 L 492.515625 187.347656 C 495.480469 189.105469 499.167969 189.113281 502.136719 187.359375 L 568.738281 148 C 575.863281 143.789062 584.570312 150.132812 582.75 158.203125 L 565.75 233.671875 C 564.992188 237.035156 566.128906 240.546875 568.714844 242.824219 L 626.726562 294.003906 C 632.929688 299.480469 629.59375 309.71875 621.355469 310.484375 L 544.324219 317.636719 C 540.890625 317.957031 537.90625 320.121094 536.535156 323.285156 Z M 634.269531 317.070312 C 643.421875 316.222656 647.128906 304.851562 640.238281 298.769531 L 575.8125 241.929688 C 572.941406 239.398438 571.679688 235.5 572.519531 231.761719 L 591.402344 147.949219 C 593.417969 138.988281 583.75 131.945312 575.835938 136.621094 L 501.875 180.328125 C 498.578125 182.277344 494.480469 182.273438 491.1875 180.316406 L 417.3125 136.460938 C 409.410156 131.769531 399.726562 138.789062 401.726562 147.761719 L 420.4375 231.613281 C 421.273438 235.351562 420.003906 239.246094 417.125 241.773438 L 352.589844 298.480469 C 345.683594 304.546875 349.367188 315.929688 358.515625 316.792969 L 444.046875 324.90625 C 447.859375 325.273438 451.171875 327.683594 452.6875 331.203125 L 486.675781 410.105469 C 490.3125 418.542969 502.273438 418.554688 505.925781 410.125 L 540.074219 331.289062 C 541.59375 327.773438 544.910156 325.367188 548.726562 325.015625 L 634.269531 317.070312 " fill-opacity="1" fill-rule="nonzero"/></g></g></g><g clip-path="url(#052472a88f)"><g clip-path="url(#89c1dd1aa0)"><g clip-path="url(#8dc73df211)"><path fill="#95d3fa" d="M 366.199219 242.839844 C 362.550781 247.855469 355.527344 248.960938 350.511719 245.3125 C 345.496094 241.660156 344.390625 234.636719 348.042969 229.621094 C 351.691406 224.609375 358.714844 223.503906 363.730469 227.152344 C 368.746094 230.808594 369.851562 237.832031 366.199219 242.839844 " fill-opacity="1" fill-rule="nonzero"/></g></g></g><g clip-path="url(#53af4ca596)"><g clip-path="url(#b6e39f12cb)"><g clip-path="url(#656546cc37)"><path fill="#95d3fa" d="M 617.589844 226.898438 C 614.472656 231.179688 608.480469 232.121094 604.199219 229.003906 C 599.917969 225.890625 598.972656 219.894531 602.089844 215.609375 C 605.207031 211.332031 611.203125 210.386719 615.484375 213.503906 C 619.761719 216.621094 620.707031 222.617188 617.589844 226.898438 " fill-opacity="1" fill-rule="nonzero"/></g></g></g><g clip-path="url(#b1b646c68c)"><g clip-path="url(#afb3f0f251)"><g clip-path="url(#a99ed4bfb1)"><path fill="#95d3fa" d="M 632.757812 157.207031 C 630.082031 160.878906 624.9375 161.691406 621.261719 159.015625 C 617.585938 156.339844 616.777344 151.195312 619.453125 147.515625 C 622.128906 143.84375 627.277344 143.03125 630.949219 145.707031 C 634.621094 148.386719 635.433594 153.53125 632.757812 157.207031 " fill-opacity="1" fill-rule="nonzero"/></g></g></g><g clip-path="url(#59ac0436fb)"><g clip-path="url(#c83cdc4d00)"><g clip-path="url(#2d52f0d864)"><path fill="#617fa2" d="M 637.03125 268.792969 C 635.683594 270.644531 633.085938 271.054688 631.226562 269.703125 C 629.371094 268.351562 628.964844 265.753906 630.316406 263.898438 C 631.664062 262.042969 634.265625 261.632812 636.121094 262.984375 C 637.976562 264.335938 638.382812 266.9375 637.03125 268.792969 " fill-opacity="1" fill-rule="nonzero"/></g></g></g><g clip-path="url(#8c0413f295)"><g clip-path="url(#5c09d606e8)"><g clip-path="url(#2ba9083a05)"><path fill="#617fa2" d="M 495.90625 160.898438 C 493.921875 163.625 490.101562 164.226562 487.375 162.242188 C 484.652344 160.257812 484.050781 156.4375 486.035156 153.710938 C 488.019531 150.984375 491.835938 150.386719 494.5625 152.371094 C 497.289062 154.355469 497.890625 158.171875 495.90625 160.898438 " fill-opacity="1" fill-rule="nonzero"/></g></g></g><g clip-path="url(#375ffaf6db)"><g clip-path="url(#ce9cab59e3)"><g clip-path="url(#265991e69c)"><path fill="#617fa2" d="M 400.441406 347.539062 C 398.886719 349.675781 395.886719 350.148438 393.75 348.59375 C 391.609375 347.035156 391.140625 344.039062 392.695312 341.902344 C 394.253906 339.761719 397.25 339.289062 399.386719 340.847656 C 401.527344 342.402344 401.996094 345.402344 400.441406 347.539062 " fill-opacity="1" fill-rule="nonzero"/></g></g></g><g clip-path="url(#52b5cb97e3)"><g clip-path="url(#5a14a70650)"><g clip-path="url(#6f910bf80e)"><path fill="#95d3fa" d="M 401.429688 210.949219 C 399.875 213.089844 396.878906 213.5625 394.738281 212.007812 C 392.597656 210.449219 392.128906 207.453125 393.6875 205.3125 C 395.246094 203.171875 398.238281 202.703125 400.378906 204.261719 C 402.515625 205.816406 402.988281 208.816406 401.429688 210.949219 " fill-opacity="1" fill-rule="nonzero"/></g></g></g><g clip-path="url(#91e0c18f7c)"><g clip-path="url(#ffe228a98d)"><g clip-path="url(#b338e6e37f)"><path fill="#95d3fa" d="M 458.097656 407.375 C 456.101562 410.117188 452.261719 410.71875 449.515625 408.722656 C 446.777344 406.726562 446.171875 402.882812 448.167969 400.144531 C 450.164062 397.398438 454.007812 396.792969 456.75 398.792969 C 459.492188 400.789062 460.097656 404.632812 458.097656 407.375 " fill-opacity="1" fill-rule="nonzero"/></g></g></g></svg>