<svg xmlns="http://www.w3.org/2000/svg" xmlns:xlink="http://www.w3.org/1999/xlink" width="1080" zoomAndPan="magnify" viewBox="0 0 810 809.999993" height="1080" preserveAspectRatio="xMidYMid meet" version="1.0"><defs><clipPath id="a73097d8d4"><path d="M 16 141.382812 L 794 141.382812 L 794 668 L 16 668 Z M 16 141.382812 " clip-rule="nonzero"/></clipPath></defs><g clip-path="url(#a73097d8d4)"><path fill="#bdd2e3" d="M 770.671875 385.84375 C 736.746094 256.449219 697.648438 171.328125 607.585938 146.867188 C 593.835938 143.148438 580.894531 141.332031 568.011719 141.332031 C 540.832031 141.332031 518.972656 149.515625 497.773438 157.445312 C 478.277344 164.738281 456.503906 172.730469 426.382812 175.4375 L 403.839844 176.097656 C 403.839844 176.21875 335.757812 166.242188 312.058594 157.359375 C 290.976562 149.453125 269.152344 141.28125 242.097656 141.28125 C 229.179688 141.28125 216.210938 143.097656 202.476562 146.84375 C 112.339844 171.316406 73.253906 256.425781 39.402344 385.832031 C 0.144531 535.71875 11.003906 636.1875 69.167969 661.523438 C 78.632812 665.671875 88.613281 667.769531 98.785156 667.769531 C 150.507812 667.769531 198.070312 613.398438 232.8125 573.65625 L 242.269531 562.703125 C 270.59375 529.570312 329.929688 510.574219 405.023438 510.574219 C 486.695312 510.574219 536.894531 526.652344 567.757812 562.75 L 577.222656 573.730469 C 611.929688 613.425781 659.453125 667.746094 711.214844 667.746094 C 721.449219 667.746094 731.390625 665.648438 740.796875 661.523438 C 798.972656 636.199219 809.839844 535.730469 770.671875 385.84375 Z M 281.425781 395.96875 L 242.597656 395.96875 L 242.597656 433.578125 C 242.597656 447.375 230.460938 459 216.101562 459 C 201.707031 459 189.570312 447.375 189.570312 433.578125 L 189.570312 395.96875 L 153.09375 395.96875 C 139.335938 395.96875 127.683594 383.816406 127.683594 369.449219 C 127.683594 355.054688 139.324219 342.914062 153.09375 342.914062 L 189.570312 342.914062 L 189.570312 305.269531 C 189.570312 291.496094 201.71875 279.847656 216.101562 279.847656 C 230.460938 279.847656 242.597656 291.496094 242.597656 305.269531 L 242.597656 342.914062 L 281.425781 342.914062 C 295.175781 342.914062 306.835938 355.054688 306.835938 369.449219 C 306.847656 383.832031 295.1875 395.96875 281.425781 395.96875 Z M 557.179688 442.117188 C 535.671875 442.117188 518.191406 424.648438 518.191406 403.152344 C 518.191406 381.660156 535.710938 364.191406 557.179688 364.191406 C 578.648438 364.191406 596.105469 381.671875 596.105469 403.152344 C 596.105469 424.648438 578.636719 442.117188 557.179688 442.117188 Z M 629.871094 369.421875 C 608.378906 369.421875 590.921875 351.929688 590.921875 330.449219 C 590.921875 308.976562 608.402344 291.496094 629.871094 291.496094 C 651.34375 291.496094 668.835938 308.976562 668.847656 330.449219 C 668.847656 351.941406 651.34375 369.421875 629.871094 369.421875 Z M 629.871094 369.421875 " fill-opacity="1" fill-rule="nonzero"/></g></svg>