<svg xmlns="http://www.w3.org/2000/svg" xmlns:xlink="http://www.w3.org/1999/xlink" width="1080" zoomAndPan="magnify" viewBox="0 0 810 809.999993" height="1080" preserveAspectRatio="xMidYMid meet" version="1.0"><defs><clipPath id="606d956fa4"><path d="M 81 81 L 729 81 L 729 729 L 81 729 Z M 81 81 " clip-rule="nonzero"/></clipPath><clipPath id="309dd8c256"><path d="M 81 156 L 81 654 C 81 695.421875 114.578125 729 156 729 L 654 729 C 695.421875 729 729 695.421875 729 654 L 729 156 C 729 114.578125 695.421875 81 654 81 L 156 81 C 114.578125 81 81 114.578125 81 156 Z M 81 156 " clip-rule="nonzero"/></clipPath><clipPath id="fbba0fab2f"><path d="M 297 215 L 514 215 L 514 485 L 297 485 Z M 297 215 " clip-rule="nonzero"/></clipPath><clipPath id="ba7a21dcff"><path d="M 81 156 L 81 654 C 81 695.421875 114.578125 729 156 729 L 654 729 C 695.421875 729 729 695.421875 729 654 L 729 156 C 729 114.578125 695.421875 81 654 81 L 156 81 C 114.578125 81 81 114.578125 81 156 Z M 81 156 " clip-rule="nonzero"/></clipPath><clipPath id="bd0c8d8042"><path d="M 378 540 L 433 540 L 433 595 L 378 595 Z M 378 540 " clip-rule="nonzero"/></clipPath><clipPath id="a3df313dc3"><path d="M 81 156 L 81 654 C 81 695.421875 114.578125 729 156 729 L 654 729 C 695.421875 729 729 695.421875 729 654 L 729 156 C 729 114.578125 695.421875 81 654 81 L 156 81 C 114.578125 81 81 114.578125 81 156 Z M 81 156 " clip-rule="nonzero"/></clipPath></defs><g clip-path="url(#606d956fa4)"><g clip-path="url(#309dd8c256)"><path fill="#ffffff" d="M 405 81 C 399.699219 81 394.398438 81.128906 389.101562 81.390625 C 383.804688 81.652344 378.519531 82.039062 373.242188 82.558594 C 367.964844 83.078125 362.703125 83.730469 357.460938 84.507812 C 352.214844 85.285156 346.992188 86.191406 341.789062 87.226562 C 336.589844 88.261719 331.417969 89.421875 326.273438 90.710938 C 321.128906 92 316.023438 93.414062 310.949219 94.953125 C 305.875 96.492188 300.839844 98.152344 295.847656 99.941406 C 290.855469 101.726562 285.910156 103.632812 281.011719 105.664062 C 276.113281 107.691406 271.265625 109.839844 266.472656 112.109375 C 261.679688 114.375 256.945312 116.757812 252.265625 119.257812 C 247.589844 121.757812 242.980469 124.371094 238.429688 127.097656 C 233.882812 129.820312 229.402344 132.65625 224.996094 135.605469 C 220.585938 138.550781 216.253906 141.601562 211.992188 144.761719 C 207.734375 147.917969 203.554688 151.179688 199.457031 154.542969 C 195.359375 157.910156 191.34375 161.371094 187.414062 164.933594 C 183.484375 168.492188 179.648438 172.148438 175.898438 175.898438 C 172.148438 179.648438 168.492188 183.484375 164.933594 187.414062 C 161.371094 191.34375 157.910156 195.359375 154.542969 199.457031 C 151.179688 203.554688 147.917969 207.734375 144.761719 211.992188 C 141.601562 216.253906 138.550781 220.585938 135.605469 224.996094 C 132.65625 229.402344 129.820312 233.882812 127.097656 238.429688 C 124.371094 242.980469 121.757812 247.589844 119.257812 252.265625 C 116.757812 256.945312 114.375 261.679688 112.109375 266.472656 C 109.839844 271.265625 107.691406 276.113281 105.664062 281.011719 C 103.632812 285.910156 101.726562 290.855469 99.941406 295.847656 C 98.152344 300.839844 96.492188 305.875 94.953125 310.949219 C 93.410156 316.023438 92 321.128906 90.710938 326.273438 C 89.421875 331.417969 88.261719 336.589844 87.226562 341.789062 C 86.191406 346.992188 85.285156 352.214844 84.507812 357.460938 C 83.730469 362.703125 83.078125 367.964844 82.558594 373.242188 C 82.039062 378.519531 81.652344 383.804688 81.390625 389.101562 C 81.128906 394.398438 81 399.699219 81 405 C 81 410.300781 81.128906 415.601562 81.390625 420.898438 C 81.652344 426.195312 82.039062 431.480469 82.558594 436.757812 C 83.078125 442.035156 83.730469 447.296875 84.507812 452.539062 C 85.285156 457.785156 86.191406 463.007812 87.226562 468.210938 C 88.261719 473.410156 89.421875 478.582031 90.710938 483.726562 C 92 488.871094 93.410156 493.976562 94.953125 499.050781 C 96.492188 504.125 98.152344 509.160156 99.941406 514.152344 C 101.726562 519.144531 103.632812 524.089844 105.664062 528.988281 C 107.691406 533.886719 109.839844 538.734375 112.109375 543.527344 C 114.375 548.320312 116.757812 553.054688 119.257812 557.734375 C 121.757812 562.410156 124.371094 567.019531 127.097656 571.570312 C 129.820312 576.117188 132.65625 580.597656 135.605469 585.003906 C 138.550781 589.414062 141.601562 593.746094 144.761719 598.007812 C 147.917969 602.265625 151.179688 606.445312 154.542969 610.542969 C 157.910156 614.640625 161.371094 618.65625 164.933594 622.585938 C 168.492188 626.515625 172.148438 630.351562 175.898438 634.101562 C 179.648438 637.851562 183.484375 641.507812 187.414062 645.066406 C 191.34375 648.628906 195.359375 652.089844 199.457031 655.457031 C 203.554688 658.820312 207.734375 662.082031 211.992188 665.238281 C 216.253906 668.398438 220.585938 671.449219 224.996094 674.394531 C 229.402344 677.34375 233.882812 680.179688 238.429688 682.902344 C 242.980469 685.628906 247.589844 688.242188 252.265625 690.742188 C 256.945312 693.242188 261.679688 695.625 266.472656 697.890625 C 271.265625 700.160156 276.113281 702.308594 281.011719 704.335938 C 285.910156 706.367188 290.855469 708.273438 295.847656 710.058594 C 300.839844 711.847656 305.875 713.507812 310.949219 715.046875 C 316.023438 716.589844 321.128906 718 326.273438 719.289062 C 331.417969 720.578125 336.589844 721.738281 341.789062 722.773438 C 346.992188 723.808594 352.214844 724.714844 357.460938 725.492188 C 362.703125 726.269531 367.964844 726.921875 373.242188 727.441406 C 378.519531 727.960938 383.804688 728.347656 389.101562 728.609375 C 394.398438 728.871094 399.699219 729 405 729 C 410.300781 729 415.601562 728.871094 420.898438 728.609375 C 426.195312 728.347656 431.480469 727.960938 436.757812 727.441406 C 442.035156 726.921875 447.296875 726.269531 452.539062 725.492188 C 457.785156 724.714844 463.007812 723.808594 468.210938 722.773438 C 473.410156 721.738281 478.582031 720.578125 483.726562 719.289062 C 488.867188 718 493.976562 716.589844 499.050781 715.046875 C 504.125 713.507812 509.160156 711.847656 514.152344 710.058594 C 519.144531 708.273438 524.089844 706.367188 528.988281 704.335938 C 533.886719 702.308594 538.734375 700.160156 543.527344 697.890625 C 548.320312 695.625 553.054688 693.242188 557.734375 690.742188 C 562.410156 688.242188 567.019531 685.628906 571.570312 682.902344 C 576.117188 680.179688 580.597656 677.34375 585.003906 674.394531 C 589.414062 671.449219 593.746094 668.398438 598.007812 665.238281 C 602.265625 662.082031 606.445312 658.820312 610.542969 655.457031 C 614.640625 652.089844 618.65625 648.628906 622.585938 645.066406 C 626.515625 641.507812 630.351562 637.851562 634.101562 634.101562 C 637.851562 630.351562 641.507812 626.515625 645.066406 622.585938 C 648.628906 618.65625 652.089844 614.640625 655.457031 610.542969 C 658.820312 606.445312 662.082031 602.265625 665.238281 598.007812 C 668.398438 593.746094 671.449219 589.414062 674.394531 585.003906 C 677.34375 580.597656 680.179688 576.117188 682.902344 571.570312 C 685.628906 567.019531 688.242188 562.410156 690.742188 557.734375 C 693.242188 553.054688 695.625 548.320312 697.890625 543.527344 C 700.160156 538.734375 702.308594 533.886719 704.335938 528.988281 C 706.367188 524.089844 708.273438 519.144531 710.058594 514.152344 C 711.847656 509.160156 713.507812 504.125 715.046875 499.050781 C 716.585938 493.976562 718 488.867188 719.289062 483.726562 C 720.578125 478.582031 721.738281 473.410156 722.773438 468.210938 C 723.808594 463.007812 724.714844 457.785156 725.492188 452.539062 C 726.269531 447.296875 726.921875 442.035156 727.441406 436.757812 C 727.960938 431.480469 728.347656 426.195312 728.609375 420.898438 C 728.871094 415.601562 729 410.300781 729 405 C 728.996094 399.699219 728.859375 394.402344 728.59375 389.105469 C 728.328125 383.8125 727.933594 378.527344 727.40625 373.253906 C 726.882812 367.976562 726.230469 362.71875 725.449219 357.476562 C 724.664062 352.234375 723.753906 347.011719 722.714844 341.816406 C 721.679688 336.617188 720.511719 331.445312 719.222656 326.304688 C 717.929688 321.164062 716.511719 316.058594 714.96875 310.988281 C 713.425781 305.914062 711.761719 300.882812 709.972656 295.894531 C 708.183594 290.90625 706.273438 285.960938 704.242188 281.066406 C 702.210938 276.167969 700.0625 271.324219 697.792969 266.535156 C 695.523438 261.742188 693.140625 257.011719 690.640625 252.335938 C 688.136719 247.664062 685.523438 243.054688 682.796875 238.507812 C 680.070312 233.960938 677.234375 229.484375 674.289062 225.078125 C 671.34375 220.671875 668.289062 216.339844 665.132812 212.082031 C 661.972656 207.824219 658.710938 203.648438 655.347656 199.550781 C 651.984375 195.453125 648.523438 191.441406 644.960938 187.515625 C 641.402344 183.585938 637.75 179.75 634 176 C 630.25 172.25 626.414062 168.597656 622.484375 165.039062 C 618.558594 161.476562 614.546875 158.015625 610.449219 154.652344 C 606.351562 151.289062 602.175781 148.027344 597.917969 144.867188 C 593.660156 141.710938 589.328125 138.65625 584.921875 135.710938 C 580.515625 132.765625 576.039062 129.929688 571.492188 127.203125 C 566.945312 124.476562 562.335938 121.863281 557.664062 119.359375 C 552.988281 116.859375 548.257812 114.476562 543.464844 112.207031 C 538.675781 109.9375 533.832031 107.789062 528.933594 105.757812 C 524.039062 103.726562 519.09375 101.816406 514.105469 100.027344 C 509.117188 98.238281 504.085938 96.570312 499.011719 95.03125 C 493.941406 93.488281 488.835938 92.070312 483.695312 90.777344 C 478.554688 89.488281 473.382812 88.320312 468.183594 87.285156 C 462.988281 86.246094 457.765625 85.335938 452.523438 84.550781 C 447.28125 83.769531 442.019531 83.117188 436.746094 82.59375 C 431.472656 82.066406 426.1875 81.671875 420.894531 81.40625 C 415.597656 81.140625 410.300781 81.003906 405 81 Z M 405 675 C 400.582031 675 396.164062 674.890625 391.75 674.675781 C 387.339844 674.457031 382.933594 674.132812 378.535156 673.699219 C 374.136719 673.265625 369.753906 672.726562 365.382812 672.078125 C 361.011719 671.429688 356.660156 670.675781 352.324219 669.8125 C 347.992188 668.949219 343.683594 667.980469 339.394531 666.910156 C 335.109375 665.835938 330.851562 664.65625 326.625 663.375 C 322.394531 662.089844 318.199219 660.707031 314.039062 659.21875 C 309.878906 657.726562 305.757812 656.136719 301.675781 654.449219 C 297.59375 652.757812 293.554688 650.964844 289.558594 649.078125 C 285.566406 647.1875 281.621094 645.203125 277.722656 643.117188 C 273.824219 641.035156 269.980469 638.859375 266.191406 636.585938 C 262.402344 634.316406 258.671875 631.953125 254.996094 629.496094 C 251.320312 627.042969 247.710938 624.5 244.160156 621.867188 C 240.613281 619.234375 237.128906 616.515625 233.714844 613.710938 C 230.296875 610.910156 226.953125 608.023438 223.679688 605.058594 C 220.40625 602.089844 217.207031 599.042969 214.082031 595.917969 C 210.957031 592.792969 207.910156 589.59375 204.941406 586.320312 C 201.976562 583.046875 199.089844 579.703125 196.289062 576.285156 C 193.484375 572.871094 190.765625 569.386719 188.132812 565.839844 C 185.5 562.289062 182.957031 558.679688 180.503906 555.003906 C 178.046875 551.328125 175.683594 547.597656 173.414062 543.808594 C 171.140625 540.015625 168.964844 536.175781 166.882812 532.277344 C 164.796875 528.378906 162.8125 524.433594 160.921875 520.441406 C 159.035156 516.445312 157.242188 512.40625 155.550781 508.324219 C 153.863281 504.242188 152.273438 500.121094 150.78125 495.960938 C 149.292969 491.800781 147.910156 487.605469 146.625 483.375 C 145.34375 479.148438 144.164062 474.890625 143.089844 470.605469 C 142.019531 466.316406 141.050781 462.007812 140.1875 457.675781 C 139.324219 453.339844 138.570312 448.988281 137.921875 444.617188 C 137.273438 440.246094 136.734375 435.863281 136.300781 431.464844 C 135.867188 427.066406 135.542969 422.660156 135.324219 418.25 C 135.109375 413.835938 135 409.417969 135 405 C 135 400.582031 135.109375 396.164062 135.324219 391.75 C 135.542969 387.339844 135.867188 382.933594 136.300781 378.535156 C 136.734375 374.136719 137.273438 369.753906 137.921875 365.382812 C 138.570312 361.011719 139.324219 356.660156 140.1875 352.324219 C 141.050781 347.992188 142.019531 343.683594 143.089844 339.394531 C 144.164062 335.109375 145.34375 330.851562 146.625 326.625 C 147.910156 322.394531 149.292969 318.199219 150.78125 314.039062 C 152.273438 309.878906 153.863281 305.757812 155.550781 301.675781 C 157.242188 297.59375 159.035156 293.554688 160.921875 289.558594 C 162.8125 285.566406 164.796875 281.621094 166.882812 277.722656 C 168.964844 273.824219 171.140625 269.980469 173.414062 266.191406 C 175.683594 262.402344 178.046875 258.671875 180.503906 254.996094 C 182.957031 251.320312 185.5 247.710938 188.132812 244.160156 C 190.765625 240.613281 193.484375 237.128906 196.289062 233.714844 C 199.089844 230.296875 201.976562 226.953125 204.941406 223.679688 C 207.910156 220.40625 210.957031 217.207031 214.082031 214.082031 C 217.207031 210.957031 220.40625 207.910156 223.679688 204.941406 C 226.953125 201.976562 230.296875 199.089844 233.714844 196.289062 C 237.128906 193.484375 240.613281 190.765625 244.160156 188.132812 C 247.710938 185.5 251.320312 182.957031 254.996094 180.503906 C 258.671875 178.046875 262.402344 175.683594 266.191406 173.414062 C 269.980469 171.140625 273.824219 168.964844 277.722656 166.882812 C 281.621094 164.796875 285.566406 162.8125 289.558594 160.921875 C 293.554688 159.035156 297.59375 157.242188 301.675781 155.550781 C 305.757812 153.863281 309.878906 152.273438 314.039062 150.78125 C 318.199219 149.292969 322.394531 147.910156 326.625 146.625 C 330.851562 145.34375 335.109375 144.164062 339.394531 143.089844 C 343.683594 142.019531 347.992188 141.050781 352.324219 140.1875 C 356.660156 139.324219 361.011719 138.570312 365.382812 137.921875 C 369.753906 137.273438 374.136719 136.734375 378.535156 136.300781 C 382.933594 135.867188 387.339844 135.542969 391.75 135.324219 C 396.164062 135.109375 400.582031 135 405 135 C 409.417969 135 413.835938 135.109375 418.25 135.324219 C 422.660156 135.542969 427.066406 135.867188 431.464844 136.300781 C 435.863281 136.734375 440.246094 137.273438 444.617188 137.921875 C 448.988281 138.570312 453.339844 139.324219 457.675781 140.1875 C 462.007812 141.050781 466.316406 142.019531 470.605469 143.089844 C 474.890625 144.164062 479.148438 145.34375 483.375 146.625 C 487.605469 147.910156 491.800781 149.292969 495.960938 150.78125 C 500.121094 152.273438 504.242188 153.863281 508.324219 155.550781 C 512.40625 157.242188 516.445312 159.035156 520.441406 160.921875 C 524.433594 162.8125 528.378906 164.796875 532.277344 166.882812 C 536.175781 168.964844 540.019531 171.140625 543.808594 173.414062 C 547.597656 175.683594 551.328125 178.046875 555.003906 180.503906 C 558.679688 182.957031 562.289062 185.5 565.839844 188.132812 C 569.386719 190.765625 572.871094 193.484375 576.285156 196.289062 C 579.703125 199.089844 583.046875 201.976562 586.320312 204.941406 C 589.59375 207.910156 592.792969 210.957031 595.917969 214.082031 C 599.042969 217.207031 602.089844 220.40625 605.058594 223.679688 C 608.023438 226.953125 610.910156 230.296875 613.710938 233.714844 C 616.515625 237.128906 619.234375 240.613281 621.867188 244.160156 C 624.5 247.710938 627.042969 251.320312 629.496094 254.996094 C 631.953125 258.671875 634.316406 262.402344 636.585938 266.191406 C 638.859375 269.980469 641.035156 273.824219 643.117188 277.722656 C 645.203125 281.621094 647.1875 285.566406 649.078125 289.558594 C 650.964844 293.554688 652.757812 297.59375 654.449219 301.675781 C 656.136719 305.757812 657.726562 309.878906 659.21875 314.039062 C 660.707031 318.199219 662.089844 322.394531 663.375 326.625 C 664.65625 330.851562 665.835938 335.109375 666.910156 339.394531 C 667.980469 343.683594 668.949219 347.992188 669.8125 352.324219 C 670.675781 356.660156 671.429688 361.011719 672.078125 365.382812 C 672.726562 369.753906 673.265625 374.136719 673.699219 378.535156 C 674.132812 382.933594 674.457031 387.339844 674.675781 391.75 C 674.890625 396.164062 675 400.582031 675 405 C 674.996094 409.417969 674.882812 413.832031 674.660156 418.242188 C 674.4375 422.65625 674.109375 427.058594 673.671875 431.457031 C 673.234375 435.851562 672.691406 440.234375 672.039062 444.601562 C 671.386719 448.972656 670.628906 453.320312 669.761719 457.652344 C 668.898438 461.984375 667.925781 466.292969 666.851562 470.578125 C 665.773438 474.863281 664.59375 479.117188 663.308594 483.34375 C 662.023438 487.570312 660.632812 491.761719 659.144531 495.921875 C 657.652344 500.078125 656.0625 504.199219 654.367188 508.277344 C 652.675781 512.359375 650.882812 516.394531 648.992188 520.386719 C 647.101562 524.378906 645.113281 528.324219 643.03125 532.21875 C 640.945312 536.113281 638.769531 539.953125 636.496094 543.742188 C 634.222656 547.53125 631.859375 551.261719 629.40625 554.933594 C 626.949219 558.605469 624.40625 562.214844 621.773438 565.761719 C 619.140625 569.3125 616.425781 572.792969 613.621094 576.207031 C 610.820312 579.621094 607.933594 582.964844 604.96875 586.238281 C 602 589.511719 598.957031 592.707031 595.832031 595.832031 C 592.707031 598.957031 589.511719 602 586.238281 604.96875 C 582.964844 607.933594 579.621094 610.820312 576.207031 613.621094 C 572.792969 616.425781 569.3125 619.140625 565.761719 621.773438 C 562.214844 624.40625 558.605469 626.949219 554.933594 629.40625 C 551.261719 631.859375 547.53125 634.222656 543.742188 636.496094 C 539.953125 638.769531 536.113281 640.945312 532.21875 643.03125 C 528.324219 645.113281 524.378906 647.101562 520.386719 648.992188 C 516.394531 650.882812 512.359375 652.675781 508.277344 654.367188 C 504.199219 656.0625 500.078125 657.652344 495.921875 659.144531 C 491.761719 660.632812 487.570312 662.023438 483.34375 663.308594 C 479.117188 664.59375 474.863281 665.773438 470.578125 666.851562 C 466.292969 667.925781 461.984375 668.898438 457.652344 669.761719 C 453.320312 670.628906 448.972656 671.386719 444.601562 672.039062 C 440.234375 672.691406 435.851562 673.234375 431.457031 673.671875 C 427.058594 674.109375 422.65625 674.4375 418.242188 674.660156 C 413.832031 674.882812 409.417969 674.996094 405 675 Z M 405 675 " fill-opacity="1" fill-rule="nonzero"/></g></g><g clip-path="url(#fbba0fab2f)"><g clip-path="url(#ba7a21dcff)"><path fill="#ffffff" d="M 424.359375 217.699219 C 422.421875 217.347656 420.472656 217.046875 418.515625 216.800781 C 416.5625 216.554688 414.601562 216.363281 412.636719 216.222656 C 410.667969 216.082031 408.699219 215.996094 406.730469 215.964844 C 404.761719 215.933594 402.789062 215.957031 400.820312 216.03125 C 398.851562 216.109375 396.886719 216.238281 394.921875 216.421875 C 392.960938 216.605469 391.003906 216.84375 389.054688 217.136719 C 387.105469 217.425781 385.167969 217.769531 383.234375 218.167969 C 381.304688 218.566406 379.386719 219.015625 377.480469 219.515625 C 375.574219 220.019531 373.683594 220.574219 371.808594 221.179688 C 369.933594 221.785156 368.078125 222.441406 366.238281 223.148438 C 364.398438 223.855469 362.578125 224.613281 360.78125 225.417969 C 358.980469 226.226562 357.207031 227.082031 355.457031 227.984375 C 353.703125 228.890625 351.980469 229.839844 350.28125 230.839844 C 348.582031 231.839844 346.910156 232.882812 345.269531 233.972656 C 343.625 235.0625 342.015625 236.199219 340.4375 237.375 C 338.855469 238.554688 337.308594 239.773438 335.796875 241.039062 C 334.28125 242.300781 332.804688 243.601562 331.363281 244.945312 C 329.921875 246.292969 328.519531 247.671875 327.152344 249.09375 C 325.785156 250.515625 324.460938 251.972656 323.171875 253.464844 C 321.886719 254.957031 320.644531 256.484375 319.441406 258.046875 C 318.238281 259.609375 317.078125 261.203125 315.960938 262.824219 C 314.847656 264.449219 313.777344 266.105469 312.753906 267.789062 C 311.726562 269.472656 310.75 271.183594 309.816406 272.917969 C 308.886719 274.65625 308.003906 276.417969 307.167969 278.203125 C 306.332031 279.988281 305.546875 281.792969 304.8125 283.621094 C 304.078125 285.453125 303.390625 287.296875 302.757812 289.164062 C 302.121094 291.03125 301.539062 292.910156 301.007812 294.808594 C 300.472656 296.707031 299.996094 298.617188 299.566406 300.542969 C 299.140625 302.464844 298.765625 304.402344 298.445312 306.34375 C 298.125 308.289062 297.855469 310.242188 297.640625 312.199219 C 297.425781 314.160156 297.265625 316.125 297.160156 318.089844 C 297.050781 320.058594 297 322.027344 297 324 C 297 324.882812 297.042969 325.765625 297.128906 326.644531 C 297.214844 327.527344 297.347656 328.398438 297.519531 329.265625 C 297.691406 330.132812 297.90625 330.992188 298.164062 331.835938 C 298.417969 332.683594 298.71875 333.515625 299.054688 334.332031 C 299.394531 335.148438 299.769531 335.949219 300.1875 336.726562 C 300.605469 337.507812 301.058594 338.265625 301.550781 339 C 302.042969 339.734375 302.566406 340.445312 303.128906 341.128906 C 303.691406 341.8125 304.28125 342.464844 304.90625 343.09375 C 305.535156 343.71875 306.1875 344.308594 306.871094 344.871094 C 307.554688 345.433594 308.265625 345.957031 309 346.449219 C 309.734375 346.941406 310.492188 347.394531 311.273438 347.8125 C 312.050781 348.230469 312.851562 348.605469 313.667969 348.945312 C 314.484375 349.28125 315.316406 349.582031 316.164062 349.835938 C 317.007812 350.09375 317.867188 350.308594 318.734375 350.480469 C 319.601562 350.652344 320.472656 350.785156 321.355469 350.871094 C 322.234375 350.957031 323.117188 351 324 351 C 324.882812 351 325.765625 350.957031 326.644531 350.871094 C 327.527344 350.785156 328.398438 350.652344 329.265625 350.480469 C 330.132812 350.308594 330.992188 350.09375 331.835938 349.835938 C 332.683594 349.582031 333.515625 349.28125 334.332031 348.945312 C 335.148438 348.605469 335.949219 348.230469 336.726562 347.8125 C 337.507812 347.394531 338.265625 346.941406 339 346.449219 C 339.734375 345.957031 340.445312 345.433594 341.128906 344.871094 C 341.8125 344.308594 342.464844 343.71875 343.09375 343.09375 C 343.71875 342.464844 344.308594 341.8125 344.871094 341.128906 C 345.433594 340.445312 345.957031 339.734375 346.449219 339 C 346.941406 338.265625 347.394531 337.507812 347.8125 336.726562 C 348.230469 335.949219 348.605469 335.148438 348.945312 334.332031 C 349.28125 333.515625 349.582031 332.683594 349.835938 331.835938 C 350.09375 330.992188 350.308594 330.132812 350.480469 329.265625 C 350.652344 328.398438 350.785156 327.527344 350.871094 326.644531 C 350.957031 325.765625 351 324.882812 351 324 C 351 323.011719 351.027344 322.023438 351.078125 321.035156 C 351.132812 320.046875 351.214844 319.0625 351.320312 318.078125 C 351.429688 317.09375 351.5625 316.113281 351.722656 315.136719 C 351.886719 314.164062 352.074219 313.191406 352.289062 312.226562 C 352.503906 311.261719 352.746094 310.300781 353.011719 309.347656 C 353.28125 308.398438 353.574219 307.453125 353.894531 306.515625 C 354.210938 305.578125 354.558594 304.652344 354.925781 303.734375 C 355.296875 302.820312 355.695312 301.910156 356.113281 301.015625 C 356.535156 300.121094 356.976562 299.238281 357.445312 298.367188 C 357.914062 297.496094 358.40625 296.636719 358.925781 295.792969 C 359.441406 294.949219 359.980469 294.121094 360.539062 293.304688 C 361.101562 292.492188 361.683594 291.691406 362.289062 290.910156 C 362.894531 290.128906 363.523438 289.363281 364.167969 288.613281 C 364.816406 287.867188 365.484375 287.136719 366.171875 286.425781 C 366.859375 285.714844 367.566406 285.023438 368.292969 284.351562 C 369.015625 283.675781 369.761719 283.027344 370.519531 282.394531 C 371.28125 281.761719 372.0625 281.152344 372.855469 280.5625 C 373.652344 279.972656 374.460938 279.40625 375.289062 278.863281 C 376.113281 278.320312 376.953125 277.796875 377.808594 277.300781 C 378.664062 276.800781 379.53125 276.328125 380.410156 275.875 C 381.292969 275.425781 382.183594 275 383.089844 274.597656 C 383.992188 274.199219 384.90625 273.820312 385.832031 273.46875 C 386.757812 273.117188 387.691406 272.792969 388.632812 272.492188 C 389.578125 272.195312 390.527344 271.921875 391.484375 271.671875 C 392.441406 271.425781 393.40625 271.203125 394.375 271.007812 C 395.347656 270.816406 396.320312 270.648438 397.300781 270.503906 C 398.277344 270.363281 399.261719 270.25 400.246094 270.164062 C 401.230469 270.078125 402.21875 270.015625 403.207031 269.984375 C 404.195312 269.949219 405.183594 269.945312 406.175781 269.964844 C 407.164062 269.988281 408.152344 270.035156 409.136719 270.113281 C 410.125 270.1875 411.105469 270.292969 412.085938 270.421875 C 413.070312 270.550781 414.042969 270.707031 415.015625 270.890625 C 417.667969 271.40625 420.269531 272.113281 422.816406 273.011719 C 425.363281 273.914062 427.828125 274.996094 430.214844 276.261719 C 432.601562 277.527344 434.882812 278.964844 437.054688 280.566406 C 439.226562 282.171875 441.273438 283.929688 443.183594 285.835938 C 445.097656 287.742188 446.859375 289.78125 448.472656 291.949219 C 450.082031 294.117188 451.523438 296.390625 452.796875 298.773438 C 454.070312 301.15625 455.160156 303.621094 456.070312 306.164062 C 456.976562 308.707031 457.695312 311.304688 458.21875 313.957031 C 458.480469 315.34375 458.6875 316.738281 458.84375 318.144531 C 458.996094 319.546875 459.097656 320.957031 459.140625 322.367188 C 459.183594 323.78125 459.171875 325.191406 459.105469 326.601562 C 459.035156 328.015625 458.914062 329.421875 458.738281 330.820312 C 458.558594 332.222656 458.328125 333.613281 458.039062 335 C 457.753906 336.382812 457.410156 337.75 457.019531 339.109375 C 456.625 340.464844 456.175781 341.804688 455.675781 343.125 C 455.175781 344.445312 454.625 345.746094 454.023438 347.023438 C 453.425781 348.300781 452.773438 349.554688 452.074219 350.78125 C 451.375 352.007812 450.625 353.207031 449.832031 354.375 C 449.039062 355.542969 448.199219 356.679688 447.316406 357.78125 C 446.433594 358.886719 445.511719 359.953125 444.542969 360.980469 C 443.578125 362.011719 442.570312 363.003906 441.527344 363.953125 C 440.484375 364.90625 439.402344 365.8125 438.285156 366.679688 C 437.171875 367.546875 436.023438 368.367188 434.84375 369.144531 C 433.664062 369.921875 432.453125 370.648438 431.21875 371.332031 C 429.21875 372.363281 427.261719 373.460938 425.335938 374.628906 C 423.414062 375.796875 421.535156 377.027344 419.699219 378.324219 C 417.859375 379.617188 416.070312 380.976562 414.324219 382.394531 C 412.582031 383.8125 410.886719 385.289062 409.242188 386.820312 C 407.597656 388.355469 406.011719 389.945312 404.476562 391.589844 C 402.941406 393.230469 401.464844 394.925781 400.046875 396.671875 C 398.628906 398.414062 397.269531 400.207031 395.976562 402.042969 C 394.679688 403.882812 393.449219 405.761719 392.28125 407.683594 C 391.117188 409.605469 390.015625 411.566406 388.984375 413.5625 C 387.953125 415.558594 386.988281 417.589844 386.09375 419.652344 C 385.203125 421.714844 384.382812 423.808594 383.632812 425.929688 C 382.882812 428.046875 382.207031 430.191406 381.601562 432.355469 C 381 434.523438 380.472656 436.707031 380.019531 438.910156 C 379.566406 441.113281 379.1875 443.328125 378.886719 445.554688 C 378.585938 447.78125 378.359375 450.019531 378.214844 452.261719 C 378.066406 454.503906 377.992188 456.75 378 459 C 378.007812 459.867188 378.054688 460.734375 378.148438 461.597656 C 378.242188 462.464844 378.378906 463.320312 378.558594 464.171875 C 378.738281 465.019531 378.957031 465.859375 379.222656 466.6875 C 379.484375 467.515625 379.789062 468.328125 380.132812 469.128906 C 380.476562 469.925781 380.859375 470.703125 381.28125 471.464844 C 381.703125 472.222656 382.164062 472.957031 382.660156 473.671875 C 383.15625 474.386719 383.6875 475.074219 384.25 475.734375 C 384.816406 476.394531 385.410156 477.023438 386.039062 477.625 C 386.667969 478.226562 387.324219 478.792969 388.007812 479.328125 C 388.691406 479.863281 389.402344 480.363281 390.136719 480.828125 C 390.871094 481.292969 391.628906 481.71875 392.40625 482.105469 C 393.183594 482.496094 393.976562 482.84375 394.789062 483.152344 C 395.601562 483.460938 396.425781 483.730469 397.265625 483.957031 C 398.105469 484.183594 398.953125 484.367188 399.808594 484.507812 C 400.667969 484.648438 401.53125 484.75 402.398438 484.804688 C 403.265625 484.859375 404.132812 484.871094 405 484.839844 C 405.898438 484.804688 406.796875 484.726562 407.6875 484.609375 C 408.578125 484.488281 409.464844 484.324219 410.339844 484.121094 C 411.214844 483.914062 412.082031 483.667969 412.933594 483.378906 C 413.785156 483.09375 414.621094 482.765625 415.441406 482.394531 C 416.265625 482.027344 417.066406 481.617188 417.847656 481.171875 C 418.628906 480.726562 419.386719 480.246094 420.125 479.726562 C 420.859375 479.207031 421.566406 478.652344 422.25 478.066406 C 422.929688 477.480469 423.582031 476.859375 424.207031 476.210938 C 424.828125 475.5625 425.417969 474.882812 425.976562 474.175781 C 426.53125 473.46875 427.054688 472.738281 427.542969 471.980469 C 428.027344 471.222656 428.476562 470.445312 428.890625 469.644531 C 429.300781 468.84375 429.675781 468.027344 430.007812 467.191406 C 430.339844 466.355469 430.632812 465.503906 430.882812 464.640625 C 431.136719 463.773438 431.34375 462.902344 431.511719 462.015625 C 431.679688 461.132812 431.804688 460.242188 431.886719 459.34375 C 431.964844 458.449219 432.003906 457.550781 432 456.652344 C 432.089844 454.65625 432.316406 452.679688 432.671875 450.714844 C 433.03125 448.75 433.519531 446.820312 434.136719 444.921875 C 434.753906 443.023438 435.496094 441.175781 436.363281 439.375 C 437.230469 437.578125 438.210938 435.847656 439.3125 434.179688 C 440.414062 432.515625 441.621094 430.929688 442.933594 429.425781 C 444.246094 427.925781 445.65625 426.515625 447.160156 425.203125 C 448.664062 423.890625 450.246094 422.683594 451.914062 421.582031 C 453.578125 420.484375 455.3125 419.5 457.109375 418.636719 C 459.535156 417.300781 461.910156 415.878906 464.226562 414.363281 C 466.542969 412.847656 468.800781 411.246094 470.996094 409.554688 C 473.1875 407.867188 475.316406 406.09375 477.375 404.242188 C 479.429688 402.390625 481.414062 400.460938 483.324219 398.457031 C 485.234375 396.449219 487.066406 394.375 488.816406 392.230469 C 490.566406 390.082031 492.230469 387.871094 493.808594 385.597656 C 495.390625 383.324219 496.878906 380.992188 498.28125 378.605469 C 499.683594 376.214844 500.988281 373.777344 502.203125 371.289062 C 503.414062 368.796875 504.53125 366.265625 505.550781 363.691406 C 506.566406 361.117188 507.484375 358.507812 508.304688 355.859375 C 509.121094 353.214844 509.835938 350.542969 510.449219 347.839844 C 511.058594 345.140625 511.566406 342.421875 511.96875 339.679688 C 512.371094 336.941406 512.667969 334.191406 512.859375 331.425781 C 513.050781 328.664062 513.136719 325.898438 513.113281 323.128906 C 513.09375 320.359375 512.964844 317.597656 512.730469 314.835938 C 512.496094 312.078125 512.15625 309.332031 511.710938 306.597656 C 511.265625 303.867188 510.714844 301.152344 510.0625 298.464844 C 509.40625 295.773438 508.652344 293.109375 507.792969 290.476562 C 506.933594 287.847656 505.976562 285.25 504.917969 282.691406 C 503.859375 280.132812 502.703125 277.617188 501.453125 275.148438 C 500.199219 272.679688 498.855469 270.261719 497.417969 267.894531 C 495.980469 265.527344 494.453125 263.21875 492.835938 260.96875 C 491.222656 258.722656 489.523438 256.535156 487.738281 254.417969 C 485.957031 252.300781 484.09375 250.253906 482.152344 248.277344 C 480.210938 246.304688 478.199219 244.40625 476.109375 242.585938 C 474.023438 240.765625 471.871094 239.027344 469.648438 237.371094 C 467.429688 235.71875 465.148438 234.152344 462.808594 232.671875 C 460.46875 231.191406 458.074219 229.804688 455.625 228.511719 C 453.175781 227.214844 450.683594 226.015625 448.144531 224.914062 C 445.605469 223.8125 443.027344 222.804688 440.410156 221.902344 C 437.792969 220.996094 435.144531 220.195312 432.464844 219.492188 C 429.785156 218.792969 427.082031 218.195312 424.359375 217.699219 Z M 424.359375 217.699219 " fill-opacity="1" fill-rule="nonzero"/></g></g><g clip-path="url(#bd0c8d8042)"><g clip-path="url(#a3df313dc3)"><path fill="#ffffff" d="M 405.539062 540 L 405.269531 540 C 404.679688 540.003906 404.089844 540.023438 403.5 540.066406 C 402.910156 540.109375 402.320312 540.167969 401.734375 540.25 C 401.148438 540.328125 400.566406 540.429688 399.988281 540.546875 C 399.40625 540.664062 398.832031 540.800781 398.261719 540.957031 C 397.691406 541.113281 397.128906 541.285156 396.566406 541.480469 C 396.007812 541.671875 395.457031 541.882812 394.910156 542.109375 C 394.367188 542.339844 393.828125 542.585938 393.300781 542.847656 C 392.769531 543.113281 392.25 543.394531 391.738281 543.691406 C 391.230469 543.988281 390.730469 544.304688 390.238281 544.632812 C 389.75 544.964844 389.269531 545.308594 388.800781 545.671875 C 388.332031 546.035156 387.878906 546.410156 387.4375 546.800781 C 386.992188 547.195312 386.5625 547.597656 386.144531 548.019531 C 385.730469 548.4375 385.328125 548.871094 384.9375 549.316406 C 384.550781 549.761719 384.175781 550.222656 383.820312 550.691406 C 383.460938 551.164062 383.117188 551.644531 382.792969 552.136719 C 382.464844 552.628906 382.15625 553.132812 381.859375 553.644531 C 381.566406 554.160156 381.289062 554.679688 381.03125 555.210938 C 380.769531 555.742188 380.527344 556.28125 380.304688 556.828125 C 380.078125 557.375 379.871094 557.929688 379.683594 558.488281 C 379.496094 559.050781 379.324219 559.617188 379.175781 560.1875 C 379.023438 560.757812 378.890625 561.335938 378.777344 561.914062 C 378.664062 562.496094 378.566406 563.078125 378.492188 563.664062 C 378.417969 564.25 378.359375 564.839844 378.324219 565.429688 C 378.285156 566.019531 378.269531 566.609375 378.269531 567.203125 C 378.273438 567.792969 378.292969 568.382812 378.332031 568.972656 C 378.371094 569.5625 378.433594 570.152344 378.511719 570.738281 C 378.589844 571.324219 378.6875 571.90625 378.804688 572.484375 C 378.917969 573.066406 379.054688 573.640625 379.210938 574.210938 C 379.363281 574.78125 379.535156 575.347656 379.726562 575.90625 C 379.917969 576.46875 380.128906 577.019531 380.355469 577.566406 C 380.582031 578.109375 380.828125 578.648438 381.089844 579.179688 C 381.351562 579.707031 381.632812 580.230469 381.929688 580.742188 C 382.222656 581.253906 382.539062 581.753906 382.867188 582.246094 C 383.195312 582.734375 383.539062 583.214844 383.902344 583.683594 C 384.261719 584.152344 384.636719 584.609375 385.027344 585.054688 C 385.417969 585.496094 385.824219 585.929688 386.242188 586.347656 C 386.660156 586.761719 387.09375 587.167969 387.535156 587.554688 C 387.980469 587.945312 388.4375 588.320312 388.910156 588.679688 C 389.378906 589.039062 389.859375 589.382812 390.351562 589.710938 C 390.84375 590.039062 391.34375 590.351562 391.855469 590.644531 C 392.371094 590.941406 392.890625 591.21875 393.421875 591.480469 C 393.953125 591.742188 394.488281 591.984375 395.035156 592.210938 C 395.582031 592.4375 396.136719 592.644531 396.695312 592.835938 C 397.257812 593.023438 397.820312 593.195312 398.394531 593.347656 C 398.964844 593.5 399.539062 593.632812 400.121094 593.75 C 400.699219 593.863281 401.28125 593.960938 401.867188 594.039062 C 402.453125 594.117188 403.042969 594.171875 403.632812 594.210938 C 404.222656 594.25 404.8125 594.269531 405.40625 594.269531 C 405.996094 594.269531 406.585938 594.25 407.175781 594.210938 C 407.765625 594.171875 408.355469 594.117188 408.941406 594.039062 C 409.527344 593.960938 410.109375 593.863281 410.691406 593.75 C 411.269531 593.632812 411.847656 593.5 412.417969 593.347656 C 412.988281 593.195312 413.554688 593.023438 414.113281 592.835938 C 414.675781 592.644531 415.226562 592.4375 415.773438 592.210938 C 416.320312 591.984375 416.859375 591.742188 417.390625 591.480469 C 417.917969 591.21875 418.441406 590.941406 418.953125 590.644531 C 419.464844 590.351562 419.96875 590.039062 420.460938 589.710938 C 420.953125 589.382812 421.433594 589.039062 421.902344 588.679688 C 422.371094 588.320312 422.828125 587.945312 423.273438 587.554688 C 423.71875 587.167969 424.148438 586.761719 424.570312 586.347656 C 424.988281 585.929688 425.390625 585.496094 425.78125 585.054688 C 426.171875 584.609375 426.546875 584.152344 426.910156 583.683594 C 427.269531 583.214844 427.613281 582.734375 427.945312 582.246094 C 428.273438 581.753906 428.585938 581.253906 428.882812 580.742188 C 429.179688 580.230469 429.457031 579.707031 429.71875 579.179688 C 429.984375 578.648438 430.226562 578.109375 430.453125 577.566406 C 430.683594 577.019531 430.890625 576.46875 431.082031 575.90625 C 431.273438 575.347656 431.445312 574.78125 431.601562 574.210938 C 431.753906 573.640625 431.890625 573.066406 432.007812 572.484375 C 432.125 571.90625 432.222656 571.324219 432.300781 570.738281 C 432.378906 570.152344 432.4375 569.5625 432.476562 568.972656 C 432.519531 568.382812 432.539062 567.792969 432.539062 567.203125 C 432.542969 566.609375 432.523438 566.019531 432.488281 565.429688 C 432.449219 564.839844 432.394531 564.25 432.316406 563.664062 C 432.242188 563.078125 432.148438 562.496094 432.035156 561.914062 C 431.917969 561.335938 431.785156 560.757812 431.636719 560.1875 C 431.484375 559.617188 431.3125 559.050781 431.125 558.488281 C 430.9375 557.929688 430.730469 557.375 430.507812 556.828125 C 430.28125 556.28125 430.039062 555.742188 429.78125 555.210938 C 429.519531 554.679688 429.242188 554.15625 428.949219 553.644531 C 428.65625 553.132812 428.34375 552.628906 428.019531 552.136719 C 427.691406 551.644531 427.347656 551.164062 426.992188 550.691406 C 426.632812 550.222656 426.257812 549.761719 425.871094 549.316406 C 425.484375 548.871094 425.082031 548.4375 424.664062 548.019531 C 424.246094 547.597656 423.816406 547.195312 423.375 546.800781 C 422.929688 546.410156 422.476562 546.035156 422.007812 545.671875 C 421.539062 545.308594 421.0625 544.964844 420.570312 544.632812 C 420.082031 544.304688 419.582031 543.988281 419.070312 543.691406 C 418.558594 543.394531 418.039062 543.113281 417.511719 542.847656 C 416.980469 542.585938 416.445312 542.339844 415.898438 542.109375 C 415.351562 541.882812 414.800781 541.671875 414.242188 541.480469 C 413.683594 541.285156 413.117188 541.113281 412.546875 540.957031 C 411.976562 540.800781 411.402344 540.664062 410.824219 540.546875 C 410.242188 540.429688 409.660156 540.328125 409.074219 540.25 C 408.488281 540.167969 407.902344 540.109375 407.3125 540.066406 C 406.722656 540.023438 406.132812 540.003906 405.539062 540 Z M 405.539062 540 " fill-opacity="1" fill-rule="nonzero"/></g></g></svg>