<svg xmlns="http://www.w3.org/2000/svg" xmlns:xlink="http://www.w3.org/1999/xlink" width="1080" zoomAndPan="magnify" viewBox="0 0 810 809.999993" height="1080" preserveAspectRatio="xMidYMid meet" version="1.0"><defs><clipPath id="eaee61a2d9"><path d="M 59.179688 28 L 750.679688 28 L 750.679688 783 L 59.179688 783 Z M 59.179688 28 " clip-rule="nonzero"/></clipPath></defs><g clip-path="url(#eaee61a2d9)"><path fill="#bdd2e3" d="M 516.0625 453.53125 C 584.347656 414.203125 630.453125 340.53125 630.453125 256.234375 C 630.453125 130.757812 528.367188 28.671875 402.890625 28.671875 C 277.414062 28.671875 175.328125 130.757812 175.328125 256.234375 C 175.328125 341.148438 222.105469 415.300781 291.222656 454.402344 C 156.253906 501.71875 59.117188 630.722656 59.117188 782.140625 L 107.878906 782.140625 C 107.878906 617.636719 241.132812 483.796875 404.921875 483.796875 C 568.71875 483.796875 701.964844 617.636719 701.964844 782.140625 L 750.726562 782.140625 C 750.726562 629.761719 652.371094 500.109375 516.0625 453.53125 Z M 224.089844 256.234375 C 224.089844 157.640625 304.296875 77.433594 402.890625 77.433594 C 501.480469 77.433594 581.6875 157.640625 581.6875 256.234375 C 581.6875 354.824219 501.480469 435.035156 402.890625 435.035156 C 304.296875 435.035156 224.089844 354.816406 224.089844 256.234375 Z M 224.089844 256.234375 " fill-opacity="1" fill-rule="nonzero"/></g></svg>