<svg xmlns="http://www.w3.org/2000/svg" xmlns:xlink="http://www.w3.org/1999/xlink" width="1920" zoomAndPan="magnify" viewBox="0 0 1440 244.499993" height="326" preserveAspectRatio="xMidYMid meet" version="1.0"><defs><clipPath id="2bbd09138e"><path d="M 1.46875 0 L 255 0 L 255 244 L 1.46875 244 Z M 1.46875 0 " clip-rule="nonzero"/></clipPath><clipPath id="b54a38392e"><path d="M 1183 0 L 1436.765625 0 L 1436.765625 244 L 1183 244 Z M 1183 0 " clip-rule="nonzero"/></clipPath></defs><g clip-path="url(#2bbd09138e)"><path fill="#fac80f" d="M 127.859375 0 L 157.878906 92.984375 L 254.480469 92.984375 L 176.164062 150.664062 L 206.183594 244 L 127.859375 186.316406 L 49.542969 244 L 79.554688 150.664062 L 1.238281 92.984375 L 97.847656 92.984375 Z M 127.859375 0 " fill-opacity="1" fill-rule="nonzero"/></g><path fill="#dcdcdc" d="M 423.542969 0 L 453.21875 92.984375 L 550.164062 92.984375 L 471.847656 150.664062 L 501.867188 244 L 423.542969 186.316406 L 345.226562 244 L 374.894531 150.664062 L 296.578125 92.984375 L 393.523438 92.984375 Z M 423.542969 0 " fill-opacity="1" fill-rule="nonzero"/><path fill="#dcdcdc" d="M 718.882812 0 L 748.902344 92.984375 L 845.507812 92.984375 L 767.1875 150.664062 L 797.199219 244 L 718.882812 186.316406 L 640.566406 244 L 670.578125 150.664062 L 592.261719 92.984375 L 688.863281 92.984375 Z M 718.882812 0 " fill-opacity="1" fill-rule="nonzero"/><path fill="#dcdcdc" d="M 1014.570312 0 L 1044.242188 92.984375 L 1141.191406 92.984375 L 1062.875 150.664062 L 1092.886719 244 L 1014.570312 186.316406 L 936.246094 244 L 965.921875 150.664062 L 887.601562 92.984375 L 984.550781 92.984375 Z M 1014.570312 0 " fill-opacity="1" fill-rule="nonzero"/><g clip-path="url(#b54a38392e)"><path fill="#dcdcdc" d="M 1309.910156 0 L 1339.921875 92.984375 L 1436.53125 92.984375 L 1358.214844 150.664062 L 1388.226562 244 L 1309.910156 186.316406 L 1231.585938 244 L 1261.605469 150.664062 L 1183.289062 92.984375 L 1279.890625 92.984375 Z M 1309.910156 0 " fill-opacity="1" fill-rule="nonzero"/></g><path fill="#dcdcdc" d="M 206.183594 244 L 176.164062 150.664062 L 254.480469 92.984375 L 157.878906 92.984375 L 127.859375 0 L 127.859375 186.316406 Z M 206.183594 244 " fill-opacity="1" fill-rule="nonzero"/></svg>