<svg xmlns="http://www.w3.org/2000/svg" xmlns:xlink="http://www.w3.org/1999/xlink" width="1920" zoomAndPan="magnify" viewBox="0 0 1440 244.499993" height="326" preserveAspectRatio="xMidYMid meet" version="1.0"><defs><clipPath id="9ba18c3d3b"><path d="M 1.46875 0 L 255 0 L 255 244 L 1.46875 244 Z M 1.46875 0 " clip-rule="nonzero"/></clipPath><clipPath id="05e72fb5f5"><path d="M 297 0 L 552 0 L 552 244 L 297 244 Z M 297 0 " clip-rule="nonzero"/></clipPath><clipPath id="c94b2b29ea"><path d="M 593 0 L 847 0 L 847 244 L 593 244 Z M 593 0 " clip-rule="nonzero"/></clipPath><clipPath id="dcf841dc75"><path d="M 888 0 L 1143 0 L 1143 244 L 888 244 Z M 888 0 " clip-rule="nonzero"/></clipPath><clipPath id="5d2ba16873"><path d="M 1184 0 L 1438.53125 0 L 1438.53125 244 L 1184 244 Z M 1184 0 " clip-rule="nonzero"/></clipPath></defs><g clip-path="url(#9ba18c3d3b)"><path fill="#fac80f" d="M 128.226562 0.015625 L 158.285156 93.328125 L 255 93.328125 L 176.589844 150.996094 L 206.644531 244.308594 L 128.226562 186.648438 L 49.816406 244.308594 L 79.863281 150.996094 L 1.453125 93.328125 L 98.171875 93.328125 Z M 128.226562 0.015625 " fill-opacity="1" fill-rule="nonzero"/></g><g clip-path="url(#05e72fb5f5)"><path fill="#fac80f" d="M 424.269531 0.015625 L 453.980469 93.328125 L 551.042969 93.328125 L 472.632812 150.996094 L 502.6875 244.308594 L 424.269531 186.648438 L 345.859375 244.308594 L 375.5625 150.996094 L 297.148438 93.328125 L 394.214844 93.328125 Z M 424.269531 0.015625 " fill-opacity="1" fill-rule="nonzero"/></g><g clip-path="url(#c94b2b29ea)"><path fill="#fac80f" d="M 719.964844 0.015625 L 750.019531 93.328125 L 846.738281 93.328125 L 768.328125 150.996094 L 798.375 244.308594 L 719.964844 186.648438 L 641.546875 244.308594 L 671.601562 150.996094 L 593.191406 93.328125 L 689.910156 93.328125 Z M 719.964844 0.015625 " fill-opacity="1" fill-rule="nonzero"/></g><g clip-path="url(#dcf841dc75)"><path fill="#fac80f" d="M 1016.003906 0.015625 L 1045.707031 93.328125 L 1142.777344 93.328125 L 1064.367188 150.996094 L 1094.414062 244.308594 L 1016.003906 186.648438 L 937.585938 244.308594 L 967.296875 150.996094 L 888.886719 93.328125 L 985.949219 93.328125 Z M 1016.003906 0.015625 " fill-opacity="1" fill-rule="nonzero"/></g><g clip-path="url(#5d2ba16873)"><path fill="#fac80f" d="M 1311.699219 0.015625 L 1341.75 93.328125 L 1438.472656 93.328125 L 1360.054688 150.996094 L 1390.109375 244.308594 L 1311.699219 186.648438 L 1233.28125 244.308594 L 1263.335938 150.996094 L 1184.917969 93.328125 L 1281.644531 93.328125 Z M 1311.699219 0.015625 " fill-opacity="1" fill-rule="nonzero"/></g></svg>