<svg xmlns="http://www.w3.org/2000/svg" xmlns:xlink="http://www.w3.org/1999/xlink" width="1920" zoomAndPan="magnify" viewBox="0 0 1440 244.499993" height="326" preserveAspectRatio="xMidYMid meet" version="1.0"><defs><clipPath id="574efdf23c"><path d="M 1.46875 0 L 256 0 L 256 244 L 1.46875 244 Z M 1.46875 0 " clip-rule="nonzero"/></clipPath><clipPath id="245472c687"><path d="M 297 0 L 552 0 L 552 244 L 297 244 Z M 297 0 " clip-rule="nonzero"/></clipPath><clipPath id="632c93b05c"><path d="M 593 0 L 847 0 L 847 244 L 593 244 Z M 593 0 " clip-rule="nonzero"/></clipPath><clipPath id="5de24cb751"><path d="M 888 0 L 1143 0 L 1143 244 L 888 244 Z M 888 0 " clip-rule="nonzero"/></clipPath><clipPath id="4d171996a4"><path d="M 1185 0 L 1438.53125 0 L 1438.53125 244 L 1185 244 Z M 1185 0 " clip-rule="nonzero"/></clipPath><clipPath id="097f10458a"><path d="M 720 0 L 847 0 L 847 244 L 720 244 Z M 720 0 " clip-rule="nonzero"/></clipPath></defs><g clip-path="url(#574efdf23c)"><path fill="#fac80f" d="M 128.300781 -0.0078125 L 158.355469 93.441406 L 255.074219 93.441406 L 176.664062 151.1875 L 206.71875 244.285156 L 128.300781 186.890625 L 49.890625 244.285156 L 79.9375 151.1875 L 1.527344 93.441406 L 98.25 93.441406 Z M 128.300781 -0.0078125 " fill-opacity="1" fill-rule="nonzero"/></g><g clip-path="url(#245472c687)"><path fill="#fac80f" d="M 424.339844 -0.0078125 L 454.050781 93.441406 L 551.113281 93.441406 L 472.703125 151.1875 L 502.757812 244.285156 L 424.339844 186.890625 L 345.929688 244.285156 L 375.632812 151.1875 L 297.222656 93.441406 L 394.285156 93.441406 Z M 424.339844 -0.0078125 " fill-opacity="1" fill-rule="nonzero"/></g><g clip-path="url(#632c93b05c)"><path fill="#fac80f" d="M 720.035156 -0.0078125 L 750.089844 93.441406 L 846.808594 93.441406 L 768.398438 151.1875 L 798.445312 244.285156 L 720.035156 186.890625 L 641.625 244.285156 L 671.671875 151.1875 L 593.261719 93.441406 L 689.980469 93.441406 Z M 720.035156 -0.0078125 " fill-opacity="1" fill-rule="nonzero"/></g><g clip-path="url(#5de24cb751)"><path fill="#dcdcdc" d="M 1016.078125 -0.0078125 L 1045.785156 93.441406 L 1142.851562 93.441406 L 1064.4375 151.1875 L 1094.488281 244.285156 L 1016.078125 186.890625 L 937.65625 244.285156 L 967.367188 151.1875 L 888.957031 93.441406 L 986.019531 93.441406 Z M 1016.078125 -0.0078125 " fill-opacity="1" fill-rule="nonzero"/></g><g clip-path="url(#4d171996a4)"><path fill="#dcdcdc" d="M 1311.773438 -0.0078125 L 1341.820312 93.441406 L 1438.546875 93.441406 L 1360.136719 151.1875 L 1390.183594 244.285156 L 1311.773438 186.890625 L 1233.355469 244.285156 L 1263.410156 151.1875 L 1185 93.441406 L 1281.714844 93.441406 Z M 1311.773438 -0.0078125 " fill-opacity="1" fill-rule="nonzero"/></g><g clip-path="url(#097f10458a)"><path fill="#dcdcdc" d="M 798.445312 244.285156 L 768.398438 151.1875 L 846.808594 93.441406 L 750.089844 93.441406 L 720.035156 -0.0078125 L 720.035156 186.890625 Z M 798.445312 244.285156 " fill-opacity="1" fill-rule="nonzero"/></g></svg>