<svg xmlns="http://www.w3.org/2000/svg" xmlns:xlink="http://www.w3.org/1999/xlink" width="1920" zoomAndPan="magnify" viewBox="0 0 1440 244.499993" height="326" preserveAspectRatio="xMidYMid meet" version="1.0"><defs><clipPath id="4b969699b2"><path d="M 1.46875 0 L 256 0 L 256 244 L 1.46875 244 Z M 1.46875 0 " clip-rule="nonzero"/></clipPath><clipPath id="d748a1e176"><path d="M 297 0 L 552 0 L 552 244 L 297 244 Z M 297 0 " clip-rule="nonzero"/></clipPath><clipPath id="6a6a08827b"><path d="M 593 0 L 847 0 L 847 244 L 593 244 Z M 593 0 " clip-rule="nonzero"/></clipPath><clipPath id="ea2717ede9"><path d="M 888 0 L 1143 0 L 1143 244 L 888 244 Z M 888 0 " clip-rule="nonzero"/></clipPath><clipPath id="11bf771e70"><path d="M 1184 0 L 1438.53125 0 L 1438.53125 244 L 1184 244 Z M 1184 0 " clip-rule="nonzero"/></clipPath></defs><g clip-path="url(#4b969699b2)"><path fill="#fac80f" d="M 128.269531 0.015625 L 158.320312 93.457031 L 255.046875 93.457031 L 176.625 151.210938 L 206.683594 244.308594 L 128.269531 186.90625 L 49.851562 244.308594 L 79.910156 151.210938 L 1.488281 93.457031 L 98.214844 93.457031 Z M 128.269531 0.015625 " fill-opacity="1" fill-rule="nonzero"/></g><g clip-path="url(#d748a1e176)"><path fill="#fac80f" d="M 424.3125 0.015625 L 454.015625 93.457031 L 551.085938 93.457031 L 472.667969 151.210938 L 502.722656 244.308594 L 424.3125 186.90625 L 345.894531 244.308594 L 375.605469 151.210938 L 297.1875 93.457031 L 394.257812 93.457031 Z M 424.3125 0.015625 " fill-opacity="1" fill-rule="nonzero"/></g><g clip-path="url(#6a6a08827b)"><path fill="#fac80f" d="M 720 0.015625 L 750.054688 93.457031 L 846.78125 93.457031 L 768.363281 151.210938 L 798.417969 244.308594 L 720 186.90625 L 641.589844 244.308594 L 671.644531 151.210938 L 593.226562 93.457031 L 689.953125 93.457031 Z M 720 0.015625 " fill-opacity="1" fill-rule="nonzero"/></g><g clip-path="url(#ea2717ede9)"><path fill="#dcdcdc" d="M 1016.039062 0.015625 L 1045.75 93.457031 L 1142.820312 93.457031 L 1064.402344 151.210938 L 1094.457031 244.308594 L 1016.039062 186.90625 L 937.628906 244.308594 L 967.339844 151.210938 L 888.921875 93.457031 L 985.992188 93.457031 Z M 1016.039062 0.015625 " fill-opacity="1" fill-rule="nonzero"/></g><g clip-path="url(#11bf771e70)"><path fill="#dcdcdc" d="M 1311.734375 0.015625 L 1341.792969 93.457031 L 1438.511719 93.457031 L 1360.097656 151.210938 L 1390.152344 244.308594 L 1311.734375 186.90625 L 1233.324219 244.308594 L 1263.375 151.210938 L 1184.960938 93.457031 L 1281.6875 93.457031 Z M 1311.734375 0.015625 " fill-opacity="1" fill-rule="nonzero"/></g></svg>