<svg xmlns="http://www.w3.org/2000/svg" xmlns:xlink="http://www.w3.org/1999/xlink" width="1920" zoomAndPan="magnify" viewBox="0 0 1440 244.499993" height="326" preserveAspectRatio="xMidYMid meet" version="1.0"><defs><clipPath id="7a66033fc4"><path d="M 1.46875 0 L 256 0 L 256 244 L 1.46875 244 Z M 1.46875 0 " clip-rule="nonzero"/></clipPath><clipPath id="b833bd92b1"><path d="M 297 0 L 552 0 L 552 244 L 297 244 Z M 297 0 " clip-rule="nonzero"/></clipPath><clipPath id="2af7e93e91"><path d="M 593 0 L 847 0 L 847 244 L 593 244 Z M 593 0 " clip-rule="nonzero"/></clipPath><clipPath id="e3da34039a"><path d="M 888 0 L 1143 0 L 1143 244 L 888 244 Z M 888 0 " clip-rule="nonzero"/></clipPath><clipPath id="7596474736"><path d="M 1184 0 L 1438.53125 0 L 1438.53125 244 L 1184 244 Z M 1184 0 " clip-rule="nonzero"/></clipPath><clipPath id="2b559a7321"><path d="M 1311 0 L 1438.53125 0 L 1438.53125 244 L 1311 244 Z M 1311 0 " clip-rule="nonzero"/></clipPath></defs><g clip-path="url(#7a66033fc4)"><path fill="#fac80f" d="M 128.242188 -0.0273438 L 158.296875 93.285156 L 255.015625 93.285156 L 176.605469 150.953125 L 206.660156 244.265625 L 128.242188 186.597656 L 49.832031 244.265625 L 79.878906 150.953125 L 1.46875 93.285156 L 98.195312 93.285156 Z M 128.242188 -0.0273438 " fill-opacity="1" fill-rule="nonzero"/></g><g clip-path="url(#b833bd92b1)"><path fill="#fac80f" d="M 424.28125 -0.0273438 L 453.992188 93.285156 L 551.058594 93.285156 L 472.644531 150.953125 L 502.699219 244.265625 L 424.28125 186.597656 L 345.871094 244.265625 L 375.574219 150.953125 L 297.164062 93.285156 L 394.226562 93.285156 Z M 424.28125 -0.0273438 " fill-opacity="1" fill-rule="nonzero"/></g><g clip-path="url(#2af7e93e91)"><path fill="#fac80f" d="M 719.976562 -0.0273438 L 750.035156 93.285156 L 846.753906 93.285156 L 768.339844 150.953125 L 798.390625 244.265625 L 719.976562 186.597656 L 641.566406 244.265625 L 671.617188 150.953125 L 593.203125 93.285156 L 689.921875 93.285156 Z M 719.976562 -0.0273438 " fill-opacity="1" fill-rule="nonzero"/></g><g clip-path="url(#e3da34039a)"><path fill="#fac80f" d="M 1016.019531 -0.0273438 L 1045.730469 93.285156 L 1142.792969 93.285156 L 1064.382812 150.953125 L 1094.429688 244.265625 L 1016.019531 186.597656 L 937.601562 244.265625 L 967.3125 150.953125 L 888.898438 93.285156 L 985.964844 93.285156 Z M 1016.019531 -0.0273438 " fill-opacity="1" fill-rule="nonzero"/></g><g clip-path="url(#7596474736)"><path fill="#fac80f" d="M 1311.714844 -0.0273438 L 1341.761719 93.285156 L 1438.488281 93.285156 L 1360.078125 150.953125 L 1390.125 244.265625 L 1311.714844 186.597656 L 1233.296875 244.265625 L 1263.351562 150.953125 L 1184.941406 93.285156 L 1281.660156 93.285156 Z M 1311.714844 -0.0273438 " fill-opacity="1" fill-rule="nonzero"/></g><g clip-path="url(#2b559a7321)"><path fill="#dcdcdc" d="M 1390.125 244.265625 L 1360.078125 150.953125 L 1438.488281 93.285156 L 1341.761719 93.285156 L 1311.714844 -0.0273438 L 1311.714844 186.597656 Z M 1390.125 244.265625 " fill-opacity="1" fill-rule="nonzero"/></g></svg>