<svg width="26" height="29" viewBox="0 0 26 29" fill="none" xmlns="http://www.w3.org/2000/svg">
<circle cx="13" cy="13" r="12.5" stroke="black"/>
<path d="M12.7343 16.34L12.3543 6.24H14.3143L13.9243 16.34H12.7343ZM13.3143 20.24C13.0743 20.24 12.851 20.18 12.6443 20.06C12.4443 19.94 12.281 19.78 12.1543 19.58C12.0343 19.3733 11.9743 19.1467 11.9743 18.9C11.9743 18.52 12.1043 18.2 12.3643 17.94C12.631 17.6733 12.9476 17.54 13.3143 17.54C13.6943 17.54 14.0143 17.6733 14.2743 17.94C14.541 18.2 14.6743 18.52 14.6743 18.9C14.6743 19.2667 14.541 19.5833 14.2743 19.85C14.0143 20.11 13.6943 20.24 13.3143 20.24Z" fill="black"/>
</svg>
