<svg xmlns="http://www.w3.org/2000/svg" xmlns:xlink="http://www.w3.org/1999/xlink" width="1920" zoomAndPan="magnify" viewBox="0 0 1440 244.499993" height="326" preserveAspectRatio="xMidYMid meet" version="1.0"><defs><clipPath id="621fd424d8"><path d="M 1.46875 0 L 255 0 L 255 244 L 1.46875 244 Z M 1.46875 0 " clip-rule="nonzero"/></clipPath></defs><g clip-path="url(#621fd424d8)"><path fill="#fac80f" d="M 128.078125 0 L 158.089844 92.984375 L 254.699219 92.984375 L 176.382812 150.664062 L 206.394531 244 L 128.078125 186.324219 L 49.753906 244 L 79.773438 150.664062 L 1.453125 92.984375 L 98.058594 92.984375 Z M 128.078125 0 " fill-opacity="1" fill-rule="nonzero"/></g><path fill="#fac80f" d="M 423.761719 0 L 453.429688 92.984375 L 550.382812 92.984375 L 472.058594 150.664062 L 502.078125 244 L 423.761719 186.324219 L 345.4375 244 L 375.113281 150.664062 L 296.789062 92.984375 L 393.742188 92.984375 Z M 423.761719 0 " fill-opacity="1" fill-rule="nonzero"/><path fill="#fac80f" d="M 719.101562 0 L 749.113281 92.984375 L 845.722656 92.984375 L 767.398438 150.664062 L 797.417969 244 L 719.101562 186.324219 L 640.777344 244 L 670.796875 150.664062 L 592.472656 92.984375 L 689.082031 92.984375 Z M 719.101562 0 " fill-opacity="1" fill-rule="nonzero"/><path fill="#fac80f" d="M 1014.789062 0 L 1044.457031 92.984375 L 1141.410156 92.984375 L 1063.085938 150.664062 L 1093.105469 244 L 1014.789062 186.324219 L 936.464844 244 L 966.136719 150.664062 L 887.8125 92.984375 L 984.769531 92.984375 Z M 1014.789062 0 " fill-opacity="1" fill-rule="nonzero"/><path fill="#dcdcdc" d="M 1310.121094 0 L 1340.140625 92.984375 L 1436.75 92.984375 L 1358.425781 150.664062 L 1388.445312 244 L 1310.121094 186.324219 L 1231.804688 244 L 1261.824219 150.664062 L 1183.5 92.984375 L 1280.109375 92.984375 Z M 1310.121094 0 " fill-opacity="1" fill-rule="nonzero"/></svg>