<svg xmlns="http://www.w3.org/2000/svg" xmlns:xlink="http://www.w3.org/1999/xlink" width="1920" zoomAndPan="magnify" viewBox="0 0 1440 244.499993" height="326" preserveAspectRatio="xMidYMid meet" version="1.0"><defs><clipPath id="bf88c70358"><path d="M 1.46875 0 L 256 0 L 256 244 L 1.46875 244 Z M 1.46875 0 " clip-rule="nonzero"/></clipPath><clipPath id="a87b28adf6"><path d="M 297 0 L 552 0 L 552 244 L 297 244 Z M 297 0 " clip-rule="nonzero"/></clipPath><clipPath id="b662471d79"><path d="M 593 0 L 847 0 L 847 244 L 593 244 Z M 593 0 " clip-rule="nonzero"/></clipPath><clipPath id="3eb9308dfc"><path d="M 888 0 L 1143 0 L 1143 244 L 888 244 Z M 888 0 " clip-rule="nonzero"/></clipPath><clipPath id="f28884da0f"><path d="M 1184 0 L 1438.53125 0 L 1438.53125 244 L 1184 244 Z M 1184 0 " clip-rule="nonzero"/></clipPath><clipPath id="ebbf79332f"><path d="M 1016 0 L 1143 0 L 1143 244 L 1016 244 Z M 1016 0 " clip-rule="nonzero"/></clipPath></defs><g clip-path="url(#bf88c70358)"><path fill="#fac80f" d="M 128.285156 0.0351562 L 158.332031 93.132812 L 255.058594 93.132812 L 176.648438 150.878906 L 206.695312 244.328125 L 128.285156 186.574219 L 49.867188 244.328125 L 79.921875 150.878906 L 1.511719 93.132812 L 98.230469 93.132812 Z M 128.285156 0.0351562 " fill-opacity="1" fill-rule="nonzero"/></g><g clip-path="url(#a87b28adf6)"><path fill="#fac80f" d="M 424.324219 0.0351562 L 454.027344 93.132812 L 551.101562 93.132812 L 472.683594 150.878906 L 502.738281 244.328125 L 424.324219 186.574219 L 345.90625 244.328125 L 375.617188 150.878906 L 297.199219 93.132812 L 394.269531 93.132812 Z M 424.324219 0.0351562 " fill-opacity="1" fill-rule="nonzero"/></g><g clip-path="url(#b662471d79)"><path fill="#fac80f" d="M 720.023438 0.0351562 L 750.070312 93.132812 L 846.796875 93.132812 L 768.378906 150.878906 L 798.433594 244.328125 L 720.023438 186.574219 L 641.601562 244.328125 L 671.660156 150.878906 L 593.242188 93.132812 L 689.964844 93.132812 Z M 720.023438 0.0351562 " fill-opacity="1" fill-rule="nonzero"/></g><g clip-path="url(#3eb9308dfc)"><path fill="#fac80f" d="M 1016.054688 0.0351562 L 1045.765625 93.132812 L 1142.835938 93.132812 L 1064.417969 150.878906 L 1094.472656 244.328125 L 1016.054688 186.574219 L 937.644531 244.328125 L 967.355469 150.878906 L 888.9375 93.132812 L 986.007812 93.132812 Z M 1016.054688 0.0351562 " fill-opacity="1" fill-rule="nonzero"/></g><g clip-path="url(#f28884da0f)"><path fill="#dcdcdc" d="M 1311.75 0.0351562 L 1341.804688 93.132812 L 1438.53125 93.132812 L 1360.113281 150.878906 L 1390.167969 244.328125 L 1311.75 186.574219 L 1233.339844 244.328125 L 1263.394531 150.878906 L 1184.976562 93.132812 L 1281.703125 93.132812 Z M 1311.75 0.0351562 " fill-opacity="1" fill-rule="nonzero"/></g><g clip-path="url(#ebbf79332f)"><path fill="#dcdcdc" d="M 1094.472656 244.328125 L 1064.417969 150.878906 L 1142.835938 93.132812 L 1045.765625 93.132812 L 1016.054688 0.0351562 L 1016.054688 186.574219 Z M 1094.472656 244.328125 " fill-opacity="1" fill-rule="nonzero"/></g></svg>