<svg xmlns="http://www.w3.org/2000/svg" xmlns:xlink="http://www.w3.org/1999/xlink" width="1920" zoomAndPan="magnify" viewBox="0 0 1440 244.499993" height="326" preserveAspectRatio="xMidYMid meet" version="1.0"><defs><clipPath id="90a2f5782c"><path d="M 1.46875 0 L 256 0 L 256 244 L 1.46875 244 Z M 1.46875 0 " clip-rule="nonzero"/></clipPath><clipPath id="4da3ffdf39"><path d="M 297 0 L 552 0 L 552 244 L 297 244 Z M 297 0 " clip-rule="nonzero"/></clipPath><clipPath id="c9132c6013"><path d="M 593 0 L 847 0 L 847 244 L 593 244 Z M 593 0 " clip-rule="nonzero"/></clipPath><clipPath id="ea1f9937ab"><path d="M 888 0 L 1143 0 L 1143 244 L 888 244 Z M 888 0 " clip-rule="nonzero"/></clipPath><clipPath id="8288846ee7"><path d="M 1184 0 L 1438.53125 0 L 1438.53125 244 L 1184 244 Z M 1184 0 " clip-rule="nonzero"/></clipPath><clipPath id="bd7e6324bd"><path d="M 424 0 L 552 0 L 552 244 L 424 244 Z M 424 0 " clip-rule="nonzero"/></clipPath></defs><g clip-path="url(#90a2f5782c)"><path fill="#fac80f" d="M 128.265625 0.0234375 L 158.320312 93.335938 L 255.039062 93.335938 L 176.625 151.003906 L 206.675781 244.316406 L 128.265625 186.648438 L 49.851562 244.316406 L 79.902344 151.003906 L 1.488281 93.335938 L 98.207031 93.335938 Z M 128.265625 0.0234375 " fill-opacity="1" fill-rule="nonzero"/></g><g clip-path="url(#4da3ffdf39)"><path fill="#fac80f" d="M 424.304688 0.0234375 L 454.015625 93.335938 L 551.078125 93.335938 L 472.667969 151.003906 L 502.714844 244.316406 L 424.304688 186.648438 L 345.886719 244.316406 L 375.597656 151.003906 L 297.1875 93.335938 L 394.25 93.335938 Z M 424.304688 0.0234375 " fill-opacity="1" fill-rule="nonzero"/></g><g clip-path="url(#c9132c6013)"><path fill="#dcdcdc" d="M 720 0.0234375 L 750.046875 93.335938 L 846.773438 93.335938 L 768.363281 151.003906 L 798.410156 244.316406 L 720 186.648438 L 641.582031 244.316406 L 671.636719 151.003906 L 593.226562 93.335938 L 689.945312 93.335938 Z M 720 0.0234375 " fill-opacity="1" fill-rule="nonzero"/></g><g clip-path="url(#ea1f9937ab)"><path fill="#dcdcdc" d="M 1016.039062 0.0234375 L 1045.742188 93.335938 L 1142.8125 93.335938 L 1064.394531 151.003906 L 1094.453125 244.316406 L 1016.039062 186.648438 L 937.621094 244.316406 L 967.332031 151.003906 L 888.914062 93.335938 L 985.984375 93.335938 Z M 1016.039062 0.0234375 " fill-opacity="1" fill-rule="nonzero"/></g><g clip-path="url(#8288846ee7)"><path fill="#dcdcdc" d="M 1311.734375 0.0234375 L 1341.785156 93.335938 L 1438.511719 93.335938 L 1360.09375 151.003906 L 1390.148438 244.316406 L 1311.734375 186.648438 L 1233.316406 244.316406 L 1263.375 151.003906 L 1184.953125 93.335938 L 1281.679688 93.335938 Z M 1311.734375 0.0234375 " fill-opacity="1" fill-rule="nonzero"/></g><g clip-path="url(#bd7e6324bd)"><path fill="#dcdcdc" d="M 502.714844 244.316406 L 472.667969 151.003906 L 551.078125 93.335938 L 454.015625 93.335938 L 424.304688 0.0234375 L 424.304688 186.648438 Z M 502.714844 244.316406 " fill-opacity="1" fill-rule="nonzero"/></g></svg>