<svg xmlns="http://www.w3.org/2000/svg" xmlns:xlink="http://www.w3.org/1999/xlink" width="1920" zoomAndPan="magnify" viewBox="0 0 1440 244.499993" height="326" preserveAspectRatio="xMidYMid meet" version="1.0"><defs><clipPath id="fef91e57f0"><path d="M 1.46875 0 L 255 0 L 255 244 L 1.46875 244 Z M 1.46875 0 " clip-rule="nonzero"/></clipPath></defs><g clip-path="url(#fef91e57f0)"><path fill="#fac80f" d="M 128.082031 -0.015625 L 158.101562 92.972656 L 254.707031 92.972656 L 176.390625 150.648438 L 206.402344 243.984375 L 128.082031 186.308594 L 49.765625 243.984375 L 79.777344 150.648438 L 1.460938 92.972656 L 98.066406 92.972656 Z M 128.082031 -0.015625 " fill-opacity="1" fill-rule="nonzero"/></g><path fill="#dcdcdc" d="M 423.769531 -0.015625 L 453.445312 92.972656 L 550.390625 92.972656 L 472.074219 150.648438 L 502.085938 243.984375 L 423.769531 186.308594 L 345.445312 243.984375 L 375.121094 150.648438 L 296.804688 92.972656 L 393.75 92.972656 Z M 423.769531 -0.015625 " fill-opacity="1" fill-rule="nonzero"/><path fill="#dcdcdc" d="M 719.109375 -0.015625 L 749.121094 92.972656 L 845.730469 92.972656 L 767.414062 150.648438 L 797.425781 243.984375 L 719.109375 186.308594 L 640.785156 243.984375 L 670.804688 150.648438 L 592.488281 92.972656 L 689.089844 92.972656 Z M 719.109375 -0.015625 " fill-opacity="1" fill-rule="nonzero"/><path fill="#dcdcdc" d="M 1014.796875 -0.015625 L 1044.460938 92.972656 L 1141.417969 92.972656 L 1063.09375 150.648438 L 1093.113281 243.984375 L 1014.796875 186.308594 L 936.472656 243.984375 L 966.144531 150.648438 L 887.820312 92.972656 L 984.777344 92.972656 Z M 1014.796875 -0.015625 " fill-opacity="1" fill-rule="nonzero"/><path fill="#dcdcdc" d="M 1310.136719 -0.015625 L 1340.148438 92.972656 L 1436.757812 92.972656 L 1358.433594 150.648438 L 1388.453125 243.984375 L 1310.136719 186.308594 L 1231.8125 243.984375 L 1261.832031 150.648438 L 1183.507812 92.972656 L 1280.117188 92.972656 Z M 1310.136719 -0.015625 " fill-opacity="1" fill-rule="nonzero"/></svg>