<svg xmlns="http://www.w3.org/2000/svg" xmlns:xlink="http://www.w3.org/1999/xlink" width="1080" zoomAndPan="magnify" viewBox="0 0 810 809.999993" height="1080" preserveAspectRatio="xMidYMid meet" version="1.0"><path fill="#dcdcdc" d="M 25.46875 776.910156 C 24.804688 776.910156 24.140625 776.855469 23.472656 776.75 C 18.300781 775.90625 14.210938 771.910156 13.253906 766.761719 C 11.894531 759.425781 0.289062 692.625 12.273438 607.179688 C 19.089844 558.570312 32.230469 512.554688 51.335938 470.40625 C 74.996094 418.207031 107.949219 371.714844 149.285156 332.21875 C 241.15625 244.425781 348.027344 215.070312 425.191406 206.386719 L 425.191406 46.546875 C 425.191406 41.589844 428.140625 37.109375 432.695312 35.144531 C 437.246094 33.179688 442.527344 34.117188 446.132812 37.515625 L 805.761719 376.917969 C 808.25 379.265625 809.65625 382.53125 809.65625 385.949219 C 809.65625 389.367188 808.25 392.632812 805.761719 394.980469 L 446.132812 734.398438 C 442.527344 737.800781 437.246094 738.738281 432.695312 736.769531 C 428.140625 734.808594 425.191406 730.324219 425.191406 725.367188 L 425.191406 535.765625 C 355.003906 537.179688 288.367188 553.835938 226.921875 585.347656 C 119.9375 640.214844 61.585938 724.90625 36.324219 770.507812 C 34.113281 774.5 29.929688 776.910156 25.46875 776.910156 Z M 25.46875 776.910156 " fill-opacity="1" fill-rule="nonzero"/></svg>