<svg xmlns="http://www.w3.org/2000/svg" xmlns:xlink="http://www.w3.org/1999/xlink" width="1080" zoomAndPan="magnify" viewBox="0 0 810 809.999993" height="1080" preserveAspectRatio="xMidYMid meet" version="1.0"><defs><clipPath id="b5afc90ab2"><path d="M 81 70.980469 L 726 70.980469 L 726 739.230469 L 81 739.230469 Z M 81 70.980469 " clip-rule="nonzero"/></clipPath></defs><g clip-path="url(#b5afc90ab2)"><path fill="#000000" d="M 715.644531 685.628906 L 555.59375 531.820312 C 603.132812 480.945312 629.183594 414.960938 629.183594 344.96875 C 629.183594 274.972656 600.65625 202.996094 548.957031 151.230469 C 497.207031 99.464844 428.421875 70.980469 355.28125 70.980469 C 282.136719 70.980469 213.351562 99.464844 161.605469 151.230469 C 109.855469 202.996094 81.378906 271.800781 81.378906 344.96875 C 81.378906 418.132812 109.855469 486.9375 161.605469 538.703125 C 213.355469 590.472656 282.136719 618.953125 355.28125 618.953125 C 410.449219 618.953125 463.089844 602.753906 507.855469 572.589844 L 672.363281 730.660156 C 678.207031 736.257812 685.882812 739.378906 694.003906 739.378906 C 702.125 739.378906 710.695312 735.859375 716.535156 729.769531 C 728.472656 717.335938 728.074219 697.519531 715.644531 685.582031 Z M 475.617188 524.835938 C 441.199219 547.917969 399.851562 561.394531 355.28125 561.394531 C 235.785156 561.394531 138.972656 464.5 138.972656 345.015625 C 138.972656 225.535156 235.785156 128.589844 355.28125 128.589844 C 474.773438 128.589844 571.589844 225.484375 571.589844 344.96875 C 571.589844 404.210938 547.769531 457.910156 509.191406 496.996094 C 498.992188 507.347656 487.699219 516.710938 475.566406 524.835938 Z M 475.617188 524.835938 " fill-opacity="1" fill-rule="nonzero"/></g></svg>