<svg width="35" height="35" viewBox="0 0 35 35" fill="none" xmlns="http://www.w3.org/2000/svg">
<g clip-path="url(#clip0_294_480)">
<path d="M19.497 18.0489C19.6005 17.3241 19.5469 16.5855 19.3398 15.8833C19.1328 15.181 18.7771 14.5315 18.2969 13.9788C17.8167 13.426 17.2233 12.9831 16.5569 12.6799C15.8905 12.3766 15.1666 12.2203 14.4345 12.2214L10.102 12.2274C8.76347 12.2525 7.48832 12.8023 6.55122 13.7585C5.61412 14.7146 5.09005 16.0005 5.09189 17.3393C5.09372 18.6781 5.62131 19.9626 6.56103 20.9162C7.50074 21.8698 8.77739 22.4161 10.116 22.4376L12.5927 22.4414M15.1626 16.6107C15.0591 17.3355 15.1127 18.0741 15.3198 18.7763C15.5269 19.4786 15.8825 20.1281 16.3627 20.6808C16.8429 21.2336 17.4363 21.6765 18.1027 21.9797C18.7691 22.283 19.493 22.4393 20.2251 22.4382L24.5576 22.4322C25.8961 22.4071 27.1713 21.8573 28.1084 20.9011C29.0455 19.945 29.5696 18.659 29.5677 17.3203C29.5659 15.9815 29.0383 14.697 28.0986 13.7434C27.1589 12.7898 25.8822 12.2435 24.5436 12.222L22.0741 12.2254" stroke="#1E1E1E" stroke-linecap="round" stroke-linejoin="round"/>
</g>
<defs>
<clipPath id="clip0_294_480">
<rect width="24.5082" height="24.5082" fill="white" transform="translate(17.3535 34.6597) rotate(-135.078)"/>
</clipPath>
</defs>
</svg>
