<svg xmlns="http://www.w3.org/2000/svg" xmlns:xlink="http://www.w3.org/1999/xlink" width="1080" zoomAndPan="magnify" viewBox="0 0 810 809.999993" height="1080" preserveAspectRatio="xMidYMid meet" version="1.0"><defs><clipPath id="781058d651"><path d="M 154 140.246094 L 729.074219 140.246094 L 729.074219 567 L 154 567 Z M 154 140.246094 " clip-rule="nonzero"/></clipPath><clipPath id="b3b69a2edb"><path d="M 229 525 L 606 525 L 606 669.746094 L 229 669.746094 Z M 229 525 " clip-rule="nonzero"/></clipPath><clipPath id="fad5d1a6d5"><path d="M 82 140.246094 L 657 140.246094 L 657 567 L 82 567 Z M 82 140.246094 " clip-rule="nonzero"/></clipPath></defs><g clip-path="url(#781058d651)"><path fill="#6995c9" d="M 729.015625 476.007812 C 729.015625 526.121094 688.386719 566.746094 638.277344 566.746094 L 245.648438 566.746094 C 195.535156 566.746094 154.910156 526.121094 154.910156 476.007812 L 154.910156 231.039062 C 154.910156 180.925781 195.535156 140.300781 245.648438 140.300781 L 638.277344 140.300781 C 688.390625 140.300781 729.015625 180.925781 729.015625 231.039062 Z M 729.015625 476.007812 " fill-opacity="1" fill-rule="nonzero"/></g><g clip-path="url(#b3b69a2edb)"><path fill="#6995c9" d="M 229.546875 669.695312 C 229.546875 589.78125 313.65625 525 417.410156 525 C 521.167969 525 605.273438 589.78125 605.273438 669.695312 Z M 229.546875 669.695312 " fill-opacity="1" fill-rule="nonzero"/></g><g clip-path="url(#fad5d1a6d5)"><path fill="#b7e3ff" d="M 656.164062 476.007812 C 656.164062 526.121094 615.535156 566.746094 565.425781 566.746094 L 172.792969 566.746094 C 122.679688 566.746094 82.058594 526.121094 82.058594 476.007812 L 82.058594 231.039062 C 82.058594 180.925781 122.683594 140.300781 172.792969 140.300781 L 565.421875 140.300781 C 615.535156 140.300781 656.160156 180.925781 656.160156 231.039062 L 656.160156 476.007812 Z M 656.164062 476.007812 " fill-opacity="1" fill-rule="nonzero"/></g><path fill="#fac80f" d="M 540.546875 340.730469 C 540.546875 343.453125 540.480469 346.171875 540.347656 348.890625 C 540.214844 351.609375 540.015625 354.324219 539.746094 357.03125 C 539.480469 359.742188 539.148438 362.441406 538.75 365.132812 C 538.347656 367.828125 537.882812 370.507812 537.351562 373.175781 C 536.820312 375.847656 536.226562 378.5 535.566406 381.140625 C 534.902344 383.78125 534.175781 386.402344 533.386719 389.007812 C 532.597656 391.613281 531.742188 394.195312 530.828125 396.757812 C 529.910156 399.320312 528.929688 401.859375 527.890625 404.375 C 526.847656 406.890625 525.746094 409.375 524.582031 411.835938 C 523.417969 414.296875 522.195312 416.726562 520.910156 419.128906 C 519.628906 421.527344 518.285156 423.894531 516.886719 426.230469 C 515.488281 428.566406 514.03125 430.863281 512.519531 433.128906 C 511.007812 435.390625 509.441406 437.613281 507.820312 439.800781 C 506.199219 441.988281 504.523438 444.132812 502.796875 446.234375 C 501.070312 448.339844 499.292969 450.402344 497.464844 452.417969 C 495.640625 454.433594 493.761719 456.40625 491.839844 458.328125 C 489.914062 460.253906 487.941406 462.128906 485.925781 463.957031 C 483.910156 465.785156 481.847656 467.5625 479.746094 469.289062 C 477.640625 471.015625 475.496094 472.691406 473.308594 474.3125 C 471.125 475.933594 468.898438 477.5 466.636719 479.011719 C 464.375 480.523438 462.074219 481.980469 459.738281 483.378906 C 457.40625 484.777344 455.039062 486.117188 452.636719 487.402344 C 450.238281 488.683594 447.808594 489.910156 445.347656 491.070312 C 442.886719 492.234375 440.398438 493.339844 437.882812 494.378906 C 435.371094 495.421875 432.832031 496.402344 430.269531 497.316406 C 427.707031 498.234375 425.121094 499.089844 422.515625 499.878906 C 419.914062 500.667969 417.289062 501.394531 414.648438 502.054688 C 412.011719 502.71875 409.355469 503.3125 406.683594 503.84375 C 404.015625 504.375 401.335938 504.839844 398.644531 505.238281 C 395.949219 505.640625 393.25 505.972656 390.542969 506.238281 C 387.832031 506.503906 385.121094 506.707031 382.402344 506.839844 C 379.683594 506.972656 376.960938 507.039062 374.242188 507.039062 C 371.519531 507.039062 368.796875 506.972656 366.082031 506.839844 C 363.363281 506.707031 360.648438 506.503906 357.9375 506.238281 C 355.230469 505.972656 352.53125 505.640625 349.839844 505.238281 C 347.144531 504.839844 344.464844 504.375 341.796875 503.84375 C 339.125 503.3125 336.472656 502.71875 333.832031 502.054688 C 331.191406 501.394531 328.566406 500.667969 325.964844 499.878906 C 323.359375 499.089844 320.777344 498.234375 318.210938 497.316406 C 315.648438 496.402344 313.113281 495.421875 310.597656 494.378906 C 308.082031 493.339844 305.59375 492.234375 303.132812 491.070312 C 300.675781 489.910156 298.242188 488.683594 295.84375 487.402344 C 293.441406 486.117188 291.074219 484.777344 288.742188 483.378906 C 286.40625 481.980469 284.109375 480.523438 281.84375 479.011719 C 279.582031 477.5 277.355469 475.933594 275.171875 474.3125 C 272.984375 472.691406 270.839844 471.015625 268.734375 469.289062 C 266.632812 467.5625 264.570312 465.785156 262.554688 463.957031 C 260.539062 462.128906 258.566406 460.253906 256.644531 458.328125 C 254.71875 456.40625 252.84375 454.433594 251.015625 452.417969 C 249.1875 450.402344 247.410156 448.339844 245.683594 446.234375 C 243.957031 444.132812 242.28125 441.988281 240.660156 439.800781 C 239.039062 437.613281 237.472656 435.390625 235.960938 433.128906 C 234.449219 430.863281 232.992188 428.566406 231.59375 426.230469 C 230.195312 423.894531 228.851562 421.527344 227.570312 419.128906 C 226.285156 416.726562 225.0625 414.296875 223.898438 411.835938 C 222.734375 409.375 221.632812 406.890625 220.589844 404.375 C 219.550781 401.859375 218.570312 399.320312 217.652344 396.757812 C 216.738281 394.195312 215.882812 391.613281 215.09375 389.007812 C 214.304688 386.402344 213.578125 383.78125 212.917969 381.140625 C 212.253906 378.5 211.660156 375.847656 211.128906 373.175781 C 210.597656 370.507812 210.132812 367.828125 209.730469 365.132812 C 209.332031 362.441406 209 359.742188 208.734375 357.03125 C 208.464844 354.324219 208.265625 351.609375 208.132812 348.890625 C 208 346.171875 207.933594 343.453125 207.933594 340.730469 C 207.933594 338.007812 208 335.289062 208.132812 332.570312 C 208.265625 329.851562 208.464844 327.140625 208.734375 324.429688 C 209 321.722656 209.332031 319.019531 209.730469 316.328125 C 210.132812 313.636719 210.597656 310.957031 211.128906 308.285156 C 211.660156 305.617188 212.253906 302.960938 212.917969 300.320312 C 213.578125 297.683594 214.304688 295.058594 215.09375 292.453125 C 215.882812 289.851562 216.738281 287.265625 217.652344 284.703125 C 218.570312 282.140625 219.550781 279.601562 220.589844 277.089844 C 221.632812 274.574219 222.734375 272.085938 223.898438 269.625 C 225.0625 267.164062 226.285156 264.734375 227.570312 262.335938 C 228.851562 259.933594 230.195312 257.566406 231.59375 255.230469 C 232.992188 252.898438 234.449219 250.597656 235.960938 248.335938 C 237.472656 246.074219 239.039062 243.847656 240.660156 241.660156 C 242.28125 239.476562 243.957031 237.332031 245.683594 235.226562 C 247.410156 233.121094 249.1875 231.0625 251.015625 229.046875 C 252.84375 227.027344 254.71875 225.058594 256.644531 223.132812 C 258.566406 221.210938 260.539062 219.332031 262.554688 217.503906 C 264.570312 215.675781 266.632812 213.898438 268.734375 212.171875 C 270.839844 210.445312 272.984375 208.773438 275.171875 207.152344 C 277.355469 205.53125 279.582031 203.964844 281.84375 202.453125 C 284.109375 200.9375 286.40625 199.484375 288.742188 198.085938 C 291.074219 196.683594 293.441406 195.34375 295.84375 194.0625 C 298.242188 192.777344 300.675781 191.554688 303.132812 190.390625 C 305.59375 189.226562 308.082031 188.125 310.597656 187.082031 C 313.113281 186.042969 315.648438 185.0625 318.210938 184.144531 C 320.777344 183.226562 323.359375 182.375 325.964844 181.585938 C 328.566406 180.792969 331.191406 180.070312 333.832031 179.40625 C 336.472656 178.746094 339.125 178.148438 341.796875 177.617188 C 344.464844 177.089844 347.144531 176.621094 349.839844 176.222656 C 352.53125 175.824219 355.230469 175.492188 357.941406 175.222656 C 360.648438 174.957031 363.363281 174.757812 366.082031 174.625 C 368.796875 174.488281 371.519531 174.421875 374.242188 174.421875 C 376.960938 174.421875 379.683594 174.488281 382.402344 174.625 C 385.121094 174.757812 387.832031 174.957031 390.542969 175.222656 C 393.25 175.492188 395.949219 175.824219 398.644531 176.222656 C 401.335938 176.621094 404.015625 177.089844 406.683594 177.617188 C 409.355469 178.148438 412.011719 178.746094 414.648438 179.40625 C 417.289062 180.070312 419.914062 180.792969 422.515625 181.585938 C 425.121094 182.375 427.707031 183.226562 430.269531 184.144531 C 432.832031 185.0625 435.371094 186.042969 437.882812 187.082031 C 440.398438 188.125 442.886719 189.226562 445.347656 190.390625 C 447.808594 191.554688 450.238281 192.777344 452.636719 194.0625 C 455.039062 195.34375 457.40625 196.683594 459.738281 198.085938 C 462.074219 199.484375 464.375 200.9375 466.636719 202.453125 C 468.898438 203.964844 471.125 205.53125 473.308594 207.152344 C 475.496094 208.773438 477.640625 210.445312 479.746094 212.171875 C 481.847656 213.898438 483.910156 215.675781 485.925781 217.503906 C 487.941406 219.332031 489.914062 221.210938 491.839844 223.132812 C 493.761719 225.058594 495.640625 227.027344 497.464844 229.046875 C 499.292969 231.0625 501.070312 233.121094 502.796875 235.226562 C 504.523438 237.332031 506.199219 239.476562 507.820312 241.660156 C 509.441406 243.847656 511.007812 246.074219 512.519531 248.335938 C 514.03125 250.597656 515.488281 252.898438 516.886719 255.230469 C 518.285156 257.566406 519.628906 259.933594 520.910156 262.335938 C 522.195312 264.734375 523.417969 267.164062 524.582031 269.625 C 525.746094 272.085938 526.847656 274.574219 527.890625 277.089844 C 528.929688 279.601562 529.910156 282.140625 530.828125 284.703125 C 531.742188 287.265625 532.597656 289.851562 533.386719 292.453125 C 534.175781 295.058594 534.902344 297.683594 535.566406 300.320312 C 536.226562 302.960938 536.820312 305.617188 537.351562 308.285156 C 537.882812 310.957031 538.347656 313.636719 538.75 316.328125 C 539.148438 319.019531 539.480469 321.722656 539.746094 324.429688 C 540.015625 327.140625 540.214844 329.851562 540.347656 332.570312 C 540.480469 335.289062 540.546875 338.007812 540.546875 340.730469 Z M 540.546875 340.730469 " fill-opacity="1" fill-rule="nonzero"/><path fill="#6995c9" d="M 455.648438 340.730469 C 455.648438 342.0625 455.617188 343.394531 455.550781 344.726562 C 455.484375 346.058594 455.386719 347.386719 455.257812 348.710938 C 455.125 350.035156 454.960938 351.359375 454.765625 352.675781 C 454.570312 353.996094 454.34375 355.308594 454.085938 356.613281 C 453.824219 357.921875 453.53125 359.21875 453.207031 360.511719 C 452.886719 361.804688 452.53125 363.089844 452.144531 364.363281 C 451.757812 365.636719 451.339844 366.902344 450.890625 368.15625 C 450.441406 369.410156 449.960938 370.652344 449.453125 371.886719 C 448.941406 373.117188 448.402344 374.332031 447.832031 375.539062 C 447.261719 376.742188 446.664062 377.933594 446.035156 379.105469 C 445.40625 380.28125 444.75 381.441406 444.066406 382.582031 C 443.382812 383.726562 442.667969 384.851562 441.929688 385.960938 C 441.1875 387.066406 440.421875 388.15625 439.628906 389.226562 C 438.835938 390.296875 438.015625 391.347656 437.167969 392.375 C 436.324219 393.40625 435.453125 394.414062 434.558594 395.402344 C 433.664062 396.390625 432.746094 397.355469 431.804688 398.296875 C 430.863281 399.238281 429.898438 400.15625 428.910156 401.050781 C 427.921875 401.945312 426.914062 402.816406 425.886719 403.660156 C 424.855469 404.507812 423.804688 405.324219 422.734375 406.117188 C 421.664062 406.914062 420.574219 407.679688 419.46875 408.417969 C 418.359375 409.160156 417.234375 409.871094 416.09375 410.558594 C 414.949219 411.242188 413.789062 411.898438 412.617188 412.527344 C 411.441406 413.15625 410.25 413.753906 409.046875 414.324219 C 407.84375 414.894531 406.625 415.433594 405.394531 415.941406 C 404.164062 416.453125 402.921875 416.933594 401.664062 417.378906 C 400.410156 417.828125 399.148438 418.246094 397.871094 418.632812 C 396.597656 419.019531 395.3125 419.375 394.019531 419.699219 C 392.730469 420.023438 391.429688 420.316406 390.121094 420.574219 C 388.816406 420.835938 387.503906 421.0625 386.183594 421.257812 C 384.867188 421.453125 383.546875 421.617188 382.21875 421.746094 C 380.894531 421.878906 379.566406 421.976562 378.234375 422.042969 C 376.902344 422.105469 375.574219 422.140625 374.242188 422.140625 C 372.90625 422.140625 371.578125 422.105469 370.246094 422.042969 C 368.914062 421.976562 367.585938 421.878906 366.261719 421.746094 C 364.933594 421.617188 363.613281 421.453125 362.296875 421.257812 C 360.976562 421.0625 359.664062 420.835938 358.359375 420.574219 C 357.050781 420.316406 355.753906 420.023438 354.460938 419.699219 C 353.167969 419.375 351.882812 419.019531 350.609375 418.632812 C 349.332031 418.246094 348.070312 417.828125 346.816406 417.378906 C 345.558594 416.933594 344.316406 416.453125 343.085938 415.941406 C 341.855469 415.433594 340.636719 414.894531 339.433594 414.324219 C 338.230469 413.753906 337.039062 413.15625 335.863281 412.527344 C 334.691406 411.898438 333.53125 411.242188 332.386719 410.558594 C 331.246094 409.871094 330.121094 409.160156 329.011719 408.417969 C 327.90625 407.679688 326.816406 406.914062 325.746094 406.117188 C 324.675781 405.324219 323.625 404.507812 322.59375 403.660156 C 321.566406 402.816406 320.558594 401.945312 319.570312 401.050781 C 318.582031 400.15625 317.617188 399.238281 316.675781 398.296875 C 315.734375 397.355469 314.816406 396.390625 313.921875 395.402344 C 313.027344 394.414062 312.15625 393.40625 311.3125 392.375 C 310.464844 391.347656 309.644531 390.296875 308.851562 389.226562 C 308.058594 388.15625 307.292969 387.066406 306.550781 385.960938 C 305.8125 384.851562 305.097656 383.726562 304.414062 382.582031 C 303.730469 381.441406 303.074219 380.28125 302.445312 379.105469 C 301.816406 377.933594 301.21875 376.742188 300.648438 375.539062 C 300.078125 374.332031 299.539062 373.117188 299.027344 371.886719 C 298.519531 370.652344 298.039062 369.410156 297.589844 368.15625 C 297.140625 366.902344 296.722656 365.636719 296.335938 364.363281 C 295.949219 363.089844 295.59375 361.804688 295.273438 360.511719 C 294.949219 359.21875 294.65625 357.921875 294.394531 356.613281 C 294.136719 355.308594 293.910156 353.996094 293.714844 352.675781 C 293.519531 351.359375 293.355469 350.035156 293.222656 348.710938 C 293.09375 347.386719 292.996094 346.058594 292.929688 344.726562 C 292.863281 343.394531 292.832031 342.0625 292.832031 340.730469 C 292.832031 339.398438 292.863281 338.066406 292.929688 336.738281 C 292.996094 335.40625 293.09375 334.078125 293.222656 332.753906 C 293.355469 331.425781 293.519531 330.105469 293.714844 328.785156 C 293.910156 327.46875 294.136719 326.15625 294.394531 324.847656 C 294.65625 323.542969 294.949219 322.242188 295.273438 320.949219 C 295.59375 319.660156 295.949219 318.375 296.335938 317.101562 C 296.722656 315.824219 297.140625 314.558594 297.589844 313.304688 C 298.039062 312.050781 298.519531 310.808594 299.027344 309.578125 C 299.539062 308.347656 300.078125 307.128906 300.648438 305.925781 C 301.21875 304.71875 301.816406 303.53125 302.445312 302.355469 C 303.074219 301.179688 303.730469 300.023438 304.414062 298.878906 C 305.097656 297.738281 305.8125 296.609375 306.550781 295.503906 C 307.292969 294.394531 308.058594 293.308594 308.851562 292.238281 C 309.644531 291.167969 310.464844 290.117188 311.3125 289.085938 C 312.15625 288.058594 313.027344 287.046875 313.921875 286.0625 C 314.816406 285.074219 315.734375 284.109375 316.675781 283.167969 C 317.617188 282.226562 318.582031 281.308594 319.570312 280.410156 C 320.558594 279.515625 321.566406 278.648438 322.59375 277.800781 C 323.625 276.957031 324.675781 276.136719 325.746094 275.34375 C 326.816406 274.550781 327.90625 273.785156 329.011719 273.042969 C 330.121094 272.304688 331.246094 271.589844 332.386719 270.90625 C 333.53125 270.21875 334.691406 269.5625 335.863281 268.9375 C 337.039062 268.308594 338.230469 267.710938 339.433594 267.140625 C 340.636719 266.570312 341.855469 266.03125 343.085938 265.519531 C 344.316406 265.011719 345.558594 264.53125 346.816406 264.082031 C 348.070312 263.632812 349.332031 263.214844 350.609375 262.828125 C 351.882812 262.441406 353.167969 262.085938 354.460938 261.761719 C 355.753906 261.4375 357.050781 261.148438 358.359375 260.886719 C 359.664062 260.628906 360.976562 260.398438 362.296875 260.203125 C 363.613281 260.007812 364.933594 259.847656 366.261719 259.714844 C 367.585938 259.585938 368.914062 259.488281 370.246094 259.421875 C 371.578125 259.355469 372.90625 259.324219 374.242188 259.324219 C 375.574219 259.324219 376.902344 259.355469 378.234375 259.421875 C 379.566406 259.488281 380.894531 259.585938 382.21875 259.714844 C 383.546875 259.847656 384.867188 260.007812 386.183594 260.203125 C 387.503906 260.398438 388.816406 260.628906 390.121094 260.886719 C 391.429688 261.148438 392.730469 261.4375 394.019531 261.761719 C 395.3125 262.085938 396.597656 262.441406 397.871094 262.828125 C 399.148438 263.214844 400.410156 263.632812 401.664062 264.082031 C 402.921875 264.53125 404.164062 265.011719 405.394531 265.519531 C 406.625 266.03125 407.84375 266.570312 409.046875 267.140625 C 410.25 267.710938 411.441406 268.308594 412.617188 268.9375 C 413.789062 269.5625 414.949219 270.21875 416.09375 270.90625 C 417.234375 271.589844 418.359375 272.304688 419.46875 273.042969 C 420.574219 273.785156 421.664062 274.550781 422.734375 275.34375 C 423.804688 276.136719 424.855469 276.957031 425.886719 277.800781 C 426.914062 278.648438 427.921875 279.515625 428.910156 280.410156 C 429.898438 281.308594 430.863281 282.226562 431.804688 283.167969 C 432.746094 284.109375 433.664062 285.074219 434.558594 286.0625 C 435.453125 287.046875 436.324219 288.058594 437.167969 289.085938 C 438.015625 290.117188 438.835938 291.167969 439.628906 292.238281 C 440.421875 293.308594 441.1875 294.394531 441.929688 295.503906 C 442.667969 296.609375 443.382812 297.738281 444.066406 298.878906 C 444.75 300.023438 445.40625 301.179688 446.035156 302.355469 C 446.664062 303.53125 447.261719 304.71875 447.832031 305.925781 C 448.402344 307.128906 448.941406 308.347656 449.453125 309.578125 C 449.960938 310.808594 450.441406 312.050781 450.890625 313.304688 C 451.339844 314.558594 451.757812 315.824219 452.144531 317.101562 C 452.53125 318.375 452.886719 319.660156 453.207031 320.949219 C 453.53125 322.242188 453.824219 323.542969 454.085938 324.847656 C 454.34375 326.15625 454.570312 327.46875 454.765625 328.785156 C 454.960938 330.105469 455.125 331.425781 455.257812 332.753906 C 455.386719 334.078125 455.484375 335.40625 455.550781 336.738281 C 455.617188 338.066406 455.648438 339.398438 455.648438 340.730469 Z M 455.648438 340.730469 " fill-opacity="1" fill-rule="nonzero"/><path fill="#b7e3ff" d="M 412.851562 287.199219 C 433.113281 304.171875 440.363281 328.890625 429.039062 342.410156 C 417.714844 355.933594 412.613281 328.652344 392.347656 311.675781 C 372.085938 294.703125 344.328125 294.464844 355.65625 280.945312 C 366.984375 267.429688 392.585938 270.230469 412.851562 287.199219 Z M 412.851562 287.199219 " fill-opacity="1" fill-rule="nonzero"/><path fill="#6995c9" d="M 179 218.152344 C 179 219.21875 178.949219 220.285156 178.84375 221.34375 C 178.738281 222.40625 178.582031 223.460938 178.375 224.507812 C 178.167969 225.554688 177.90625 226.585938 177.597656 227.605469 C 177.289062 228.628906 176.929688 229.628906 176.519531 230.617188 C 176.113281 231.601562 175.65625 232.566406 175.152344 233.503906 C 174.652344 234.445312 174.105469 235.359375 173.511719 236.246094 C 172.917969 237.132812 172.285156 237.988281 171.605469 238.8125 C 170.929688 239.640625 170.214844 240.429688 169.460938 241.183594 C 168.707031 241.9375 167.917969 242.652344 167.09375 243.328125 C 166.269531 244.003906 165.414062 244.640625 164.523438 245.234375 C 163.636719 245.824219 162.726562 246.371094 161.785156 246.875 C 160.84375 247.378906 159.878906 247.835938 158.894531 248.242188 C 157.910156 248.652344 156.90625 249.007812 155.886719 249.320312 C 154.863281 249.628906 153.832031 249.886719 152.785156 250.097656 C 151.738281 250.304688 150.683594 250.460938 149.625 250.566406 C 148.5625 250.667969 147.496094 250.722656 146.429688 250.722656 C 145.363281 250.722656 144.300781 250.667969 143.238281 250.566406 C 142.175781 250.460938 141.125 250.304688 140.078125 250.097656 C 139.03125 249.886719 137.996094 249.628906 136.976562 249.320312 C 135.957031 249.007812 134.953125 248.652344 133.96875 248.242188 C 132.980469 247.835938 132.019531 247.378906 131.078125 246.875 C 130.136719 246.371094 129.222656 245.824219 128.335938 245.234375 C 127.449219 244.640625 126.59375 244.003906 125.769531 243.328125 C 124.945312 242.652344 124.15625 241.9375 123.402344 241.183594 C 122.648438 240.429688 121.933594 239.640625 121.253906 238.8125 C 120.578125 237.988281 119.945312 237.132812 119.351562 236.246094 C 118.757812 235.359375 118.210938 234.445312 117.707031 233.503906 C 117.207031 232.566406 116.75 231.601562 116.339844 230.617188 C 115.933594 229.628906 115.574219 228.628906 115.265625 227.605469 C 114.953125 226.585938 114.695312 225.550781 114.488281 224.507812 C 114.28125 223.460938 114.125 222.40625 114.019531 221.34375 C 113.914062 220.285156 113.863281 219.21875 113.863281 218.152344 C 113.863281 217.085938 113.914062 216.023438 114.019531 214.960938 C 114.125 213.898438 114.28125 212.84375 114.488281 211.800781 C 114.695312 210.753906 114.953125 209.71875 115.265625 208.699219 C 115.574219 207.679688 115.933594 206.675781 116.339844 205.6875 C 116.75 204.703125 117.207031 203.742188 117.707031 202.800781 C 118.210938 201.859375 118.757812 200.945312 119.351562 200.058594 C 119.945312 199.171875 120.578125 198.316406 121.253906 197.492188 C 121.933594 196.667969 122.648438 195.878906 123.402344 195.125 C 124.15625 194.367188 124.945312 193.652344 125.769531 192.976562 C 126.59375 192.300781 127.449219 191.664062 128.335938 191.074219 C 129.222656 190.480469 130.136719 189.933594 131.078125 189.429688 C 132.019531 188.925781 132.980469 188.472656 133.96875 188.0625 C 134.953125 187.65625 135.957031 187.296875 136.976562 186.984375 C 137.996094 186.675781 139.03125 186.417969 140.078125 186.210938 C 141.125 186 142.175781 185.84375 143.238281 185.742188 C 144.300781 185.636719 145.363281 185.582031 146.429688 185.582031 C 147.496094 185.582031 148.5625 185.636719 149.625 185.742188 C 150.683594 185.84375 151.738281 186 152.785156 186.210938 C 153.832031 186.417969 154.863281 186.675781 155.886719 186.988281 C 156.90625 187.296875 157.910156 187.65625 158.894531 188.0625 C 159.878906 188.472656 160.84375 188.925781 161.785156 189.429688 C 162.726562 189.933594 163.636719 190.480469 164.523438 191.074219 C 165.414062 191.664062 166.269531 192.300781 167.09375 192.976562 C 167.917969 193.652344 168.707031 194.367188 169.460938 195.125 C 170.214844 195.878906 170.929688 196.667969 171.605469 197.492188 C 172.285156 198.316406 172.917969 199.171875 173.511719 200.058594 C 174.105469 200.945312 174.652344 201.859375 175.152344 202.800781 C 175.65625 203.742188 176.113281 204.703125 176.519531 205.6875 C 176.929688 206.675781 177.289062 207.679688 177.597656 208.699219 C 177.90625 209.71875 178.167969 210.753906 178.375 211.800781 C 178.582031 212.84375 178.738281 213.898438 178.84375 214.960938 C 178.949219 216.023438 179 217.085938 179 218.152344 Z M 179 218.152344 " fill-opacity="1" fill-rule="nonzero"/><path fill="#e58a22" d="M 162.894531 218.152344 C 162.894531 218.691406 162.867188 219.230469 162.816406 219.765625 C 162.761719 220.304688 162.683594 220.835938 162.578125 221.363281 C 162.472656 221.894531 162.34375 222.414062 162.183594 222.933594 C 162.027344 223.449219 161.847656 223.953125 161.640625 224.453125 C 161.433594 224.949219 161.203125 225.4375 160.949219 225.914062 C 160.695312 226.390625 160.417969 226.851562 160.121094 227.300781 C 159.820312 227.746094 159.5 228.179688 159.15625 228.597656 C 158.816406 229.011719 158.453125 229.414062 158.074219 229.792969 C 157.691406 230.175781 157.292969 230.535156 156.875 230.878906 C 156.457031 231.222656 156.027344 231.542969 155.578125 231.839844 C 155.128906 232.140625 154.667969 232.417969 154.191406 232.671875 C 153.714844 232.925781 153.230469 233.15625 152.730469 233.363281 C 152.234375 233.570312 151.726562 233.75 151.210938 233.90625 C 150.695312 234.0625 150.171875 234.195312 149.644531 234.300781 C 149.113281 234.40625 148.582031 234.484375 148.042969 234.535156 C 147.507812 234.589844 146.96875 234.617188 146.429688 234.617188 C 145.890625 234.617188 145.355469 234.589844 144.816406 234.535156 C 144.28125 234.484375 143.75 234.40625 143.21875 234.300781 C 142.691406 234.195312 142.167969 234.0625 141.652344 233.90625 C 141.136719 233.75 140.628906 233.570312 140.132812 233.363281 C 139.632812 233.15625 139.144531 232.925781 138.671875 232.671875 C 138.195312 232.417969 137.734375 232.140625 137.285156 231.839844 C 136.835938 231.542969 136.402344 231.222656 135.988281 230.878906 C 135.570312 230.535156 135.171875 230.175781 134.789062 229.792969 C 134.410156 229.414062 134.046875 229.011719 133.703125 228.597656 C 133.363281 228.179688 133.042969 227.746094 132.742188 227.300781 C 132.441406 226.851562 132.167969 226.390625 131.910156 225.914062 C 131.65625 225.4375 131.425781 224.949219 131.222656 224.453125 C 131.015625 223.953125 130.832031 223.449219 130.675781 222.933594 C 130.519531 222.414062 130.390625 221.894531 130.285156 221.363281 C 130.179688 220.835938 130.101562 220.304688 130.046875 219.765625 C 129.996094 219.230469 129.96875 218.691406 129.96875 218.152344 C 129.96875 217.613281 129.996094 217.074219 130.046875 216.539062 C 130.101562 216.003906 130.179688 215.46875 130.285156 214.941406 C 130.390625 214.410156 130.519531 213.890625 130.675781 213.375 C 130.832031 212.859375 131.015625 212.351562 131.222656 211.851562 C 131.425781 211.355469 131.65625 210.867188 131.910156 210.390625 C 132.167969 209.917969 132.441406 209.453125 132.742188 209.007812 C 133.042969 208.558594 133.363281 208.125 133.703125 207.707031 C 134.046875 207.292969 134.410156 206.894531 134.789062 206.511719 C 135.171875 206.128906 135.570312 205.769531 135.988281 205.425781 C 136.402344 205.085938 136.835938 204.761719 137.285156 204.464844 C 137.734375 204.164062 138.195312 203.886719 138.671875 203.632812 C 139.144531 203.378906 139.632812 203.148438 140.132812 202.941406 C 140.628906 202.738281 141.136719 202.554688 141.652344 202.398438 C 142.167969 202.242188 142.691406 202.109375 143.21875 202.007812 C 143.75 201.902344 144.28125 201.820312 144.816406 201.769531 C 145.355469 201.714844 145.890625 201.691406 146.429688 201.691406 C 146.96875 201.691406 147.507812 201.714844 148.042969 201.769531 C 148.582031 201.820312 149.113281 201.902344 149.644531 202.003906 C 150.171875 202.109375 150.695312 202.242188 151.210938 202.398438 C 151.726562 202.554688 152.234375 202.738281 152.730469 202.941406 C 153.230469 203.148438 153.714844 203.378906 154.191406 203.632812 C 154.667969 203.886719 155.128906 204.164062 155.578125 204.464844 C 156.027344 204.761719 156.457031 205.085938 156.875 205.425781 C 157.292969 205.769531 157.691406 206.128906 158.074219 206.511719 C 158.453125 206.894531 158.816406 207.292969 159.15625 207.707031 C 159.5 208.125 159.820312 208.558594 160.121094 209.007812 C 160.417969 209.453125 160.695312 209.917969 160.949219 210.390625 C 161.203125 210.867188 161.433594 211.355469 161.640625 211.851562 C 161.847656 212.351562 162.027344 212.859375 162.183594 213.375 C 162.34375 213.890625 162.472656 214.410156 162.578125 214.941406 C 162.683594 215.46875 162.761719 216.003906 162.816406 216.539062 C 162.867188 217.074219 162.894531 217.613281 162.894531 218.152344 Z M 162.894531 218.152344 " fill-opacity="1" fill-rule="nonzero"/><path fill="#ffffff" d="M 644.042969 267.066406 C 644.042969 276.09375 636.722656 283.410156 627.699219 283.410156 L 583.132812 283.410156 C 574.105469 283.410156 566.789062 276.09375 566.789062 267.066406 C 566.789062 258.039062 574.109375 250.722656 583.132812 250.722656 L 627.699219 250.722656 C 636.726562 250.722656 644.042969 258.039062 644.042969 267.066406 Z M 644.042969 267.066406 " fill-opacity="1" fill-rule="nonzero"/><path fill="#ffffff" d="M 644.042969 313.171875 C 644.042969 322.199219 636.722656 329.519531 627.699219 329.519531 L 583.132812 329.519531 C 574.105469 329.519531 566.789062 322.199219 566.789062 313.171875 C 566.789062 304.144531 574.109375 296.828125 583.132812 296.828125 L 627.699219 296.828125 C 636.726562 296.824219 644.042969 304.144531 644.042969 313.171875 Z M 644.042969 313.171875 " fill-opacity="1" fill-rule="nonzero"/></svg>