<svg width="192" height="192" viewBox="0 0 192 192" fill="none" xmlns="http://www.w3.org/2000/svg">
<g clip-path="url(#clip0_588_1766)">
<path fill-rule="evenodd" clip-rule="evenodd" d="M82.2859 32.5714H15.4286C11.6415 32.5714 8.57143 35.6415 8.57143 39.4286V142.286C8.57143 146.072 11.6415 149.143 15.4286 149.143H176.571C180.358 149.143 183.429 146.072 183.429 142.286V60.0004H177.069L148.275 95.9921C139.02 107.56 122.252 109.689 110.4 100.8L82.9716 80.229C75.6177 74.7135 71.5156 65.8811 72.0458 56.704C72.4978 48.8807 76.265 41.6938 82.2859 36.8741V32.5714Z" fill="#79EE8D"/>
<path fill-rule="evenodd" clip-rule="evenodd" d="M189.747 16.7115C193.295 12.2757 192.576 5.80298 188.139 2.25429C183.704 -1.29437 177.231 -0.575178 173.682 3.86066L125.053 64.6473L105.6 50.0575C101.055 46.6491 94.6084 47.5702 91.2 52.1147C87.7916 56.6592 88.7126 63.1063 93.2571 66.5147L120.686 87.0861C125.13 90.4195 131.418 89.6212 134.889 85.2829L189.747 16.7115ZM176.571 157.715H120.528L127.385 174.858H137.143C141.877 174.858 145.714 178.695 145.714 183.429C145.714 188.163 141.877 192 137.143 192H54.8571C50.1232 192 46.2857 188.163 46.2857 183.429C46.2857 178.695 50.1232 174.858 54.8571 174.858H64.6146L71.4717 157.715H15.4286C6.90761 157.715 0 150.807 0 142.286V39.429C0 30.908 6.90761 24.0004 15.4286 24.0004H75.4286C80.1625 24.0004 84 27.8379 84 32.5718C84 37.3057 80.1625 41.1432 75.4286 41.1432H17.1429V140.572H174.857V65.1432C174.857 60.4093 178.694 56.5718 183.429 56.5718C188.163 56.5718 192 60.4093 192 65.1432V142.286C192 150.807 185.092 157.715 176.571 157.715Z" fill="#6995C9"/>
</g>
<defs>
<clipPath id="clip0_588_1766">
<rect width="192" height="192" fill="white"/>
</clipPath>
</defs>
</svg>
