<svg xmlns="http://www.w3.org/2000/svg" xmlns:xlink="http://www.w3.org/1999/xlink" width="1080" zoomAndPan="magnify" viewBox="0 0 810 809.999993" height="1080" preserveAspectRatio="xMidYMid meet" version="1.0"><defs><clipPath id="023a43f50f"><path d="M 70.054688 248.722656 L 739.804688 248.722656 L 739.804688 561.472656 L 70.054688 561.472656 Z M 70.054688 248.722656 " clip-rule="nonzero"/></clipPath><clipPath id="ec5ea5a6e6"><path d="M 70.054688 286.222656 L 70.054688 523.777344 C 70.054688 544.488281 86.84375 561.277344 107.554688 561.277344 L 702.445312 561.277344 C 723.15625 561.277344 739.945312 544.488281 739.945312 523.777344 L 739.945312 286.222656 C 739.945312 265.511719 723.15625 248.722656 702.445312 248.722656 L 107.554688 248.722656 C 86.84375 248.722656 70.054688 265.511719 70.054688 286.222656 Z M 70.054688 286.222656 " clip-rule="nonzero"/></clipPath><clipPath id="a0ca3f307c"><path d="M 92 268 L 146 268 L 146 326 L 92 326 Z M 92 268 " clip-rule="nonzero"/></clipPath><clipPath id="cb0f578be4"><path d="M 70.054688 286.222656 L 70.054688 523.777344 C 70.054688 544.488281 86.84375 561.277344 107.554688 561.277344 L 702.445312 561.277344 C 723.15625 561.277344 739.945312 544.488281 739.945312 523.777344 L 739.945312 286.222656 C 739.945312 265.511719 723.15625 248.722656 702.445312 248.722656 L 107.554688 248.722656 C 86.84375 248.722656 70.054688 265.511719 70.054688 286.222656 Z M 70.054688 286.222656 " clip-rule="nonzero"/></clipPath><clipPath id="6c87827b53"><path d="M 123 340 L 177 340 L 177 398 L 123 398 Z M 123 340 " clip-rule="nonzero"/></clipPath><clipPath id="7d0e7241a0"><path d="M 70.054688 286.222656 L 70.054688 523.777344 C 70.054688 544.488281 86.84375 561.277344 107.554688 561.277344 L 702.445312 561.277344 C 723.15625 561.277344 739.945312 544.488281 739.945312 523.777344 L 739.945312 286.222656 C 739.945312 265.511719 723.15625 248.722656 702.445312 248.722656 L 107.554688 248.722656 C 86.84375 248.722656 70.054688 265.511719 70.054688 286.222656 Z M 70.054688 286.222656 " clip-rule="nonzero"/></clipPath><clipPath id="18494d5f5f"><path d="M 187 340 L 241 340 L 241 398 L 187 398 Z M 187 340 " clip-rule="nonzero"/></clipPath><clipPath id="28e5de1521"><path d="M 70.054688 286.222656 L 70.054688 523.777344 C 70.054688 544.488281 86.84375 561.277344 107.554688 561.277344 L 702.445312 561.277344 C 723.15625 561.277344 739.945312 544.488281 739.945312 523.777344 L 739.945312 286.222656 C 739.945312 265.511719 723.15625 248.722656 702.445312 248.722656 L 107.554688 248.722656 C 86.84375 248.722656 70.054688 265.511719 70.054688 286.222656 Z M 70.054688 286.222656 " clip-rule="nonzero"/></clipPath><clipPath id="3b13bba210"><path d="M 250 340 L 304 340 L 304 398 L 250 398 Z M 250 340 " clip-rule="nonzero"/></clipPath><clipPath id="627b7fe36e"><path d="M 70.054688 286.222656 L 70.054688 523.777344 C 70.054688 544.488281 86.84375 561.277344 107.554688 561.277344 L 702.445312 561.277344 C 723.15625 561.277344 739.945312 544.488281 739.945312 523.777344 L 739.945312 286.222656 C 739.945312 265.511719 723.15625 248.722656 702.445312 248.722656 L 107.554688 248.722656 C 86.84375 248.722656 70.054688 265.511719 70.054688 286.222656 Z M 70.054688 286.222656 " clip-rule="nonzero"/></clipPath><clipPath id="5857911373"><path d="M 313 340 L 367 340 L 367 398 L 313 398 Z M 313 340 " clip-rule="nonzero"/></clipPath><clipPath id="b2ee683eec"><path d="M 70.054688 286.222656 L 70.054688 523.777344 C 70.054688 544.488281 86.84375 561.277344 107.554688 561.277344 L 702.445312 561.277344 C 723.15625 561.277344 739.945312 544.488281 739.945312 523.777344 L 739.945312 286.222656 C 739.945312 265.511719 723.15625 248.722656 702.445312 248.722656 L 107.554688 248.722656 C 86.84375 248.722656 70.054688 265.511719 70.054688 286.222656 Z M 70.054688 286.222656 " clip-rule="nonzero"/></clipPath><clipPath id="ebefd59a00"><path d="M 377 340 L 431 340 L 431 398 L 377 398 Z M 377 340 " clip-rule="nonzero"/></clipPath><clipPath id="a4dd517a0f"><path d="M 70.054688 286.222656 L 70.054688 523.777344 C 70.054688 544.488281 86.84375 561.277344 107.554688 561.277344 L 702.445312 561.277344 C 723.15625 561.277344 739.945312 544.488281 739.945312 523.777344 L 739.945312 286.222656 C 739.945312 265.511719 723.15625 248.722656 702.445312 248.722656 L 107.554688 248.722656 C 86.84375 248.722656 70.054688 265.511719 70.054688 286.222656 Z M 70.054688 286.222656 " clip-rule="nonzero"/></clipPath><clipPath id="f7a67318e6"><path d="M 440 340 L 494 340 L 494 398 L 440 398 Z M 440 340 " clip-rule="nonzero"/></clipPath><clipPath id="28ee1d36f9"><path d="M 70.054688 286.222656 L 70.054688 523.777344 C 70.054688 544.488281 86.84375 561.277344 107.554688 561.277344 L 702.445312 561.277344 C 723.15625 561.277344 739.945312 544.488281 739.945312 523.777344 L 739.945312 286.222656 C 739.945312 265.511719 723.15625 248.722656 702.445312 248.722656 L 107.554688 248.722656 C 86.84375 248.722656 70.054688 265.511719 70.054688 286.222656 Z M 70.054688 286.222656 " clip-rule="nonzero"/></clipPath><clipPath id="6e798447dc"><path d="M 503 340 L 558 340 L 558 398 L 503 398 Z M 503 340 " clip-rule="nonzero"/></clipPath><clipPath id="da770212a3"><path d="M 70.054688 286.222656 L 70.054688 523.777344 C 70.054688 544.488281 86.84375 561.277344 107.554688 561.277344 L 702.445312 561.277344 C 723.15625 561.277344 739.945312 544.488281 739.945312 523.777344 L 739.945312 286.222656 C 739.945312 265.511719 723.15625 248.722656 702.445312 248.722656 L 107.554688 248.722656 C 86.84375 248.722656 70.054688 265.511719 70.054688 286.222656 Z M 70.054688 286.222656 " clip-rule="nonzero"/></clipPath><clipPath id="5b21b37859"><path d="M 567 340 L 621 340 L 621 398 L 567 398 Z M 567 340 " clip-rule="nonzero"/></clipPath><clipPath id="1fd1433c45"><path d="M 70.054688 286.222656 L 70.054688 523.777344 C 70.054688 544.488281 86.84375 561.277344 107.554688 561.277344 L 702.445312 561.277344 C 723.15625 561.277344 739.945312 544.488281 739.945312 523.777344 L 739.945312 286.222656 C 739.945312 265.511719 723.15625 248.722656 702.445312 248.722656 L 107.554688 248.722656 C 86.84375 248.722656 70.054688 265.511719 70.054688 286.222656 Z M 70.054688 286.222656 " clip-rule="nonzero"/></clipPath><clipPath id="4f53155c8a"><path d="M 630 340 L 684 340 L 684 398 L 630 398 Z M 630 340 " clip-rule="nonzero"/></clipPath><clipPath id="d43959e6a4"><path d="M 70.054688 286.222656 L 70.054688 523.777344 C 70.054688 544.488281 86.84375 561.277344 107.554688 561.277344 L 702.445312 561.277344 C 723.15625 561.277344 739.945312 544.488281 739.945312 523.777344 L 739.945312 286.222656 C 739.945312 265.511719 723.15625 248.722656 702.445312 248.722656 L 107.554688 248.722656 C 86.84375 248.722656 70.054688 265.511719 70.054688 286.222656 Z M 70.054688 286.222656 " clip-rule="nonzero"/></clipPath><clipPath id="8582adf11f"><path d="M 180 411 L 234 411 L 234 469 L 180 469 Z M 180 411 " clip-rule="nonzero"/></clipPath><clipPath id="59b6bc88cb"><path d="M 70.054688 286.222656 L 70.054688 523.777344 C 70.054688 544.488281 86.84375 561.277344 107.554688 561.277344 L 702.445312 561.277344 C 723.15625 561.277344 739.945312 544.488281 739.945312 523.777344 L 739.945312 286.222656 C 739.945312 265.511719 723.15625 248.722656 702.445312 248.722656 L 107.554688 248.722656 C 86.84375 248.722656 70.054688 265.511719 70.054688 286.222656 Z M 70.054688 286.222656 " clip-rule="nonzero"/></clipPath><clipPath id="12fcbc5364"><path d="M 92 411 L 172 411 L 172 469 L 92 469 Z M 92 411 " clip-rule="nonzero"/></clipPath><clipPath id="458585fe31"><path d="M 70.054688 286.222656 L 70.054688 523.777344 C 70.054688 544.488281 86.84375 561.277344 107.554688 561.277344 L 702.445312 561.277344 C 723.15625 561.277344 739.945312 544.488281 739.945312 523.777344 L 739.945312 286.222656 C 739.945312 265.511719 723.15625 248.722656 702.445312 248.722656 L 107.554688 248.722656 C 86.84375 248.722656 70.054688 265.511719 70.054688 286.222656 Z M 70.054688 286.222656 " clip-rule="nonzero"/></clipPath><clipPath id="d9b60af914"><path d="M 92 479 L 163 479 L 163 537 L 92 537 Z M 92 479 " clip-rule="nonzero"/></clipPath><clipPath id="2879a3366b"><path d="M 70.054688 286.222656 L 70.054688 523.777344 C 70.054688 544.488281 86.84375 561.277344 107.554688 561.277344 L 702.445312 561.277344 C 723.15625 561.277344 739.945312 544.488281 739.945312 523.777344 L 739.945312 286.222656 C 739.945312 265.511719 723.15625 248.722656 702.445312 248.722656 L 107.554688 248.722656 C 86.84375 248.722656 70.054688 265.511719 70.054688 286.222656 Z M 70.054688 286.222656 " clip-rule="nonzero"/></clipPath><clipPath id="8e9756a09e"><path d="M 170 479 L 241 479 L 241 537 L 170 537 Z M 170 479 " clip-rule="nonzero"/></clipPath><clipPath id="c727c3e811"><path d="M 70.054688 286.222656 L 70.054688 523.777344 C 70.054688 544.488281 86.84375 561.277344 107.554688 561.277344 L 702.445312 561.277344 C 723.15625 561.277344 739.945312 544.488281 739.945312 523.777344 L 739.945312 286.222656 C 739.945312 265.511719 723.15625 248.722656 702.445312 248.722656 L 107.554688 248.722656 C 86.84375 248.722656 70.054688 265.511719 70.054688 286.222656 Z M 70.054688 286.222656 " clip-rule="nonzero"/></clipPath><clipPath id="f1482b3e44"><path d="M 622 411 L 716 411 L 716 469 L 622 469 Z M 622 411 " clip-rule="nonzero"/></clipPath><clipPath id="e8588c7668"><path d="M 70.054688 286.222656 L 70.054688 523.777344 C 70.054688 544.488281 86.84375 561.277344 107.554688 561.277344 L 702.445312 561.277344 C 723.15625 561.277344 739.945312 544.488281 739.945312 523.777344 L 739.945312 286.222656 C 739.945312 265.511719 723.15625 248.722656 702.445312 248.722656 L 107.554688 248.722656 C 86.84375 248.722656 70.054688 265.511719 70.054688 286.222656 Z M 70.054688 286.222656 " clip-rule="nonzero"/></clipPath><clipPath id="cf8be47434"><path d="M 243 411 L 297 411 L 297 469 L 243 469 Z M 243 411 " clip-rule="nonzero"/></clipPath><clipPath id="e4d8cf7c9a"><path d="M 70.054688 286.222656 L 70.054688 523.777344 C 70.054688 544.488281 86.84375 561.277344 107.554688 561.277344 L 702.445312 561.277344 C 723.15625 561.277344 739.945312 544.488281 739.945312 523.777344 L 739.945312 286.222656 C 739.945312 265.511719 723.15625 248.722656 702.445312 248.722656 L 107.554688 248.722656 C 86.84375 248.722656 70.054688 265.511719 70.054688 286.222656 Z M 70.054688 286.222656 " clip-rule="nonzero"/></clipPath><clipPath id="261d65e7f4"><path d="M 250 479 L 304 479 L 304 537 L 250 537 Z M 250 479 " clip-rule="nonzero"/></clipPath><clipPath id="bed06835e9"><path d="M 70.054688 286.222656 L 70.054688 523.777344 C 70.054688 544.488281 86.84375 561.277344 107.554688 561.277344 L 702.445312 561.277344 C 723.15625 561.277344 739.945312 544.488281 739.945312 523.777344 L 739.945312 286.222656 C 739.945312 265.511719 723.15625 248.722656 702.445312 248.722656 L 107.554688 248.722656 C 86.84375 248.722656 70.054688 265.511719 70.054688 286.222656 Z M 70.054688 286.222656 " clip-rule="nonzero"/></clipPath><clipPath id="9eaa19cd91"><path d="M 307 411 L 361 411 L 361 469 L 307 469 Z M 307 411 " clip-rule="nonzero"/></clipPath><clipPath id="64504cc4f3"><path d="M 70.054688 286.222656 L 70.054688 523.777344 C 70.054688 544.488281 86.84375 561.277344 107.554688 561.277344 L 702.445312 561.277344 C 723.15625 561.277344 739.945312 544.488281 739.945312 523.777344 L 739.945312 286.222656 C 739.945312 265.511719 723.15625 248.722656 702.445312 248.722656 L 107.554688 248.722656 C 86.84375 248.722656 70.054688 265.511719 70.054688 286.222656 Z M 70.054688 286.222656 " clip-rule="nonzero"/></clipPath><clipPath id="92fa2c2f9f"><path d="M 313 479 L 558 479 L 558 537 L 313 537 Z M 313 479 " clip-rule="nonzero"/></clipPath><clipPath id="52ebe3ad7c"><path d="M 70.054688 286.222656 L 70.054688 523.777344 C 70.054688 544.488281 86.84375 561.277344 107.554688 561.277344 L 702.445312 561.277344 C 723.15625 561.277344 739.945312 544.488281 739.945312 523.777344 L 739.945312 286.222656 C 739.945312 265.511719 723.15625 248.722656 702.445312 248.722656 L 107.554688 248.722656 C 86.84375 248.722656 70.054688 265.511719 70.054688 286.222656 Z M 70.054688 286.222656 " clip-rule="nonzero"/></clipPath><clipPath id="10fd7cfa05"><path d="M 370 411 L 424 411 L 424 469 L 370 469 Z M 370 411 " clip-rule="nonzero"/></clipPath><clipPath id="231f527c89"><path d="M 70.054688 286.222656 L 70.054688 523.777344 C 70.054688 544.488281 86.84375 561.277344 107.554688 561.277344 L 702.445312 561.277344 C 723.15625 561.277344 739.945312 544.488281 739.945312 523.777344 L 739.945312 286.222656 C 739.945312 265.511719 723.15625 248.722656 702.445312 248.722656 L 107.554688 248.722656 C 86.84375 248.722656 70.054688 265.511719 70.054688 286.222656 Z M 70.054688 286.222656 " clip-rule="nonzero"/></clipPath><clipPath id="2bf7e5b2fd"><path d="M 433 411 L 488 411 L 488 469 L 433 469 Z M 433 411 " clip-rule="nonzero"/></clipPath><clipPath id="4ab747d9d9"><path d="M 70.054688 286.222656 L 70.054688 523.777344 C 70.054688 544.488281 86.84375 561.277344 107.554688 561.277344 L 702.445312 561.277344 C 723.15625 561.277344 739.945312 544.488281 739.945312 523.777344 L 739.945312 286.222656 C 739.945312 265.511719 723.15625 248.722656 702.445312 248.722656 L 107.554688 248.722656 C 86.84375 248.722656 70.054688 265.511719 70.054688 286.222656 Z M 70.054688 286.222656 " clip-rule="nonzero"/></clipPath><clipPath id="c5e00663ae"><path d="M 497 411 L 551 411 L 551 469 L 497 469 Z M 497 411 " clip-rule="nonzero"/></clipPath><clipPath id="ba629569e4"><path d="M 70.054688 286.222656 L 70.054688 523.777344 C 70.054688 544.488281 86.84375 561.277344 107.554688 561.277344 L 702.445312 561.277344 C 723.15625 561.277344 739.945312 544.488281 739.945312 523.777344 L 739.945312 286.222656 C 739.945312 265.511719 723.15625 248.722656 702.445312 248.722656 L 107.554688 248.722656 C 86.84375 248.722656 70.054688 265.511719 70.054688 286.222656 Z M 70.054688 286.222656 " clip-rule="nonzero"/></clipPath><clipPath id="d8afda3679"><path d="M 560 411 L 614 411 L 614 469 L 560 469 Z M 560 411 " clip-rule="nonzero"/></clipPath><clipPath id="2223265d13"><path d="M 70.054688 286.222656 L 70.054688 523.777344 C 70.054688 544.488281 86.84375 561.277344 107.554688 561.277344 L 702.445312 561.277344 C 723.15625 561.277344 739.945312 544.488281 739.945312 523.777344 L 739.945312 286.222656 C 739.945312 265.511719 723.15625 248.722656 702.445312 248.722656 L 107.554688 248.722656 C 86.84375 248.722656 70.054688 265.511719 70.054688 286.222656 Z M 70.054688 286.222656 " clip-rule="nonzero"/></clipPath><clipPath id="805d519607"><path d="M 567 480 L 716 480 L 716 538 L 567 538 Z M 567 480 " clip-rule="nonzero"/></clipPath><clipPath id="32b6c1d1d9"><path d="M 70.054688 286.222656 L 70.054688 523.777344 C 70.054688 544.488281 86.84375 561.277344 107.554688 561.277344 L 702.445312 561.277344 C 723.15625 561.277344 739.945312 544.488281 739.945312 523.777344 L 739.945312 286.222656 C 739.945312 265.511719 723.15625 248.722656 702.445312 248.722656 L 107.554688 248.722656 C 86.84375 248.722656 70.054688 265.511719 70.054688 286.222656 Z M 70.054688 286.222656 " clip-rule="nonzero"/></clipPath><clipPath id="e9df10238c"><path d="M 155 268 L 210 268 L 210 326 L 155 326 Z M 155 268 " clip-rule="nonzero"/></clipPath><clipPath id="f913d9e643"><path d="M 70.054688 286.222656 L 70.054688 523.777344 C 70.054688 544.488281 86.84375 561.277344 107.554688 561.277344 L 702.445312 561.277344 C 723.15625 561.277344 739.945312 544.488281 739.945312 523.777344 L 739.945312 286.222656 C 739.945312 265.511719 723.15625 248.722656 702.445312 248.722656 L 107.554688 248.722656 C 86.84375 248.722656 70.054688 265.511719 70.054688 286.222656 Z M 70.054688 286.222656 " clip-rule="nonzero"/></clipPath><clipPath id="e3af688fba"><path d="M 219 268 L 273 268 L 273 326 L 219 326 Z M 219 268 " clip-rule="nonzero"/></clipPath><clipPath id="d901dfef14"><path d="M 70.054688 286.222656 L 70.054688 523.777344 C 70.054688 544.488281 86.84375 561.277344 107.554688 561.277344 L 702.445312 561.277344 C 723.15625 561.277344 739.945312 544.488281 739.945312 523.777344 L 739.945312 286.222656 C 739.945312 265.511719 723.15625 248.722656 702.445312 248.722656 L 107.554688 248.722656 C 86.84375 248.722656 70.054688 265.511719 70.054688 286.222656 Z M 70.054688 286.222656 " clip-rule="nonzero"/></clipPath><clipPath id="495e22730b"><path d="M 282 268 L 336 268 L 336 326 L 282 326 Z M 282 268 " clip-rule="nonzero"/></clipPath><clipPath id="a51d84e74b"><path d="M 70.054688 286.222656 L 70.054688 523.777344 C 70.054688 544.488281 86.84375 561.277344 107.554688 561.277344 L 702.445312 561.277344 C 723.15625 561.277344 739.945312 544.488281 739.945312 523.777344 L 739.945312 286.222656 C 739.945312 265.511719 723.15625 248.722656 702.445312 248.722656 L 107.554688 248.722656 C 86.84375 248.722656 70.054688 265.511719 70.054688 286.222656 Z M 70.054688 286.222656 " clip-rule="nonzero"/></clipPath><clipPath id="051c58d717"><path d="M 345 268 L 400 268 L 400 326 L 345 326 Z M 345 268 " clip-rule="nonzero"/></clipPath><clipPath id="7e56cd7172"><path d="M 70.054688 286.222656 L 70.054688 523.777344 C 70.054688 544.488281 86.84375 561.277344 107.554688 561.277344 L 702.445312 561.277344 C 723.15625 561.277344 739.945312 544.488281 739.945312 523.777344 L 739.945312 286.222656 C 739.945312 265.511719 723.15625 248.722656 702.445312 248.722656 L 107.554688 248.722656 C 86.84375 248.722656 70.054688 265.511719 70.054688 286.222656 Z M 70.054688 286.222656 " clip-rule="nonzero"/></clipPath><clipPath id="9919b53fbe"><path d="M 409 268 L 463 268 L 463 326 L 409 326 Z M 409 268 " clip-rule="nonzero"/></clipPath><clipPath id="f3ed4aac81"><path d="M 70.054688 286.222656 L 70.054688 523.777344 C 70.054688 544.488281 86.84375 561.277344 107.554688 561.277344 L 702.445312 561.277344 C 723.15625 561.277344 739.945312 544.488281 739.945312 523.777344 L 739.945312 286.222656 C 739.945312 265.511719 723.15625 248.722656 702.445312 248.722656 L 107.554688 248.722656 C 86.84375 248.722656 70.054688 265.511719 70.054688 286.222656 Z M 70.054688 286.222656 " clip-rule="nonzero"/></clipPath><clipPath id="d41b493f21"><path d="M 472 268 L 526 268 L 526 326 L 472 326 Z M 472 268 " clip-rule="nonzero"/></clipPath><clipPath id="297194880f"><path d="M 70.054688 286.222656 L 70.054688 523.777344 C 70.054688 544.488281 86.84375 561.277344 107.554688 561.277344 L 702.445312 561.277344 C 723.15625 561.277344 739.945312 544.488281 739.945312 523.777344 L 739.945312 286.222656 C 739.945312 265.511719 723.15625 248.722656 702.445312 248.722656 L 107.554688 248.722656 C 86.84375 248.722656 70.054688 265.511719 70.054688 286.222656 Z M 70.054688 286.222656 " clip-rule="nonzero"/></clipPath><clipPath id="7700bc5f3a"><path d="M 535 268 L 590 268 L 590 326 L 535 326 Z M 535 268 " clip-rule="nonzero"/></clipPath><clipPath id="bcb6d810a7"><path d="M 70.054688 286.222656 L 70.054688 523.777344 C 70.054688 544.488281 86.84375 561.277344 107.554688 561.277344 L 702.445312 561.277344 C 723.15625 561.277344 739.945312 544.488281 739.945312 523.777344 L 739.945312 286.222656 C 739.945312 265.511719 723.15625 248.722656 702.445312 248.722656 L 107.554688 248.722656 C 86.84375 248.722656 70.054688 265.511719 70.054688 286.222656 Z M 70.054688 286.222656 " clip-rule="nonzero"/></clipPath><clipPath id="d4e25718b4"><path d="M 599 268 L 653 268 L 653 326 L 599 326 Z M 599 268 " clip-rule="nonzero"/></clipPath><clipPath id="6068bfd8ca"><path d="M 70.054688 286.222656 L 70.054688 523.777344 C 70.054688 544.488281 86.84375 561.277344 107.554688 561.277344 L 702.445312 561.277344 C 723.15625 561.277344 739.945312 544.488281 739.945312 523.777344 L 739.945312 286.222656 C 739.945312 265.511719 723.15625 248.722656 702.445312 248.722656 L 107.554688 248.722656 C 86.84375 248.722656 70.054688 265.511719 70.054688 286.222656 Z M 70.054688 286.222656 " clip-rule="nonzero"/></clipPath><clipPath id="5665ec649a"><path d="M 662 268 L 716 268 L 716 326 L 662 326 Z M 662 268 " clip-rule="nonzero"/></clipPath><clipPath id="125946e956"><path d="M 70.054688 286.222656 L 70.054688 523.777344 C 70.054688 544.488281 86.84375 561.277344 107.554688 561.277344 L 702.445312 561.277344 C 723.15625 561.277344 739.945312 544.488281 739.945312 523.777344 L 739.945312 286.222656 C 739.945312 265.511719 723.15625 248.722656 702.445312 248.722656 L 107.554688 248.722656 C 86.84375 248.722656 70.054688 265.511719 70.054688 286.222656 Z M 70.054688 286.222656 " clip-rule="nonzero"/></clipPath></defs><g clip-path="url(#023a43f50f)"><g clip-path="url(#ec5ea5a6e6)"><path fill="#617fa2" d="M 82.3125 248.753906 L 727.664062 248.753906 C 728.46875 248.753906 729.265625 248.832031 730.054688 248.988281 C 730.84375 249.144531 731.613281 249.378906 732.355469 249.683594 C 733.097656 249.992188 733.804688 250.371094 734.476562 250.816406 C 735.144531 251.265625 735.761719 251.773438 736.332031 252.34375 C 736.902344 252.910156 737.410156 253.53125 737.855469 254.199219 C 738.304688 254.871094 738.683594 255.574219 738.988281 256.320312 C 739.296875 257.0625 739.53125 257.828125 739.6875 258.617188 C 739.84375 259.410156 739.921875 260.207031 739.921875 261.011719 L 739.921875 548.980469 C 739.921875 549.785156 739.84375 550.582031 739.6875 551.371094 C 739.53125 552.160156 739.296875 552.925781 738.988281 553.671875 C 738.683594 554.414062 738.304688 555.121094 737.855469 555.789062 C 737.410156 556.460938 736.902344 557.078125 736.332031 557.648438 C 735.761719 558.214844 735.144531 558.726562 734.476562 559.171875 C 733.804688 559.617188 733.097656 559.996094 732.355469 560.304688 C 731.613281 560.613281 730.84375 560.84375 730.054688 561.003906 C 729.265625 561.160156 728.46875 561.238281 727.664062 561.238281 L 82.3125 561.238281 C 81.507812 561.238281 80.710938 561.160156 79.921875 561.003906 C 79.132812 560.84375 78.367188 560.613281 77.621094 560.304688 C 76.878906 559.996094 76.171875 559.617188 75.503906 559.171875 C 74.835938 558.726562 74.214844 558.214844 73.644531 557.648438 C 73.078125 557.078125 72.570312 556.460938 72.121094 555.789062 C 71.675781 555.121094 71.296875 554.414062 70.988281 553.671875 C 70.679688 552.925781 70.449219 552.160156 70.292969 551.371094 C 70.132812 550.582031 70.054688 549.785156 70.054688 548.980469 L 70.054688 261.011719 C 70.054688 260.207031 70.132812 259.410156 70.292969 258.617188 C 70.449219 257.828125 70.679688 257.0625 70.988281 256.320312 C 71.296875 255.574219 71.675781 254.871094 72.121094 254.199219 C 72.570312 253.53125 73.078125 252.910156 73.644531 252.34375 C 74.214844 251.773438 74.835938 251.265625 75.503906 250.816406 C 76.171875 250.371094 76.878906 249.992188 77.621094 249.683594 C 78.367188 249.378906 79.132812 249.144531 79.921875 248.988281 C 80.710938 248.832031 81.507812 248.753906 82.3125 248.753906 Z M 82.3125 248.753906 " fill-opacity="1" fill-rule="nonzero"/></g></g><g clip-path="url(#a0ca3f307c)"><g clip-path="url(#cb0f578be4)"><path fill="#b7e3ff" d="M 99.117188 268.25 L 139.019531 268.25 C 139.457031 268.25 139.886719 268.292969 140.316406 268.375 C 140.746094 268.460938 141.164062 268.589844 141.566406 268.753906 C 141.96875 268.921875 142.351562 269.128906 142.71875 269.371094 C 143.082031 269.613281 143.417969 269.890625 143.726562 270.199219 C 144.035156 270.507812 144.3125 270.84375 144.554688 271.207031 C 144.796875 271.570312 145 271.953125 145.167969 272.359375 C 145.335938 272.761719 145.460938 273.179688 145.546875 273.605469 C 145.632812 274.035156 145.675781 274.46875 145.675781 274.90625 L 145.675781 318.757812 C 145.675781 319.195312 145.632812 319.628906 145.546875 320.054688 C 145.460938 320.484375 145.335938 320.902344 145.167969 321.304688 C 145 321.710938 144.796875 322.09375 144.554688 322.457031 C 144.3125 322.820312 144.035156 323.15625 143.726562 323.464844 C 143.417969 323.773438 143.082031 324.050781 142.71875 324.292969 C 142.351562 324.535156 141.96875 324.742188 141.566406 324.910156 C 141.164062 325.074219 140.746094 325.203125 140.316406 325.285156 C 139.886719 325.371094 139.457031 325.414062 139.019531 325.414062 L 99.117188 325.414062 C 98.679688 325.414062 98.25 325.371094 97.820312 325.285156 C 97.390625 325.203125 96.976562 325.074219 96.570312 324.910156 C 96.167969 324.742188 95.785156 324.535156 95.421875 324.292969 C 95.058594 324.050781 94.71875 323.773438 94.410156 323.464844 C 94.101562 323.15625 93.828125 322.820312 93.582031 322.457031 C 93.339844 322.09375 93.136719 321.710938 92.96875 321.304688 C 92.800781 320.902344 92.675781 320.484375 92.589844 320.054688 C 92.503906 319.628906 92.460938 319.195312 92.460938 318.757812 L 92.460938 274.90625 C 92.460938 274.46875 92.503906 274.035156 92.589844 273.605469 C 92.675781 273.179688 92.800781 272.761719 92.96875 272.359375 C 93.136719 271.953125 93.339844 271.570312 93.582031 271.207031 C 93.828125 270.84375 94.101562 270.507812 94.410156 270.199219 C 94.71875 269.890625 95.058594 269.613281 95.421875 269.371094 C 95.785156 269.128906 96.167969 268.921875 96.570312 268.753906 C 96.976562 268.589844 97.390625 268.460938 97.820312 268.375 C 98.25 268.292969 98.679688 268.25 99.117188 268.25 Z M 99.117188 268.25 " fill-opacity="1" fill-rule="nonzero"/></g></g><g clip-path="url(#6c87827b53)"><g clip-path="url(#7d0e7241a0)"><path fill="#b7e3ff" d="M 130.371094 340.195312 L 170.273438 340.195312 C 170.710938 340.195312 171.140625 340.238281 171.570312 340.324219 C 172 340.410156 172.414062 340.535156 172.820312 340.703125 C 173.222656 340.871094 173.605469 341.074219 173.972656 341.320312 C 174.335938 341.5625 174.671875 341.835938 174.980469 342.148438 C 175.289062 342.457031 175.566406 342.792969 175.808594 343.15625 C 176.050781 343.519531 176.253906 343.902344 176.421875 344.304688 C 176.589844 344.710938 176.714844 345.125 176.800781 345.554688 C 176.886719 345.984375 176.929688 346.417969 176.929688 346.855469 L 176.929688 390.707031 C 176.929688 391.144531 176.886719 391.574219 176.800781 392.003906 C 176.714844 392.433594 176.589844 392.851562 176.421875 393.253906 C 176.253906 393.65625 176.050781 394.039062 175.808594 394.40625 C 175.566406 394.769531 175.289062 395.105469 174.980469 395.414062 C 174.671875 395.722656 174.335938 396 173.972656 396.242188 C 173.605469 396.484375 173.222656 396.6875 172.820312 396.855469 C 172.414062 397.023438 172 397.148438 171.570312 397.234375 C 171.140625 397.320312 170.710938 397.363281 170.273438 397.363281 L 130.371094 397.363281 C 129.933594 397.363281 129.503906 397.320312 129.074219 397.234375 C 128.644531 397.148438 128.230469 397.023438 127.824219 396.855469 C 127.421875 396.6875 127.039062 396.484375 126.675781 396.242188 C 126.308594 396 125.972656 395.722656 125.664062 395.414062 C 125.355469 395.105469 125.078125 394.769531 124.835938 394.40625 C 124.59375 394.039062 124.390625 393.65625 124.222656 393.253906 C 124.054688 392.851562 123.929688 392.433594 123.84375 392.003906 C 123.757812 391.574219 123.714844 391.144531 123.714844 390.707031 L 123.714844 346.855469 C 123.714844 346.417969 123.757812 345.984375 123.84375 345.554688 C 123.929688 345.125 124.054688 344.710938 124.222656 344.304688 C 124.390625 343.902344 124.59375 343.519531 124.835938 343.15625 C 125.078125 342.792969 125.355469 342.457031 125.664062 342.148438 C 125.972656 341.835938 126.308594 341.5625 126.675781 341.320312 C 127.039062 341.074219 127.421875 340.871094 127.824219 340.703125 C 128.230469 340.535156 128.644531 340.410156 129.074219 340.324219 C 129.503906 340.238281 129.933594 340.195312 130.371094 340.195312 Z M 130.371094 340.195312 " fill-opacity="1" fill-rule="nonzero"/></g></g><g clip-path="url(#18494d5f5f)"><g clip-path="url(#28e5de1521)"><path fill="#b7e3ff" d="M 193.722656 340.195312 L 233.621094 340.195312 C 234.058594 340.195312 234.492188 340.238281 234.921875 340.324219 C 235.351562 340.410156 235.765625 340.535156 236.171875 340.703125 C 236.574219 340.871094 236.957031 341.074219 237.320312 341.320312 C 237.683594 341.5625 238.019531 341.835938 238.328125 342.148438 C 238.640625 342.457031 238.914062 342.792969 239.15625 343.15625 C 239.402344 343.519531 239.605469 343.902344 239.773438 344.304688 C 239.941406 344.710938 240.066406 345.125 240.152344 345.554688 C 240.238281 345.984375 240.28125 346.417969 240.28125 346.855469 L 240.28125 390.707031 C 240.28125 391.144531 240.238281 391.574219 240.152344 392.003906 C 240.066406 392.433594 239.941406 392.851562 239.773438 393.253906 C 239.605469 393.65625 239.402344 394.039062 239.15625 394.40625 C 238.914062 394.769531 238.640625 395.105469 238.328125 395.414062 C 238.019531 395.722656 237.683594 396 237.320312 396.242188 C 236.957031 396.484375 236.574219 396.6875 236.171875 396.855469 C 235.765625 397.023438 235.351562 397.148438 234.921875 397.234375 C 234.492188 397.320312 234.058594 397.363281 233.621094 397.363281 L 193.722656 397.363281 C 193.285156 397.363281 192.851562 397.320312 192.425781 397.234375 C 191.996094 397.148438 191.578125 397.023438 191.175781 396.855469 C 190.769531 396.6875 190.386719 396.484375 190.023438 396.242188 C 189.660156 396 189.324219 395.722656 189.015625 395.414062 C 188.707031 395.105469 188.429688 394.769531 188.1875 394.40625 C 187.945312 394.039062 187.738281 393.65625 187.574219 393.253906 C 187.40625 392.851562 187.277344 392.433594 187.195312 392.003906 C 187.109375 391.574219 187.066406 391.144531 187.066406 390.707031 L 187.066406 346.855469 C 187.066406 346.417969 187.109375 345.984375 187.195312 345.554688 C 187.277344 345.125 187.40625 344.710938 187.574219 344.304688 C 187.738281 343.902344 187.945312 343.519531 188.1875 343.15625 C 188.429688 342.792969 188.707031 342.457031 189.015625 342.148438 C 189.324219 341.835938 189.660156 341.5625 190.023438 341.320312 C 190.386719 341.074219 190.769531 340.871094 191.175781 340.703125 C 191.578125 340.535156 191.996094 340.410156 192.425781 340.324219 C 192.851562 340.238281 193.285156 340.195312 193.722656 340.195312 Z M 193.722656 340.195312 " fill-opacity="1" fill-rule="nonzero"/></g></g><g clip-path="url(#3b13bba210)"><g clip-path="url(#627b7fe36e)"><path fill="#b7e3ff" d="M 257.074219 340.195312 L 296.972656 340.195312 C 297.410156 340.195312 297.84375 340.238281 298.273438 340.324219 C 298.699219 340.410156 299.117188 340.535156 299.519531 340.703125 C 299.925781 340.871094 300.308594 341.074219 300.671875 341.320312 C 301.035156 341.5625 301.371094 341.835938 301.679688 342.148438 C 301.988281 342.457031 302.265625 342.792969 302.507812 343.15625 C 302.75 343.519531 302.957031 343.902344 303.125 344.304688 C 303.289062 344.710938 303.417969 345.125 303.503906 345.554688 C 303.585938 345.984375 303.628906 346.417969 303.628906 346.855469 L 303.628906 390.707031 C 303.628906 391.144531 303.585938 391.574219 303.503906 392.003906 C 303.417969 392.433594 303.289062 392.851562 303.125 393.253906 C 302.957031 393.65625 302.75 394.039062 302.507812 394.40625 C 302.265625 394.769531 301.988281 395.105469 301.679688 395.414062 C 301.371094 395.722656 301.035156 396 300.671875 396.242188 C 300.308594 396.484375 299.925781 396.6875 299.519531 396.855469 C 299.117188 397.023438 298.699219 397.148438 298.273438 397.234375 C 297.84375 397.320312 297.410156 397.363281 296.972656 397.363281 L 257.074219 397.363281 C 256.636719 397.363281 256.203125 397.320312 255.773438 397.234375 C 255.347656 397.148438 254.929688 397.023438 254.527344 396.855469 C 254.121094 396.6875 253.738281 396.484375 253.375 396.242188 C 253.011719 396 252.675781 395.722656 252.367188 395.414062 C 252.058594 395.105469 251.78125 394.769531 251.539062 394.40625 C 251.296875 394.039062 251.089844 393.65625 250.921875 393.253906 C 250.753906 392.851562 250.628906 392.433594 250.542969 392.003906 C 250.457031 391.574219 250.417969 391.144531 250.417969 390.707031 L 250.417969 346.855469 C 250.417969 346.417969 250.457031 345.984375 250.542969 345.554688 C 250.628906 345.125 250.753906 344.710938 250.921875 344.304688 C 251.089844 343.902344 251.296875 343.519531 251.539062 343.15625 C 251.78125 342.792969 252.058594 342.457031 252.367188 342.148438 C 252.675781 341.835938 253.011719 341.5625 253.375 341.320312 C 253.738281 341.074219 254.121094 340.871094 254.527344 340.703125 C 254.929688 340.535156 255.347656 340.410156 255.773438 340.324219 C 256.203125 340.238281 256.636719 340.195312 257.074219 340.195312 Z M 257.074219 340.195312 " fill-opacity="1" fill-rule="nonzero"/></g></g><g clip-path="url(#5857911373)"><g clip-path="url(#b2ee683eec)"><path fill="#b7e3ff" d="M 320.421875 340.195312 L 360.320312 340.195312 C 360.757812 340.195312 361.191406 340.238281 361.621094 340.324219 C 362.046875 340.410156 362.464844 340.535156 362.867188 340.703125 C 363.273438 340.871094 363.65625 341.074219 364.019531 341.320312 C 364.382812 341.5625 364.71875 341.835938 365.027344 342.148438 C 365.335938 342.457031 365.613281 342.792969 365.855469 343.15625 C 366.097656 343.519531 366.304688 343.902344 366.472656 344.304688 C 366.640625 344.710938 366.765625 345.125 366.851562 345.554688 C 366.9375 345.984375 366.976562 346.417969 366.976562 346.855469 L 366.976562 390.707031 C 366.976562 391.144531 366.9375 391.574219 366.851562 392.003906 C 366.765625 392.433594 366.640625 392.851562 366.472656 393.253906 C 366.304688 393.65625 366.097656 394.039062 365.855469 394.40625 C 365.613281 394.769531 365.335938 395.105469 365.027344 395.414062 C 364.71875 395.722656 364.382812 396 364.019531 396.242188 C 363.65625 396.484375 363.273438 396.6875 362.867188 396.855469 C 362.464844 397.023438 362.046875 397.148438 361.621094 397.234375 C 361.191406 397.320312 360.757812 397.363281 360.320312 397.363281 L 320.421875 397.363281 C 319.984375 397.363281 319.550781 397.320312 319.121094 397.234375 C 318.695312 397.148438 318.277344 397.023438 317.875 396.855469 C 317.46875 396.6875 317.085938 396.484375 316.722656 396.242188 C 316.359375 396 316.023438 395.722656 315.714844 395.414062 C 315.40625 395.105469 315.128906 394.769531 314.886719 394.40625 C 314.644531 394.039062 314.4375 393.65625 314.269531 393.253906 C 314.105469 392.851562 313.976562 392.433594 313.890625 392.003906 C 313.808594 391.574219 313.765625 391.144531 313.765625 390.707031 L 313.765625 346.855469 C 313.765625 346.417969 313.808594 345.984375 313.890625 345.554688 C 313.976562 345.125 314.105469 344.710938 314.269531 344.304688 C 314.4375 343.902344 314.644531 343.519531 314.886719 343.15625 C 315.128906 342.792969 315.40625 342.457031 315.714844 342.148438 C 316.023438 341.835938 316.359375 341.5625 316.722656 341.320312 C 317.085938 341.074219 317.46875 340.871094 317.875 340.703125 C 318.277344 340.535156 318.695312 340.410156 319.121094 340.324219 C 319.550781 340.238281 319.984375 340.195312 320.421875 340.195312 Z M 320.421875 340.195312 " fill-opacity="1" fill-rule="nonzero"/></g></g><g clip-path="url(#ebefd59a00)"><g clip-path="url(#a4dd517a0f)"><path fill="#b7e3ff" d="M 383.773438 340.195312 L 423.671875 340.195312 C 427.347656 340.195312 430.328125 343.179688 430.328125 346.855469 L 430.328125 390.707031 C 430.328125 394.378906 427.347656 397.363281 423.671875 397.363281 L 383.773438 397.363281 C 380.097656 397.363281 377.113281 394.378906 377.113281 390.707031 L 377.113281 346.855469 C 377.113281 343.179688 380.097656 340.195312 383.773438 340.195312 Z M 383.773438 340.195312 " fill-opacity="1" fill-rule="nonzero"/></g></g><g clip-path="url(#f7a67318e6)"><g clip-path="url(#28ee1d36f9)"><path fill="#b7e3ff" d="M 447.121094 340.195312 L 487.023438 340.195312 C 487.460938 340.195312 487.890625 340.238281 488.320312 340.324219 C 488.75 340.410156 489.164062 340.535156 489.570312 340.703125 C 489.972656 340.871094 490.355469 341.074219 490.71875 341.320312 C 491.082031 341.5625 491.421875 341.835938 491.730469 342.148438 C 492.039062 342.457031 492.3125 342.792969 492.558594 343.15625 C 492.800781 343.519531 493.003906 343.902344 493.171875 344.304688 C 493.339844 344.710938 493.464844 345.125 493.550781 345.554688 C 493.636719 345.984375 493.679688 346.417969 493.679688 346.855469 L 493.679688 390.707031 C 493.679688 391.144531 493.636719 391.574219 493.550781 392.003906 C 493.464844 392.433594 493.339844 392.851562 493.171875 393.253906 C 493.003906 393.65625 492.800781 394.039062 492.558594 394.40625 C 492.3125 394.769531 492.039062 395.105469 491.730469 395.414062 C 491.421875 395.722656 491.082031 396 490.71875 396.242188 C 490.355469 396.484375 489.972656 396.6875 489.570312 396.855469 C 489.164062 397.023438 488.75 397.148438 488.320312 397.234375 C 487.890625 397.320312 487.460938 397.363281 487.023438 397.363281 L 447.121094 397.363281 C 446.683594 397.363281 446.253906 397.320312 445.824219 397.234375 C 445.394531 397.148438 444.976562 397.023438 444.574219 396.855469 C 444.171875 396.6875 443.785156 396.484375 443.421875 396.242188 C 443.058594 396 442.722656 395.722656 442.414062 395.414062 C 442.105469 395.105469 441.828125 394.769531 441.585938 394.40625 C 441.34375 394.039062 441.140625 393.65625 440.972656 393.253906 C 440.804688 392.851562 440.679688 392.433594 440.59375 392.003906 C 440.507812 391.574219 440.464844 391.144531 440.464844 390.707031 L 440.464844 346.855469 C 440.464844 346.417969 440.507812 345.984375 440.59375 345.554688 C 440.679688 345.125 440.804688 344.710938 440.972656 344.304688 C 441.140625 343.902344 441.34375 343.519531 441.585938 343.15625 C 441.828125 342.792969 442.105469 342.457031 442.414062 342.148438 C 442.722656 341.835938 443.058594 341.5625 443.421875 341.320312 C 443.785156 341.074219 444.171875 340.871094 444.574219 340.703125 C 444.976562 340.535156 445.394531 340.410156 445.824219 340.324219 C 446.253906 340.238281 446.683594 340.195312 447.121094 340.195312 Z M 447.121094 340.195312 " fill-opacity="1" fill-rule="nonzero"/></g></g><g clip-path="url(#6e798447dc)"><g clip-path="url(#da770212a3)"><path fill="#b7e3ff" d="M 510.472656 340.195312 L 550.371094 340.195312 C 550.808594 340.195312 551.242188 340.238281 551.671875 340.324219 C 552.101562 340.410156 552.515625 340.535156 552.921875 340.703125 C 553.324219 340.871094 553.707031 341.074219 554.070312 341.320312 C 554.433594 341.5625 554.769531 341.835938 555.078125 342.148438 C 555.390625 342.457031 555.664062 342.792969 555.90625 343.15625 C 556.152344 343.519531 556.355469 343.902344 556.523438 344.304688 C 556.691406 344.710938 556.816406 345.125 556.902344 345.554688 C 556.988281 345.984375 557.03125 346.417969 557.03125 346.855469 L 557.03125 390.707031 C 557.03125 391.144531 556.988281 391.574219 556.902344 392.003906 C 556.816406 392.433594 556.691406 392.851562 556.523438 393.253906 C 556.355469 393.65625 556.152344 394.039062 555.90625 394.40625 C 555.664062 394.769531 555.390625 395.105469 555.078125 395.414062 C 554.769531 395.722656 554.433594 396 554.070312 396.242188 C 553.707031 396.484375 553.324219 396.6875 552.921875 396.855469 C 552.515625 397.023438 552.101562 397.148438 551.671875 397.234375 C 551.242188 397.320312 550.808594 397.363281 550.371094 397.363281 L 510.472656 397.363281 C 510.035156 397.363281 509.601562 397.320312 509.175781 397.234375 C 508.746094 397.148438 508.328125 397.023438 507.925781 396.855469 C 507.519531 396.6875 507.136719 396.484375 506.773438 396.242188 C 506.410156 396 506.074219 395.722656 505.765625 395.414062 C 505.457031 395.105469 505.179688 394.769531 504.9375 394.40625 C 504.695312 394.039062 504.488281 393.65625 504.320312 393.253906 C 504.15625 392.851562 504.027344 392.433594 503.941406 392.003906 C 503.859375 391.574219 503.816406 391.144531 503.816406 390.707031 L 503.816406 346.855469 C 503.816406 346.417969 503.859375 345.984375 503.941406 345.554688 C 504.027344 345.125 504.15625 344.710938 504.320312 344.304688 C 504.488281 343.902344 504.695312 343.519531 504.9375 343.15625 C 505.179688 342.792969 505.457031 342.457031 505.765625 342.148438 C 506.074219 341.835938 506.410156 341.5625 506.773438 341.320312 C 507.136719 341.074219 507.519531 340.871094 507.925781 340.703125 C 508.328125 340.535156 508.746094 340.410156 509.175781 340.324219 C 509.601562 340.238281 510.035156 340.195312 510.472656 340.195312 Z M 510.472656 340.195312 " fill-opacity="1" fill-rule="nonzero"/></g></g><g clip-path="url(#5b21b37859)"><g clip-path="url(#1fd1433c45)"><path fill="#b7e3ff" d="M 573.824219 340.195312 L 613.722656 340.195312 C 614.160156 340.195312 614.59375 340.238281 615.019531 340.324219 C 615.449219 340.410156 615.867188 340.535156 616.269531 340.703125 C 616.675781 340.871094 617.058594 341.074219 617.421875 341.320312 C 617.785156 341.5625 618.121094 341.835938 618.429688 342.148438 C 618.738281 342.457031 619.015625 342.792969 619.257812 343.15625 C 619.5 343.519531 619.707031 343.902344 619.875 344.304688 C 620.039062 344.710938 620.167969 345.125 620.253906 345.554688 C 620.335938 345.984375 620.378906 346.417969 620.378906 346.855469 L 620.378906 390.707031 C 620.378906 391.144531 620.335938 391.574219 620.253906 392.003906 C 620.167969 392.433594 620.039062 392.851562 619.875 393.253906 C 619.707031 393.65625 619.5 394.039062 619.257812 394.40625 C 619.015625 394.769531 618.738281 395.105469 618.429688 395.414062 C 618.121094 395.722656 617.785156 396 617.421875 396.242188 C 617.058594 396.484375 616.675781 396.6875 616.269531 396.855469 C 615.867188 397.023438 615.449219 397.148438 615.023438 397.234375 C 614.59375 397.320312 614.160156 397.363281 613.722656 397.363281 L 573.824219 397.363281 C 573.386719 397.363281 572.953125 397.320312 572.523438 397.234375 C 572.09375 397.148438 571.679688 397.023438 571.273438 396.855469 C 570.871094 396.6875 570.488281 396.484375 570.125 396.242188 C 569.761719 396 569.425781 395.722656 569.117188 395.414062 C 568.804688 395.105469 568.53125 394.769531 568.289062 394.40625 C 568.042969 394.039062 567.839844 393.65625 567.671875 393.253906 C 567.503906 392.851562 567.378906 392.433594 567.292969 392.003906 C 567.207031 391.574219 567.164062 391.144531 567.164062 390.707031 L 567.164062 346.855469 C 567.164062 346.417969 567.207031 345.984375 567.292969 345.554688 C 567.378906 345.125 567.503906 344.710938 567.671875 344.304688 C 567.839844 343.902344 568.042969 343.519531 568.289062 343.15625 C 568.53125 342.792969 568.804688 342.457031 569.117188 342.148438 C 569.425781 341.835938 569.761719 341.5625 570.125 341.320312 C 570.488281 341.074219 570.871094 340.871094 571.277344 340.703125 C 571.679688 340.535156 572.09375 340.410156 572.523438 340.324219 C 572.953125 340.238281 573.386719 340.195312 573.824219 340.195312 Z M 573.824219 340.195312 " fill-opacity="1" fill-rule="nonzero"/></g></g><g clip-path="url(#4f53155c8a)"><g clip-path="url(#d43959e6a4)"><path fill="#b7e3ff" d="M 637.171875 340.195312 L 677.074219 340.195312 C 677.511719 340.195312 677.941406 340.238281 678.371094 340.324219 C 678.800781 340.410156 679.21875 340.535156 679.621094 340.703125 C 680.023438 340.871094 680.410156 341.074219 680.773438 341.320312 C 681.136719 341.5625 681.472656 341.835938 681.78125 342.148438 C 682.089844 342.457031 682.367188 342.792969 682.609375 343.15625 C 682.851562 343.519531 683.054688 343.902344 683.222656 344.304688 C 683.390625 344.710938 683.515625 345.125 683.601562 345.554688 C 683.6875 345.984375 683.730469 346.417969 683.730469 346.855469 L 683.730469 390.707031 C 683.730469 391.144531 683.6875 391.574219 683.601562 392.003906 C 683.515625 392.433594 683.390625 392.851562 683.222656 393.253906 C 683.054688 393.65625 682.851562 394.039062 682.609375 394.40625 C 682.367188 394.769531 682.089844 395.105469 681.78125 395.414062 C 681.472656 395.722656 681.136719 396 680.773438 396.242188 C 680.410156 396.484375 680.023438 396.6875 679.621094 396.855469 C 679.21875 397.023438 678.800781 397.148438 678.371094 397.234375 C 677.941406 397.320312 677.511719 397.363281 677.074219 397.363281 L 637.171875 397.363281 C 636.738281 397.363281 636.304688 397.320312 635.875 397.234375 C 635.445312 397.148438 635.03125 397.023438 634.625 396.855469 C 634.222656 396.6875 633.839844 396.484375 633.476562 396.242188 C 633.113281 396 632.773438 395.722656 632.464844 395.414062 C 632.15625 395.105469 631.882812 394.769531 631.636719 394.40625 C 631.394531 394.039062 631.191406 393.65625 631.023438 393.253906 C 630.855469 392.851562 630.730469 392.433594 630.644531 392.003906 C 630.558594 391.574219 630.515625 391.144531 630.515625 390.707031 L 630.515625 346.855469 C 630.515625 346.417969 630.558594 345.984375 630.644531 345.554688 C 630.730469 345.125 630.855469 344.710938 631.023438 344.304688 C 631.191406 343.902344 631.394531 343.519531 631.636719 343.15625 C 631.882812 342.792969 632.15625 342.457031 632.464844 342.148438 C 632.773438 341.835938 633.113281 341.5625 633.476562 341.320312 C 633.839844 341.074219 634.222656 340.871094 634.625 340.703125 C 635.03125 340.535156 635.445312 340.410156 635.875 340.324219 C 636.304688 340.238281 636.738281 340.195312 637.171875 340.195312 Z M 637.171875 340.195312 " fill-opacity="1" fill-rule="nonzero"/></g></g><g clip-path="url(#8582adf11f)"><g clip-path="url(#59b6bc88cb)"><path fill="#b7e3ff" d="M 187.054688 411.46875 L 226.953125 411.46875 C 227.390625 411.46875 227.824219 411.511719 228.253906 411.59375 C 228.679688 411.679688 229.097656 411.808594 229.5 411.972656 C 229.90625 412.140625 230.289062 412.347656 230.652344 412.589844 C 231.015625 412.832031 231.351562 413.109375 231.660156 413.417969 C 231.96875 413.726562 232.246094 414.0625 232.488281 414.425781 C 232.730469 414.789062 232.9375 415.171875 233.105469 415.578125 C 233.273438 415.980469 233.398438 416.398438 233.484375 416.824219 C 233.570312 417.253906 233.609375 417.6875 233.609375 418.125 L 233.609375 461.976562 C 233.609375 462.414062 233.570312 462.847656 233.484375 463.273438 C 233.398438 463.703125 233.273438 464.121094 233.105469 464.523438 C 232.9375 464.929688 232.730469 465.3125 232.488281 465.675781 C 232.246094 466.039062 231.96875 466.375 231.660156 466.683594 C 231.351562 466.992188 231.015625 467.269531 230.652344 467.511719 C 230.289062 467.753906 229.90625 467.960938 229.5 468.128906 C 229.097656 468.292969 228.679688 468.421875 228.253906 468.503906 C 227.824219 468.589844 227.390625 468.632812 226.953125 468.632812 L 187.054688 468.632812 C 186.617188 468.632812 186.183594 468.589844 185.753906 468.503906 C 185.328125 468.421875 184.910156 468.292969 184.507812 468.128906 C 184.101562 467.960938 183.71875 467.753906 183.355469 467.511719 C 182.992188 467.269531 182.65625 466.992188 182.347656 466.683594 C 182.039062 466.375 181.761719 466.039062 181.519531 465.675781 C 181.277344 465.3125 181.070312 464.929688 180.902344 464.523438 C 180.738281 464.121094 180.609375 463.703125 180.523438 463.273438 C 180.441406 462.847656 180.398438 462.414062 180.398438 461.976562 L 180.398438 418.125 C 180.398438 417.6875 180.441406 417.253906 180.523438 416.824219 C 180.609375 416.398438 180.738281 415.980469 180.902344 415.578125 C 181.070312 415.171875 181.277344 414.789062 181.519531 414.425781 C 181.761719 414.0625 182.039062 413.726562 182.347656 413.417969 C 182.65625 413.109375 182.992188 412.832031 183.355469 412.589844 C 183.71875 412.347656 184.101562 412.140625 184.507812 411.972656 C 184.910156 411.808594 185.328125 411.679688 185.753906 411.59375 C 186.183594 411.511719 186.617188 411.46875 187.054688 411.46875 Z M 187.054688 411.46875 " fill-opacity="1" fill-rule="nonzero"/></g></g><g clip-path="url(#12fcbc5364)"><g clip-path="url(#458585fe31)"><path fill="#b7e3ff" d="M 99.117188 411.46875 L 164.359375 411.46875 C 164.796875 411.46875 165.230469 411.511719 165.65625 411.59375 C 166.085938 411.679688 166.503906 411.808594 166.90625 411.972656 C 167.308594 412.140625 167.695312 412.347656 168.058594 412.589844 C 168.421875 412.832031 168.757812 413.109375 169.066406 413.417969 C 169.375 413.726562 169.652344 414.0625 169.894531 414.425781 C 170.136719 414.789062 170.34375 415.171875 170.507812 415.578125 C 170.675781 415.980469 170.804688 416.398438 170.886719 416.824219 C 170.972656 417.253906 171.015625 417.6875 171.015625 418.125 L 171.015625 461.976562 C 171.015625 462.414062 170.972656 462.847656 170.886719 463.273438 C 170.804688 463.703125 170.675781 464.121094 170.507812 464.523438 C 170.34375 464.929688 170.136719 465.3125 169.894531 465.675781 C 169.652344 466.039062 169.375 466.375 169.066406 466.683594 C 168.757812 466.992188 168.421875 467.269531 168.058594 467.511719 C 167.695312 467.753906 167.308594 467.960938 166.90625 468.128906 C 166.503906 468.292969 166.085938 468.421875 165.65625 468.503906 C 165.230469 468.589844 164.796875 468.632812 164.359375 468.632812 L 99.117188 468.632812 C 98.679688 468.632812 98.25 468.589844 97.820312 468.503906 C 97.390625 468.421875 96.976562 468.292969 96.570312 468.128906 C 96.167969 467.960938 95.785156 467.753906 95.421875 467.511719 C 95.058594 467.269531 94.71875 466.992188 94.410156 466.683594 C 94.101562 466.375 93.828125 466.039062 93.582031 465.675781 C 93.339844 465.3125 93.136719 464.929688 92.96875 464.523438 C 92.800781 464.121094 92.675781 463.703125 92.589844 463.273438 C 92.503906 462.847656 92.460938 462.414062 92.460938 461.976562 L 92.460938 418.125 C 92.460938 417.6875 92.503906 417.253906 92.589844 416.824219 C 92.675781 416.398438 92.800781 415.980469 92.96875 415.578125 C 93.136719 415.171875 93.339844 414.789062 93.582031 414.425781 C 93.828125 414.0625 94.101562 413.726562 94.410156 413.417969 C 94.71875 413.109375 95.058594 412.832031 95.421875 412.589844 C 95.785156 412.347656 96.167969 412.140625 96.570312 411.972656 C 96.976562 411.808594 97.390625 411.679688 97.820312 411.59375 C 98.25 411.511719 98.679688 411.46875 99.117188 411.46875 Z M 99.117188 411.46875 " fill-opacity="1" fill-rule="nonzero"/></g></g><g clip-path="url(#d9b60af914)"><g clip-path="url(#2879a3366b)"><path fill="#b7e3ff" d="M 99.117188 479.230469 L 155.8125 479.230469 C 156.25 479.230469 156.683594 479.273438 157.109375 479.355469 C 157.539062 479.441406 157.957031 479.570312 158.359375 479.734375 C 158.761719 479.902344 159.148438 480.109375 159.511719 480.351562 C 159.875 480.59375 160.210938 480.871094 160.519531 481.179688 C 160.828125 481.488281 161.105469 481.824219 161.347656 482.1875 C 161.589844 482.550781 161.796875 482.933594 161.960938 483.339844 C 162.128906 483.742188 162.257812 484.160156 162.339844 484.585938 C 162.425781 485.015625 162.46875 485.449219 162.46875 485.886719 L 162.46875 529.738281 C 162.46875 530.175781 162.425781 530.609375 162.339844 531.035156 C 162.257812 531.464844 162.128906 531.882812 161.960938 532.285156 C 161.796875 532.691406 161.589844 533.074219 161.347656 533.4375 C 161.105469 533.800781 160.828125 534.136719 160.519531 534.445312 C 160.210938 534.753906 159.875 535.03125 159.511719 535.273438 C 159.148438 535.515625 158.761719 535.722656 158.359375 535.890625 C 157.957031 536.054688 157.539062 536.183594 157.109375 536.265625 C 156.683594 536.351562 156.25 536.394531 155.8125 536.394531 L 99.117188 536.394531 C 98.679688 536.394531 98.25 536.351562 97.820312 536.269531 C 97.390625 536.183594 96.976562 536.054688 96.570312 535.890625 C 96.167969 535.722656 95.785156 535.515625 95.421875 535.273438 C 95.058594 535.03125 94.71875 534.753906 94.410156 534.445312 C 94.101562 534.136719 93.828125 533.800781 93.582031 533.4375 C 93.339844 533.074219 93.136719 532.691406 92.96875 532.285156 C 92.800781 531.882812 92.675781 531.464844 92.589844 531.035156 C 92.503906 530.609375 92.460938 530.175781 92.460938 529.738281 L 92.460938 485.886719 C 92.460938 485.449219 92.503906 485.015625 92.589844 484.585938 C 92.675781 484.160156 92.800781 483.742188 92.96875 483.339844 C 93.136719 482.933594 93.339844 482.550781 93.582031 482.1875 C 93.828125 481.824219 94.101562 481.488281 94.410156 481.179688 C 94.71875 480.871094 95.058594 480.59375 95.421875 480.351562 C 95.785156 480.109375 96.167969 479.902344 96.570312 479.734375 C 96.976562 479.570312 97.390625 479.441406 97.820312 479.355469 C 98.25 479.273438 98.679688 479.230469 99.117188 479.230469 Z M 99.117188 479.230469 " fill-opacity="1" fill-rule="nonzero"/></g></g><g clip-path="url(#8e9756a09e)"><g clip-path="url(#c727c3e811)"><path fill="#b7e3ff" d="M 176.929688 479.230469 L 233.621094 479.230469 C 234.058594 479.230469 234.492188 479.273438 234.921875 479.355469 C 235.351562 479.441406 235.765625 479.570312 236.171875 479.734375 C 236.574219 479.902344 236.957031 480.109375 237.320312 480.351562 C 237.683594 480.59375 238.019531 480.871094 238.328125 481.179688 C 238.640625 481.488281 238.914062 481.824219 239.15625 482.1875 C 239.402344 482.550781 239.605469 482.933594 239.773438 483.339844 C 239.941406 483.742188 240.066406 484.160156 240.152344 484.585938 C 240.238281 485.015625 240.28125 485.449219 240.28125 485.886719 L 240.28125 529.738281 C 240.28125 530.175781 240.238281 530.609375 240.152344 531.035156 C 240.066406 531.464844 239.941406 531.882812 239.773438 532.285156 C 239.605469 532.691406 239.402344 533.074219 239.15625 533.4375 C 238.914062 533.800781 238.640625 534.136719 238.328125 534.445312 C 238.019531 534.753906 237.683594 535.03125 237.320312 535.273438 C 236.957031 535.515625 236.574219 535.722656 236.171875 535.890625 C 235.765625 536.054688 235.351562 536.183594 234.921875 536.265625 C 234.492188 536.351562 234.058594 536.394531 233.621094 536.394531 L 176.929688 536.394531 C 176.492188 536.394531 176.058594 536.351562 175.628906 536.269531 C 175.203125 536.183594 174.785156 536.054688 174.382812 535.890625 C 173.976562 535.722656 173.59375 535.515625 173.230469 535.273438 C 172.867188 535.03125 172.53125 534.753906 172.222656 534.445312 C 171.914062 534.136719 171.636719 533.800781 171.394531 533.4375 C 171.152344 533.074219 170.945312 532.691406 170.777344 532.285156 C 170.613281 531.882812 170.484375 531.464844 170.398438 531.035156 C 170.316406 530.609375 170.273438 530.175781 170.273438 529.738281 L 170.273438 485.886719 C 170.273438 485.449219 170.316406 485.015625 170.398438 484.585938 C 170.484375 484.160156 170.613281 483.742188 170.777344 483.339844 C 170.945312 482.933594 171.152344 482.550781 171.394531 482.1875 C 171.636719 481.824219 171.914062 481.488281 172.222656 481.179688 C 172.53125 480.871094 172.867188 480.59375 173.230469 480.351562 C 173.59375 480.109375 173.976562 479.902344 174.382812 479.734375 C 174.785156 479.570312 175.203125 479.441406 175.628906 479.355469 C 176.058594 479.273438 176.492188 479.230469 176.929688 479.230469 Z M 176.929688 479.230469 " fill-opacity="1" fill-rule="nonzero"/></g></g><g clip-path="url(#f1482b3e44)"><g clip-path="url(#e8588c7668)"><path fill="#b7e3ff" d="M 629.199219 411.46875 L 708.699219 411.46875 C 712.375 411.46875 715.355469 414.449219 715.355469 418.125 L 715.355469 461.976562 C 715.355469 465.652344 712.375 468.632812 708.699219 468.632812 L 629.199219 468.632812 C 625.527344 468.632812 622.542969 465.652344 622.542969 461.976562 L 622.542969 418.125 C 622.542969 414.449219 625.527344 411.46875 629.199219 411.46875 Z M 629.199219 411.46875 " fill-opacity="1" fill-rule="nonzero"/></g></g><g clip-path="url(#cf8be47434)"><g clip-path="url(#e4d8cf7c9a)"><path fill="#b7e3ff" d="M 250.40625 411.46875 L 290.304688 411.46875 C 293.980469 411.46875 296.960938 414.449219 296.960938 418.125 L 296.960938 461.976562 C 296.960938 465.652344 293.980469 468.632812 290.304688 468.632812 L 250.40625 468.632812 C 246.730469 468.632812 243.746094 465.652344 243.746094 461.976562 L 243.746094 418.125 C 243.746094 414.449219 246.730469 411.46875 250.40625 411.46875 Z M 250.40625 411.46875 " fill-opacity="1" fill-rule="nonzero"/></g></g><g clip-path="url(#261d65e7f4)"><g clip-path="url(#bed06835e9)"><path fill="#b7e3ff" d="M 257.074219 479.230469 L 296.972656 479.230469 C 297.410156 479.230469 297.84375 479.273438 298.273438 479.355469 C 298.699219 479.441406 299.117188 479.570312 299.519531 479.734375 C 299.925781 479.902344 300.308594 480.109375 300.671875 480.351562 C 301.035156 480.59375 301.371094 480.871094 301.679688 481.179688 C 301.988281 481.488281 302.265625 481.824219 302.507812 482.1875 C 302.75 482.550781 302.957031 482.933594 303.125 483.339844 C 303.289062 483.742188 303.417969 484.160156 303.503906 484.585938 C 303.585938 485.015625 303.628906 485.449219 303.628906 485.886719 L 303.628906 529.738281 C 303.628906 530.175781 303.585938 530.609375 303.503906 531.035156 C 303.417969 531.464844 303.289062 531.882812 303.125 532.285156 C 302.957031 532.691406 302.75 533.074219 302.507812 533.4375 C 302.265625 533.800781 301.988281 534.136719 301.679688 534.445312 C 301.371094 534.753906 301.035156 535.03125 300.671875 535.273438 C 300.308594 535.515625 299.925781 535.722656 299.519531 535.890625 C 299.117188 536.054688 298.699219 536.183594 298.273438 536.265625 C 297.84375 536.351562 297.410156 536.394531 296.972656 536.394531 L 257.074219 536.394531 C 256.636719 536.394531 256.203125 536.351562 255.773438 536.269531 C 255.347656 536.183594 254.929688 536.054688 254.527344 535.890625 C 254.121094 535.722656 253.738281 535.515625 253.375 535.273438 C 253.011719 535.03125 252.675781 534.753906 252.367188 534.445312 C 252.058594 534.136719 251.78125 533.800781 251.539062 533.4375 C 251.296875 533.074219 251.089844 532.691406 250.921875 532.285156 C 250.753906 531.882812 250.628906 531.464844 250.542969 531.035156 C 250.457031 530.609375 250.417969 530.175781 250.417969 529.738281 L 250.417969 485.886719 C 250.417969 485.449219 250.457031 485.015625 250.542969 484.585938 C 250.628906 484.160156 250.753906 483.742188 250.921875 483.339844 C 251.089844 482.933594 251.296875 482.550781 251.539062 482.1875 C 251.78125 481.824219 252.058594 481.488281 252.367188 481.179688 C 252.675781 480.871094 253.011719 480.59375 253.375 480.351562 C 253.738281 480.109375 254.121094 479.902344 254.527344 479.734375 C 254.929688 479.570312 255.347656 479.441406 255.773438 479.355469 C 256.203125 479.273438 256.636719 479.230469 257.074219 479.230469 Z M 257.074219 479.230469 " fill-opacity="1" fill-rule="nonzero"/></g></g><g clip-path="url(#9eaa19cd91)"><g clip-path="url(#64504cc4f3)"><path fill="#b7e3ff" d="M 313.753906 411.46875 L 353.65625 411.46875 C 354.09375 411.46875 354.523438 411.511719 354.953125 411.59375 C 355.382812 411.679688 355.796875 411.808594 356.203125 411.972656 C 356.605469 412.140625 356.988281 412.347656 357.351562 412.589844 C 357.714844 412.832031 358.054688 413.109375 358.363281 413.417969 C 358.671875 413.726562 358.945312 414.0625 359.191406 414.425781 C 359.433594 414.789062 359.636719 415.171875 359.804688 415.578125 C 359.972656 415.980469 360.097656 416.398438 360.183594 416.824219 C 360.269531 417.253906 360.3125 417.6875 360.3125 418.125 L 360.3125 461.976562 C 360.3125 462.414062 360.269531 462.847656 360.183594 463.273438 C 360.097656 463.703125 359.972656 464.121094 359.804688 464.523438 C 359.636719 464.929688 359.433594 465.3125 359.191406 465.675781 C 358.945312 466.039062 358.671875 466.375 358.363281 466.683594 C 358.054688 466.992188 357.714844 467.269531 357.351562 467.511719 C 356.988281 467.753906 356.605469 467.960938 356.203125 468.128906 C 355.796875 468.292969 355.382812 468.421875 354.953125 468.503906 C 354.523438 468.589844 354.09375 468.632812 353.65625 468.632812 L 313.753906 468.632812 C 313.316406 468.632812 312.886719 468.589844 312.457031 468.503906 C 312.027344 468.421875 311.609375 468.292969 311.207031 468.128906 C 310.804688 467.960938 310.417969 467.753906 310.054688 467.511719 C 309.691406 467.269531 309.355469 466.992188 309.046875 466.683594 C 308.738281 466.375 308.460938 466.039062 308.21875 465.675781 C 307.976562 465.3125 307.773438 464.929688 307.605469 464.523438 C 307.4375 464.121094 307.3125 463.703125 307.226562 463.273438 C 307.140625 462.847656 307.097656 462.414062 307.097656 461.976562 L 307.097656 418.125 C 307.097656 417.6875 307.140625 417.253906 307.226562 416.824219 C 307.3125 416.398438 307.4375 415.980469 307.605469 415.578125 C 307.773438 415.171875 307.976562 414.789062 308.21875 414.425781 C 308.460938 414.0625 308.738281 413.726562 309.046875 413.417969 C 309.355469 413.109375 309.691406 412.832031 310.054688 412.589844 C 310.417969 412.347656 310.804688 412.140625 311.207031 411.972656 C 311.609375 411.808594 312.027344 411.679688 312.457031 411.59375 C 312.886719 411.511719 313.316406 411.46875 313.753906 411.46875 Z M 313.753906 411.46875 " fill-opacity="1" fill-rule="nonzero"/></g></g><g clip-path="url(#92fa2c2f9f)"><g clip-path="url(#52ebe3ad7c)"><path fill="#b7e3ff" d="M 320.421875 479.230469 L 550.371094 479.230469 C 550.808594 479.230469 551.242188 479.273438 551.671875 479.355469 C 552.101562 479.441406 552.515625 479.570312 552.917969 479.734375 C 553.324219 479.902344 553.707031 480.109375 554.070312 480.351562 C 554.433594 480.59375 554.769531 480.871094 555.078125 481.179688 C 555.390625 481.488281 555.664062 481.824219 555.90625 482.1875 C 556.152344 482.550781 556.355469 482.933594 556.523438 483.339844 C 556.691406 483.742188 556.816406 484.160156 556.902344 484.585938 C 556.988281 485.015625 557.03125 485.449219 557.03125 485.886719 L 557.03125 529.738281 C 557.03125 530.175781 556.988281 530.609375 556.902344 531.035156 C 556.816406 531.464844 556.691406 531.882812 556.523438 532.285156 C 556.355469 532.691406 556.152344 533.074219 555.90625 533.4375 C 555.664062 533.800781 555.390625 534.136719 555.078125 534.445312 C 554.769531 534.753906 554.433594 535.03125 554.070312 535.273438 C 553.707031 535.515625 553.324219 535.722656 552.917969 535.890625 C 552.515625 536.054688 552.101562 536.183594 551.671875 536.265625 C 551.242188 536.351562 550.808594 536.394531 550.371094 536.394531 L 320.421875 536.394531 C 319.984375 536.394531 319.550781 536.351562 319.121094 536.269531 C 318.695312 536.183594 318.277344 536.054688 317.875 535.890625 C 317.46875 535.722656 317.085938 535.515625 316.722656 535.273438 C 316.359375 535.03125 316.023438 534.753906 315.714844 534.445312 C 315.40625 534.136719 315.128906 533.800781 314.886719 533.4375 C 314.644531 533.074219 314.4375 532.691406 314.269531 532.285156 C 314.105469 531.882812 313.976562 531.464844 313.890625 531.035156 C 313.808594 530.609375 313.765625 530.175781 313.765625 529.738281 L 313.765625 485.886719 C 313.765625 485.449219 313.808594 485.015625 313.890625 484.585938 C 313.976562 484.160156 314.105469 483.742188 314.269531 483.339844 C 314.4375 482.933594 314.644531 482.550781 314.886719 482.1875 C 315.128906 481.824219 315.40625 481.488281 315.714844 481.179688 C 316.023438 480.871094 316.359375 480.59375 316.722656 480.351562 C 317.085938 480.109375 317.46875 479.902344 317.875 479.734375 C 318.277344 479.570312 318.695312 479.441406 319.121094 479.355469 C 319.550781 479.273438 319.984375 479.230469 320.421875 479.230469 Z M 320.421875 479.230469 " fill-opacity="1" fill-rule="nonzero"/></g></g><g clip-path="url(#10fd7cfa05)"><g clip-path="url(#231f527c89)"><path fill="#b7e3ff" d="M 377.105469 411.46875 L 417.003906 411.46875 C 417.441406 411.46875 417.875 411.511719 418.304688 411.59375 C 418.734375 411.679688 419.148438 411.808594 419.550781 411.972656 C 419.957031 412.140625 420.339844 412.347656 420.703125 412.589844 C 421.066406 412.832031 421.402344 413.109375 421.710938 413.417969 C 422.023438 413.726562 422.296875 414.0625 422.539062 414.425781 C 422.785156 414.789062 422.988281 415.171875 423.15625 415.578125 C 423.324219 415.980469 423.449219 416.398438 423.535156 416.824219 C 423.621094 417.253906 423.664062 417.6875 423.664062 418.125 L 423.664062 461.976562 C 423.664062 462.414062 423.621094 462.847656 423.535156 463.273438 C 423.449219 463.703125 423.324219 464.121094 423.15625 464.523438 C 422.988281 464.929688 422.785156 465.3125 422.539062 465.675781 C 422.296875 466.039062 422.023438 466.375 421.710938 466.683594 C 421.402344 466.992188 421.066406 467.269531 420.703125 467.511719 C 420.339844 467.753906 419.957031 467.960938 419.554688 468.128906 C 419.148438 468.292969 418.734375 468.421875 418.304688 468.503906 C 417.875 468.589844 417.441406 468.632812 417.003906 468.632812 L 377.105469 468.632812 C 376.667969 468.632812 376.234375 468.589844 375.808594 468.503906 C 375.378906 468.421875 374.960938 468.292969 374.558594 468.128906 C 374.152344 467.960938 373.769531 467.753906 373.40625 467.511719 C 373.042969 467.269531 372.707031 466.992188 372.398438 466.683594 C 372.089844 466.375 371.8125 466.039062 371.570312 465.675781 C 371.328125 465.3125 371.121094 464.929688 370.953125 464.523438 C 370.789062 464.121094 370.660156 463.703125 370.574219 463.273438 C 370.492188 462.847656 370.449219 462.414062 370.449219 461.976562 L 370.449219 418.125 C 370.449219 417.6875 370.492188 417.253906 370.574219 416.824219 C 370.660156 416.398438 370.789062 415.980469 370.953125 415.578125 C 371.121094 415.171875 371.328125 414.789062 371.570312 414.425781 C 371.8125 414.0625 372.089844 413.726562 372.398438 413.417969 C 372.707031 413.109375 373.042969 412.832031 373.40625 412.589844 C 373.769531 412.347656 374.152344 412.140625 374.558594 411.972656 C 374.960938 411.808594 375.378906 411.679688 375.808594 411.59375 C 376.234375 411.511719 376.667969 411.46875 377.105469 411.46875 Z M 377.105469 411.46875 " fill-opacity="1" fill-rule="nonzero"/></g></g><g clip-path="url(#2bf7e5b2fd)"><g clip-path="url(#4ab747d9d9)"><path fill="#b7e3ff" d="M 440.453125 411.46875 L 480.351562 411.46875 C 480.789062 411.46875 481.222656 411.511719 481.652344 411.59375 C 482.082031 411.679688 482.496094 411.808594 482.902344 411.972656 C 483.304688 412.140625 483.6875 412.347656 484.050781 412.589844 C 484.414062 412.832031 484.75 413.109375 485.0625 413.417969 C 485.371094 413.726562 485.644531 414.0625 485.886719 414.425781 C 486.132812 414.789062 486.335938 415.171875 486.503906 415.578125 C 486.671875 415.980469 486.796875 416.398438 486.882812 416.824219 C 486.96875 417.253906 487.011719 417.6875 487.011719 418.125 L 487.011719 461.976562 C 487.011719 462.414062 486.96875 462.847656 486.882812 463.273438 C 486.796875 463.703125 486.671875 464.121094 486.503906 464.523438 C 486.335938 464.929688 486.132812 465.3125 485.886719 465.675781 C 485.644531 466.039062 485.371094 466.375 485.0625 466.683594 C 484.75 466.992188 484.414062 467.269531 484.050781 467.511719 C 483.6875 467.753906 483.304688 467.960938 482.902344 468.128906 C 482.496094 468.292969 482.082031 468.421875 481.652344 468.503906 C 481.222656 468.589844 480.789062 468.632812 480.351562 468.632812 L 440.453125 468.632812 C 440.015625 468.632812 439.582031 468.589844 439.15625 468.503906 C 438.726562 468.421875 438.308594 468.292969 437.90625 468.128906 C 437.503906 467.960938 437.117188 467.753906 436.753906 467.511719 C 436.390625 467.269531 436.054688 466.992188 435.746094 466.683594 C 435.4375 466.375 435.160156 466.039062 434.917969 465.675781 C 434.675781 465.3125 434.46875 464.929688 434.304688 464.523438 C 434.136719 464.121094 434.007812 463.703125 433.925781 463.273438 C 433.839844 462.847656 433.796875 462.414062 433.796875 461.976562 L 433.796875 418.125 C 433.796875 417.6875 433.839844 417.253906 433.925781 416.824219 C 434.007812 416.398438 434.136719 415.980469 434.304688 415.578125 C 434.46875 415.171875 434.675781 414.789062 434.917969 414.425781 C 435.160156 414.0625 435.4375 413.726562 435.746094 413.417969 C 436.054688 413.109375 436.390625 412.832031 436.753906 412.589844 C 437.117188 412.347656 437.503906 412.140625 437.90625 411.972656 C 438.308594 411.808594 438.726562 411.679688 439.15625 411.59375 C 439.582031 411.511719 440.015625 411.46875 440.453125 411.46875 Z M 440.453125 411.46875 " fill-opacity="1" fill-rule="nonzero"/></g></g><g clip-path="url(#c5e00663ae)"><g clip-path="url(#ba629569e4)"><path fill="#b7e3ff" d="M 503.804688 411.46875 L 543.703125 411.46875 C 547.378906 411.46875 550.359375 414.449219 550.359375 418.125 L 550.359375 461.976562 C 550.359375 465.652344 547.378906 468.632812 543.703125 468.632812 L 503.804688 468.632812 C 500.128906 468.632812 497.148438 465.652344 497.148438 461.976562 L 497.148438 418.125 C 497.148438 414.449219 500.128906 411.46875 503.804688 411.46875 Z M 503.804688 411.46875 " fill-opacity="1" fill-rule="nonzero"/></g></g><g clip-path="url(#d8afda3679)"><g clip-path="url(#2223265d13)"><path fill="#b7e3ff" d="M 567.15625 411.46875 L 607.054688 411.46875 C 607.492188 411.46875 607.925781 411.511719 608.351562 411.59375 C 608.78125 411.679688 609.199219 411.808594 609.601562 411.972656 C 610.003906 412.140625 610.390625 412.347656 610.753906 412.589844 C 611.117188 412.832031 611.453125 413.109375 611.761719 413.417969 C 612.070312 413.726562 612.347656 414.0625 612.589844 414.425781 C 612.832031 414.789062 613.039062 415.171875 613.203125 415.578125 C 613.371094 415.980469 613.5 416.398438 613.582031 416.824219 C 613.667969 417.253906 613.710938 417.6875 613.710938 418.125 L 613.710938 461.976562 C 613.710938 462.414062 613.667969 462.847656 613.582031 463.273438 C 613.5 463.703125 613.371094 464.121094 613.203125 464.523438 C 613.039062 464.929688 612.832031 465.3125 612.589844 465.675781 C 612.347656 466.039062 612.070312 466.375 611.761719 466.683594 C 611.453125 466.992188 611.117188 467.269531 610.753906 467.511719 C 610.390625 467.753906 610.003906 467.960938 609.601562 468.128906 C 609.199219 468.292969 608.78125 468.421875 608.351562 468.503906 C 607.925781 468.589844 607.492188 468.632812 607.054688 468.632812 L 567.15625 468.632812 C 566.71875 468.632812 566.285156 468.589844 565.855469 468.503906 C 565.425781 468.421875 565.011719 468.292969 564.605469 468.128906 C 564.203125 467.960938 563.820312 467.753906 563.457031 467.511719 C 563.09375 467.269531 562.757812 466.992188 562.445312 466.683594 C 562.136719 466.375 561.863281 466.039062 561.617188 465.675781 C 561.375 465.3125 561.171875 464.929688 561.003906 464.523438 C 560.835938 464.121094 560.710938 463.703125 560.625 463.273438 C 560.539062 462.847656 560.496094 462.414062 560.496094 461.976562 L 560.496094 418.125 C 560.496094 417.6875 560.539062 417.253906 560.625 416.824219 C 560.710938 416.398438 560.835938 415.980469 561.003906 415.578125 C 561.171875 415.171875 561.375 414.789062 561.617188 414.425781 C 561.863281 414.0625 562.136719 413.726562 562.445312 413.417969 C 562.757812 413.109375 563.09375 412.832031 563.457031 412.589844 C 563.820312 412.347656 564.203125 412.140625 564.605469 411.972656 C 565.011719 411.808594 565.425781 411.679688 565.855469 411.59375 C 566.285156 411.511719 566.71875 411.46875 567.15625 411.46875 Z M 567.15625 411.46875 " fill-opacity="1" fill-rule="nonzero"/></g></g><g clip-path="url(#805d519607)"><g clip-path="url(#32b6c1d1d9)"><path fill="#b7e3ff" d="M 573.824219 480.359375 L 709.167969 480.359375 C 712.84375 480.359375 715.828125 483.34375 715.828125 487.015625 L 715.828125 530.867188 C 715.828125 534.542969 712.84375 537.523438 709.167969 537.523438 L 573.824219 537.523438 C 570.148438 537.523438 567.164062 534.542969 567.164062 530.867188 L 567.164062 487.015625 C 567.164062 483.34375 570.148438 480.359375 573.824219 480.359375 Z M 573.824219 480.359375 " fill-opacity="1" fill-rule="nonzero"/></g></g><g clip-path="url(#e9df10238c)"><g clip-path="url(#f913d9e643)"><path fill="#b7e3ff" d="M 162.46875 268.25 L 202.367188 268.25 C 202.804688 268.25 203.238281 268.292969 203.667969 268.375 C 204.097656 268.460938 204.511719 268.589844 204.917969 268.753906 C 205.320312 268.921875 205.703125 269.128906 206.066406 269.371094 C 206.429688 269.613281 206.765625 269.890625 207.074219 270.199219 C 207.386719 270.507812 207.660156 270.84375 207.902344 271.207031 C 208.148438 271.570312 208.351562 271.953125 208.519531 272.359375 C 208.6875 272.761719 208.8125 273.179688 208.898438 273.605469 C 208.984375 274.035156 209.027344 274.46875 209.027344 274.90625 L 209.027344 318.757812 C 209.027344 319.195312 208.984375 319.628906 208.898438 320.054688 C 208.8125 320.484375 208.6875 320.902344 208.519531 321.304688 C 208.351562 321.710938 208.148438 322.09375 207.902344 322.457031 C 207.660156 322.820312 207.386719 323.15625 207.074219 323.464844 C 206.765625 323.773438 206.429688 324.050781 206.066406 324.292969 C 205.703125 324.535156 205.320312 324.742188 204.917969 324.910156 C 204.511719 325.074219 204.097656 325.203125 203.667969 325.285156 C 203.238281 325.371094 202.804688 325.414062 202.367188 325.414062 L 162.46875 325.414062 C 162.03125 325.414062 161.597656 325.371094 161.171875 325.285156 C 160.742188 325.203125 160.324219 325.074219 159.921875 324.910156 C 159.519531 324.742188 159.132812 324.535156 158.769531 324.292969 C 158.40625 324.050781 158.070312 323.773438 157.761719 323.464844 C 157.453125 323.15625 157.175781 322.820312 156.933594 322.457031 C 156.691406 322.09375 156.484375 321.710938 156.320312 321.304688 C 156.152344 320.902344 156.023438 320.484375 155.941406 320.054688 C 155.855469 319.628906 155.8125 319.195312 155.8125 318.757812 L 155.8125 274.90625 C 155.8125 274.46875 155.855469 274.035156 155.941406 273.605469 C 156.023438 273.179688 156.152344 272.761719 156.320312 272.359375 C 156.484375 271.953125 156.691406 271.570312 156.933594 271.207031 C 157.175781 270.84375 157.453125 270.507812 157.761719 270.199219 C 158.070312 269.890625 158.40625 269.613281 158.769531 269.371094 C 159.132812 269.128906 159.519531 268.921875 159.921875 268.753906 C 160.324219 268.589844 160.742188 268.460938 161.171875 268.375 C 161.597656 268.292969 162.03125 268.25 162.46875 268.25 Z M 162.46875 268.25 " fill-opacity="1" fill-rule="nonzero"/></g></g><g clip-path="url(#e3af688fba)"><g clip-path="url(#d901dfef14)"><path fill="#b7e3ff" d="M 225.820312 268.25 L 265.71875 268.25 C 266.15625 268.25 266.589844 268.292969 267.019531 268.375 C 267.445312 268.460938 267.863281 268.589844 268.265625 268.753906 C 268.671875 268.921875 269.054688 269.128906 269.417969 269.371094 C 269.78125 269.613281 270.117188 269.890625 270.425781 270.199219 C 270.734375 270.507812 271.011719 270.84375 271.253906 271.207031 C 271.496094 271.570312 271.703125 271.953125 271.871094 272.359375 C 272.035156 272.761719 272.164062 273.179688 272.25 273.605469 C 272.332031 274.035156 272.375 274.46875 272.375 274.90625 L 272.375 318.757812 C 272.375 319.195312 272.332031 319.628906 272.25 320.054688 C 272.164062 320.484375 272.035156 320.902344 271.871094 321.304688 C 271.703125 321.710938 271.496094 322.09375 271.253906 322.457031 C 271.011719 322.820312 270.734375 323.15625 270.425781 323.464844 C 270.117188 323.773438 269.78125 324.050781 269.417969 324.292969 C 269.054688 324.535156 268.671875 324.742188 268.265625 324.910156 C 267.863281 325.074219 267.445312 325.203125 267.019531 325.285156 C 266.589844 325.371094 266.15625 325.414062 265.71875 325.414062 L 225.820312 325.414062 C 225.382812 325.414062 224.949219 325.371094 224.519531 325.285156 C 224.09375 325.203125 223.675781 325.074219 223.273438 324.910156 C 222.867188 324.742188 222.484375 324.535156 222.121094 324.292969 C 221.757812 324.050781 221.421875 323.773438 221.113281 323.464844 C 220.804688 323.15625 220.527344 322.820312 220.285156 322.457031 C 220.042969 322.09375 219.835938 321.710938 219.667969 321.304688 C 219.5 320.902344 219.375 320.484375 219.289062 320.054688 C 219.203125 319.628906 219.164062 319.195312 219.164062 318.757812 L 219.164062 274.90625 C 219.164062 274.46875 219.203125 274.035156 219.289062 273.605469 C 219.375 273.179688 219.5 272.761719 219.667969 272.359375 C 219.835938 271.953125 220.042969 271.570312 220.285156 271.207031 C 220.527344 270.84375 220.804688 270.507812 221.113281 270.199219 C 221.421875 269.890625 221.757812 269.613281 222.121094 269.371094 C 222.484375 269.128906 222.867188 268.921875 223.273438 268.753906 C 223.675781 268.589844 224.09375 268.460938 224.519531 268.375 C 224.949219 268.292969 225.382812 268.25 225.820312 268.25 Z M 225.820312 268.25 " fill-opacity="1" fill-rule="nonzero"/></g></g><g clip-path="url(#495e22730b)"><g clip-path="url(#a51d84e74b)"><path fill="#b7e3ff" d="M 289.167969 268.25 L 329.070312 268.25 C 329.507812 268.25 329.941406 268.292969 330.367188 268.375 C 330.796875 268.460938 331.214844 268.589844 331.617188 268.753906 C 332.019531 268.921875 332.40625 269.128906 332.769531 269.371094 C 333.132812 269.613281 333.46875 269.890625 333.777344 270.199219 C 334.085938 270.507812 334.363281 270.84375 334.605469 271.207031 C 334.847656 271.570312 335.054688 271.953125 335.21875 272.359375 C 335.386719 272.761719 335.511719 273.179688 335.597656 273.605469 C 335.683594 274.035156 335.726562 274.46875 335.726562 274.90625 L 335.726562 318.757812 C 335.726562 319.195312 335.683594 319.628906 335.597656 320.054688 C 335.511719 320.484375 335.386719 320.902344 335.21875 321.304688 C 335.054688 321.710938 334.847656 322.09375 334.605469 322.457031 C 334.363281 322.820312 334.085938 323.15625 333.777344 323.464844 C 333.46875 323.773438 333.132812 324.050781 332.769531 324.292969 C 332.40625 324.535156 332.019531 324.742188 331.617188 324.910156 C 331.214844 325.074219 330.796875 325.203125 330.367188 325.285156 C 329.941406 325.371094 329.507812 325.414062 329.070312 325.414062 L 289.167969 325.414062 C 288.734375 325.414062 288.300781 325.371094 287.871094 325.285156 C 287.441406 325.203125 287.027344 325.074219 286.621094 324.910156 C 286.21875 324.742188 285.835938 324.535156 285.472656 324.292969 C 285.109375 324.050781 284.773438 323.773438 284.460938 323.464844 C 284.152344 323.15625 283.878906 322.820312 283.632812 322.457031 C 283.390625 322.09375 283.1875 321.710938 283.019531 321.304688 C 282.851562 320.902344 282.726562 320.484375 282.640625 320.054688 C 282.554688 319.628906 282.511719 319.195312 282.511719 318.757812 L 282.511719 274.90625 C 282.511719 274.46875 282.554688 274.035156 282.640625 273.605469 C 282.726562 273.179688 282.851562 272.761719 283.019531 272.359375 C 283.1875 271.953125 283.390625 271.570312 283.632812 271.207031 C 283.878906 270.84375 284.152344 270.507812 284.460938 270.199219 C 284.773438 269.890625 285.109375 269.613281 285.472656 269.371094 C 285.835938 269.128906 286.21875 268.921875 286.621094 268.753906 C 287.027344 268.589844 287.441406 268.460938 287.871094 268.375 C 288.300781 268.292969 288.734375 268.25 289.167969 268.25 Z M 289.167969 268.25 " fill-opacity="1" fill-rule="nonzero"/></g></g><g clip-path="url(#051c58d717)"><g clip-path="url(#7e56cd7172)"><path fill="#b7e3ff" d="M 352.519531 268.25 L 392.421875 268.25 C 392.855469 268.25 393.289062 268.292969 393.71875 268.375 C 394.148438 268.460938 394.5625 268.589844 394.96875 268.753906 C 395.371094 268.921875 395.753906 269.128906 396.117188 269.371094 C 396.480469 269.613281 396.816406 269.890625 397.128906 270.199219 C 397.4375 270.507812 397.710938 270.84375 397.957031 271.207031 C 398.199219 271.570312 398.402344 271.953125 398.570312 272.359375 C 398.738281 272.761719 398.863281 273.179688 398.949219 273.605469 C 399.035156 274.035156 399.078125 274.46875 399.078125 274.90625 L 399.078125 318.757812 C 399.078125 319.195312 399.035156 319.628906 398.949219 320.054688 C 398.863281 320.484375 398.738281 320.902344 398.570312 321.304688 C 398.402344 321.710938 398.199219 322.09375 397.957031 322.457031 C 397.710938 322.820312 397.4375 323.15625 397.128906 323.464844 C 396.816406 323.773438 396.480469 324.050781 396.117188 324.292969 C 395.753906 324.535156 395.371094 324.742188 394.96875 324.910156 C 394.5625 325.074219 394.148438 325.203125 393.71875 325.285156 C 393.289062 325.371094 392.855469 325.414062 392.421875 325.414062 L 352.519531 325.414062 C 352.082031 325.414062 351.648438 325.371094 351.222656 325.285156 C 350.792969 325.203125 350.375 325.074219 349.972656 324.910156 C 349.570312 324.742188 349.183594 324.535156 348.820312 324.292969 C 348.457031 324.050781 348.121094 323.773438 347.8125 323.464844 C 347.503906 323.15625 347.226562 322.820312 346.984375 322.457031 C 346.742188 322.09375 346.535156 321.710938 346.371094 321.304688 C 346.203125 320.902344 346.078125 320.484375 345.992188 320.054688 C 345.90625 319.628906 345.863281 319.195312 345.863281 318.757812 L 345.863281 274.90625 C 345.863281 274.46875 345.90625 274.035156 345.992188 273.605469 C 346.078125 273.179688 346.203125 272.761719 346.371094 272.359375 C 346.539062 271.953125 346.742188 271.570312 346.984375 271.207031 C 347.226562 270.84375 347.503906 270.507812 347.8125 270.199219 C 348.121094 269.890625 348.457031 269.613281 348.820312 269.371094 C 349.183594 269.128906 349.570312 268.921875 349.972656 268.753906 C 350.375 268.589844 350.792969 268.460938 351.222656 268.375 C 351.648438 268.292969 352.082031 268.25 352.519531 268.25 Z M 352.519531 268.25 " fill-opacity="1" fill-rule="nonzero"/></g></g><g clip-path="url(#9919b53fbe)"><g clip-path="url(#f3ed4aac81)"><path fill="#b7e3ff" d="M 415.871094 268.25 L 455.769531 268.25 C 456.207031 268.25 456.640625 268.292969 457.070312 268.375 C 457.496094 268.460938 457.914062 268.589844 458.316406 268.753906 C 458.722656 268.921875 459.105469 269.128906 459.46875 269.371094 C 459.832031 269.613281 460.167969 269.890625 460.476562 270.199219 C 460.785156 270.507812 461.0625 270.84375 461.304688 271.207031 C 461.546875 271.570312 461.753906 271.953125 461.921875 272.359375 C 462.089844 272.761719 462.214844 273.179688 462.300781 273.605469 C 462.386719 274.035156 462.425781 274.46875 462.425781 274.90625 L 462.425781 318.757812 C 462.425781 319.195312 462.386719 319.628906 462.300781 320.054688 C 462.214844 320.484375 462.089844 320.902344 461.921875 321.304688 C 461.753906 321.710938 461.546875 322.09375 461.304688 322.457031 C 461.0625 322.820312 460.785156 323.15625 460.476562 323.464844 C 460.167969 323.773438 459.832031 324.050781 459.46875 324.292969 C 459.105469 324.535156 458.722656 324.742188 458.316406 324.910156 C 457.914062 325.074219 457.496094 325.203125 457.070312 325.285156 C 456.640625 325.371094 456.207031 325.414062 455.769531 325.414062 L 415.871094 325.414062 C 415.433594 325.414062 415 325.371094 414.570312 325.285156 C 414.144531 325.203125 413.726562 325.074219 413.324219 324.910156 C 412.917969 324.742188 412.535156 324.535156 412.171875 324.292969 C 411.808594 324.050781 411.472656 323.773438 411.164062 323.464844 C 410.855469 323.15625 410.578125 322.820312 410.335938 322.457031 C 410.09375 322.09375 409.886719 321.710938 409.71875 321.304688 C 409.554688 320.902344 409.425781 320.484375 409.339844 320.054688 C 409.257812 319.628906 409.214844 319.195312 409.214844 318.757812 L 409.214844 274.90625 C 409.214844 274.46875 409.257812 274.035156 409.339844 273.605469 C 409.425781 273.179688 409.554688 272.761719 409.71875 272.359375 C 409.886719 271.953125 410.09375 271.570312 410.335938 271.207031 C 410.578125 270.84375 410.855469 270.507812 411.164062 270.199219 C 411.472656 269.890625 411.808594 269.613281 412.171875 269.371094 C 412.535156 269.128906 412.917969 268.921875 413.324219 268.753906 C 413.726562 268.589844 414.144531 268.460938 414.570312 268.375 C 415 268.292969 415.433594 268.25 415.871094 268.25 Z M 415.871094 268.25 " fill-opacity="1" fill-rule="nonzero"/></g></g><g clip-path="url(#d41b493f21)"><g clip-path="url(#297194880f)"><path fill="#b7e3ff" d="M 479.222656 268.25 L 519.121094 268.25 C 522.796875 268.25 525.777344 271.230469 525.777344 274.90625 L 525.777344 318.757812 C 525.777344 322.433594 522.796875 325.414062 519.121094 325.414062 L 479.222656 325.414062 C 475.546875 325.414062 472.5625 322.433594 472.5625 318.757812 L 472.5625 274.90625 C 472.5625 271.230469 475.546875 268.25 479.222656 268.25 Z M 479.222656 268.25 " fill-opacity="1" fill-rule="nonzero"/></g></g><g clip-path="url(#7700bc5f3a)"><g clip-path="url(#bcb6d810a7)"><path fill="#b7e3ff" d="M 542.570312 268.25 L 582.472656 268.25 C 582.910156 268.25 583.339844 268.292969 583.769531 268.375 C 584.199219 268.460938 584.613281 268.589844 585.019531 268.753906 C 585.421875 268.921875 585.804688 269.128906 586.167969 269.371094 C 586.535156 269.613281 586.871094 269.890625 587.179688 270.199219 C 587.488281 270.507812 587.761719 270.84375 588.007812 271.207031 C 588.25 271.570312 588.453125 271.953125 588.621094 272.359375 C 588.789062 272.761719 588.914062 273.179688 589 273.605469 C 589.085938 274.035156 589.128906 274.46875 589.128906 274.90625 L 589.128906 318.757812 C 589.128906 319.195312 589.085938 319.628906 589 320.054688 C 588.914062 320.484375 588.789062 320.902344 588.621094 321.304688 C 588.453125 321.710938 588.25 322.09375 588.007812 322.457031 C 587.765625 322.820312 587.488281 323.15625 587.179688 323.464844 C 586.871094 323.773438 586.535156 324.050781 586.167969 324.292969 C 585.804688 324.535156 585.421875 324.742188 585.019531 324.910156 C 584.613281 325.074219 584.199219 325.203125 583.769531 325.285156 C 583.339844 325.371094 582.910156 325.414062 582.472656 325.414062 L 542.570312 325.414062 C 542.132812 325.414062 541.703125 325.371094 541.273438 325.285156 C 540.84375 325.203125 540.429688 325.074219 540.023438 324.910156 C 539.621094 324.742188 539.238281 324.535156 538.871094 324.292969 C 538.507812 324.050781 538.171875 323.773438 537.863281 323.464844 C 537.554688 323.15625 537.277344 322.820312 537.035156 322.457031 C 536.792969 322.09375 536.589844 321.710938 536.421875 321.304688 C 536.253906 320.902344 536.128906 320.484375 536.042969 320.054688 C 535.957031 319.628906 535.914062 319.195312 535.914062 318.757812 L 535.914062 274.90625 C 535.914062 274.46875 535.957031 274.035156 536.042969 273.605469 C 536.128906 273.179688 536.253906 272.761719 536.421875 272.359375 C 536.589844 271.953125 536.792969 271.570312 537.035156 271.207031 C 537.277344 270.84375 537.554688 270.507812 537.863281 270.199219 C 538.171875 269.890625 538.507812 269.613281 538.871094 269.371094 C 539.238281 269.128906 539.621094 268.921875 540.023438 268.753906 C 540.429688 268.589844 540.84375 268.460938 541.273438 268.375 C 541.703125 268.292969 542.132812 268.25 542.570312 268.25 Z M 542.570312 268.25 " fill-opacity="1" fill-rule="nonzero"/></g></g><g clip-path="url(#d4e25718b4)"><g clip-path="url(#6068bfd8ca)"><path fill="#b7e3ff" d="M 605.921875 268.25 L 645.820312 268.25 C 646.257812 268.25 646.691406 268.292969 647.121094 268.375 C 647.550781 268.460938 647.964844 268.589844 648.371094 268.753906 C 648.773438 268.921875 649.15625 269.128906 649.519531 269.371094 C 649.882812 269.613281 650.21875 269.890625 650.527344 270.199219 C 650.839844 270.507812 651.113281 270.84375 651.355469 271.207031 C 651.601562 271.570312 651.804688 271.953125 651.972656 272.359375 C 652.140625 272.761719 652.265625 273.179688 652.351562 273.605469 C 652.4375 274.035156 652.480469 274.46875 652.480469 274.90625 L 652.480469 318.757812 C 652.480469 319.195312 652.4375 319.628906 652.351562 320.054688 C 652.265625 320.484375 652.140625 320.902344 651.972656 321.304688 C 651.804688 321.710938 651.601562 322.09375 651.355469 322.457031 C 651.113281 322.820312 650.839844 323.15625 650.527344 323.464844 C 650.21875 323.773438 649.882812 324.050781 649.519531 324.292969 C 649.15625 324.535156 648.773438 324.742188 648.371094 324.910156 C 647.964844 325.074219 647.550781 325.203125 647.121094 325.285156 C 646.691406 325.371094 646.257812 325.414062 645.820312 325.414062 L 605.921875 325.414062 C 605.484375 325.414062 605.050781 325.371094 604.625 325.285156 C 604.195312 325.203125 603.777344 325.074219 603.375 324.910156 C 602.96875 324.742188 602.585938 324.535156 602.222656 324.292969 C 601.859375 324.050781 601.523438 323.773438 601.214844 323.464844 C 600.90625 323.15625 600.628906 322.820312 600.386719 322.457031 C 600.144531 322.09375 599.9375 321.710938 599.769531 321.304688 C 599.605469 320.902344 599.476562 320.484375 599.394531 320.054688 C 599.308594 319.628906 599.265625 319.195312 599.265625 318.757812 L 599.265625 274.90625 C 599.265625 274.46875 599.308594 274.035156 599.394531 273.605469 C 599.476562 273.179688 599.605469 272.761719 599.769531 272.359375 C 599.9375 271.953125 600.144531 271.570312 600.386719 271.207031 C 600.628906 270.84375 600.90625 270.507812 601.214844 270.199219 C 601.523438 269.890625 601.859375 269.613281 602.222656 269.371094 C 602.585938 269.128906 602.96875 268.921875 603.375 268.753906 C 603.777344 268.589844 604.195312 268.460938 604.625 268.375 C 605.050781 268.292969 605.484375 268.25 605.921875 268.25 Z M 605.921875 268.25 " fill-opacity="1" fill-rule="nonzero"/></g></g><g clip-path="url(#5665ec649a)"><g clip-path="url(#125946e956)"><path fill="#b7e3ff" d="M 669.273438 268.25 L 709.171875 268.25 C 709.609375 268.25 710.042969 268.292969 710.472656 268.375 C 710.898438 268.460938 711.316406 268.589844 711.71875 268.753906 C 712.125 268.921875 712.507812 269.128906 712.871094 269.371094 C 713.234375 269.613281 713.570312 269.890625 713.878906 270.199219 C 714.1875 270.507812 714.464844 270.84375 714.707031 271.207031 C 714.949219 271.570312 715.15625 271.953125 715.324219 272.359375 C 715.488281 272.761719 715.617188 273.179688 715.703125 273.605469 C 715.785156 274.035156 715.828125 274.46875 715.828125 274.90625 L 715.828125 318.757812 C 715.828125 319.195312 715.785156 319.628906 715.703125 320.054688 C 715.617188 320.484375 715.488281 320.902344 715.324219 321.304688 C 715.15625 321.710938 714.949219 322.09375 714.707031 322.457031 C 714.464844 322.820312 714.1875 323.15625 713.878906 323.464844 C 713.570312 323.773438 713.234375 324.050781 712.871094 324.292969 C 712.507812 324.535156 712.125 324.742188 711.71875 324.910156 C 711.316406 325.074219 710.898438 325.203125 710.472656 325.285156 C 710.042969 325.371094 709.609375 325.414062 709.171875 325.414062 L 669.273438 325.414062 C 668.835938 325.414062 668.402344 325.371094 667.972656 325.285156 C 667.542969 325.203125 667.128906 325.074219 666.726562 324.910156 C 666.320312 324.742188 665.9375 324.535156 665.574219 324.292969 C 665.210938 324.050781 664.875 323.773438 664.566406 323.464844 C 664.257812 323.15625 663.980469 322.820312 663.738281 322.457031 C 663.496094 322.09375 663.289062 321.710938 663.121094 321.304688 C 662.953125 320.902344 662.828125 320.484375 662.742188 320.054688 C 662.65625 319.628906 662.613281 319.195312 662.613281 318.757812 L 662.613281 274.90625 C 662.613281 274.46875 662.65625 274.035156 662.742188 273.605469 C 662.828125 273.179688 662.953125 272.761719 663.121094 272.359375 C 663.289062 271.953125 663.496094 271.570312 663.738281 271.207031 C 663.980469 270.84375 664.257812 270.507812 664.566406 270.199219 C 664.875 269.890625 665.210938 269.613281 665.574219 269.371094 C 665.9375 269.128906 666.320312 268.921875 666.726562 268.753906 C 667.128906 268.589844 667.542969 268.460938 667.972656 268.375 C 668.402344 268.292969 668.835938 268.25 669.273438 268.25 Z M 669.273438 268.25 " fill-opacity="1" fill-rule="nonzero"/></g></g></svg>