<svg xmlns="http://www.w3.org/2000/svg" xmlns:xlink="http://www.w3.org/1999/xlink" width="1080" zoomAndPan="magnify" viewBox="0 0 810 809.999993" height="1080" preserveAspectRatio="xMidYMid meet" version="1.0"><defs><clipPath id="38f072689c"><path d="M 313.347656 564.621094 L 403.027344 564.621094 L 403.027344 706.84375 L 313.347656 706.84375 Z M 313.347656 564.621094 " clip-rule="nonzero"/></clipPath><clipPath id="fb655e2cc3"><path d="M 351.597656 564.621094 L 364.777344 564.621094 C 374.921875 564.621094 384.648438 568.648438 391.824219 575.824219 C 398.996094 582.996094 403.027344 592.726562 403.027344 602.871094 L 403.027344 668.488281 C 403.027344 678.632812 398.996094 688.363281 391.824219 695.535156 C 384.648438 702.707031 374.921875 706.738281 364.777344 706.738281 L 351.597656 706.738281 C 341.453125 706.738281 331.726562 702.707031 324.550781 695.535156 C 317.378906 688.363281 313.347656 678.632812 313.347656 668.488281 L 313.347656 602.871094 C 313.347656 592.726562 317.378906 582.996094 324.550781 575.824219 C 331.726562 568.648438 341.453125 564.621094 351.597656 564.621094 Z M 351.597656 564.621094 " clip-rule="nonzero"/></clipPath><clipPath id="6bb707dd95"><path d="M 426.847656 564.621094 L 516.527344 564.621094 L 516.527344 706.84375 L 426.847656 706.84375 Z M 426.847656 564.621094 " clip-rule="nonzero"/></clipPath><clipPath id="57e6cad901"><path d="M 465.097656 564.621094 L 478.277344 564.621094 C 488.421875 564.621094 498.148438 568.648438 505.324219 575.824219 C 512.496094 582.996094 516.527344 592.726562 516.527344 602.871094 L 516.527344 668.488281 C 516.527344 678.632812 512.496094 688.363281 505.324219 695.535156 C 498.148438 702.707031 488.421875 706.738281 478.277344 706.738281 L 465.097656 706.738281 C 454.953125 706.738281 445.226562 702.707031 438.050781 695.535156 C 430.878906 688.363281 426.847656 678.632812 426.847656 668.488281 L 426.847656 602.871094 C 426.847656 592.726562 430.878906 582.996094 438.050781 575.824219 C 445.226562 568.648438 454.953125 564.621094 465.097656 564.621094 Z M 465.097656 564.621094 " clip-rule="nonzero"/></clipPath><clipPath id="a71c5b24f8"><path d="M 199.058594 163.554688 L 335.460938 163.554688 L 335.460938 234.382812 L 199.058594 234.382812 Z M 199.058594 163.554688 " clip-rule="nonzero"/></clipPath><clipPath id="46cea9efcc"><path d="M 234.472656 163.554688 L 299.808594 163.554688 C 319.367188 163.554688 335.222656 179.410156 335.222656 198.96875 C 335.222656 218.527344 319.367188 234.382812 299.808594 234.382812 L 234.472656 234.382812 C 214.914062 234.382812 199.058594 218.527344 199.058594 198.96875 C 199.058594 179.410156 214.914062 163.554688 234.472656 163.554688 Z M 234.472656 163.554688 " clip-rule="nonzero"/></clipPath><clipPath id="8401462581"><path d="M 127.238281 207.445312 L 722.804688 207.445312 L 722.804688 615.105469 L 127.238281 615.105469 Z M 127.238281 207.445312 " clip-rule="nonzero"/></clipPath><clipPath id="8cd9469ae4"><path d="M 187.238281 207.445312 L 662.289062 207.445312 C 678.199219 207.445312 693.460938 213.765625 704.714844 225.019531 C 715.964844 236.269531 722.289062 251.53125 722.289062 267.445312 L 722.289062 555.105469 C 722.289062 571.019531 715.964844 586.28125 704.714844 597.53125 C 693.460938 608.785156 678.199219 615.105469 662.289062 615.105469 L 187.238281 615.105469 C 171.328125 615.105469 156.066406 608.785156 144.8125 597.53125 C 133.5625 586.28125 127.238281 571.019531 127.238281 555.105469 L 127.238281 267.445312 C 127.238281 251.53125 133.5625 236.269531 144.8125 225.019531 C 156.066406 213.765625 171.328125 207.445312 187.238281 207.445312 Z M 187.238281 207.445312 " clip-rule="nonzero"/></clipPath><clipPath id="a869d3811c"><path d="M 311.128906 314.984375 L 394.144531 314.984375 L 394.144531 420.695312 L 311.128906 420.695312 Z M 311.128906 314.984375 " clip-rule="nonzero"/></clipPath><clipPath id="b1a6b0edd7"><path d="M 352.636719 314.984375 C 329.710938 314.984375 311.128906 338.636719 311.128906 367.8125 C 311.128906 396.988281 329.710938 420.636719 352.636719 420.636719 C 375.558594 420.636719 394.144531 396.988281 394.144531 367.8125 C 394.144531 338.636719 375.558594 314.984375 352.636719 314.984375 Z M 352.636719 314.984375 " clip-rule="nonzero"/></clipPath><clipPath id="8cdd5f1a07"><path d="M 329.171875 333.027344 L 349.039062 333.027344 L 349.039062 358.328125 L 329.171875 358.328125 Z M 329.171875 333.027344 " clip-rule="nonzero"/></clipPath><clipPath id="15e8bd4a00"><path d="M 339.105469 333.027344 C 333.621094 333.027344 329.171875 338.6875 329.171875 345.671875 C 329.171875 352.652344 333.621094 358.3125 339.105469 358.3125 C 344.59375 358.3125 349.039062 352.652344 349.039062 345.671875 C 349.039062 338.6875 344.59375 333.027344 339.105469 333.027344 Z M 339.105469 333.027344 " clip-rule="nonzero"/></clipPath><clipPath id="45b619e3a2"><path d="M 585.273438 234.382812 L 680.132812 234.382812 L 680.132812 329.242188 L 585.273438 329.242188 Z M 585.273438 234.382812 " clip-rule="nonzero"/></clipPath><clipPath id="9379e831c3"><path d="M 632.703125 234.382812 C 606.507812 234.382812 585.273438 255.621094 585.273438 281.8125 C 585.273438 308.007812 606.507812 329.242188 632.703125 329.242188 C 658.898438 329.242188 680.132812 308.007812 680.132812 281.8125 C 680.132812 255.621094 658.898438 234.382812 632.703125 234.382812 Z M 632.703125 234.382812 " clip-rule="nonzero"/></clipPath><clipPath id="f108d9c247"><path d="M 599.285156 248.394531 L 667.15625 248.394531 L 667.15625 316.265625 L 599.285156 316.265625 Z M 599.285156 248.394531 " clip-rule="nonzero"/></clipPath><clipPath id="2b810a986b"><path d="M 633.21875 248.394531 C 614.476562 248.394531 599.285156 263.585938 599.285156 282.328125 C 599.285156 301.074219 614.476562 316.265625 633.21875 316.265625 C 651.960938 316.265625 667.15625 301.074219 667.15625 282.328125 C 667.15625 263.585938 651.960938 248.394531 633.21875 248.394531 Z M 633.21875 248.394531 " clip-rule="nonzero"/></clipPath><clipPath id="f687dd9152"><path d="M 294.011719 418.011719 L 324.742188 418.011719 L 324.742188 448.742188 L 294.011719 448.742188 Z M 294.011719 418.011719 " clip-rule="nonzero"/></clipPath><clipPath id="dd66fb0d8b"><path d="M 309.378906 418.011719 C 300.890625 418.011719 294.011719 424.890625 294.011719 433.375 C 294.011719 441.863281 300.890625 448.742188 309.378906 448.742188 C 317.863281 448.742188 324.742188 441.863281 324.742188 433.375 C 324.742188 424.890625 317.863281 418.011719 309.378906 418.011719 Z M 309.378906 418.011719 " clip-rule="nonzero"/></clipPath><clipPath id="082864bb89"><path d="M 524.785156 418.011719 L 555.515625 418.011719 L 555.515625 448.742188 L 524.785156 448.742188 Z M 524.785156 418.011719 " clip-rule="nonzero"/></clipPath><clipPath id="b4cb54bcb7"><path d="M 540.148438 418.011719 C 531.664062 418.011719 524.785156 424.890625 524.785156 433.375 C 524.785156 441.863281 531.664062 448.742188 540.148438 448.742188 C 548.636719 448.742188 555.515625 441.863281 555.515625 433.375 C 555.515625 424.890625 548.636719 418.011719 540.148438 418.011719 Z M 540.148438 418.011719 " clip-rule="nonzero"/></clipPath><clipPath id="551e5ab516"><path d="M 651.164062 466.0625 L 782.410156 466.0625 L 782.410156 597.304688 L 651.164062 597.304688 Z M 651.164062 466.0625 " clip-rule="nonzero"/></clipPath><clipPath id="a56fa595c8"><path d="M 716.785156 466.0625 C 680.546875 466.0625 651.164062 495.441406 651.164062 531.683594 C 651.164062 567.925781 680.546875 597.304688 716.785156 597.304688 C 753.027344 597.304688 782.410156 567.925781 782.410156 531.683594 C 782.410156 495.441406 753.027344 466.0625 716.785156 466.0625 Z M 716.785156 466.0625 " clip-rule="nonzero"/></clipPath><clipPath id="8b6a63f092"><path d="M 668 475 L 757 475 L 757 504 L 668 504 Z M 668 475 " clip-rule="nonzero"/></clipPath><clipPath id="f19c237d24"><path d="M 667.425781 500.539062 L 707.871094 450.453125 L 757.957031 490.898438 L 717.511719 540.984375 Z M 667.425781 500.539062 " clip-rule="nonzero"/></clipPath><clipPath id="2da59e7068"><path d="M 667.425781 500.539062 L 707.871094 450.453125 L 757.957031 490.898438 L 717.511719 540.984375 Z M 667.425781 500.539062 " clip-rule="nonzero"/></clipPath><clipPath id="125cb75750"><path d="M 757.519531 500.082031 L 767.441406 500.082031 L 767.441406 510.007812 L 757.519531 510.007812 Z M 757.519531 500.082031 " clip-rule="nonzero"/></clipPath><clipPath id="97164d71d3"><path d="M 762.480469 500.082031 C 759.738281 500.082031 757.519531 502.304688 757.519531 505.042969 C 757.519531 507.785156 759.738281 510.007812 762.480469 510.007812 C 765.222656 510.007812 767.441406 507.785156 767.441406 505.042969 C 767.441406 502.304688 765.222656 500.082031 762.480469 500.082031 Z M 762.480469 500.082031 " clip-rule="nonzero"/></clipPath><clipPath id="6e4ef6f5d0"><path d="M 147 234 L 183 234 L 183 353 L 147 353 Z M 147 234 " clip-rule="nonzero"/></clipPath><clipPath id="471dd7e688"><path d="M 169.472656 234.382812 L 215.488281 316.921875 L 150.636719 353.078125 L 104.621094 270.539062 Z M 169.472656 234.382812 " clip-rule="nonzero"/></clipPath><clipPath id="c2bca7fb4b"><path d="M 104.761719 270.460938 L 150.777344 353 L 215.632812 316.84375 L 169.617188 234.304688 Z M 104.761719 270.460938 " clip-rule="nonzero"/></clipPath><clipPath id="0c46c47d60"><path d="M 354.273438 433.375 L 495.273438 433.375 L 495.273438 474.625 L 354.273438 474.625 Z M 354.273438 433.375 " clip-rule="nonzero"/></clipPath><clipPath id="21a4f520ba"><path d="M 347.671875 362.847656 L 357.597656 362.847656 L 357.597656 372.773438 L 347.671875 372.773438 Z M 347.671875 362.847656 " clip-rule="nonzero"/></clipPath><clipPath id="2a267ecbb0"><path d="M 352.636719 362.847656 C 349.894531 362.847656 347.671875 365.070312 347.671875 367.8125 C 347.671875 370.550781 349.894531 372.773438 352.636719 372.773438 C 355.375 372.773438 357.597656 370.550781 357.597656 367.8125 C 357.597656 365.070312 355.375 362.847656 352.636719 362.847656 Z M 352.636719 362.847656 " clip-rule="nonzero"/></clipPath><clipPath id="3f373a336b"><path d="M 451.882812 314.984375 L 534.898438 314.984375 L 534.898438 420.695312 L 451.882812 420.695312 Z M 451.882812 314.984375 " clip-rule="nonzero"/></clipPath><clipPath id="d859940fcd"><path d="M 493.390625 314.984375 C 470.464844 314.984375 451.882812 338.636719 451.882812 367.8125 C 451.882812 396.988281 470.464844 420.636719 493.390625 420.636719 C 516.3125 420.636719 534.898438 396.988281 534.898438 367.8125 C 534.898438 338.636719 516.3125 314.984375 493.390625 314.984375 Z M 493.390625 314.984375 " clip-rule="nonzero"/></clipPath><clipPath id="7ed66fa86e"><path d="M 473.523438 333.027344 L 493.390625 333.027344 L 493.390625 358.328125 L 473.523438 358.328125 Z M 473.523438 333.027344 " clip-rule="nonzero"/></clipPath><clipPath id="f4ea139677"><path d="M 483.457031 333.027344 C 477.96875 333.027344 473.523438 338.6875 473.523438 345.671875 C 473.523438 352.652344 477.96875 358.3125 483.457031 358.3125 C 488.941406 358.3125 493.390625 352.652344 493.390625 345.671875 C 493.390625 338.6875 488.941406 333.027344 483.457031 333.027344 Z M 483.457031 333.027344 " clip-rule="nonzero"/></clipPath><clipPath id="e5931ce9c6"><path d="M 488.425781 362.847656 L 498.351562 362.847656 L 498.351562 372.773438 L 488.425781 372.773438 Z M 488.425781 362.847656 " clip-rule="nonzero"/></clipPath><clipPath id="9ce1a4faf1"><path d="M 493.390625 362.847656 C 490.648438 362.847656 488.425781 365.070312 488.425781 367.8125 C 488.425781 370.550781 490.648438 372.773438 493.390625 372.773438 C 496.128906 372.773438 498.351562 370.550781 498.351562 367.8125 C 498.351562 365.070312 496.128906 362.847656 493.390625 362.847656 Z M 493.390625 362.847656 " clip-rule="nonzero"/></clipPath><clipPath id="0bfd39c61b"><path d="M 39.140625 286.769531 L 170.382812 286.769531 L 170.382812 418.011719 L 39.140625 418.011719 Z M 39.140625 286.769531 " clip-rule="nonzero"/></clipPath><clipPath id="b2d79a4f3e"><path d="M 104.761719 286.769531 C 68.519531 286.769531 39.140625 316.148438 39.140625 352.390625 C 39.140625 388.632812 68.519531 418.011719 104.761719 418.011719 C 141.003906 418.011719 170.382812 388.632812 170.382812 352.390625 C 170.382812 316.148438 141.003906 286.769531 104.761719 286.769531 Z M 104.761719 286.769531 " clip-rule="nonzero"/></clipPath><clipPath id="bd5ad69de9"><path d="M 57 300 L 146 300 L 146 329 L 57 329 Z M 57 300 " clip-rule="nonzero"/></clipPath><clipPath id="34d0ccd940"><path d="M 56.5 325.582031 L 96.945312 275.5 L 147.03125 315.945312 L 106.585938 366.03125 Z M 56.5 325.582031 " clip-rule="nonzero"/></clipPath><clipPath id="b40cceac9f"><path d="M 56.5 325.582031 L 96.945312 275.5 L 147.03125 315.945312 L 106.585938 366.03125 Z M 56.5 325.582031 " clip-rule="nonzero"/></clipPath><clipPath id="29f59b5b49"><path d="M 146.59375 326.121094 L 156.519531 326.121094 L 156.519531 336.046875 L 146.59375 336.046875 Z M 146.59375 326.121094 " clip-rule="nonzero"/></clipPath><clipPath id="947fdbf1e5"><path d="M 151.554688 326.121094 C 148.816406 326.121094 146.59375 328.34375 146.59375 331.085938 C 146.59375 333.824219 148.816406 336.046875 151.554688 336.046875 C 154.296875 336.046875 156.519531 333.824219 156.519531 331.085938 C 156.519531 328.34375 154.296875 326.121094 151.554688 326.121094 Z M 151.554688 326.121094 " clip-rule="nonzero"/></clipPath><clipPath id="229487c9b3"><path d="M 62 242 L 116 242 L 116 263 L 62 263 Z M 62 242 " clip-rule="nonzero"/></clipPath><clipPath id="1605a75d9e"><path d="M 62.246094 261.234375 L 83.371094 228.449219 L 116.152344 249.574219 L 95.027344 282.355469 Z M 62.246094 261.234375 " clip-rule="nonzero"/></clipPath><clipPath id="8bb4ef8d51"><path d="M 62.246094 261.234375 L 83.371094 228.449219 L 116.152344 249.574219 L 95.027344 282.355469 Z M 62.246094 261.234375 " clip-rule="nonzero"/></clipPath><clipPath id="22f6ccdbda"><path d="M 62.246094 261.234375 L 83.371094 228.449219 L 116.152344 249.574219 L 95.027344 282.355469 Z M 62.246094 261.234375 " clip-rule="nonzero"/></clipPath><clipPath id="9cae260381"><path d="M 59 226 L 110 226 L 110 244 L 59 244 Z M 59 226 " clip-rule="nonzero"/></clipPath><clipPath id="879a0bc9ec"><path d="M 58.722656 242.476562 L 80.105469 212.585938 L 109.992188 233.96875 L 88.613281 263.859375 Z M 58.722656 242.476562 " clip-rule="nonzero"/></clipPath><clipPath id="5bda72d906"><path d="M 58.722656 242.476562 L 80.105469 212.585938 L 109.992188 233.96875 L 88.613281 263.859375 Z M 58.722656 242.476562 " clip-rule="nonzero"/></clipPath><clipPath id="970cd5d23e"><path d="M 58.722656 242.476562 L 80.105469 212.585938 L 109.992188 233.96875 L 88.613281 263.859375 Z M 58.722656 242.476562 " clip-rule="nonzero"/></clipPath><clipPath id="b3e7831c9b"><path d="M 33 464 L 86 464 L 86 485 L 33 485 Z M 33 464 " clip-rule="nonzero"/></clipPath><clipPath id="9b41189686"><path d="M 32.625 465.589844 L 65.839844 445.152344 L 86.277344 478.371094 L 53.0625 498.808594 Z M 32.625 465.589844 " clip-rule="nonzero"/></clipPath><clipPath id="bc102e4d60"><path d="M 86.195312 478.351562 L 52.980469 498.789062 L 32.542969 465.570312 L 65.761719 445.132812 Z M 86.195312 478.351562 " clip-rule="nonzero"/></clipPath><clipPath id="87160e33e0"><path d="M 86.195312 478.351562 L 52.980469 498.789062 L 32.542969 465.570312 L 65.761719 445.132812 Z M 86.195312 478.351562 " clip-rule="nonzero"/></clipPath><clipPath id="d3c359ac86"><path d="M 38 445 L 87 445 L 87 467 L 38 467 Z M 38 445 " clip-rule="nonzero"/></clipPath><clipPath id="aaf82f1ceb"><path d="M 37.570312 446.792969 L 69.769531 429.078125 L 87.484375 461.277344 L 55.289062 478.992188 Z M 37.570312 446.792969 " clip-rule="nonzero"/></clipPath><clipPath id="48ffeb7c00"><path d="M 87.390625 461.25 L 55.191406 478.964844 L 37.476562 446.765625 L 69.675781 429.050781 Z M 87.390625 461.25 " clip-rule="nonzero"/></clipPath><clipPath id="3c7c526b06"><path d="M 87.390625 461.25 L 55.191406 478.964844 L 37.476562 446.765625 L 69.675781 429.050781 Z M 87.390625 461.25 " clip-rule="nonzero"/></clipPath></defs><g clip-path="url(#38f072689c)"><g clip-path="url(#fb655e2cc3)"><path fill="#e68a22" d="M 313.347656 564.621094 L 403.027344 564.621094 L 403.027344 706.84375 L 313.347656 706.84375 Z M 313.347656 564.621094 " fill-opacity="1" fill-rule="nonzero"/></g></g><g clip-path="url(#6bb707dd95)"><g clip-path="url(#57e6cad901)"><path fill="#e68a22" d="M 426.847656 564.621094 L 516.527344 564.621094 L 516.527344 706.84375 L 426.847656 706.84375 Z M 426.847656 564.621094 " fill-opacity="1" fill-rule="nonzero"/></g></g><g clip-path="url(#a71c5b24f8)"><g clip-path="url(#46cea9efcc)"><path fill="#e68a22" d="M 199.058594 163.554688 L 335.183594 163.554688 L 335.183594 234.382812 L 199.058594 234.382812 Z M 199.058594 163.554688 " fill-opacity="1" fill-rule="nonzero"/></g></g><g clip-path="url(#8401462581)"><g clip-path="url(#8cd9469ae4)"><path fill="#f8b749" d="M 127.238281 207.445312 L 722.804688 207.445312 L 722.804688 615.105469 L 127.238281 615.105469 Z M 127.238281 207.445312 " fill-opacity="1" fill-rule="nonzero"/></g></g><g clip-path="url(#a869d3811c)"><g clip-path="url(#b1a6b0edd7)"><path fill="#000000" d="M 311.128906 314.984375 L 394.144531 314.984375 L 394.144531 420.695312 L 311.128906 420.695312 Z M 311.128906 314.984375 " fill-opacity="1" fill-rule="nonzero"/></g></g><g clip-path="url(#8cdd5f1a07)"><g clip-path="url(#15e8bd4a00)"><path fill="#ffffff" d="M 329.171875 333.027344 L 349.039062 333.027344 L 349.039062 358.328125 L 329.171875 358.328125 Z M 329.171875 333.027344 " fill-opacity="1" fill-rule="nonzero"/></g></g><g clip-path="url(#45b619e3a2)"><g clip-path="url(#9379e831c3)"><path fill="#577ab6" d="M 585.273438 234.382812 L 680.132812 234.382812 L 680.132812 329.242188 L 585.273438 329.242188 Z M 585.273438 234.382812 " fill-opacity="1" fill-rule="nonzero"/></g></g><g clip-path="url(#f108d9c247)"><g clip-path="url(#2b810a986b)"><path fill="#a7deef" d="M 599.285156 248.394531 L 667.15625 248.394531 L 667.15625 316.265625 L 599.285156 316.265625 Z M 599.285156 248.394531 " fill-opacity="1" fill-rule="nonzero"/></g></g><g clip-path="url(#f687dd9152)"><g clip-path="url(#dd66fb0d8b)"><path fill="#d64d4d" d="M 294.011719 418.011719 L 324.742188 418.011719 L 324.742188 448.742188 L 294.011719 448.742188 Z M 294.011719 418.011719 " fill-opacity="1" fill-rule="nonzero"/></g></g><g clip-path="url(#082864bb89)"><g clip-path="url(#b4cb54bcb7)"><path fill="#d64d4d" d="M 524.785156 418.011719 L 555.515625 418.011719 L 555.515625 448.742188 L 524.785156 448.742188 Z M 524.785156 418.011719 " fill-opacity="1" fill-rule="nonzero"/></g></g><g clip-path="url(#551e5ab516)"><g clip-path="url(#a56fa595c8)"><path fill="#e68a22" d="M 651.164062 466.0625 L 782.410156 466.0625 L 782.410156 597.304688 L 651.164062 597.304688 Z M 651.164062 466.0625 " fill-opacity="1" fill-rule="nonzero"/></g></g><g clip-path="url(#8b6a63f092)"><g clip-path="url(#f19c237d24)"><g clip-path="url(#2da59e7068)"><path fill="#ffffff" d="M 755.515625 493.429688 C 754.40625 494.796875 752.398438 495.011719 751.03125 493.90625 C 727.652344 475.027344 693.269531 478.6875 674.390625 502.066406 C 673.285156 503.433594 671.277344 503.648438 669.90625 502.542969 C 668.535156 501.4375 668.324219 499.429688 669.429688 498.058594 C 674.589844 491.667969 680.851562 486.472656 688.039062 482.628906 C 694.980469 478.914062 702.484375 476.609375 710.339844 475.773438 C 718.199219 474.9375 726.023438 475.613281 733.585938 477.777344 C 741.421875 480.023438 748.636719 483.78125 755.027344 488.945312 C 756.40625 490.050781 756.621094 492.058594 755.515625 493.429688 Z M 755.515625 493.429688 " fill-opacity="1" fill-rule="nonzero"/></g></g></g><g clip-path="url(#125cb75750)"><g clip-path="url(#97164d71d3)"><path fill="#ffffff" d="M 757.519531 500.082031 L 767.441406 500.082031 L 767.441406 510.007812 L 757.519531 510.007812 Z M 757.519531 500.082031 " fill-opacity="1" fill-rule="nonzero"/></g></g><g clip-path="url(#6e4ef6f5d0)"><g clip-path="url(#471dd7e688)"><g clip-path="url(#c2bca7fb4b)"><path fill="#ffffff" d="M 150.664062 352.796875 C 151.609375 324.460938 159.496094 291.230469 182.265625 257.332031 L 169.609375 234.628906 C 135.253906 292.285156 150.519531 350.367188 150.664062 352.796875 Z M 150.664062 352.796875 " fill-opacity="1" fill-rule="nonzero"/></g></g></g><g clip-path="url(#0c46c47d60)"><path fill="#000000" d="M 490.742188 456.289062 C 480.765625 456.289062 472.605469 448.054688 472.605469 437.988281 C 472.605469 435.246094 470.792969 433.414062 468.074219 433.414062 C 465.351562 433.414062 463.539062 435.246094 463.539062 437.988281 C 463.539062 443.480469 465.351562 448.511719 468.074219 452.628906 C 459.910156 457.660156 443.589844 465.4375 418.203125 465.4375 C 381.023438 465.4375 362.890625 448.511719 362.4375 448.511719 C 360.621094 446.683594 357.902344 446.683594 356.089844 448.511719 C 354.273438 450.339844 354.273438 453.085938 356.089844 454.917969 C 356.996094 455.832031 376.945312 474.585938 418.203125 474.585938 C 446.765625 474.585938 465.351562 465.4375 473.964844 459.492188 C 478.5 463.152344 484.394531 465.4375 490.742188 465.4375 C 493.460938 465.4375 495.273438 463.609375 495.273438 460.863281 C 495.273438 458.117188 493.460938 456.289062 490.742188 456.289062 Z M 490.742188 456.289062 " fill-opacity="1" fill-rule="nonzero"/></g><g clip-path="url(#21a4f520ba)"><g clip-path="url(#2a267ecbb0)"><path fill="#ffffff" d="M 347.671875 362.847656 L 357.597656 362.847656 L 357.597656 372.773438 L 347.671875 372.773438 Z M 347.671875 362.847656 " fill-opacity="1" fill-rule="nonzero"/></g></g><g clip-path="url(#3f373a336b)"><g clip-path="url(#d859940fcd)"><path fill="#000000" d="M 451.882812 314.984375 L 534.898438 314.984375 L 534.898438 420.695312 L 451.882812 420.695312 Z M 451.882812 314.984375 " fill-opacity="1" fill-rule="nonzero"/></g></g><g clip-path="url(#7ed66fa86e)"><g clip-path="url(#f4ea139677)"><path fill="#ffffff" d="M 473.523438 333.027344 L 493.390625 333.027344 L 493.390625 358.328125 L 473.523438 358.328125 Z M 473.523438 333.027344 " fill-opacity="1" fill-rule="nonzero"/></g></g><g clip-path="url(#e5931ce9c6)"><g clip-path="url(#9ce1a4faf1)"><path fill="#ffffff" d="M 488.425781 362.847656 L 498.351562 362.847656 L 498.351562 372.773438 L 488.425781 372.773438 Z M 488.425781 362.847656 " fill-opacity="1" fill-rule="nonzero"/></g></g><g clip-path="url(#0bfd39c61b)"><g clip-path="url(#b2d79a4f3e)"><path fill="#e68a22" d="M 39.140625 286.769531 L 170.382812 286.769531 L 170.382812 418.011719 L 39.140625 418.011719 Z M 39.140625 286.769531 " fill-opacity="1" fill-rule="nonzero"/></g></g><g clip-path="url(#bd5ad69de9)"><g clip-path="url(#34d0ccd940)"><g clip-path="url(#b40cceac9f)"><path fill="#ffffff" d="M 144.589844 318.472656 C 143.484375 319.84375 141.472656 320.054688 140.105469 318.949219 C 116.726562 300.070312 82.34375 303.730469 63.464844 327.109375 C 62.359375 328.480469 60.351562 328.695312 58.980469 327.585938 C 57.613281 326.480469 57.398438 324.472656 58.503906 323.101562 C 63.664062 316.710938 69.925781 311.519531 77.113281 307.671875 C 84.058594 303.957031 91.558594 301.652344 99.414062 300.816406 C 107.273438 299.980469 115.097656 300.65625 122.660156 302.824219 C 130.5 305.066406 137.710938 308.828125 144.101562 313.988281 C 145.480469 315.09375 145.695312 317.101562 144.589844 318.472656 Z M 144.589844 318.472656 " fill-opacity="1" fill-rule="nonzero"/></g></g></g><g clip-path="url(#29f59b5b49)"><g clip-path="url(#947fdbf1e5)"><path fill="#ffffff" d="M 146.59375 326.121094 L 156.519531 326.121094 L 156.519531 336.046875 L 146.59375 336.046875 Z M 146.59375 326.121094 " fill-opacity="1" fill-rule="nonzero"/></g></g><g clip-path="url(#229487c9b3)"><g clip-path="url(#1605a75d9e)"><g clip-path="url(#8bb4ef8d51)"><g clip-path="url(#22f6ccdbda)"><path fill="#000000" d="M 115.101562 251.207031 C 114.519531 252.105469 113.316406 252.367188 112.417969 251.785156 C 97.039062 241.878906 76.46875 246.328125 66.558594 261.703125 C 65.980469 262.605469 64.777344 262.863281 63.875 262.285156 C 62.976562 261.703125 62.714844 260.5 63.296875 259.601562 C 66.003906 255.398438 69.457031 251.847656 73.558594 249.050781 C 77.519531 246.351562 81.910156 244.46875 86.613281 243.453125 C 91.3125 242.4375 96.09375 242.339844 100.8125 243.15625 C 105.703125 244.007812 110.3125 245.816406 114.515625 248.523438 C 115.421875 249.101562 115.679688 250.304688 115.101562 251.207031 Z M 115.101562 251.207031 " fill-opacity="1" fill-rule="nonzero"/></g></g></g></g><g clip-path="url(#9cae260381)"><g clip-path="url(#879a0bc9ec)"><g clip-path="url(#5bda72d906)"><g clip-path="url(#970cd5d23e)"><path fill="#000000" d="M 108.929688 235.457031 C 108.34375 236.277344 107.199219 236.46875 106.378906 235.878906 C 92.359375 225.851562 72.792969 229.097656 62.761719 243.117188 C 62.175781 243.9375 61.03125 244.128906 60.210938 243.542969 C 59.390625 242.953125 59.199219 241.808594 59.789062 240.988281 C 62.527344 237.15625 65.941406 233.972656 69.925781 231.53125 C 73.78125 229.171875 78 227.601562 82.46875 226.859375 C 86.941406 226.117188 91.445312 226.242188 95.847656 227.226562 C 100.410156 228.253906 104.667969 230.164062 108.5 232.90625 C 109.328125 233.492188 109.515625 234.636719 108.929688 235.457031 Z M 108.929688 235.457031 " fill-opacity="1" fill-rule="nonzero"/></g></g></g></g><g clip-path="url(#b3e7831c9b)"><g clip-path="url(#9b41189686)"><g clip-path="url(#bc102e4d60)"><g clip-path="url(#87160e33e0)"><path fill="#000000" d="M 34.199219 464.554688 C 35.109375 463.992188 36.308594 464.277344 36.867188 465.191406 C 46.453125 480.769531 66.929688 485.648438 82.507812 476.0625 C 83.421875 475.5 84.617188 475.785156 85.179688 476.699219 C 85.742188 477.609375 85.457031 478.808594 84.542969 479.367188 C 80.285156 481.988281 75.636719 483.699219 70.730469 484.445312 C 65.992188 485.171875 61.21875 484.96875 56.539062 483.855469 C 51.859375 482.742188 47.507812 480.765625 43.605469 477.984375 C 39.5625 475.105469 36.1875 471.484375 33.566406 467.226562 C 33 466.3125 33.285156 465.117188 34.199219 464.554688 Z M 34.199219 464.554688 " fill-opacity="1" fill-rule="nonzero"/></g></g></g></g><g clip-path="url(#d3c359ac86)"><g clip-path="url(#aaf82f1ceb)"><g clip-path="url(#48ffeb7c00)"><g clip-path="url(#3c7c526b06)"><path fill="#000000" d="M 39.078125 445.886719 C 39.964844 445.398438 41.078125 445.722656 41.5625 446.605469 C 49.875 461.707031 68.921875 467.234375 84.023438 458.925781 C 84.910156 458.4375 86.019531 458.761719 86.507812 459.644531 C 86.996094 460.53125 86.671875 461.644531 85.789062 462.128906 C 81.660156 464.402344 77.207031 465.800781 72.554688 466.277344 C 68.0625 466.742188 63.578125 466.335938 59.226562 465.074219 C 54.871094 463.808594 50.867188 461.75 47.320312 458.957031 C 43.648438 456.0625 40.636719 452.5 38.363281 448.371094 C 37.871094 447.484375 38.195312 446.371094 39.078125 445.886719 Z M 39.078125 445.886719 " fill-opacity="1" fill-rule="nonzero"/></g></g></g></g></svg>