<svg xmlns="http://www.w3.org/2000/svg" xmlns:xlink="http://www.w3.org/1999/xlink" width="1080" zoomAndPan="magnify" viewBox="0 0 810 809.999993" height="1080" preserveAspectRatio="xMidYMid meet" version="1.0"><defs><clipPath id="3f6a1bee08"><path d="M 87.199219 126 L 723 126 L 723 683.074219 L 87.199219 683.074219 Z M 87.199219 126 " clip-rule="nonzero"/></clipPath><clipPath id="57c741f0c0"><path d="M 112.398438 215.726562 C 60.863281 300.628906 97.167969 383.265625 142.796875 427.128906 L 409.574219 683.074219 L 670.71875 428.042969 C 713.15625 380.859375 729.421875 330.8125 720.386719 275.082031 C 707.90625 197.992188 644.378906 138.183594 565.902344 129.644531 C 517.773438 124.460938 471.277344 138.082031 434.988281 168.234375 C 425.222656 176.347656 416.492188 185.417969 408.882812 195.277344 C 399.855469 184.054688 389.273438 173.785156 377.300781 164.683594 C 335.570312 132.972656 282.453125 120.378906 231.429688 130.171875 C 183.105469 139.507812 139.726562 170.679688 112.398438 215.726562 Z M 112.398438 215.726562 " clip-rule="nonzero"/></clipPath></defs><g clip-path="url(#3f6a1bee08)"><g clip-path="url(#57c741f0c0)"><path fill="#000000" d="M 87.199219 126.925781 L 723.730469 126.925781 L 723.730469 683.074219 L 87.199219 683.074219 Z M 87.199219 126.925781 " fill-opacity="1" fill-rule="nonzero"/></g></g></svg>